G04 EAGLE Gerber RS-274X export*
G75*
%MOMM*%
%FSLAX34Y34*%
%LPD*%
%INSolderpaste Top*%
%IPPOS*%
%AMOC8*
5,1,8,0,0,1.08239X$1,22.5*%
G01*
%ADD10R,0.600000X0.600000*%
%ADD11R,0.900000X0.800000*%
%ADD12R,0.400000X0.800000*%
%ADD13R,0.250000X0.650000*%
%ADD14C,0.250000*%
%ADD15R,0.850000X2.200000*%
%ADD16R,1.000000X1.050000*%
%ADD17R,1.000000X1.800000*%
%ADD18R,0.850000X0.900000*%
%ADD19R,1.800000X0.800000*%
%ADD20R,4.200000X1.700000*%
%ADD21R,0.630000X0.830000*%

G36*
X1543239Y977924D02*
X1543239Y977924D01*
X1543266Y977926D01*
X1543301Y977952D01*
X1543341Y977970D01*
X1543356Y977993D01*
X1543378Y978009D01*
X1543394Y978050D01*
X1543418Y978087D01*
X1543425Y978130D01*
X1543428Y978139D01*
X1543427Y978146D01*
X1543429Y978160D01*
X1543429Y1002160D01*
X1543424Y1002176D01*
X1543427Y1002193D01*
X1543405Y1002243D01*
X1543390Y1002294D01*
X1543377Y1002305D01*
X1543370Y1002321D01*
X1543325Y1002351D01*
X1543285Y1002386D01*
X1543268Y1002389D01*
X1543254Y1002398D01*
X1543180Y1002409D01*
X1519180Y1002409D01*
X1519138Y1002397D01*
X1519094Y1002394D01*
X1519072Y1002378D01*
X1519046Y1002370D01*
X1519017Y1002337D01*
X1518982Y1002311D01*
X1518972Y1002285D01*
X1518954Y1002265D01*
X1518947Y1002221D01*
X1518932Y1002181D01*
X1518937Y1002154D01*
X1518933Y1002127D01*
X1518951Y1002086D01*
X1518960Y1002044D01*
X1518986Y1002008D01*
X1518990Y1001999D01*
X1518995Y1001995D01*
X1519004Y1001984D01*
X1543004Y977984D01*
X1543042Y977963D01*
X1543075Y977934D01*
X1543102Y977930D01*
X1543126Y977917D01*
X1543170Y977920D01*
X1543213Y977913D01*
X1543239Y977924D01*
G37*
G36*
X1055559Y977924D02*
X1055559Y977924D01*
X1055586Y977926D01*
X1055621Y977952D01*
X1055661Y977970D01*
X1055676Y977993D01*
X1055698Y978009D01*
X1055714Y978050D01*
X1055738Y978087D01*
X1055745Y978130D01*
X1055748Y978139D01*
X1055747Y978146D01*
X1055749Y978160D01*
X1055749Y1002160D01*
X1055744Y1002176D01*
X1055747Y1002193D01*
X1055725Y1002243D01*
X1055710Y1002294D01*
X1055697Y1002305D01*
X1055690Y1002321D01*
X1055645Y1002351D01*
X1055605Y1002386D01*
X1055588Y1002389D01*
X1055574Y1002398D01*
X1055500Y1002409D01*
X1031500Y1002409D01*
X1031458Y1002397D01*
X1031414Y1002394D01*
X1031392Y1002378D01*
X1031366Y1002370D01*
X1031337Y1002337D01*
X1031302Y1002311D01*
X1031292Y1002285D01*
X1031274Y1002265D01*
X1031267Y1002221D01*
X1031252Y1002181D01*
X1031257Y1002154D01*
X1031253Y1002127D01*
X1031271Y1002086D01*
X1031280Y1002044D01*
X1031306Y1002008D01*
X1031310Y1001999D01*
X1031315Y1001995D01*
X1031324Y1001984D01*
X1055324Y977984D01*
X1055362Y977963D01*
X1055395Y977934D01*
X1055422Y977930D01*
X1055446Y977917D01*
X1055490Y977920D01*
X1055533Y977913D01*
X1055559Y977924D01*
G37*
G36*
X405319Y977924D02*
X405319Y977924D01*
X405346Y977926D01*
X405381Y977952D01*
X405421Y977970D01*
X405436Y977993D01*
X405458Y978009D01*
X405474Y978050D01*
X405498Y978087D01*
X405505Y978130D01*
X405508Y978139D01*
X405507Y978146D01*
X405509Y978160D01*
X405509Y1002160D01*
X405504Y1002176D01*
X405507Y1002193D01*
X405485Y1002243D01*
X405470Y1002294D01*
X405457Y1002305D01*
X405450Y1002321D01*
X405405Y1002351D01*
X405365Y1002386D01*
X405348Y1002389D01*
X405334Y1002398D01*
X405260Y1002409D01*
X381260Y1002409D01*
X381218Y1002397D01*
X381174Y1002394D01*
X381152Y1002378D01*
X381126Y1002370D01*
X381097Y1002337D01*
X381062Y1002311D01*
X381052Y1002285D01*
X381034Y1002265D01*
X381027Y1002221D01*
X381012Y1002181D01*
X381017Y1002154D01*
X381013Y1002127D01*
X381031Y1002086D01*
X381040Y1002044D01*
X381066Y1002008D01*
X381070Y1001999D01*
X381075Y1001995D01*
X381084Y1001984D01*
X405084Y977984D01*
X405122Y977963D01*
X405155Y977934D01*
X405182Y977930D01*
X405206Y977917D01*
X405250Y977920D01*
X405293Y977913D01*
X405319Y977924D01*
G37*
G36*
X567879Y977924D02*
X567879Y977924D01*
X567906Y977926D01*
X567941Y977952D01*
X567981Y977970D01*
X567996Y977993D01*
X568018Y978009D01*
X568034Y978050D01*
X568058Y978087D01*
X568065Y978130D01*
X568068Y978139D01*
X568067Y978146D01*
X568069Y978160D01*
X568069Y1002160D01*
X568064Y1002176D01*
X568067Y1002193D01*
X568045Y1002243D01*
X568030Y1002294D01*
X568017Y1002305D01*
X568010Y1002321D01*
X567965Y1002351D01*
X567925Y1002386D01*
X567908Y1002389D01*
X567894Y1002398D01*
X567820Y1002409D01*
X543820Y1002409D01*
X543778Y1002397D01*
X543734Y1002394D01*
X543712Y1002378D01*
X543686Y1002370D01*
X543657Y1002337D01*
X543622Y1002311D01*
X543612Y1002285D01*
X543594Y1002265D01*
X543587Y1002221D01*
X543572Y1002181D01*
X543577Y1002154D01*
X543573Y1002127D01*
X543591Y1002086D01*
X543600Y1002044D01*
X543626Y1002008D01*
X543630Y1001999D01*
X543635Y1001995D01*
X543644Y1001984D01*
X567644Y977984D01*
X567682Y977963D01*
X567715Y977934D01*
X567742Y977930D01*
X567766Y977917D01*
X567810Y977920D01*
X567853Y977913D01*
X567879Y977924D01*
G37*
G36*
X730439Y977924D02*
X730439Y977924D01*
X730466Y977926D01*
X730501Y977952D01*
X730541Y977970D01*
X730556Y977993D01*
X730578Y978009D01*
X730594Y978050D01*
X730618Y978087D01*
X730625Y978130D01*
X730628Y978139D01*
X730627Y978146D01*
X730629Y978160D01*
X730629Y1002160D01*
X730624Y1002176D01*
X730627Y1002193D01*
X730605Y1002243D01*
X730590Y1002294D01*
X730577Y1002305D01*
X730570Y1002321D01*
X730525Y1002351D01*
X730485Y1002386D01*
X730468Y1002389D01*
X730454Y1002398D01*
X730380Y1002409D01*
X706380Y1002409D01*
X706338Y1002397D01*
X706294Y1002394D01*
X706272Y1002378D01*
X706246Y1002370D01*
X706217Y1002337D01*
X706182Y1002311D01*
X706172Y1002285D01*
X706154Y1002265D01*
X706147Y1002221D01*
X706132Y1002181D01*
X706137Y1002154D01*
X706133Y1002127D01*
X706151Y1002086D01*
X706160Y1002044D01*
X706186Y1002008D01*
X706190Y1001999D01*
X706195Y1001995D01*
X706204Y1001984D01*
X730204Y977984D01*
X730242Y977963D01*
X730275Y977934D01*
X730302Y977930D01*
X730326Y977917D01*
X730370Y977920D01*
X730413Y977913D01*
X730439Y977924D01*
G37*
G36*
X80199Y977924D02*
X80199Y977924D01*
X80226Y977926D01*
X80261Y977952D01*
X80301Y977970D01*
X80316Y977993D01*
X80338Y978009D01*
X80354Y978050D01*
X80378Y978087D01*
X80385Y978130D01*
X80388Y978139D01*
X80387Y978146D01*
X80389Y978160D01*
X80389Y1002160D01*
X80384Y1002176D01*
X80387Y1002193D01*
X80365Y1002243D01*
X80350Y1002294D01*
X80337Y1002305D01*
X80330Y1002321D01*
X80285Y1002351D01*
X80245Y1002386D01*
X80228Y1002389D01*
X80214Y1002398D01*
X80140Y1002409D01*
X56140Y1002409D01*
X56098Y1002397D01*
X56054Y1002394D01*
X56032Y1002378D01*
X56006Y1002370D01*
X55977Y1002337D01*
X55942Y1002311D01*
X55932Y1002285D01*
X55914Y1002265D01*
X55907Y1002221D01*
X55892Y1002181D01*
X55897Y1002154D01*
X55893Y1002127D01*
X55911Y1002086D01*
X55920Y1002044D01*
X55946Y1002008D01*
X55950Y1001999D01*
X55955Y1001995D01*
X55964Y1001984D01*
X79964Y977984D01*
X80002Y977963D01*
X80035Y977934D01*
X80062Y977930D01*
X80086Y977917D01*
X80130Y977920D01*
X80173Y977913D01*
X80199Y977924D01*
G37*
G36*
X1218119Y977924D02*
X1218119Y977924D01*
X1218146Y977926D01*
X1218181Y977952D01*
X1218221Y977970D01*
X1218236Y977993D01*
X1218258Y978009D01*
X1218274Y978050D01*
X1218298Y978087D01*
X1218305Y978130D01*
X1218308Y978139D01*
X1218307Y978146D01*
X1218309Y978160D01*
X1218309Y1002160D01*
X1218304Y1002176D01*
X1218307Y1002193D01*
X1218285Y1002243D01*
X1218270Y1002294D01*
X1218257Y1002305D01*
X1218250Y1002321D01*
X1218205Y1002351D01*
X1218165Y1002386D01*
X1218148Y1002389D01*
X1218134Y1002398D01*
X1218060Y1002409D01*
X1194060Y1002409D01*
X1194018Y1002397D01*
X1193974Y1002394D01*
X1193952Y1002378D01*
X1193926Y1002370D01*
X1193897Y1002337D01*
X1193862Y1002311D01*
X1193852Y1002285D01*
X1193834Y1002265D01*
X1193827Y1002221D01*
X1193812Y1002181D01*
X1193817Y1002154D01*
X1193813Y1002127D01*
X1193831Y1002086D01*
X1193840Y1002044D01*
X1193866Y1002008D01*
X1193870Y1001999D01*
X1193875Y1001995D01*
X1193884Y1001984D01*
X1217884Y977984D01*
X1217922Y977963D01*
X1217955Y977934D01*
X1217982Y977930D01*
X1218006Y977917D01*
X1218050Y977920D01*
X1218093Y977913D01*
X1218119Y977924D01*
G37*
G36*
X242759Y977924D02*
X242759Y977924D01*
X242786Y977926D01*
X242821Y977952D01*
X242861Y977970D01*
X242876Y977993D01*
X242898Y978009D01*
X242914Y978050D01*
X242938Y978087D01*
X242945Y978130D01*
X242948Y978139D01*
X242947Y978146D01*
X242949Y978160D01*
X242949Y1002160D01*
X242944Y1002176D01*
X242947Y1002193D01*
X242925Y1002243D01*
X242910Y1002294D01*
X242897Y1002305D01*
X242890Y1002321D01*
X242845Y1002351D01*
X242805Y1002386D01*
X242788Y1002389D01*
X242774Y1002398D01*
X242700Y1002409D01*
X218700Y1002409D01*
X218658Y1002397D01*
X218614Y1002394D01*
X218592Y1002378D01*
X218566Y1002370D01*
X218537Y1002337D01*
X218502Y1002311D01*
X218492Y1002285D01*
X218474Y1002265D01*
X218467Y1002221D01*
X218452Y1002181D01*
X218457Y1002154D01*
X218453Y1002127D01*
X218471Y1002086D01*
X218480Y1002044D01*
X218506Y1002008D01*
X218510Y1001999D01*
X218515Y1001995D01*
X218524Y1001984D01*
X242524Y977984D01*
X242562Y977963D01*
X242595Y977934D01*
X242622Y977930D01*
X242646Y977917D01*
X242690Y977920D01*
X242733Y977913D01*
X242759Y977924D01*
G37*
G36*
X1380679Y977924D02*
X1380679Y977924D01*
X1380706Y977926D01*
X1380741Y977952D01*
X1380781Y977970D01*
X1380796Y977993D01*
X1380818Y978009D01*
X1380834Y978050D01*
X1380858Y978087D01*
X1380865Y978130D01*
X1380868Y978139D01*
X1380867Y978146D01*
X1380869Y978160D01*
X1380869Y1002160D01*
X1380864Y1002176D01*
X1380867Y1002193D01*
X1380845Y1002243D01*
X1380830Y1002294D01*
X1380817Y1002305D01*
X1380810Y1002321D01*
X1380765Y1002351D01*
X1380725Y1002386D01*
X1380708Y1002389D01*
X1380694Y1002398D01*
X1380620Y1002409D01*
X1356620Y1002409D01*
X1356578Y1002397D01*
X1356534Y1002394D01*
X1356512Y1002378D01*
X1356486Y1002370D01*
X1356457Y1002337D01*
X1356422Y1002311D01*
X1356412Y1002285D01*
X1356394Y1002265D01*
X1356387Y1002221D01*
X1356372Y1002181D01*
X1356377Y1002154D01*
X1356373Y1002127D01*
X1356391Y1002086D01*
X1356400Y1002044D01*
X1356426Y1002008D01*
X1356430Y1001999D01*
X1356435Y1001995D01*
X1356444Y1001984D01*
X1380444Y977984D01*
X1380482Y977963D01*
X1380515Y977934D01*
X1380542Y977930D01*
X1380566Y977917D01*
X1380610Y977920D01*
X1380653Y977913D01*
X1380679Y977924D01*
G37*
G36*
X892999Y977924D02*
X892999Y977924D01*
X893026Y977926D01*
X893061Y977952D01*
X893101Y977970D01*
X893116Y977993D01*
X893138Y978009D01*
X893154Y978050D01*
X893178Y978087D01*
X893185Y978130D01*
X893188Y978139D01*
X893187Y978146D01*
X893189Y978160D01*
X893189Y1002160D01*
X893184Y1002176D01*
X893187Y1002193D01*
X893165Y1002243D01*
X893150Y1002294D01*
X893137Y1002305D01*
X893130Y1002321D01*
X893085Y1002351D01*
X893045Y1002386D01*
X893028Y1002389D01*
X893014Y1002398D01*
X892940Y1002409D01*
X868940Y1002409D01*
X868898Y1002397D01*
X868854Y1002394D01*
X868832Y1002378D01*
X868806Y1002370D01*
X868777Y1002337D01*
X868742Y1002311D01*
X868732Y1002285D01*
X868714Y1002265D01*
X868707Y1002221D01*
X868692Y1002181D01*
X868697Y1002154D01*
X868693Y1002127D01*
X868711Y1002086D01*
X868720Y1002044D01*
X868746Y1002008D01*
X868750Y1001999D01*
X868755Y1001995D01*
X868764Y1001984D01*
X892764Y977984D01*
X892802Y977963D01*
X892835Y977934D01*
X892862Y977930D01*
X892886Y977917D01*
X892930Y977920D01*
X892973Y977913D01*
X892999Y977924D01*
G37*
G36*
X1543239Y566444D02*
X1543239Y566444D01*
X1543266Y566446D01*
X1543301Y566472D01*
X1543341Y566490D01*
X1543356Y566513D01*
X1543378Y566529D01*
X1543394Y566570D01*
X1543418Y566607D01*
X1543425Y566650D01*
X1543428Y566659D01*
X1543427Y566666D01*
X1543429Y566680D01*
X1543429Y590680D01*
X1543424Y590696D01*
X1543427Y590713D01*
X1543405Y590763D01*
X1543390Y590814D01*
X1543377Y590825D01*
X1543370Y590841D01*
X1543325Y590871D01*
X1543285Y590906D01*
X1543268Y590909D01*
X1543254Y590918D01*
X1543180Y590929D01*
X1519180Y590929D01*
X1519138Y590917D01*
X1519094Y590914D01*
X1519072Y590898D01*
X1519046Y590890D01*
X1519017Y590857D01*
X1518982Y590831D01*
X1518972Y590805D01*
X1518954Y590785D01*
X1518947Y590741D01*
X1518932Y590701D01*
X1518937Y590674D01*
X1518933Y590647D01*
X1518951Y590606D01*
X1518960Y590564D01*
X1518986Y590528D01*
X1518990Y590519D01*
X1518995Y590515D01*
X1519004Y590504D01*
X1543004Y566504D01*
X1543042Y566483D01*
X1543075Y566454D01*
X1543102Y566450D01*
X1543126Y566437D01*
X1543170Y566440D01*
X1543213Y566433D01*
X1543239Y566444D01*
G37*
G36*
X80199Y566444D02*
X80199Y566444D01*
X80226Y566446D01*
X80261Y566472D01*
X80301Y566490D01*
X80316Y566513D01*
X80338Y566529D01*
X80354Y566570D01*
X80378Y566607D01*
X80385Y566650D01*
X80388Y566659D01*
X80387Y566666D01*
X80389Y566680D01*
X80389Y590680D01*
X80384Y590696D01*
X80387Y590713D01*
X80365Y590763D01*
X80350Y590814D01*
X80337Y590825D01*
X80330Y590841D01*
X80285Y590871D01*
X80245Y590906D01*
X80228Y590909D01*
X80214Y590918D01*
X80140Y590929D01*
X56140Y590929D01*
X56098Y590917D01*
X56054Y590914D01*
X56032Y590898D01*
X56006Y590890D01*
X55977Y590857D01*
X55942Y590831D01*
X55932Y590805D01*
X55914Y590785D01*
X55907Y590741D01*
X55892Y590701D01*
X55897Y590674D01*
X55893Y590647D01*
X55911Y590606D01*
X55920Y590564D01*
X55946Y590528D01*
X55950Y590519D01*
X55955Y590515D01*
X55964Y590504D01*
X79964Y566504D01*
X80002Y566483D01*
X80035Y566454D01*
X80062Y566450D01*
X80086Y566437D01*
X80130Y566440D01*
X80173Y566433D01*
X80199Y566444D01*
G37*
G36*
X730439Y566444D02*
X730439Y566444D01*
X730466Y566446D01*
X730501Y566472D01*
X730541Y566490D01*
X730556Y566513D01*
X730578Y566529D01*
X730594Y566570D01*
X730618Y566607D01*
X730625Y566650D01*
X730628Y566659D01*
X730627Y566666D01*
X730629Y566680D01*
X730629Y590680D01*
X730624Y590696D01*
X730627Y590713D01*
X730605Y590763D01*
X730590Y590814D01*
X730577Y590825D01*
X730570Y590841D01*
X730525Y590871D01*
X730485Y590906D01*
X730468Y590909D01*
X730454Y590918D01*
X730380Y590929D01*
X706380Y590929D01*
X706338Y590917D01*
X706294Y590914D01*
X706272Y590898D01*
X706246Y590890D01*
X706217Y590857D01*
X706182Y590831D01*
X706172Y590805D01*
X706154Y590785D01*
X706147Y590741D01*
X706132Y590701D01*
X706137Y590674D01*
X706133Y590647D01*
X706151Y590606D01*
X706160Y590564D01*
X706186Y590528D01*
X706190Y590519D01*
X706195Y590515D01*
X706204Y590504D01*
X730204Y566504D01*
X730242Y566483D01*
X730275Y566454D01*
X730302Y566450D01*
X730326Y566437D01*
X730370Y566440D01*
X730413Y566433D01*
X730439Y566444D01*
G37*
G36*
X405319Y566444D02*
X405319Y566444D01*
X405346Y566446D01*
X405381Y566472D01*
X405421Y566490D01*
X405436Y566513D01*
X405458Y566529D01*
X405474Y566570D01*
X405498Y566607D01*
X405505Y566650D01*
X405508Y566659D01*
X405507Y566666D01*
X405509Y566680D01*
X405509Y590680D01*
X405504Y590696D01*
X405507Y590713D01*
X405485Y590763D01*
X405470Y590814D01*
X405457Y590825D01*
X405450Y590841D01*
X405405Y590871D01*
X405365Y590906D01*
X405348Y590909D01*
X405334Y590918D01*
X405260Y590929D01*
X381260Y590929D01*
X381218Y590917D01*
X381174Y590914D01*
X381152Y590898D01*
X381126Y590890D01*
X381097Y590857D01*
X381062Y590831D01*
X381052Y590805D01*
X381034Y590785D01*
X381027Y590741D01*
X381012Y590701D01*
X381017Y590674D01*
X381013Y590647D01*
X381031Y590606D01*
X381040Y590564D01*
X381066Y590528D01*
X381070Y590519D01*
X381075Y590515D01*
X381084Y590504D01*
X405084Y566504D01*
X405122Y566483D01*
X405155Y566454D01*
X405182Y566450D01*
X405206Y566437D01*
X405250Y566440D01*
X405293Y566433D01*
X405319Y566444D01*
G37*
G36*
X242759Y566444D02*
X242759Y566444D01*
X242786Y566446D01*
X242821Y566472D01*
X242861Y566490D01*
X242876Y566513D01*
X242898Y566529D01*
X242914Y566570D01*
X242938Y566607D01*
X242945Y566650D01*
X242948Y566659D01*
X242947Y566666D01*
X242949Y566680D01*
X242949Y590680D01*
X242944Y590696D01*
X242947Y590713D01*
X242925Y590763D01*
X242910Y590814D01*
X242897Y590825D01*
X242890Y590841D01*
X242845Y590871D01*
X242805Y590906D01*
X242788Y590909D01*
X242774Y590918D01*
X242700Y590929D01*
X218700Y590929D01*
X218658Y590917D01*
X218614Y590914D01*
X218592Y590898D01*
X218566Y590890D01*
X218537Y590857D01*
X218502Y590831D01*
X218492Y590805D01*
X218474Y590785D01*
X218467Y590741D01*
X218452Y590701D01*
X218457Y590674D01*
X218453Y590647D01*
X218471Y590606D01*
X218480Y590564D01*
X218506Y590528D01*
X218510Y590519D01*
X218515Y590515D01*
X218524Y590504D01*
X242524Y566504D01*
X242562Y566483D01*
X242595Y566454D01*
X242622Y566450D01*
X242646Y566437D01*
X242690Y566440D01*
X242733Y566433D01*
X242759Y566444D01*
G37*
G36*
X567879Y566444D02*
X567879Y566444D01*
X567906Y566446D01*
X567941Y566472D01*
X567981Y566490D01*
X567996Y566513D01*
X568018Y566529D01*
X568034Y566570D01*
X568058Y566607D01*
X568065Y566650D01*
X568068Y566659D01*
X568067Y566666D01*
X568069Y566680D01*
X568069Y590680D01*
X568064Y590696D01*
X568067Y590713D01*
X568045Y590763D01*
X568030Y590814D01*
X568017Y590825D01*
X568010Y590841D01*
X567965Y590871D01*
X567925Y590906D01*
X567908Y590909D01*
X567894Y590918D01*
X567820Y590929D01*
X543820Y590929D01*
X543778Y590917D01*
X543734Y590914D01*
X543712Y590898D01*
X543686Y590890D01*
X543657Y590857D01*
X543622Y590831D01*
X543612Y590805D01*
X543594Y590785D01*
X543587Y590741D01*
X543572Y590701D01*
X543577Y590674D01*
X543573Y590647D01*
X543591Y590606D01*
X543600Y590564D01*
X543626Y590528D01*
X543630Y590519D01*
X543635Y590515D01*
X543644Y590504D01*
X567644Y566504D01*
X567682Y566483D01*
X567715Y566454D01*
X567742Y566450D01*
X567766Y566437D01*
X567810Y566440D01*
X567853Y566433D01*
X567879Y566444D01*
G37*
G36*
X892999Y566444D02*
X892999Y566444D01*
X893026Y566446D01*
X893061Y566472D01*
X893101Y566490D01*
X893116Y566513D01*
X893138Y566529D01*
X893154Y566570D01*
X893178Y566607D01*
X893185Y566650D01*
X893188Y566659D01*
X893187Y566666D01*
X893189Y566680D01*
X893189Y590680D01*
X893184Y590696D01*
X893187Y590713D01*
X893165Y590763D01*
X893150Y590814D01*
X893137Y590825D01*
X893130Y590841D01*
X893085Y590871D01*
X893045Y590906D01*
X893028Y590909D01*
X893014Y590918D01*
X892940Y590929D01*
X868940Y590929D01*
X868898Y590917D01*
X868854Y590914D01*
X868832Y590898D01*
X868806Y590890D01*
X868777Y590857D01*
X868742Y590831D01*
X868732Y590805D01*
X868714Y590785D01*
X868707Y590741D01*
X868692Y590701D01*
X868697Y590674D01*
X868693Y590647D01*
X868711Y590606D01*
X868720Y590564D01*
X868746Y590528D01*
X868750Y590519D01*
X868755Y590515D01*
X868764Y590504D01*
X892764Y566504D01*
X892802Y566483D01*
X892835Y566454D01*
X892862Y566450D01*
X892886Y566437D01*
X892930Y566440D01*
X892973Y566433D01*
X892999Y566444D01*
G37*
G36*
X1055559Y566444D02*
X1055559Y566444D01*
X1055586Y566446D01*
X1055621Y566472D01*
X1055661Y566490D01*
X1055676Y566513D01*
X1055698Y566529D01*
X1055714Y566570D01*
X1055738Y566607D01*
X1055745Y566650D01*
X1055748Y566659D01*
X1055747Y566666D01*
X1055749Y566680D01*
X1055749Y590680D01*
X1055744Y590696D01*
X1055747Y590713D01*
X1055725Y590763D01*
X1055710Y590814D01*
X1055697Y590825D01*
X1055690Y590841D01*
X1055645Y590871D01*
X1055605Y590906D01*
X1055588Y590909D01*
X1055574Y590918D01*
X1055500Y590929D01*
X1031500Y590929D01*
X1031458Y590917D01*
X1031414Y590914D01*
X1031392Y590898D01*
X1031366Y590890D01*
X1031337Y590857D01*
X1031302Y590831D01*
X1031292Y590805D01*
X1031274Y590785D01*
X1031267Y590741D01*
X1031252Y590701D01*
X1031257Y590674D01*
X1031253Y590647D01*
X1031271Y590606D01*
X1031280Y590564D01*
X1031306Y590528D01*
X1031310Y590519D01*
X1031315Y590515D01*
X1031324Y590504D01*
X1055324Y566504D01*
X1055362Y566483D01*
X1055395Y566454D01*
X1055422Y566450D01*
X1055446Y566437D01*
X1055490Y566440D01*
X1055533Y566433D01*
X1055559Y566444D01*
G37*
G36*
X1380679Y566444D02*
X1380679Y566444D01*
X1380706Y566446D01*
X1380741Y566472D01*
X1380781Y566490D01*
X1380796Y566513D01*
X1380818Y566529D01*
X1380834Y566570D01*
X1380858Y566607D01*
X1380865Y566650D01*
X1380868Y566659D01*
X1380867Y566666D01*
X1380869Y566680D01*
X1380869Y590680D01*
X1380864Y590696D01*
X1380867Y590713D01*
X1380845Y590763D01*
X1380830Y590814D01*
X1380817Y590825D01*
X1380810Y590841D01*
X1380765Y590871D01*
X1380725Y590906D01*
X1380708Y590909D01*
X1380694Y590918D01*
X1380620Y590929D01*
X1356620Y590929D01*
X1356578Y590917D01*
X1356534Y590914D01*
X1356512Y590898D01*
X1356486Y590890D01*
X1356457Y590857D01*
X1356422Y590831D01*
X1356412Y590805D01*
X1356394Y590785D01*
X1356387Y590741D01*
X1356372Y590701D01*
X1356377Y590674D01*
X1356373Y590647D01*
X1356391Y590606D01*
X1356400Y590564D01*
X1356426Y590528D01*
X1356430Y590519D01*
X1356435Y590515D01*
X1356444Y590504D01*
X1380444Y566504D01*
X1380482Y566483D01*
X1380515Y566454D01*
X1380542Y566450D01*
X1380566Y566437D01*
X1380610Y566440D01*
X1380653Y566433D01*
X1380679Y566444D01*
G37*
G36*
X1218119Y566444D02*
X1218119Y566444D01*
X1218146Y566446D01*
X1218181Y566472D01*
X1218221Y566490D01*
X1218236Y566513D01*
X1218258Y566529D01*
X1218274Y566570D01*
X1218298Y566607D01*
X1218305Y566650D01*
X1218308Y566659D01*
X1218307Y566666D01*
X1218309Y566680D01*
X1218309Y590680D01*
X1218304Y590696D01*
X1218307Y590713D01*
X1218285Y590763D01*
X1218270Y590814D01*
X1218257Y590825D01*
X1218250Y590841D01*
X1218205Y590871D01*
X1218165Y590906D01*
X1218148Y590909D01*
X1218134Y590918D01*
X1218060Y590929D01*
X1194060Y590929D01*
X1194018Y590917D01*
X1193974Y590914D01*
X1193952Y590898D01*
X1193926Y590890D01*
X1193897Y590857D01*
X1193862Y590831D01*
X1193852Y590805D01*
X1193834Y590785D01*
X1193827Y590741D01*
X1193812Y590701D01*
X1193817Y590674D01*
X1193813Y590647D01*
X1193831Y590606D01*
X1193840Y590564D01*
X1193866Y590528D01*
X1193870Y590519D01*
X1193875Y590515D01*
X1193884Y590504D01*
X1217884Y566504D01*
X1217922Y566483D01*
X1217955Y566454D01*
X1217982Y566450D01*
X1218006Y566437D01*
X1218050Y566440D01*
X1218093Y566433D01*
X1218119Y566444D01*
G37*
G36*
X1543239Y154964D02*
X1543239Y154964D01*
X1543266Y154966D01*
X1543301Y154992D01*
X1543341Y155010D01*
X1543356Y155033D01*
X1543378Y155049D01*
X1543394Y155090D01*
X1543418Y155127D01*
X1543425Y155170D01*
X1543428Y155179D01*
X1543427Y155186D01*
X1543429Y155200D01*
X1543429Y179200D01*
X1543424Y179216D01*
X1543427Y179233D01*
X1543405Y179283D01*
X1543390Y179334D01*
X1543377Y179345D01*
X1543370Y179361D01*
X1543325Y179391D01*
X1543285Y179426D01*
X1543268Y179429D01*
X1543254Y179438D01*
X1543180Y179449D01*
X1519180Y179449D01*
X1519138Y179437D01*
X1519094Y179434D01*
X1519072Y179418D01*
X1519046Y179410D01*
X1519017Y179377D01*
X1518982Y179351D01*
X1518972Y179325D01*
X1518954Y179305D01*
X1518947Y179261D01*
X1518932Y179221D01*
X1518937Y179194D01*
X1518933Y179167D01*
X1518951Y179126D01*
X1518960Y179084D01*
X1518986Y179048D01*
X1518990Y179039D01*
X1518995Y179035D01*
X1519004Y179024D01*
X1543004Y155024D01*
X1543042Y155003D01*
X1543075Y154974D01*
X1543102Y154970D01*
X1543126Y154957D01*
X1543170Y154960D01*
X1543213Y154953D01*
X1543239Y154964D01*
G37*
G36*
X892999Y154964D02*
X892999Y154964D01*
X893026Y154966D01*
X893061Y154992D01*
X893101Y155010D01*
X893116Y155033D01*
X893138Y155049D01*
X893154Y155090D01*
X893178Y155127D01*
X893185Y155170D01*
X893188Y155179D01*
X893187Y155186D01*
X893189Y155200D01*
X893189Y179200D01*
X893184Y179216D01*
X893187Y179233D01*
X893165Y179283D01*
X893150Y179334D01*
X893137Y179345D01*
X893130Y179361D01*
X893085Y179391D01*
X893045Y179426D01*
X893028Y179429D01*
X893014Y179438D01*
X892940Y179449D01*
X868940Y179449D01*
X868898Y179437D01*
X868854Y179434D01*
X868832Y179418D01*
X868806Y179410D01*
X868777Y179377D01*
X868742Y179351D01*
X868732Y179325D01*
X868714Y179305D01*
X868707Y179261D01*
X868692Y179221D01*
X868697Y179194D01*
X868693Y179167D01*
X868711Y179126D01*
X868720Y179084D01*
X868746Y179048D01*
X868750Y179039D01*
X868755Y179035D01*
X868764Y179024D01*
X892764Y155024D01*
X892802Y155003D01*
X892835Y154974D01*
X892862Y154970D01*
X892886Y154957D01*
X892930Y154960D01*
X892973Y154953D01*
X892999Y154964D01*
G37*
G36*
X730439Y154964D02*
X730439Y154964D01*
X730466Y154966D01*
X730501Y154992D01*
X730541Y155010D01*
X730556Y155033D01*
X730578Y155049D01*
X730594Y155090D01*
X730618Y155127D01*
X730625Y155170D01*
X730628Y155179D01*
X730627Y155186D01*
X730629Y155200D01*
X730629Y179200D01*
X730624Y179216D01*
X730627Y179233D01*
X730605Y179283D01*
X730590Y179334D01*
X730577Y179345D01*
X730570Y179361D01*
X730525Y179391D01*
X730485Y179426D01*
X730468Y179429D01*
X730454Y179438D01*
X730380Y179449D01*
X706380Y179449D01*
X706338Y179437D01*
X706294Y179434D01*
X706272Y179418D01*
X706246Y179410D01*
X706217Y179377D01*
X706182Y179351D01*
X706172Y179325D01*
X706154Y179305D01*
X706147Y179261D01*
X706132Y179221D01*
X706137Y179194D01*
X706133Y179167D01*
X706151Y179126D01*
X706160Y179084D01*
X706186Y179048D01*
X706190Y179039D01*
X706195Y179035D01*
X706204Y179024D01*
X730204Y155024D01*
X730242Y155003D01*
X730275Y154974D01*
X730302Y154970D01*
X730326Y154957D01*
X730370Y154960D01*
X730413Y154953D01*
X730439Y154964D01*
G37*
G36*
X567879Y154964D02*
X567879Y154964D01*
X567906Y154966D01*
X567941Y154992D01*
X567981Y155010D01*
X567996Y155033D01*
X568018Y155049D01*
X568034Y155090D01*
X568058Y155127D01*
X568065Y155170D01*
X568068Y155179D01*
X568067Y155186D01*
X568069Y155200D01*
X568069Y179200D01*
X568064Y179216D01*
X568067Y179233D01*
X568045Y179283D01*
X568030Y179334D01*
X568017Y179345D01*
X568010Y179361D01*
X567965Y179391D01*
X567925Y179426D01*
X567908Y179429D01*
X567894Y179438D01*
X567820Y179449D01*
X543820Y179449D01*
X543778Y179437D01*
X543734Y179434D01*
X543712Y179418D01*
X543686Y179410D01*
X543657Y179377D01*
X543622Y179351D01*
X543612Y179325D01*
X543594Y179305D01*
X543587Y179261D01*
X543572Y179221D01*
X543577Y179194D01*
X543573Y179167D01*
X543591Y179126D01*
X543600Y179084D01*
X543626Y179048D01*
X543630Y179039D01*
X543635Y179035D01*
X543644Y179024D01*
X567644Y155024D01*
X567682Y155003D01*
X567715Y154974D01*
X567742Y154970D01*
X567766Y154957D01*
X567810Y154960D01*
X567853Y154953D01*
X567879Y154964D01*
G37*
G36*
X1380679Y154964D02*
X1380679Y154964D01*
X1380706Y154966D01*
X1380741Y154992D01*
X1380781Y155010D01*
X1380796Y155033D01*
X1380818Y155049D01*
X1380834Y155090D01*
X1380858Y155127D01*
X1380865Y155170D01*
X1380868Y155179D01*
X1380867Y155186D01*
X1380869Y155200D01*
X1380869Y179200D01*
X1380864Y179216D01*
X1380867Y179233D01*
X1380845Y179283D01*
X1380830Y179334D01*
X1380817Y179345D01*
X1380810Y179361D01*
X1380765Y179391D01*
X1380725Y179426D01*
X1380708Y179429D01*
X1380694Y179438D01*
X1380620Y179449D01*
X1356620Y179449D01*
X1356578Y179437D01*
X1356534Y179434D01*
X1356512Y179418D01*
X1356486Y179410D01*
X1356457Y179377D01*
X1356422Y179351D01*
X1356412Y179325D01*
X1356394Y179305D01*
X1356387Y179261D01*
X1356372Y179221D01*
X1356377Y179194D01*
X1356373Y179167D01*
X1356391Y179126D01*
X1356400Y179084D01*
X1356426Y179048D01*
X1356430Y179039D01*
X1356435Y179035D01*
X1356444Y179024D01*
X1380444Y155024D01*
X1380482Y155003D01*
X1380515Y154974D01*
X1380542Y154970D01*
X1380566Y154957D01*
X1380610Y154960D01*
X1380653Y154953D01*
X1380679Y154964D01*
G37*
G36*
X1218119Y154964D02*
X1218119Y154964D01*
X1218146Y154966D01*
X1218181Y154992D01*
X1218221Y155010D01*
X1218236Y155033D01*
X1218258Y155049D01*
X1218274Y155090D01*
X1218298Y155127D01*
X1218305Y155170D01*
X1218308Y155179D01*
X1218307Y155186D01*
X1218309Y155200D01*
X1218309Y179200D01*
X1218304Y179216D01*
X1218307Y179233D01*
X1218285Y179283D01*
X1218270Y179334D01*
X1218257Y179345D01*
X1218250Y179361D01*
X1218205Y179391D01*
X1218165Y179426D01*
X1218148Y179429D01*
X1218134Y179438D01*
X1218060Y179449D01*
X1194060Y179449D01*
X1194018Y179437D01*
X1193974Y179434D01*
X1193952Y179418D01*
X1193926Y179410D01*
X1193897Y179377D01*
X1193862Y179351D01*
X1193852Y179325D01*
X1193834Y179305D01*
X1193827Y179261D01*
X1193812Y179221D01*
X1193817Y179194D01*
X1193813Y179167D01*
X1193831Y179126D01*
X1193840Y179084D01*
X1193866Y179048D01*
X1193870Y179039D01*
X1193875Y179035D01*
X1193884Y179024D01*
X1217884Y155024D01*
X1217922Y155003D01*
X1217955Y154974D01*
X1217982Y154970D01*
X1218006Y154957D01*
X1218050Y154960D01*
X1218093Y154953D01*
X1218119Y154964D01*
G37*
G36*
X1055559Y154964D02*
X1055559Y154964D01*
X1055586Y154966D01*
X1055621Y154992D01*
X1055661Y155010D01*
X1055676Y155033D01*
X1055698Y155049D01*
X1055714Y155090D01*
X1055738Y155127D01*
X1055745Y155170D01*
X1055748Y155179D01*
X1055747Y155186D01*
X1055749Y155200D01*
X1055749Y179200D01*
X1055744Y179216D01*
X1055747Y179233D01*
X1055725Y179283D01*
X1055710Y179334D01*
X1055697Y179345D01*
X1055690Y179361D01*
X1055645Y179391D01*
X1055605Y179426D01*
X1055588Y179429D01*
X1055574Y179438D01*
X1055500Y179449D01*
X1031500Y179449D01*
X1031458Y179437D01*
X1031414Y179434D01*
X1031392Y179418D01*
X1031366Y179410D01*
X1031337Y179377D01*
X1031302Y179351D01*
X1031292Y179325D01*
X1031274Y179305D01*
X1031267Y179261D01*
X1031252Y179221D01*
X1031257Y179194D01*
X1031253Y179167D01*
X1031271Y179126D01*
X1031280Y179084D01*
X1031306Y179048D01*
X1031310Y179039D01*
X1031315Y179035D01*
X1031324Y179024D01*
X1055324Y155024D01*
X1055362Y155003D01*
X1055395Y154974D01*
X1055422Y154970D01*
X1055446Y154957D01*
X1055490Y154960D01*
X1055533Y154953D01*
X1055559Y154964D01*
G37*
G36*
X405319Y154964D02*
X405319Y154964D01*
X405346Y154966D01*
X405381Y154992D01*
X405421Y155010D01*
X405436Y155033D01*
X405458Y155049D01*
X405474Y155090D01*
X405498Y155127D01*
X405505Y155170D01*
X405508Y155179D01*
X405507Y155186D01*
X405509Y155200D01*
X405509Y179200D01*
X405504Y179216D01*
X405507Y179233D01*
X405485Y179283D01*
X405470Y179334D01*
X405457Y179345D01*
X405450Y179361D01*
X405405Y179391D01*
X405365Y179426D01*
X405348Y179429D01*
X405334Y179438D01*
X405260Y179449D01*
X381260Y179449D01*
X381218Y179437D01*
X381174Y179434D01*
X381152Y179418D01*
X381126Y179410D01*
X381097Y179377D01*
X381062Y179351D01*
X381052Y179325D01*
X381034Y179305D01*
X381027Y179261D01*
X381012Y179221D01*
X381017Y179194D01*
X381013Y179167D01*
X381031Y179126D01*
X381040Y179084D01*
X381066Y179048D01*
X381070Y179039D01*
X381075Y179035D01*
X381084Y179024D01*
X405084Y155024D01*
X405122Y155003D01*
X405155Y154974D01*
X405182Y154970D01*
X405206Y154957D01*
X405250Y154960D01*
X405293Y154953D01*
X405319Y154964D01*
G37*
G36*
X242759Y154964D02*
X242759Y154964D01*
X242786Y154966D01*
X242821Y154992D01*
X242861Y155010D01*
X242876Y155033D01*
X242898Y155049D01*
X242914Y155090D01*
X242938Y155127D01*
X242945Y155170D01*
X242948Y155179D01*
X242947Y155186D01*
X242949Y155200D01*
X242949Y179200D01*
X242944Y179216D01*
X242947Y179233D01*
X242925Y179283D01*
X242910Y179334D01*
X242897Y179345D01*
X242890Y179361D01*
X242845Y179391D01*
X242805Y179426D01*
X242788Y179429D01*
X242774Y179438D01*
X242700Y179449D01*
X218700Y179449D01*
X218658Y179437D01*
X218614Y179434D01*
X218592Y179418D01*
X218566Y179410D01*
X218537Y179377D01*
X218502Y179351D01*
X218492Y179325D01*
X218474Y179305D01*
X218467Y179261D01*
X218452Y179221D01*
X218457Y179194D01*
X218453Y179167D01*
X218471Y179126D01*
X218480Y179084D01*
X218506Y179048D01*
X218510Y179039D01*
X218515Y179035D01*
X218524Y179024D01*
X242524Y155024D01*
X242562Y155003D01*
X242595Y154974D01*
X242622Y154970D01*
X242646Y154957D01*
X242690Y154960D01*
X242733Y154953D01*
X242759Y154964D01*
G37*
G36*
X80199Y154964D02*
X80199Y154964D01*
X80226Y154966D01*
X80261Y154992D01*
X80301Y155010D01*
X80316Y155033D01*
X80338Y155049D01*
X80354Y155090D01*
X80378Y155127D01*
X80385Y155170D01*
X80388Y155179D01*
X80387Y155186D01*
X80389Y155200D01*
X80389Y179200D01*
X80384Y179216D01*
X80387Y179233D01*
X80365Y179283D01*
X80350Y179334D01*
X80337Y179345D01*
X80330Y179361D01*
X80285Y179391D01*
X80245Y179426D01*
X80228Y179429D01*
X80214Y179438D01*
X80140Y179449D01*
X56140Y179449D01*
X56098Y179437D01*
X56054Y179434D01*
X56032Y179418D01*
X56006Y179410D01*
X55977Y179377D01*
X55942Y179351D01*
X55932Y179325D01*
X55914Y179305D01*
X55907Y179261D01*
X55892Y179221D01*
X55897Y179194D01*
X55893Y179167D01*
X55911Y179126D01*
X55920Y179084D01*
X55946Y179048D01*
X55950Y179039D01*
X55955Y179035D01*
X55964Y179024D01*
X79964Y155024D01*
X80002Y155003D01*
X80035Y154974D01*
X80062Y154970D01*
X80086Y154957D01*
X80130Y154960D01*
X80173Y154953D01*
X80199Y154964D01*
G37*
D10*
X80725Y350520D03*
X90725Y350520D03*
D11*
X93820Y320700D03*
X93820Y339700D03*
X72820Y330200D03*
D10*
X74375Y309880D03*
X84375Y309880D03*
X74375Y299720D03*
X84375Y299720D03*
D12*
X100840Y32455D03*
D13*
X90840Y7455D03*
X85840Y7455D03*
D12*
X5840Y32455D03*
D13*
X80840Y7455D03*
X75840Y7455D03*
X70840Y7455D03*
X65840Y7455D03*
X60840Y7455D03*
X55840Y7455D03*
X50840Y7455D03*
X45840Y7455D03*
X40840Y7455D03*
X35840Y7455D03*
X30840Y7455D03*
X25840Y7455D03*
X20840Y7455D03*
X15840Y7455D03*
D10*
X8255Y389335D03*
X8255Y399335D03*
X98425Y389335D03*
X98425Y399335D03*
D14*
X38460Y280390D03*
X48460Y280390D03*
X53460Y280390D03*
X58460Y280390D03*
X63460Y280390D03*
X68460Y280390D03*
X73460Y280390D03*
X78460Y280390D03*
X43460Y280390D03*
X78460Y275390D03*
X78460Y270390D03*
X78460Y265390D03*
X78460Y260390D03*
X78460Y255390D03*
X78460Y250390D03*
X78460Y245390D03*
X78460Y240390D03*
X73460Y240390D03*
X68460Y240390D03*
X63460Y240390D03*
X58460Y240390D03*
X53460Y240390D03*
X48460Y240390D03*
X43460Y240390D03*
X38460Y240390D03*
X38460Y245390D03*
X38460Y250390D03*
X38460Y255390D03*
X38460Y260390D03*
X38460Y265390D03*
X38460Y270390D03*
X38460Y275390D03*
X48460Y270390D03*
X53460Y270390D03*
X58460Y270390D03*
X63460Y270390D03*
X68460Y270390D03*
X68460Y260390D03*
X68460Y255390D03*
X68460Y250390D03*
X63460Y250390D03*
X58460Y250390D03*
X53460Y250390D03*
X48460Y250390D03*
X48460Y255390D03*
X48460Y260390D03*
X48460Y265390D03*
X53460Y265390D03*
X63460Y265390D03*
X63460Y255390D03*
X53460Y255390D03*
D15*
X67090Y367030D03*
X39590Y367030D03*
D16*
X53340Y351780D03*
X53340Y382280D03*
D10*
X21590Y268050D03*
X21590Y278050D03*
D17*
X58620Y222250D03*
X83620Y222250D03*
D18*
X53425Y338455D03*
X41825Y338455D03*
D10*
X29845Y333930D03*
X29845Y323930D03*
X29845Y344250D03*
X29845Y354250D03*
D19*
X21590Y257285D03*
X21590Y239285D03*
D10*
X38100Y227250D03*
X38100Y217250D03*
X77470Y185500D03*
X77470Y195500D03*
D20*
X59340Y133900D03*
D21*
X41840Y198755D03*
X64840Y198755D03*
D10*
X58340Y185420D03*
X48340Y185420D03*
D18*
X41825Y324485D03*
X53425Y324485D03*
D10*
X243285Y350520D03*
X253285Y350520D03*
D11*
X256380Y320700D03*
X256380Y339700D03*
X235380Y330200D03*
D10*
X236935Y309880D03*
X246935Y309880D03*
X236935Y299720D03*
X246935Y299720D03*
D12*
X263400Y32455D03*
D13*
X253400Y7455D03*
X248400Y7455D03*
D12*
X168400Y32455D03*
D13*
X243400Y7455D03*
X238400Y7455D03*
X233400Y7455D03*
X228400Y7455D03*
X223400Y7455D03*
X218400Y7455D03*
X213400Y7455D03*
X208400Y7455D03*
X203400Y7455D03*
X198400Y7455D03*
X193400Y7455D03*
X188400Y7455D03*
X183400Y7455D03*
X178400Y7455D03*
D10*
X170815Y389335D03*
X170815Y399335D03*
X260985Y389335D03*
X260985Y399335D03*
D14*
X201020Y280390D03*
X211020Y280390D03*
X216020Y280390D03*
X221020Y280390D03*
X226020Y280390D03*
X231020Y280390D03*
X236020Y280390D03*
X241020Y280390D03*
X206020Y280390D03*
X241020Y275390D03*
X241020Y270390D03*
X241020Y265390D03*
X241020Y260390D03*
X241020Y255390D03*
X241020Y250390D03*
X241020Y245390D03*
X241020Y240390D03*
X236020Y240390D03*
X231020Y240390D03*
X226020Y240390D03*
X221020Y240390D03*
X216020Y240390D03*
X211020Y240390D03*
X206020Y240390D03*
X201020Y240390D03*
X201020Y245390D03*
X201020Y250390D03*
X201020Y255390D03*
X201020Y260390D03*
X201020Y265390D03*
X201020Y270390D03*
X201020Y275390D03*
X211020Y270390D03*
X216020Y270390D03*
X221020Y270390D03*
X226020Y270390D03*
X231020Y270390D03*
X231020Y260390D03*
X231020Y255390D03*
X231020Y250390D03*
X226020Y250390D03*
X221020Y250390D03*
X216020Y250390D03*
X211020Y250390D03*
X211020Y255390D03*
X211020Y260390D03*
X211020Y265390D03*
X216020Y265390D03*
X226020Y265390D03*
X226020Y255390D03*
X216020Y255390D03*
D15*
X229650Y367030D03*
X202150Y367030D03*
D16*
X215900Y351780D03*
X215900Y382280D03*
D10*
X184150Y268050D03*
X184150Y278050D03*
D17*
X221180Y222250D03*
X246180Y222250D03*
D18*
X215985Y338455D03*
X204385Y338455D03*
D10*
X192405Y333930D03*
X192405Y323930D03*
X192405Y344250D03*
X192405Y354250D03*
D19*
X184150Y257285D03*
X184150Y239285D03*
D10*
X200660Y227250D03*
X200660Y217250D03*
X240030Y185500D03*
X240030Y195500D03*
D20*
X221900Y133900D03*
D21*
X204400Y198755D03*
X227400Y198755D03*
D10*
X220900Y185420D03*
X210900Y185420D03*
D18*
X204385Y324485D03*
X215985Y324485D03*
D10*
X405845Y350520D03*
X415845Y350520D03*
D11*
X418940Y320700D03*
X418940Y339700D03*
X397940Y330200D03*
D10*
X399495Y309880D03*
X409495Y309880D03*
X399495Y299720D03*
X409495Y299720D03*
D12*
X425960Y32455D03*
D13*
X415960Y7455D03*
X410960Y7455D03*
D12*
X330960Y32455D03*
D13*
X405960Y7455D03*
X400960Y7455D03*
X395960Y7455D03*
X390960Y7455D03*
X385960Y7455D03*
X380960Y7455D03*
X375960Y7455D03*
X370960Y7455D03*
X365960Y7455D03*
X360960Y7455D03*
X355960Y7455D03*
X350960Y7455D03*
X345960Y7455D03*
X340960Y7455D03*
D10*
X333375Y389335D03*
X333375Y399335D03*
X423545Y389335D03*
X423545Y399335D03*
D14*
X363580Y280390D03*
X373580Y280390D03*
X378580Y280390D03*
X383580Y280390D03*
X388580Y280390D03*
X393580Y280390D03*
X398580Y280390D03*
X403580Y280390D03*
X368580Y280390D03*
X403580Y275390D03*
X403580Y270390D03*
X403580Y265390D03*
X403580Y260390D03*
X403580Y255390D03*
X403580Y250390D03*
X403580Y245390D03*
X403580Y240390D03*
X398580Y240390D03*
X393580Y240390D03*
X388580Y240390D03*
X383580Y240390D03*
X378580Y240390D03*
X373580Y240390D03*
X368580Y240390D03*
X363580Y240390D03*
X363580Y245390D03*
X363580Y250390D03*
X363580Y255390D03*
X363580Y260390D03*
X363580Y265390D03*
X363580Y270390D03*
X363580Y275390D03*
X373580Y270390D03*
X378580Y270390D03*
X383580Y270390D03*
X388580Y270390D03*
X393580Y270390D03*
X393580Y260390D03*
X393580Y255390D03*
X393580Y250390D03*
X388580Y250390D03*
X383580Y250390D03*
X378580Y250390D03*
X373580Y250390D03*
X373580Y255390D03*
X373580Y260390D03*
X373580Y265390D03*
X378580Y265390D03*
X388580Y265390D03*
X388580Y255390D03*
X378580Y255390D03*
D15*
X392210Y367030D03*
X364710Y367030D03*
D16*
X378460Y351780D03*
X378460Y382280D03*
D10*
X346710Y268050D03*
X346710Y278050D03*
D17*
X383740Y222250D03*
X408740Y222250D03*
D18*
X378545Y338455D03*
X366945Y338455D03*
D10*
X354965Y333930D03*
X354965Y323930D03*
X354965Y344250D03*
X354965Y354250D03*
D19*
X346710Y257285D03*
X346710Y239285D03*
D10*
X363220Y227250D03*
X363220Y217250D03*
X402590Y185500D03*
X402590Y195500D03*
D20*
X384460Y133900D03*
D21*
X366960Y198755D03*
X389960Y198755D03*
D10*
X383460Y185420D03*
X373460Y185420D03*
D18*
X366945Y324485D03*
X378545Y324485D03*
D10*
X568405Y350520D03*
X578405Y350520D03*
D11*
X581500Y320700D03*
X581500Y339700D03*
X560500Y330200D03*
D10*
X562055Y309880D03*
X572055Y309880D03*
X562055Y299720D03*
X572055Y299720D03*
D12*
X588520Y32455D03*
D13*
X578520Y7455D03*
X573520Y7455D03*
D12*
X493520Y32455D03*
D13*
X568520Y7455D03*
X563520Y7455D03*
X558520Y7455D03*
X553520Y7455D03*
X548520Y7455D03*
X543520Y7455D03*
X538520Y7455D03*
X533520Y7455D03*
X528520Y7455D03*
X523520Y7455D03*
X518520Y7455D03*
X513520Y7455D03*
X508520Y7455D03*
X503520Y7455D03*
D10*
X495935Y389335D03*
X495935Y399335D03*
X586105Y389335D03*
X586105Y399335D03*
D14*
X526140Y280390D03*
X536140Y280390D03*
X541140Y280390D03*
X546140Y280390D03*
X551140Y280390D03*
X556140Y280390D03*
X561140Y280390D03*
X566140Y280390D03*
X531140Y280390D03*
X566140Y275390D03*
X566140Y270390D03*
X566140Y265390D03*
X566140Y260390D03*
X566140Y255390D03*
X566140Y250390D03*
X566140Y245390D03*
X566140Y240390D03*
X561140Y240390D03*
X556140Y240390D03*
X551140Y240390D03*
X546140Y240390D03*
X541140Y240390D03*
X536140Y240390D03*
X531140Y240390D03*
X526140Y240390D03*
X526140Y245390D03*
X526140Y250390D03*
X526140Y255390D03*
X526140Y260390D03*
X526140Y265390D03*
X526140Y270390D03*
X526140Y275390D03*
X536140Y270390D03*
X541140Y270390D03*
X546140Y270390D03*
X551140Y270390D03*
X556140Y270390D03*
X556140Y260390D03*
X556140Y255390D03*
X556140Y250390D03*
X551140Y250390D03*
X546140Y250390D03*
X541140Y250390D03*
X536140Y250390D03*
X536140Y255390D03*
X536140Y260390D03*
X536140Y265390D03*
X541140Y265390D03*
X551140Y265390D03*
X551140Y255390D03*
X541140Y255390D03*
D15*
X554770Y367030D03*
X527270Y367030D03*
D16*
X541020Y351780D03*
X541020Y382280D03*
D10*
X509270Y268050D03*
X509270Y278050D03*
D17*
X546300Y222250D03*
X571300Y222250D03*
D18*
X541105Y338455D03*
X529505Y338455D03*
D10*
X517525Y333930D03*
X517525Y323930D03*
X517525Y344250D03*
X517525Y354250D03*
D19*
X509270Y257285D03*
X509270Y239285D03*
D10*
X525780Y227250D03*
X525780Y217250D03*
X565150Y185500D03*
X565150Y195500D03*
D20*
X547020Y133900D03*
D21*
X529520Y198755D03*
X552520Y198755D03*
D10*
X546020Y185420D03*
X536020Y185420D03*
D18*
X529505Y324485D03*
X541105Y324485D03*
D10*
X730965Y350520D03*
X740965Y350520D03*
D11*
X744060Y320700D03*
X744060Y339700D03*
X723060Y330200D03*
D10*
X724615Y309880D03*
X734615Y309880D03*
X724615Y299720D03*
X734615Y299720D03*
D12*
X751080Y32455D03*
D13*
X741080Y7455D03*
X736080Y7455D03*
D12*
X656080Y32455D03*
D13*
X731080Y7455D03*
X726080Y7455D03*
X721080Y7455D03*
X716080Y7455D03*
X711080Y7455D03*
X706080Y7455D03*
X701080Y7455D03*
X696080Y7455D03*
X691080Y7455D03*
X686080Y7455D03*
X681080Y7455D03*
X676080Y7455D03*
X671080Y7455D03*
X666080Y7455D03*
D10*
X658495Y389335D03*
X658495Y399335D03*
X748665Y389335D03*
X748665Y399335D03*
D14*
X688700Y280390D03*
X698700Y280390D03*
X703700Y280390D03*
X708700Y280390D03*
X713700Y280390D03*
X718700Y280390D03*
X723700Y280390D03*
X728700Y280390D03*
X693700Y280390D03*
X728700Y275390D03*
X728700Y270390D03*
X728700Y265390D03*
X728700Y260390D03*
X728700Y255390D03*
X728700Y250390D03*
X728700Y245390D03*
X728700Y240390D03*
X723700Y240390D03*
X718700Y240390D03*
X713700Y240390D03*
X708700Y240390D03*
X703700Y240390D03*
X698700Y240390D03*
X693700Y240390D03*
X688700Y240390D03*
X688700Y245390D03*
X688700Y250390D03*
X688700Y255390D03*
X688700Y260390D03*
X688700Y265390D03*
X688700Y270390D03*
X688700Y275390D03*
X698700Y270390D03*
X703700Y270390D03*
X708700Y270390D03*
X713700Y270390D03*
X718700Y270390D03*
X718700Y260390D03*
X718700Y255390D03*
X718700Y250390D03*
X713700Y250390D03*
X708700Y250390D03*
X703700Y250390D03*
X698700Y250390D03*
X698700Y255390D03*
X698700Y260390D03*
X698700Y265390D03*
X703700Y265390D03*
X713700Y265390D03*
X713700Y255390D03*
X703700Y255390D03*
D15*
X717330Y367030D03*
X689830Y367030D03*
D16*
X703580Y351780D03*
X703580Y382280D03*
D10*
X671830Y268050D03*
X671830Y278050D03*
D17*
X708860Y222250D03*
X733860Y222250D03*
D18*
X703665Y338455D03*
X692065Y338455D03*
D10*
X680085Y333930D03*
X680085Y323930D03*
X680085Y344250D03*
X680085Y354250D03*
D19*
X671830Y257285D03*
X671830Y239285D03*
D10*
X688340Y227250D03*
X688340Y217250D03*
X727710Y185500D03*
X727710Y195500D03*
D20*
X709580Y133900D03*
D21*
X692080Y198755D03*
X715080Y198755D03*
D10*
X708580Y185420D03*
X698580Y185420D03*
D18*
X692065Y324485D03*
X703665Y324485D03*
D10*
X893525Y350520D03*
X903525Y350520D03*
D11*
X906620Y320700D03*
X906620Y339700D03*
X885620Y330200D03*
D10*
X887175Y309880D03*
X897175Y309880D03*
X887175Y299720D03*
X897175Y299720D03*
D12*
X913640Y32455D03*
D13*
X903640Y7455D03*
X898640Y7455D03*
D12*
X818640Y32455D03*
D13*
X893640Y7455D03*
X888640Y7455D03*
X883640Y7455D03*
X878640Y7455D03*
X873640Y7455D03*
X868640Y7455D03*
X863640Y7455D03*
X858640Y7455D03*
X853640Y7455D03*
X848640Y7455D03*
X843640Y7455D03*
X838640Y7455D03*
X833640Y7455D03*
X828640Y7455D03*
D10*
X821055Y389335D03*
X821055Y399335D03*
X911225Y389335D03*
X911225Y399335D03*
D14*
X851260Y280390D03*
X861260Y280390D03*
X866260Y280390D03*
X871260Y280390D03*
X876260Y280390D03*
X881260Y280390D03*
X886260Y280390D03*
X891260Y280390D03*
X856260Y280390D03*
X891260Y275390D03*
X891260Y270390D03*
X891260Y265390D03*
X891260Y260390D03*
X891260Y255390D03*
X891260Y250390D03*
X891260Y245390D03*
X891260Y240390D03*
X886260Y240390D03*
X881260Y240390D03*
X876260Y240390D03*
X871260Y240390D03*
X866260Y240390D03*
X861260Y240390D03*
X856260Y240390D03*
X851260Y240390D03*
X851260Y245390D03*
X851260Y250390D03*
X851260Y255390D03*
X851260Y260390D03*
X851260Y265390D03*
X851260Y270390D03*
X851260Y275390D03*
X861260Y270390D03*
X866260Y270390D03*
X871260Y270390D03*
X876260Y270390D03*
X881260Y270390D03*
X881260Y260390D03*
X881260Y255390D03*
X881260Y250390D03*
X876260Y250390D03*
X871260Y250390D03*
X866260Y250390D03*
X861260Y250390D03*
X861260Y255390D03*
X861260Y260390D03*
X861260Y265390D03*
X866260Y265390D03*
X876260Y265390D03*
X876260Y255390D03*
X866260Y255390D03*
D15*
X879890Y367030D03*
X852390Y367030D03*
D16*
X866140Y351780D03*
X866140Y382280D03*
D10*
X834390Y268050D03*
X834390Y278050D03*
D17*
X871420Y222250D03*
X896420Y222250D03*
D18*
X866225Y338455D03*
X854625Y338455D03*
D10*
X842645Y333930D03*
X842645Y323930D03*
X842645Y344250D03*
X842645Y354250D03*
D19*
X834390Y257285D03*
X834390Y239285D03*
D10*
X850900Y227250D03*
X850900Y217250D03*
X890270Y185500D03*
X890270Y195500D03*
D20*
X872140Y133900D03*
D21*
X854640Y198755D03*
X877640Y198755D03*
D10*
X871140Y185420D03*
X861140Y185420D03*
D18*
X854625Y324485D03*
X866225Y324485D03*
D10*
X1056085Y350520D03*
X1066085Y350520D03*
D11*
X1069180Y320700D03*
X1069180Y339700D03*
X1048180Y330200D03*
D10*
X1049735Y309880D03*
X1059735Y309880D03*
X1049735Y299720D03*
X1059735Y299720D03*
D12*
X1076200Y32455D03*
D13*
X1066200Y7455D03*
X1061200Y7455D03*
D12*
X981200Y32455D03*
D13*
X1056200Y7455D03*
X1051200Y7455D03*
X1046200Y7455D03*
X1041200Y7455D03*
X1036200Y7455D03*
X1031200Y7455D03*
X1026200Y7455D03*
X1021200Y7455D03*
X1016200Y7455D03*
X1011200Y7455D03*
X1006200Y7455D03*
X1001200Y7455D03*
X996200Y7455D03*
X991200Y7455D03*
D10*
X983615Y389335D03*
X983615Y399335D03*
X1073785Y389335D03*
X1073785Y399335D03*
D14*
X1013820Y280390D03*
X1023820Y280390D03*
X1028820Y280390D03*
X1033820Y280390D03*
X1038820Y280390D03*
X1043820Y280390D03*
X1048820Y280390D03*
X1053820Y280390D03*
X1018820Y280390D03*
X1053820Y275390D03*
X1053820Y270390D03*
X1053820Y265390D03*
X1053820Y260390D03*
X1053820Y255390D03*
X1053820Y250390D03*
X1053820Y245390D03*
X1053820Y240390D03*
X1048820Y240390D03*
X1043820Y240390D03*
X1038820Y240390D03*
X1033820Y240390D03*
X1028820Y240390D03*
X1023820Y240390D03*
X1018820Y240390D03*
X1013820Y240390D03*
X1013820Y245390D03*
X1013820Y250390D03*
X1013820Y255390D03*
X1013820Y260390D03*
X1013820Y265390D03*
X1013820Y270390D03*
X1013820Y275390D03*
X1023820Y270390D03*
X1028820Y270390D03*
X1033820Y270390D03*
X1038820Y270390D03*
X1043820Y270390D03*
X1043820Y260390D03*
X1043820Y255390D03*
X1043820Y250390D03*
X1038820Y250390D03*
X1033820Y250390D03*
X1028820Y250390D03*
X1023820Y250390D03*
X1023820Y255390D03*
X1023820Y260390D03*
X1023820Y265390D03*
X1028820Y265390D03*
X1038820Y265390D03*
X1038820Y255390D03*
X1028820Y255390D03*
D15*
X1042450Y367030D03*
X1014950Y367030D03*
D16*
X1028700Y351780D03*
X1028700Y382280D03*
D10*
X996950Y268050D03*
X996950Y278050D03*
D17*
X1033980Y222250D03*
X1058980Y222250D03*
D18*
X1028785Y338455D03*
X1017185Y338455D03*
D10*
X1005205Y333930D03*
X1005205Y323930D03*
X1005205Y344250D03*
X1005205Y354250D03*
D19*
X996950Y257285D03*
X996950Y239285D03*
D10*
X1013460Y227250D03*
X1013460Y217250D03*
X1052830Y185500D03*
X1052830Y195500D03*
D20*
X1034700Y133900D03*
D21*
X1017200Y198755D03*
X1040200Y198755D03*
D10*
X1033700Y185420D03*
X1023700Y185420D03*
D18*
X1017185Y324485D03*
X1028785Y324485D03*
D10*
X1218645Y350520D03*
X1228645Y350520D03*
D11*
X1231740Y320700D03*
X1231740Y339700D03*
X1210740Y330200D03*
D10*
X1212295Y309880D03*
X1222295Y309880D03*
X1212295Y299720D03*
X1222295Y299720D03*
D12*
X1238760Y32455D03*
D13*
X1228760Y7455D03*
X1223760Y7455D03*
D12*
X1143760Y32455D03*
D13*
X1218760Y7455D03*
X1213760Y7455D03*
X1208760Y7455D03*
X1203760Y7455D03*
X1198760Y7455D03*
X1193760Y7455D03*
X1188760Y7455D03*
X1183760Y7455D03*
X1178760Y7455D03*
X1173760Y7455D03*
X1168760Y7455D03*
X1163760Y7455D03*
X1158760Y7455D03*
X1153760Y7455D03*
D10*
X1146175Y389335D03*
X1146175Y399335D03*
X1236345Y389335D03*
X1236345Y399335D03*
D14*
X1176380Y280390D03*
X1186380Y280390D03*
X1191380Y280390D03*
X1196380Y280390D03*
X1201380Y280390D03*
X1206380Y280390D03*
X1211380Y280390D03*
X1216380Y280390D03*
X1181380Y280390D03*
X1216380Y275390D03*
X1216380Y270390D03*
X1216380Y265390D03*
X1216380Y260390D03*
X1216380Y255390D03*
X1216380Y250390D03*
X1216380Y245390D03*
X1216380Y240390D03*
X1211380Y240390D03*
X1206380Y240390D03*
X1201380Y240390D03*
X1196380Y240390D03*
X1191380Y240390D03*
X1186380Y240390D03*
X1181380Y240390D03*
X1176380Y240390D03*
X1176380Y245390D03*
X1176380Y250390D03*
X1176380Y255390D03*
X1176380Y260390D03*
X1176380Y265390D03*
X1176380Y270390D03*
X1176380Y275390D03*
X1186380Y270390D03*
X1191380Y270390D03*
X1196380Y270390D03*
X1201380Y270390D03*
X1206380Y270390D03*
X1206380Y260390D03*
X1206380Y255390D03*
X1206380Y250390D03*
X1201380Y250390D03*
X1196380Y250390D03*
X1191380Y250390D03*
X1186380Y250390D03*
X1186380Y255390D03*
X1186380Y260390D03*
X1186380Y265390D03*
X1191380Y265390D03*
X1201380Y265390D03*
X1201380Y255390D03*
X1191380Y255390D03*
D15*
X1205010Y367030D03*
X1177510Y367030D03*
D16*
X1191260Y351780D03*
X1191260Y382280D03*
D10*
X1159510Y268050D03*
X1159510Y278050D03*
D17*
X1196540Y222250D03*
X1221540Y222250D03*
D18*
X1191345Y338455D03*
X1179745Y338455D03*
D10*
X1167765Y333930D03*
X1167765Y323930D03*
X1167765Y344250D03*
X1167765Y354250D03*
D19*
X1159510Y257285D03*
X1159510Y239285D03*
D10*
X1176020Y227250D03*
X1176020Y217250D03*
X1215390Y185500D03*
X1215390Y195500D03*
D20*
X1197260Y133900D03*
D21*
X1179760Y198755D03*
X1202760Y198755D03*
D10*
X1196260Y185420D03*
X1186260Y185420D03*
D18*
X1179745Y324485D03*
X1191345Y324485D03*
D10*
X1381205Y350520D03*
X1391205Y350520D03*
D11*
X1394300Y320700D03*
X1394300Y339700D03*
X1373300Y330200D03*
D10*
X1374855Y309880D03*
X1384855Y309880D03*
X1374855Y299720D03*
X1384855Y299720D03*
D12*
X1401320Y32455D03*
D13*
X1391320Y7455D03*
X1386320Y7455D03*
D12*
X1306320Y32455D03*
D13*
X1381320Y7455D03*
X1376320Y7455D03*
X1371320Y7455D03*
X1366320Y7455D03*
X1361320Y7455D03*
X1356320Y7455D03*
X1351320Y7455D03*
X1346320Y7455D03*
X1341320Y7455D03*
X1336320Y7455D03*
X1331320Y7455D03*
X1326320Y7455D03*
X1321320Y7455D03*
X1316320Y7455D03*
D10*
X1308735Y389335D03*
X1308735Y399335D03*
X1398905Y389335D03*
X1398905Y399335D03*
D14*
X1338940Y280390D03*
X1348940Y280390D03*
X1353940Y280390D03*
X1358940Y280390D03*
X1363940Y280390D03*
X1368940Y280390D03*
X1373940Y280390D03*
X1378940Y280390D03*
X1343940Y280390D03*
X1378940Y275390D03*
X1378940Y270390D03*
X1378940Y265390D03*
X1378940Y260390D03*
X1378940Y255390D03*
X1378940Y250390D03*
X1378940Y245390D03*
X1378940Y240390D03*
X1373940Y240390D03*
X1368940Y240390D03*
X1363940Y240390D03*
X1358940Y240390D03*
X1353940Y240390D03*
X1348940Y240390D03*
X1343940Y240390D03*
X1338940Y240390D03*
X1338940Y245390D03*
X1338940Y250390D03*
X1338940Y255390D03*
X1338940Y260390D03*
X1338940Y265390D03*
X1338940Y270390D03*
X1338940Y275390D03*
X1348940Y270390D03*
X1353940Y270390D03*
X1358940Y270390D03*
X1363940Y270390D03*
X1368940Y270390D03*
X1368940Y260390D03*
X1368940Y255390D03*
X1368940Y250390D03*
X1363940Y250390D03*
X1358940Y250390D03*
X1353940Y250390D03*
X1348940Y250390D03*
X1348940Y255390D03*
X1348940Y260390D03*
X1348940Y265390D03*
X1353940Y265390D03*
X1363940Y265390D03*
X1363940Y255390D03*
X1353940Y255390D03*
D15*
X1367570Y367030D03*
X1340070Y367030D03*
D16*
X1353820Y351780D03*
X1353820Y382280D03*
D10*
X1322070Y268050D03*
X1322070Y278050D03*
D17*
X1359100Y222250D03*
X1384100Y222250D03*
D18*
X1353905Y338455D03*
X1342305Y338455D03*
D10*
X1330325Y333930D03*
X1330325Y323930D03*
X1330325Y344250D03*
X1330325Y354250D03*
D19*
X1322070Y257285D03*
X1322070Y239285D03*
D10*
X1338580Y227250D03*
X1338580Y217250D03*
X1377950Y185500D03*
X1377950Y195500D03*
D20*
X1359820Y133900D03*
D21*
X1342320Y198755D03*
X1365320Y198755D03*
D10*
X1358820Y185420D03*
X1348820Y185420D03*
D18*
X1342305Y324485D03*
X1353905Y324485D03*
D10*
X1543765Y350520D03*
X1553765Y350520D03*
D11*
X1556860Y320700D03*
X1556860Y339700D03*
X1535860Y330200D03*
D10*
X1537415Y309880D03*
X1547415Y309880D03*
X1537415Y299720D03*
X1547415Y299720D03*
D12*
X1563880Y32455D03*
D13*
X1553880Y7455D03*
X1548880Y7455D03*
D12*
X1468880Y32455D03*
D13*
X1543880Y7455D03*
X1538880Y7455D03*
X1533880Y7455D03*
X1528880Y7455D03*
X1523880Y7455D03*
X1518880Y7455D03*
X1513880Y7455D03*
X1508880Y7455D03*
X1503880Y7455D03*
X1498880Y7455D03*
X1493880Y7455D03*
X1488880Y7455D03*
X1483880Y7455D03*
X1478880Y7455D03*
D10*
X1471295Y389335D03*
X1471295Y399335D03*
X1561465Y389335D03*
X1561465Y399335D03*
D14*
X1501500Y280390D03*
X1511500Y280390D03*
X1516500Y280390D03*
X1521500Y280390D03*
X1526500Y280390D03*
X1531500Y280390D03*
X1536500Y280390D03*
X1541500Y280390D03*
X1506500Y280390D03*
X1541500Y275390D03*
X1541500Y270390D03*
X1541500Y265390D03*
X1541500Y260390D03*
X1541500Y255390D03*
X1541500Y250390D03*
X1541500Y245390D03*
X1541500Y240390D03*
X1536500Y240390D03*
X1531500Y240390D03*
X1526500Y240390D03*
X1521500Y240390D03*
X1516500Y240390D03*
X1511500Y240390D03*
X1506500Y240390D03*
X1501500Y240390D03*
X1501500Y245390D03*
X1501500Y250390D03*
X1501500Y255390D03*
X1501500Y260390D03*
X1501500Y265390D03*
X1501500Y270390D03*
X1501500Y275390D03*
X1511500Y270390D03*
X1516500Y270390D03*
X1521500Y270390D03*
X1526500Y270390D03*
X1531500Y270390D03*
X1531500Y260390D03*
X1531500Y255390D03*
X1531500Y250390D03*
X1526500Y250390D03*
X1521500Y250390D03*
X1516500Y250390D03*
X1511500Y250390D03*
X1511500Y255390D03*
X1511500Y260390D03*
X1511500Y265390D03*
X1516500Y265390D03*
X1526500Y265390D03*
X1526500Y255390D03*
X1516500Y255390D03*
D15*
X1530130Y367030D03*
X1502630Y367030D03*
D16*
X1516380Y351780D03*
X1516380Y382280D03*
D10*
X1484630Y268050D03*
X1484630Y278050D03*
D17*
X1521660Y222250D03*
X1546660Y222250D03*
D18*
X1516465Y338455D03*
X1504865Y338455D03*
D10*
X1492885Y333930D03*
X1492885Y323930D03*
X1492885Y344250D03*
X1492885Y354250D03*
D19*
X1484630Y257285D03*
X1484630Y239285D03*
D10*
X1501140Y227250D03*
X1501140Y217250D03*
X1540510Y185500D03*
X1540510Y195500D03*
D20*
X1522380Y133900D03*
D21*
X1504880Y198755D03*
X1527880Y198755D03*
D10*
X1521380Y185420D03*
X1511380Y185420D03*
D18*
X1504865Y324485D03*
X1516465Y324485D03*
D10*
X80725Y762000D03*
X90725Y762000D03*
D11*
X93820Y732180D03*
X93820Y751180D03*
X72820Y741680D03*
D10*
X74375Y721360D03*
X84375Y721360D03*
X74375Y711200D03*
X84375Y711200D03*
D12*
X100840Y443935D03*
D13*
X90840Y418935D03*
X85840Y418935D03*
D12*
X5840Y443935D03*
D13*
X80840Y418935D03*
X75840Y418935D03*
X70840Y418935D03*
X65840Y418935D03*
X60840Y418935D03*
X55840Y418935D03*
X50840Y418935D03*
X45840Y418935D03*
X40840Y418935D03*
X35840Y418935D03*
X30840Y418935D03*
X25840Y418935D03*
X20840Y418935D03*
X15840Y418935D03*
D10*
X8255Y800815D03*
X8255Y810815D03*
X98425Y800815D03*
X98425Y810815D03*
D14*
X38460Y691870D03*
X48460Y691870D03*
X53460Y691870D03*
X58460Y691870D03*
X63460Y691870D03*
X68460Y691870D03*
X73460Y691870D03*
X78460Y691870D03*
X43460Y691870D03*
X78460Y686870D03*
X78460Y681870D03*
X78460Y676870D03*
X78460Y671870D03*
X78460Y666870D03*
X78460Y661870D03*
X78460Y656870D03*
X78460Y651870D03*
X73460Y651870D03*
X68460Y651870D03*
X63460Y651870D03*
X58460Y651870D03*
X53460Y651870D03*
X48460Y651870D03*
X43460Y651870D03*
X38460Y651870D03*
X38460Y656870D03*
X38460Y661870D03*
X38460Y666870D03*
X38460Y671870D03*
X38460Y676870D03*
X38460Y681870D03*
X38460Y686870D03*
X48460Y681870D03*
X53460Y681870D03*
X58460Y681870D03*
X63460Y681870D03*
X68460Y681870D03*
X68460Y671870D03*
X68460Y666870D03*
X68460Y661870D03*
X63460Y661870D03*
X58460Y661870D03*
X53460Y661870D03*
X48460Y661870D03*
X48460Y666870D03*
X48460Y671870D03*
X48460Y676870D03*
X53460Y676870D03*
X63460Y676870D03*
X63460Y666870D03*
X53460Y666870D03*
D15*
X67090Y778510D03*
X39590Y778510D03*
D16*
X53340Y763260D03*
X53340Y793760D03*
D10*
X21590Y679530D03*
X21590Y689530D03*
D17*
X58620Y633730D03*
X83620Y633730D03*
D18*
X53425Y749935D03*
X41825Y749935D03*
D10*
X29845Y745410D03*
X29845Y735410D03*
X29845Y755730D03*
X29845Y765730D03*
D19*
X21590Y668765D03*
X21590Y650765D03*
D10*
X38100Y638730D03*
X38100Y628730D03*
X77470Y596980D03*
X77470Y606980D03*
D20*
X59340Y545380D03*
D21*
X41840Y610235D03*
X64840Y610235D03*
D10*
X58340Y596900D03*
X48340Y596900D03*
D18*
X41825Y735965D03*
X53425Y735965D03*
D10*
X243285Y762000D03*
X253285Y762000D03*
D11*
X256380Y732180D03*
X256380Y751180D03*
X235380Y741680D03*
D10*
X236935Y721360D03*
X246935Y721360D03*
X236935Y711200D03*
X246935Y711200D03*
D12*
X263400Y443935D03*
D13*
X253400Y418935D03*
X248400Y418935D03*
D12*
X168400Y443935D03*
D13*
X243400Y418935D03*
X238400Y418935D03*
X233400Y418935D03*
X228400Y418935D03*
X223400Y418935D03*
X218400Y418935D03*
X213400Y418935D03*
X208400Y418935D03*
X203400Y418935D03*
X198400Y418935D03*
X193400Y418935D03*
X188400Y418935D03*
X183400Y418935D03*
X178400Y418935D03*
D10*
X170815Y800815D03*
X170815Y810815D03*
X260985Y800815D03*
X260985Y810815D03*
D14*
X201020Y691870D03*
X211020Y691870D03*
X216020Y691870D03*
X221020Y691870D03*
X226020Y691870D03*
X231020Y691870D03*
X236020Y691870D03*
X241020Y691870D03*
X206020Y691870D03*
X241020Y686870D03*
X241020Y681870D03*
X241020Y676870D03*
X241020Y671870D03*
X241020Y666870D03*
X241020Y661870D03*
X241020Y656870D03*
X241020Y651870D03*
X236020Y651870D03*
X231020Y651870D03*
X226020Y651870D03*
X221020Y651870D03*
X216020Y651870D03*
X211020Y651870D03*
X206020Y651870D03*
X201020Y651870D03*
X201020Y656870D03*
X201020Y661870D03*
X201020Y666870D03*
X201020Y671870D03*
X201020Y676870D03*
X201020Y681870D03*
X201020Y686870D03*
X211020Y681870D03*
X216020Y681870D03*
X221020Y681870D03*
X226020Y681870D03*
X231020Y681870D03*
X231020Y671870D03*
X231020Y666870D03*
X231020Y661870D03*
X226020Y661870D03*
X221020Y661870D03*
X216020Y661870D03*
X211020Y661870D03*
X211020Y666870D03*
X211020Y671870D03*
X211020Y676870D03*
X216020Y676870D03*
X226020Y676870D03*
X226020Y666870D03*
X216020Y666870D03*
D15*
X229650Y778510D03*
X202150Y778510D03*
D16*
X215900Y763260D03*
X215900Y793760D03*
D10*
X184150Y679530D03*
X184150Y689530D03*
D17*
X221180Y633730D03*
X246180Y633730D03*
D18*
X215985Y749935D03*
X204385Y749935D03*
D10*
X192405Y745410D03*
X192405Y735410D03*
X192405Y755730D03*
X192405Y765730D03*
D19*
X184150Y668765D03*
X184150Y650765D03*
D10*
X200660Y638730D03*
X200660Y628730D03*
X240030Y596980D03*
X240030Y606980D03*
D20*
X221900Y545380D03*
D21*
X204400Y610235D03*
X227400Y610235D03*
D10*
X220900Y596900D03*
X210900Y596900D03*
D18*
X204385Y735965D03*
X215985Y735965D03*
D10*
X405845Y762000D03*
X415845Y762000D03*
D11*
X418940Y732180D03*
X418940Y751180D03*
X397940Y741680D03*
D10*
X399495Y721360D03*
X409495Y721360D03*
X399495Y711200D03*
X409495Y711200D03*
D12*
X425960Y443935D03*
D13*
X415960Y418935D03*
X410960Y418935D03*
D12*
X330960Y443935D03*
D13*
X405960Y418935D03*
X400960Y418935D03*
X395960Y418935D03*
X390960Y418935D03*
X385960Y418935D03*
X380960Y418935D03*
X375960Y418935D03*
X370960Y418935D03*
X365960Y418935D03*
X360960Y418935D03*
X355960Y418935D03*
X350960Y418935D03*
X345960Y418935D03*
X340960Y418935D03*
D10*
X333375Y800815D03*
X333375Y810815D03*
X423545Y800815D03*
X423545Y810815D03*
D14*
X363580Y691870D03*
X373580Y691870D03*
X378580Y691870D03*
X383580Y691870D03*
X388580Y691870D03*
X393580Y691870D03*
X398580Y691870D03*
X403580Y691870D03*
X368580Y691870D03*
X403580Y686870D03*
X403580Y681870D03*
X403580Y676870D03*
X403580Y671870D03*
X403580Y666870D03*
X403580Y661870D03*
X403580Y656870D03*
X403580Y651870D03*
X398580Y651870D03*
X393580Y651870D03*
X388580Y651870D03*
X383580Y651870D03*
X378580Y651870D03*
X373580Y651870D03*
X368580Y651870D03*
X363580Y651870D03*
X363580Y656870D03*
X363580Y661870D03*
X363580Y666870D03*
X363580Y671870D03*
X363580Y676870D03*
X363580Y681870D03*
X363580Y686870D03*
X373580Y681870D03*
X378580Y681870D03*
X383580Y681870D03*
X388580Y681870D03*
X393580Y681870D03*
X393580Y671870D03*
X393580Y666870D03*
X393580Y661870D03*
X388580Y661870D03*
X383580Y661870D03*
X378580Y661870D03*
X373580Y661870D03*
X373580Y666870D03*
X373580Y671870D03*
X373580Y676870D03*
X378580Y676870D03*
X388580Y676870D03*
X388580Y666870D03*
X378580Y666870D03*
D15*
X392210Y778510D03*
X364710Y778510D03*
D16*
X378460Y763260D03*
X378460Y793760D03*
D10*
X346710Y679530D03*
X346710Y689530D03*
D17*
X383740Y633730D03*
X408740Y633730D03*
D18*
X378545Y749935D03*
X366945Y749935D03*
D10*
X354965Y745410D03*
X354965Y735410D03*
X354965Y755730D03*
X354965Y765730D03*
D19*
X346710Y668765D03*
X346710Y650765D03*
D10*
X363220Y638730D03*
X363220Y628730D03*
X402590Y596980D03*
X402590Y606980D03*
D20*
X384460Y545380D03*
D21*
X366960Y610235D03*
X389960Y610235D03*
D10*
X383460Y596900D03*
X373460Y596900D03*
D18*
X366945Y735965D03*
X378545Y735965D03*
D10*
X568405Y762000D03*
X578405Y762000D03*
D11*
X581500Y732180D03*
X581500Y751180D03*
X560500Y741680D03*
D10*
X562055Y721360D03*
X572055Y721360D03*
X562055Y711200D03*
X572055Y711200D03*
D12*
X588520Y443935D03*
D13*
X578520Y418935D03*
X573520Y418935D03*
D12*
X493520Y443935D03*
D13*
X568520Y418935D03*
X563520Y418935D03*
X558520Y418935D03*
X553520Y418935D03*
X548520Y418935D03*
X543520Y418935D03*
X538520Y418935D03*
X533520Y418935D03*
X528520Y418935D03*
X523520Y418935D03*
X518520Y418935D03*
X513520Y418935D03*
X508520Y418935D03*
X503520Y418935D03*
D10*
X495935Y800815D03*
X495935Y810815D03*
X586105Y800815D03*
X586105Y810815D03*
D14*
X526140Y691870D03*
X536140Y691870D03*
X541140Y691870D03*
X546140Y691870D03*
X551140Y691870D03*
X556140Y691870D03*
X561140Y691870D03*
X566140Y691870D03*
X531140Y691870D03*
X566140Y686870D03*
X566140Y681870D03*
X566140Y676870D03*
X566140Y671870D03*
X566140Y666870D03*
X566140Y661870D03*
X566140Y656870D03*
X566140Y651870D03*
X561140Y651870D03*
X556140Y651870D03*
X551140Y651870D03*
X546140Y651870D03*
X541140Y651870D03*
X536140Y651870D03*
X531140Y651870D03*
X526140Y651870D03*
X526140Y656870D03*
X526140Y661870D03*
X526140Y666870D03*
X526140Y671870D03*
X526140Y676870D03*
X526140Y681870D03*
X526140Y686870D03*
X536140Y681870D03*
X541140Y681870D03*
X546140Y681870D03*
X551140Y681870D03*
X556140Y681870D03*
X556140Y671870D03*
X556140Y666870D03*
X556140Y661870D03*
X551140Y661870D03*
X546140Y661870D03*
X541140Y661870D03*
X536140Y661870D03*
X536140Y666870D03*
X536140Y671870D03*
X536140Y676870D03*
X541140Y676870D03*
X551140Y676870D03*
X551140Y666870D03*
X541140Y666870D03*
D15*
X554770Y778510D03*
X527270Y778510D03*
D16*
X541020Y763260D03*
X541020Y793760D03*
D10*
X509270Y679530D03*
X509270Y689530D03*
D17*
X546300Y633730D03*
X571300Y633730D03*
D18*
X541105Y749935D03*
X529505Y749935D03*
D10*
X517525Y745410D03*
X517525Y735410D03*
X517525Y755730D03*
X517525Y765730D03*
D19*
X509270Y668765D03*
X509270Y650765D03*
D10*
X525780Y638730D03*
X525780Y628730D03*
X565150Y596980D03*
X565150Y606980D03*
D20*
X547020Y545380D03*
D21*
X529520Y610235D03*
X552520Y610235D03*
D10*
X546020Y596900D03*
X536020Y596900D03*
D18*
X529505Y735965D03*
X541105Y735965D03*
D10*
X730965Y762000D03*
X740965Y762000D03*
D11*
X744060Y732180D03*
X744060Y751180D03*
X723060Y741680D03*
D10*
X724615Y721360D03*
X734615Y721360D03*
X724615Y711200D03*
X734615Y711200D03*
D12*
X751080Y443935D03*
D13*
X741080Y418935D03*
X736080Y418935D03*
D12*
X656080Y443935D03*
D13*
X731080Y418935D03*
X726080Y418935D03*
X721080Y418935D03*
X716080Y418935D03*
X711080Y418935D03*
X706080Y418935D03*
X701080Y418935D03*
X696080Y418935D03*
X691080Y418935D03*
X686080Y418935D03*
X681080Y418935D03*
X676080Y418935D03*
X671080Y418935D03*
X666080Y418935D03*
D10*
X658495Y800815D03*
X658495Y810815D03*
X748665Y800815D03*
X748665Y810815D03*
D14*
X688700Y691870D03*
X698700Y691870D03*
X703700Y691870D03*
X708700Y691870D03*
X713700Y691870D03*
X718700Y691870D03*
X723700Y691870D03*
X728700Y691870D03*
X693700Y691870D03*
X728700Y686870D03*
X728700Y681870D03*
X728700Y676870D03*
X728700Y671870D03*
X728700Y666870D03*
X728700Y661870D03*
X728700Y656870D03*
X728700Y651870D03*
X723700Y651870D03*
X718700Y651870D03*
X713700Y651870D03*
X708700Y651870D03*
X703700Y651870D03*
X698700Y651870D03*
X693700Y651870D03*
X688700Y651870D03*
X688700Y656870D03*
X688700Y661870D03*
X688700Y666870D03*
X688700Y671870D03*
X688700Y676870D03*
X688700Y681870D03*
X688700Y686870D03*
X698700Y681870D03*
X703700Y681870D03*
X708700Y681870D03*
X713700Y681870D03*
X718700Y681870D03*
X718700Y671870D03*
X718700Y666870D03*
X718700Y661870D03*
X713700Y661870D03*
X708700Y661870D03*
X703700Y661870D03*
X698700Y661870D03*
X698700Y666870D03*
X698700Y671870D03*
X698700Y676870D03*
X703700Y676870D03*
X713700Y676870D03*
X713700Y666870D03*
X703700Y666870D03*
D15*
X717330Y778510D03*
X689830Y778510D03*
D16*
X703580Y763260D03*
X703580Y793760D03*
D10*
X671830Y679530D03*
X671830Y689530D03*
D17*
X708860Y633730D03*
X733860Y633730D03*
D18*
X703665Y749935D03*
X692065Y749935D03*
D10*
X680085Y745410D03*
X680085Y735410D03*
X680085Y755730D03*
X680085Y765730D03*
D19*
X671830Y668765D03*
X671830Y650765D03*
D10*
X688340Y638730D03*
X688340Y628730D03*
X727710Y596980D03*
X727710Y606980D03*
D20*
X709580Y545380D03*
D21*
X692080Y610235D03*
X715080Y610235D03*
D10*
X708580Y596900D03*
X698580Y596900D03*
D18*
X692065Y735965D03*
X703665Y735965D03*
D10*
X893525Y762000D03*
X903525Y762000D03*
D11*
X906620Y732180D03*
X906620Y751180D03*
X885620Y741680D03*
D10*
X887175Y721360D03*
X897175Y721360D03*
X887175Y711200D03*
X897175Y711200D03*
D12*
X913640Y443935D03*
D13*
X903640Y418935D03*
X898640Y418935D03*
D12*
X818640Y443935D03*
D13*
X893640Y418935D03*
X888640Y418935D03*
X883640Y418935D03*
X878640Y418935D03*
X873640Y418935D03*
X868640Y418935D03*
X863640Y418935D03*
X858640Y418935D03*
X853640Y418935D03*
X848640Y418935D03*
X843640Y418935D03*
X838640Y418935D03*
X833640Y418935D03*
X828640Y418935D03*
D10*
X821055Y800815D03*
X821055Y810815D03*
X911225Y800815D03*
X911225Y810815D03*
D14*
X851260Y691870D03*
X861260Y691870D03*
X866260Y691870D03*
X871260Y691870D03*
X876260Y691870D03*
X881260Y691870D03*
X886260Y691870D03*
X891260Y691870D03*
X856260Y691870D03*
X891260Y686870D03*
X891260Y681870D03*
X891260Y676870D03*
X891260Y671870D03*
X891260Y666870D03*
X891260Y661870D03*
X891260Y656870D03*
X891260Y651870D03*
X886260Y651870D03*
X881260Y651870D03*
X876260Y651870D03*
X871260Y651870D03*
X866260Y651870D03*
X861260Y651870D03*
X856260Y651870D03*
X851260Y651870D03*
X851260Y656870D03*
X851260Y661870D03*
X851260Y666870D03*
X851260Y671870D03*
X851260Y676870D03*
X851260Y681870D03*
X851260Y686870D03*
X861260Y681870D03*
X866260Y681870D03*
X871260Y681870D03*
X876260Y681870D03*
X881260Y681870D03*
X881260Y671870D03*
X881260Y666870D03*
X881260Y661870D03*
X876260Y661870D03*
X871260Y661870D03*
X866260Y661870D03*
X861260Y661870D03*
X861260Y666870D03*
X861260Y671870D03*
X861260Y676870D03*
X866260Y676870D03*
X876260Y676870D03*
X876260Y666870D03*
X866260Y666870D03*
D15*
X879890Y778510D03*
X852390Y778510D03*
D16*
X866140Y763260D03*
X866140Y793760D03*
D10*
X834390Y679530D03*
X834390Y689530D03*
D17*
X871420Y633730D03*
X896420Y633730D03*
D18*
X866225Y749935D03*
X854625Y749935D03*
D10*
X842645Y745410D03*
X842645Y735410D03*
X842645Y755730D03*
X842645Y765730D03*
D19*
X834390Y668765D03*
X834390Y650765D03*
D10*
X850900Y638730D03*
X850900Y628730D03*
X890270Y596980D03*
X890270Y606980D03*
D20*
X872140Y545380D03*
D21*
X854640Y610235D03*
X877640Y610235D03*
D10*
X871140Y596900D03*
X861140Y596900D03*
D18*
X854625Y735965D03*
X866225Y735965D03*
D10*
X1056085Y762000D03*
X1066085Y762000D03*
D11*
X1069180Y732180D03*
X1069180Y751180D03*
X1048180Y741680D03*
D10*
X1049735Y721360D03*
X1059735Y721360D03*
X1049735Y711200D03*
X1059735Y711200D03*
D12*
X1076200Y443935D03*
D13*
X1066200Y418935D03*
X1061200Y418935D03*
D12*
X981200Y443935D03*
D13*
X1056200Y418935D03*
X1051200Y418935D03*
X1046200Y418935D03*
X1041200Y418935D03*
X1036200Y418935D03*
X1031200Y418935D03*
X1026200Y418935D03*
X1021200Y418935D03*
X1016200Y418935D03*
X1011200Y418935D03*
X1006200Y418935D03*
X1001200Y418935D03*
X996200Y418935D03*
X991200Y418935D03*
D10*
X983615Y800815D03*
X983615Y810815D03*
X1073785Y800815D03*
X1073785Y810815D03*
D14*
X1013820Y691870D03*
X1023820Y691870D03*
X1028820Y691870D03*
X1033820Y691870D03*
X1038820Y691870D03*
X1043820Y691870D03*
X1048820Y691870D03*
X1053820Y691870D03*
X1018820Y691870D03*
X1053820Y686870D03*
X1053820Y681870D03*
X1053820Y676870D03*
X1053820Y671870D03*
X1053820Y666870D03*
X1053820Y661870D03*
X1053820Y656870D03*
X1053820Y651870D03*
X1048820Y651870D03*
X1043820Y651870D03*
X1038820Y651870D03*
X1033820Y651870D03*
X1028820Y651870D03*
X1023820Y651870D03*
X1018820Y651870D03*
X1013820Y651870D03*
X1013820Y656870D03*
X1013820Y661870D03*
X1013820Y666870D03*
X1013820Y671870D03*
X1013820Y676870D03*
X1013820Y681870D03*
X1013820Y686870D03*
X1023820Y681870D03*
X1028820Y681870D03*
X1033820Y681870D03*
X1038820Y681870D03*
X1043820Y681870D03*
X1043820Y671870D03*
X1043820Y666870D03*
X1043820Y661870D03*
X1038820Y661870D03*
X1033820Y661870D03*
X1028820Y661870D03*
X1023820Y661870D03*
X1023820Y666870D03*
X1023820Y671870D03*
X1023820Y676870D03*
X1028820Y676870D03*
X1038820Y676870D03*
X1038820Y666870D03*
X1028820Y666870D03*
D15*
X1042450Y778510D03*
X1014950Y778510D03*
D16*
X1028700Y763260D03*
X1028700Y793760D03*
D10*
X996950Y679530D03*
X996950Y689530D03*
D17*
X1033980Y633730D03*
X1058980Y633730D03*
D18*
X1028785Y749935D03*
X1017185Y749935D03*
D10*
X1005205Y745410D03*
X1005205Y735410D03*
X1005205Y755730D03*
X1005205Y765730D03*
D19*
X996950Y668765D03*
X996950Y650765D03*
D10*
X1013460Y638730D03*
X1013460Y628730D03*
X1052830Y596980D03*
X1052830Y606980D03*
D20*
X1034700Y545380D03*
D21*
X1017200Y610235D03*
X1040200Y610235D03*
D10*
X1033700Y596900D03*
X1023700Y596900D03*
D18*
X1017185Y735965D03*
X1028785Y735965D03*
D10*
X1218645Y762000D03*
X1228645Y762000D03*
D11*
X1231740Y732180D03*
X1231740Y751180D03*
X1210740Y741680D03*
D10*
X1212295Y721360D03*
X1222295Y721360D03*
X1212295Y711200D03*
X1222295Y711200D03*
D12*
X1238760Y443935D03*
D13*
X1228760Y418935D03*
X1223760Y418935D03*
D12*
X1143760Y443935D03*
D13*
X1218760Y418935D03*
X1213760Y418935D03*
X1208760Y418935D03*
X1203760Y418935D03*
X1198760Y418935D03*
X1193760Y418935D03*
X1188760Y418935D03*
X1183760Y418935D03*
X1178760Y418935D03*
X1173760Y418935D03*
X1168760Y418935D03*
X1163760Y418935D03*
X1158760Y418935D03*
X1153760Y418935D03*
D10*
X1146175Y800815D03*
X1146175Y810815D03*
X1236345Y800815D03*
X1236345Y810815D03*
D14*
X1176380Y691870D03*
X1186380Y691870D03*
X1191380Y691870D03*
X1196380Y691870D03*
X1201380Y691870D03*
X1206380Y691870D03*
X1211380Y691870D03*
X1216380Y691870D03*
X1181380Y691870D03*
X1216380Y686870D03*
X1216380Y681870D03*
X1216380Y676870D03*
X1216380Y671870D03*
X1216380Y666870D03*
X1216380Y661870D03*
X1216380Y656870D03*
X1216380Y651870D03*
X1211380Y651870D03*
X1206380Y651870D03*
X1201380Y651870D03*
X1196380Y651870D03*
X1191380Y651870D03*
X1186380Y651870D03*
X1181380Y651870D03*
X1176380Y651870D03*
X1176380Y656870D03*
X1176380Y661870D03*
X1176380Y666870D03*
X1176380Y671870D03*
X1176380Y676870D03*
X1176380Y681870D03*
X1176380Y686870D03*
X1186380Y681870D03*
X1191380Y681870D03*
X1196380Y681870D03*
X1201380Y681870D03*
X1206380Y681870D03*
X1206380Y671870D03*
X1206380Y666870D03*
X1206380Y661870D03*
X1201380Y661870D03*
X1196380Y661870D03*
X1191380Y661870D03*
X1186380Y661870D03*
X1186380Y666870D03*
X1186380Y671870D03*
X1186380Y676870D03*
X1191380Y676870D03*
X1201380Y676870D03*
X1201380Y666870D03*
X1191380Y666870D03*
D15*
X1205010Y778510D03*
X1177510Y778510D03*
D16*
X1191260Y763260D03*
X1191260Y793760D03*
D10*
X1159510Y679530D03*
X1159510Y689530D03*
D17*
X1196540Y633730D03*
X1221540Y633730D03*
D18*
X1191345Y749935D03*
X1179745Y749935D03*
D10*
X1167765Y745410D03*
X1167765Y735410D03*
X1167765Y755730D03*
X1167765Y765730D03*
D19*
X1159510Y668765D03*
X1159510Y650765D03*
D10*
X1176020Y638730D03*
X1176020Y628730D03*
X1215390Y596980D03*
X1215390Y606980D03*
D20*
X1197260Y545380D03*
D21*
X1179760Y610235D03*
X1202760Y610235D03*
D10*
X1196260Y596900D03*
X1186260Y596900D03*
D18*
X1179745Y735965D03*
X1191345Y735965D03*
D10*
X1381205Y762000D03*
X1391205Y762000D03*
D11*
X1394300Y732180D03*
X1394300Y751180D03*
X1373300Y741680D03*
D10*
X1374855Y721360D03*
X1384855Y721360D03*
X1374855Y711200D03*
X1384855Y711200D03*
D12*
X1401320Y443935D03*
D13*
X1391320Y418935D03*
X1386320Y418935D03*
D12*
X1306320Y443935D03*
D13*
X1381320Y418935D03*
X1376320Y418935D03*
X1371320Y418935D03*
X1366320Y418935D03*
X1361320Y418935D03*
X1356320Y418935D03*
X1351320Y418935D03*
X1346320Y418935D03*
X1341320Y418935D03*
X1336320Y418935D03*
X1331320Y418935D03*
X1326320Y418935D03*
X1321320Y418935D03*
X1316320Y418935D03*
D10*
X1308735Y800815D03*
X1308735Y810815D03*
X1398905Y800815D03*
X1398905Y810815D03*
D14*
X1338940Y691870D03*
X1348940Y691870D03*
X1353940Y691870D03*
X1358940Y691870D03*
X1363940Y691870D03*
X1368940Y691870D03*
X1373940Y691870D03*
X1378940Y691870D03*
X1343940Y691870D03*
X1378940Y686870D03*
X1378940Y681870D03*
X1378940Y676870D03*
X1378940Y671870D03*
X1378940Y666870D03*
X1378940Y661870D03*
X1378940Y656870D03*
X1378940Y651870D03*
X1373940Y651870D03*
X1368940Y651870D03*
X1363940Y651870D03*
X1358940Y651870D03*
X1353940Y651870D03*
X1348940Y651870D03*
X1343940Y651870D03*
X1338940Y651870D03*
X1338940Y656870D03*
X1338940Y661870D03*
X1338940Y666870D03*
X1338940Y671870D03*
X1338940Y676870D03*
X1338940Y681870D03*
X1338940Y686870D03*
X1348940Y681870D03*
X1353940Y681870D03*
X1358940Y681870D03*
X1363940Y681870D03*
X1368940Y681870D03*
X1368940Y671870D03*
X1368940Y666870D03*
X1368940Y661870D03*
X1363940Y661870D03*
X1358940Y661870D03*
X1353940Y661870D03*
X1348940Y661870D03*
X1348940Y666870D03*
X1348940Y671870D03*
X1348940Y676870D03*
X1353940Y676870D03*
X1363940Y676870D03*
X1363940Y666870D03*
X1353940Y666870D03*
D15*
X1367570Y778510D03*
X1340070Y778510D03*
D16*
X1353820Y763260D03*
X1353820Y793760D03*
D10*
X1322070Y679530D03*
X1322070Y689530D03*
D17*
X1359100Y633730D03*
X1384100Y633730D03*
D18*
X1353905Y749935D03*
X1342305Y749935D03*
D10*
X1330325Y745410D03*
X1330325Y735410D03*
X1330325Y755730D03*
X1330325Y765730D03*
D19*
X1322070Y668765D03*
X1322070Y650765D03*
D10*
X1338580Y638730D03*
X1338580Y628730D03*
X1377950Y596980D03*
X1377950Y606980D03*
D20*
X1359820Y545380D03*
D21*
X1342320Y610235D03*
X1365320Y610235D03*
D10*
X1358820Y596900D03*
X1348820Y596900D03*
D18*
X1342305Y735965D03*
X1353905Y735965D03*
D10*
X1543765Y762000D03*
X1553765Y762000D03*
D11*
X1556860Y732180D03*
X1556860Y751180D03*
X1535860Y741680D03*
D10*
X1537415Y721360D03*
X1547415Y721360D03*
X1537415Y711200D03*
X1547415Y711200D03*
D12*
X1563880Y443935D03*
D13*
X1553880Y418935D03*
X1548880Y418935D03*
D12*
X1468880Y443935D03*
D13*
X1543880Y418935D03*
X1538880Y418935D03*
X1533880Y418935D03*
X1528880Y418935D03*
X1523880Y418935D03*
X1518880Y418935D03*
X1513880Y418935D03*
X1508880Y418935D03*
X1503880Y418935D03*
X1498880Y418935D03*
X1493880Y418935D03*
X1488880Y418935D03*
X1483880Y418935D03*
X1478880Y418935D03*
D10*
X1471295Y800815D03*
X1471295Y810815D03*
X1561465Y800815D03*
X1561465Y810815D03*
D14*
X1501500Y691870D03*
X1511500Y691870D03*
X1516500Y691870D03*
X1521500Y691870D03*
X1526500Y691870D03*
X1531500Y691870D03*
X1536500Y691870D03*
X1541500Y691870D03*
X1506500Y691870D03*
X1541500Y686870D03*
X1541500Y681870D03*
X1541500Y676870D03*
X1541500Y671870D03*
X1541500Y666870D03*
X1541500Y661870D03*
X1541500Y656870D03*
X1541500Y651870D03*
X1536500Y651870D03*
X1531500Y651870D03*
X1526500Y651870D03*
X1521500Y651870D03*
X1516500Y651870D03*
X1511500Y651870D03*
X1506500Y651870D03*
X1501500Y651870D03*
X1501500Y656870D03*
X1501500Y661870D03*
X1501500Y666870D03*
X1501500Y671870D03*
X1501500Y676870D03*
X1501500Y681870D03*
X1501500Y686870D03*
X1511500Y681870D03*
X1516500Y681870D03*
X1521500Y681870D03*
X1526500Y681870D03*
X1531500Y681870D03*
X1531500Y671870D03*
X1531500Y666870D03*
X1531500Y661870D03*
X1526500Y661870D03*
X1521500Y661870D03*
X1516500Y661870D03*
X1511500Y661870D03*
X1511500Y666870D03*
X1511500Y671870D03*
X1511500Y676870D03*
X1516500Y676870D03*
X1526500Y676870D03*
X1526500Y666870D03*
X1516500Y666870D03*
D15*
X1530130Y778510D03*
X1502630Y778510D03*
D16*
X1516380Y763260D03*
X1516380Y793760D03*
D10*
X1484630Y679530D03*
X1484630Y689530D03*
D17*
X1521660Y633730D03*
X1546660Y633730D03*
D18*
X1516465Y749935D03*
X1504865Y749935D03*
D10*
X1492885Y745410D03*
X1492885Y735410D03*
X1492885Y755730D03*
X1492885Y765730D03*
D19*
X1484630Y668765D03*
X1484630Y650765D03*
D10*
X1501140Y638730D03*
X1501140Y628730D03*
X1540510Y596980D03*
X1540510Y606980D03*
D20*
X1522380Y545380D03*
D21*
X1504880Y610235D03*
X1527880Y610235D03*
D10*
X1521380Y596900D03*
X1511380Y596900D03*
D18*
X1504865Y735965D03*
X1516465Y735965D03*
D10*
X80725Y1173480D03*
X90725Y1173480D03*
D11*
X93820Y1143660D03*
X93820Y1162660D03*
X72820Y1153160D03*
D10*
X74375Y1132840D03*
X84375Y1132840D03*
X74375Y1122680D03*
X84375Y1122680D03*
D12*
X100840Y855415D03*
D13*
X90840Y830415D03*
X85840Y830415D03*
D12*
X5840Y855415D03*
D13*
X80840Y830415D03*
X75840Y830415D03*
X70840Y830415D03*
X65840Y830415D03*
X60840Y830415D03*
X55840Y830415D03*
X50840Y830415D03*
X45840Y830415D03*
X40840Y830415D03*
X35840Y830415D03*
X30840Y830415D03*
X25840Y830415D03*
X20840Y830415D03*
X15840Y830415D03*
D10*
X8255Y1212295D03*
X8255Y1222295D03*
X98425Y1212295D03*
X98425Y1222295D03*
D14*
X38460Y1103350D03*
X48460Y1103350D03*
X53460Y1103350D03*
X58460Y1103350D03*
X63460Y1103350D03*
X68460Y1103350D03*
X73460Y1103350D03*
X78460Y1103350D03*
X43460Y1103350D03*
X78460Y1098350D03*
X78460Y1093350D03*
X78460Y1088350D03*
X78460Y1083350D03*
X78460Y1078350D03*
X78460Y1073350D03*
X78460Y1068350D03*
X78460Y1063350D03*
X73460Y1063350D03*
X68460Y1063350D03*
X63460Y1063350D03*
X58460Y1063350D03*
X53460Y1063350D03*
X48460Y1063350D03*
X43460Y1063350D03*
X38460Y1063350D03*
X38460Y1068350D03*
X38460Y1073350D03*
X38460Y1078350D03*
X38460Y1083350D03*
X38460Y1088350D03*
X38460Y1093350D03*
X38460Y1098350D03*
X48460Y1093350D03*
X53460Y1093350D03*
X58460Y1093350D03*
X63460Y1093350D03*
X68460Y1093350D03*
X68460Y1083350D03*
X68460Y1078350D03*
X68460Y1073350D03*
X63460Y1073350D03*
X58460Y1073350D03*
X53460Y1073350D03*
X48460Y1073350D03*
X48460Y1078350D03*
X48460Y1083350D03*
X48460Y1088350D03*
X53460Y1088350D03*
X63460Y1088350D03*
X63460Y1078350D03*
X53460Y1078350D03*
D15*
X67090Y1189990D03*
X39590Y1189990D03*
D16*
X53340Y1174740D03*
X53340Y1205240D03*
D10*
X21590Y1091010D03*
X21590Y1101010D03*
D17*
X58620Y1045210D03*
X83620Y1045210D03*
D18*
X53425Y1161415D03*
X41825Y1161415D03*
D10*
X29845Y1156890D03*
X29845Y1146890D03*
X29845Y1167210D03*
X29845Y1177210D03*
D19*
X21590Y1080245D03*
X21590Y1062245D03*
D10*
X38100Y1050210D03*
X38100Y1040210D03*
X77470Y1008460D03*
X77470Y1018460D03*
D20*
X59340Y956860D03*
D21*
X41840Y1021715D03*
X64840Y1021715D03*
D10*
X58340Y1008380D03*
X48340Y1008380D03*
D18*
X41825Y1147445D03*
X53425Y1147445D03*
D10*
X243285Y1173480D03*
X253285Y1173480D03*
D11*
X256380Y1143660D03*
X256380Y1162660D03*
X235380Y1153160D03*
D10*
X236935Y1132840D03*
X246935Y1132840D03*
X236935Y1122680D03*
X246935Y1122680D03*
D12*
X263400Y855415D03*
D13*
X253400Y830415D03*
X248400Y830415D03*
D12*
X168400Y855415D03*
D13*
X243400Y830415D03*
X238400Y830415D03*
X233400Y830415D03*
X228400Y830415D03*
X223400Y830415D03*
X218400Y830415D03*
X213400Y830415D03*
X208400Y830415D03*
X203400Y830415D03*
X198400Y830415D03*
X193400Y830415D03*
X188400Y830415D03*
X183400Y830415D03*
X178400Y830415D03*
D10*
X170815Y1212295D03*
X170815Y1222295D03*
X260985Y1212295D03*
X260985Y1222295D03*
D14*
X201020Y1103350D03*
X211020Y1103350D03*
X216020Y1103350D03*
X221020Y1103350D03*
X226020Y1103350D03*
X231020Y1103350D03*
X236020Y1103350D03*
X241020Y1103350D03*
X206020Y1103350D03*
X241020Y1098350D03*
X241020Y1093350D03*
X241020Y1088350D03*
X241020Y1083350D03*
X241020Y1078350D03*
X241020Y1073350D03*
X241020Y1068350D03*
X241020Y1063350D03*
X236020Y1063350D03*
X231020Y1063350D03*
X226020Y1063350D03*
X221020Y1063350D03*
X216020Y1063350D03*
X211020Y1063350D03*
X206020Y1063350D03*
X201020Y1063350D03*
X201020Y1068350D03*
X201020Y1073350D03*
X201020Y1078350D03*
X201020Y1083350D03*
X201020Y1088350D03*
X201020Y1093350D03*
X201020Y1098350D03*
X211020Y1093350D03*
X216020Y1093350D03*
X221020Y1093350D03*
X226020Y1093350D03*
X231020Y1093350D03*
X231020Y1083350D03*
X231020Y1078350D03*
X231020Y1073350D03*
X226020Y1073350D03*
X221020Y1073350D03*
X216020Y1073350D03*
X211020Y1073350D03*
X211020Y1078350D03*
X211020Y1083350D03*
X211020Y1088350D03*
X216020Y1088350D03*
X226020Y1088350D03*
X226020Y1078350D03*
X216020Y1078350D03*
D15*
X229650Y1189990D03*
X202150Y1189990D03*
D16*
X215900Y1174740D03*
X215900Y1205240D03*
D10*
X184150Y1091010D03*
X184150Y1101010D03*
D17*
X221180Y1045210D03*
X246180Y1045210D03*
D18*
X215985Y1161415D03*
X204385Y1161415D03*
D10*
X192405Y1156890D03*
X192405Y1146890D03*
X192405Y1167210D03*
X192405Y1177210D03*
D19*
X184150Y1080245D03*
X184150Y1062245D03*
D10*
X200660Y1050210D03*
X200660Y1040210D03*
X240030Y1008460D03*
X240030Y1018460D03*
D20*
X221900Y956860D03*
D21*
X204400Y1021715D03*
X227400Y1021715D03*
D10*
X220900Y1008380D03*
X210900Y1008380D03*
D18*
X204385Y1147445D03*
X215985Y1147445D03*
D10*
X405845Y1173480D03*
X415845Y1173480D03*
D11*
X418940Y1143660D03*
X418940Y1162660D03*
X397940Y1153160D03*
D10*
X399495Y1132840D03*
X409495Y1132840D03*
X399495Y1122680D03*
X409495Y1122680D03*
D12*
X425960Y855415D03*
D13*
X415960Y830415D03*
X410960Y830415D03*
D12*
X330960Y855415D03*
D13*
X405960Y830415D03*
X400960Y830415D03*
X395960Y830415D03*
X390960Y830415D03*
X385960Y830415D03*
X380960Y830415D03*
X375960Y830415D03*
X370960Y830415D03*
X365960Y830415D03*
X360960Y830415D03*
X355960Y830415D03*
X350960Y830415D03*
X345960Y830415D03*
X340960Y830415D03*
D10*
X333375Y1212295D03*
X333375Y1222295D03*
X423545Y1212295D03*
X423545Y1222295D03*
D14*
X363580Y1103350D03*
X373580Y1103350D03*
X378580Y1103350D03*
X383580Y1103350D03*
X388580Y1103350D03*
X393580Y1103350D03*
X398580Y1103350D03*
X403580Y1103350D03*
X368580Y1103350D03*
X403580Y1098350D03*
X403580Y1093350D03*
X403580Y1088350D03*
X403580Y1083350D03*
X403580Y1078350D03*
X403580Y1073350D03*
X403580Y1068350D03*
X403580Y1063350D03*
X398580Y1063350D03*
X393580Y1063350D03*
X388580Y1063350D03*
X383580Y1063350D03*
X378580Y1063350D03*
X373580Y1063350D03*
X368580Y1063350D03*
X363580Y1063350D03*
X363580Y1068350D03*
X363580Y1073350D03*
X363580Y1078350D03*
X363580Y1083350D03*
X363580Y1088350D03*
X363580Y1093350D03*
X363580Y1098350D03*
X373580Y1093350D03*
X378580Y1093350D03*
X383580Y1093350D03*
X388580Y1093350D03*
X393580Y1093350D03*
X393580Y1083350D03*
X393580Y1078350D03*
X393580Y1073350D03*
X388580Y1073350D03*
X383580Y1073350D03*
X378580Y1073350D03*
X373580Y1073350D03*
X373580Y1078350D03*
X373580Y1083350D03*
X373580Y1088350D03*
X378580Y1088350D03*
X388580Y1088350D03*
X388580Y1078350D03*
X378580Y1078350D03*
D15*
X392210Y1189990D03*
X364710Y1189990D03*
D16*
X378460Y1174740D03*
X378460Y1205240D03*
D10*
X346710Y1091010D03*
X346710Y1101010D03*
D17*
X383740Y1045210D03*
X408740Y1045210D03*
D18*
X378545Y1161415D03*
X366945Y1161415D03*
D10*
X354965Y1156890D03*
X354965Y1146890D03*
X354965Y1167210D03*
X354965Y1177210D03*
D19*
X346710Y1080245D03*
X346710Y1062245D03*
D10*
X363220Y1050210D03*
X363220Y1040210D03*
X402590Y1008460D03*
X402590Y1018460D03*
D20*
X384460Y956860D03*
D21*
X366960Y1021715D03*
X389960Y1021715D03*
D10*
X383460Y1008380D03*
X373460Y1008380D03*
D18*
X366945Y1147445D03*
X378545Y1147445D03*
D10*
X568405Y1173480D03*
X578405Y1173480D03*
D11*
X581500Y1143660D03*
X581500Y1162660D03*
X560500Y1153160D03*
D10*
X562055Y1132840D03*
X572055Y1132840D03*
X562055Y1122680D03*
X572055Y1122680D03*
D12*
X588520Y855415D03*
D13*
X578520Y830415D03*
X573520Y830415D03*
D12*
X493520Y855415D03*
D13*
X568520Y830415D03*
X563520Y830415D03*
X558520Y830415D03*
X553520Y830415D03*
X548520Y830415D03*
X543520Y830415D03*
X538520Y830415D03*
X533520Y830415D03*
X528520Y830415D03*
X523520Y830415D03*
X518520Y830415D03*
X513520Y830415D03*
X508520Y830415D03*
X503520Y830415D03*
D10*
X495935Y1212295D03*
X495935Y1222295D03*
X586105Y1212295D03*
X586105Y1222295D03*
D14*
X526140Y1103350D03*
X536140Y1103350D03*
X541140Y1103350D03*
X546140Y1103350D03*
X551140Y1103350D03*
X556140Y1103350D03*
X561140Y1103350D03*
X566140Y1103350D03*
X531140Y1103350D03*
X566140Y1098350D03*
X566140Y1093350D03*
X566140Y1088350D03*
X566140Y1083350D03*
X566140Y1078350D03*
X566140Y1073350D03*
X566140Y1068350D03*
X566140Y1063350D03*
X561140Y1063350D03*
X556140Y1063350D03*
X551140Y1063350D03*
X546140Y1063350D03*
X541140Y1063350D03*
X536140Y1063350D03*
X531140Y1063350D03*
X526140Y1063350D03*
X526140Y1068350D03*
X526140Y1073350D03*
X526140Y1078350D03*
X526140Y1083350D03*
X526140Y1088350D03*
X526140Y1093350D03*
X526140Y1098350D03*
X536140Y1093350D03*
X541140Y1093350D03*
X546140Y1093350D03*
X551140Y1093350D03*
X556140Y1093350D03*
X556140Y1083350D03*
X556140Y1078350D03*
X556140Y1073350D03*
X551140Y1073350D03*
X546140Y1073350D03*
X541140Y1073350D03*
X536140Y1073350D03*
X536140Y1078350D03*
X536140Y1083350D03*
X536140Y1088350D03*
X541140Y1088350D03*
X551140Y1088350D03*
X551140Y1078350D03*
X541140Y1078350D03*
D15*
X554770Y1189990D03*
X527270Y1189990D03*
D16*
X541020Y1174740D03*
X541020Y1205240D03*
D10*
X509270Y1091010D03*
X509270Y1101010D03*
D17*
X546300Y1045210D03*
X571300Y1045210D03*
D18*
X541105Y1161415D03*
X529505Y1161415D03*
D10*
X517525Y1156890D03*
X517525Y1146890D03*
X517525Y1167210D03*
X517525Y1177210D03*
D19*
X509270Y1080245D03*
X509270Y1062245D03*
D10*
X525780Y1050210D03*
X525780Y1040210D03*
X565150Y1008460D03*
X565150Y1018460D03*
D20*
X547020Y956860D03*
D21*
X529520Y1021715D03*
X552520Y1021715D03*
D10*
X546020Y1008380D03*
X536020Y1008380D03*
D18*
X529505Y1147445D03*
X541105Y1147445D03*
D10*
X730965Y1173480D03*
X740965Y1173480D03*
D11*
X744060Y1143660D03*
X744060Y1162660D03*
X723060Y1153160D03*
D10*
X724615Y1132840D03*
X734615Y1132840D03*
X724615Y1122680D03*
X734615Y1122680D03*
D12*
X751080Y855415D03*
D13*
X741080Y830415D03*
X736080Y830415D03*
D12*
X656080Y855415D03*
D13*
X731080Y830415D03*
X726080Y830415D03*
X721080Y830415D03*
X716080Y830415D03*
X711080Y830415D03*
X706080Y830415D03*
X701080Y830415D03*
X696080Y830415D03*
X691080Y830415D03*
X686080Y830415D03*
X681080Y830415D03*
X676080Y830415D03*
X671080Y830415D03*
X666080Y830415D03*
D10*
X658495Y1212295D03*
X658495Y1222295D03*
X748665Y1212295D03*
X748665Y1222295D03*
D14*
X688700Y1103350D03*
X698700Y1103350D03*
X703700Y1103350D03*
X708700Y1103350D03*
X713700Y1103350D03*
X718700Y1103350D03*
X723700Y1103350D03*
X728700Y1103350D03*
X693700Y1103350D03*
X728700Y1098350D03*
X728700Y1093350D03*
X728700Y1088350D03*
X728700Y1083350D03*
X728700Y1078350D03*
X728700Y1073350D03*
X728700Y1068350D03*
X728700Y1063350D03*
X723700Y1063350D03*
X718700Y1063350D03*
X713700Y1063350D03*
X708700Y1063350D03*
X703700Y1063350D03*
X698700Y1063350D03*
X693700Y1063350D03*
X688700Y1063350D03*
X688700Y1068350D03*
X688700Y1073350D03*
X688700Y1078350D03*
X688700Y1083350D03*
X688700Y1088350D03*
X688700Y1093350D03*
X688700Y1098350D03*
X698700Y1093350D03*
X703700Y1093350D03*
X708700Y1093350D03*
X713700Y1093350D03*
X718700Y1093350D03*
X718700Y1083350D03*
X718700Y1078350D03*
X718700Y1073350D03*
X713700Y1073350D03*
X708700Y1073350D03*
X703700Y1073350D03*
X698700Y1073350D03*
X698700Y1078350D03*
X698700Y1083350D03*
X698700Y1088350D03*
X703700Y1088350D03*
X713700Y1088350D03*
X713700Y1078350D03*
X703700Y1078350D03*
D15*
X717330Y1189990D03*
X689830Y1189990D03*
D16*
X703580Y1174740D03*
X703580Y1205240D03*
D10*
X671830Y1091010D03*
X671830Y1101010D03*
D17*
X708860Y1045210D03*
X733860Y1045210D03*
D18*
X703665Y1161415D03*
X692065Y1161415D03*
D10*
X680085Y1156890D03*
X680085Y1146890D03*
X680085Y1167210D03*
X680085Y1177210D03*
D19*
X671830Y1080245D03*
X671830Y1062245D03*
D10*
X688340Y1050210D03*
X688340Y1040210D03*
X727710Y1008460D03*
X727710Y1018460D03*
D20*
X709580Y956860D03*
D21*
X692080Y1021715D03*
X715080Y1021715D03*
D10*
X708580Y1008380D03*
X698580Y1008380D03*
D18*
X692065Y1147445D03*
X703665Y1147445D03*
D10*
X893525Y1173480D03*
X903525Y1173480D03*
D11*
X906620Y1143660D03*
X906620Y1162660D03*
X885620Y1153160D03*
D10*
X887175Y1132840D03*
X897175Y1132840D03*
X887175Y1122680D03*
X897175Y1122680D03*
D12*
X913640Y855415D03*
D13*
X903640Y830415D03*
X898640Y830415D03*
D12*
X818640Y855415D03*
D13*
X893640Y830415D03*
X888640Y830415D03*
X883640Y830415D03*
X878640Y830415D03*
X873640Y830415D03*
X868640Y830415D03*
X863640Y830415D03*
X858640Y830415D03*
X853640Y830415D03*
X848640Y830415D03*
X843640Y830415D03*
X838640Y830415D03*
X833640Y830415D03*
X828640Y830415D03*
D10*
X821055Y1212295D03*
X821055Y1222295D03*
X911225Y1212295D03*
X911225Y1222295D03*
D14*
X851260Y1103350D03*
X861260Y1103350D03*
X866260Y1103350D03*
X871260Y1103350D03*
X876260Y1103350D03*
X881260Y1103350D03*
X886260Y1103350D03*
X891260Y1103350D03*
X856260Y1103350D03*
X891260Y1098350D03*
X891260Y1093350D03*
X891260Y1088350D03*
X891260Y1083350D03*
X891260Y1078350D03*
X891260Y1073350D03*
X891260Y1068350D03*
X891260Y1063350D03*
X886260Y1063350D03*
X881260Y1063350D03*
X876260Y1063350D03*
X871260Y1063350D03*
X866260Y1063350D03*
X861260Y1063350D03*
X856260Y1063350D03*
X851260Y1063350D03*
X851260Y1068350D03*
X851260Y1073350D03*
X851260Y1078350D03*
X851260Y1083350D03*
X851260Y1088350D03*
X851260Y1093350D03*
X851260Y1098350D03*
X861260Y1093350D03*
X866260Y1093350D03*
X871260Y1093350D03*
X876260Y1093350D03*
X881260Y1093350D03*
X881260Y1083350D03*
X881260Y1078350D03*
X881260Y1073350D03*
X876260Y1073350D03*
X871260Y1073350D03*
X866260Y1073350D03*
X861260Y1073350D03*
X861260Y1078350D03*
X861260Y1083350D03*
X861260Y1088350D03*
X866260Y1088350D03*
X876260Y1088350D03*
X876260Y1078350D03*
X866260Y1078350D03*
D15*
X879890Y1189990D03*
X852390Y1189990D03*
D16*
X866140Y1174740D03*
X866140Y1205240D03*
D10*
X834390Y1091010D03*
X834390Y1101010D03*
D17*
X871420Y1045210D03*
X896420Y1045210D03*
D18*
X866225Y1161415D03*
X854625Y1161415D03*
D10*
X842645Y1156890D03*
X842645Y1146890D03*
X842645Y1167210D03*
X842645Y1177210D03*
D19*
X834390Y1080245D03*
X834390Y1062245D03*
D10*
X850900Y1050210D03*
X850900Y1040210D03*
X890270Y1008460D03*
X890270Y1018460D03*
D20*
X872140Y956860D03*
D21*
X854640Y1021715D03*
X877640Y1021715D03*
D10*
X871140Y1008380D03*
X861140Y1008380D03*
D18*
X854625Y1147445D03*
X866225Y1147445D03*
D10*
X1056085Y1173480D03*
X1066085Y1173480D03*
D11*
X1069180Y1143660D03*
X1069180Y1162660D03*
X1048180Y1153160D03*
D10*
X1049735Y1132840D03*
X1059735Y1132840D03*
X1049735Y1122680D03*
X1059735Y1122680D03*
D12*
X1076200Y855415D03*
D13*
X1066200Y830415D03*
X1061200Y830415D03*
D12*
X981200Y855415D03*
D13*
X1056200Y830415D03*
X1051200Y830415D03*
X1046200Y830415D03*
X1041200Y830415D03*
X1036200Y830415D03*
X1031200Y830415D03*
X1026200Y830415D03*
X1021200Y830415D03*
X1016200Y830415D03*
X1011200Y830415D03*
X1006200Y830415D03*
X1001200Y830415D03*
X996200Y830415D03*
X991200Y830415D03*
D10*
X983615Y1212295D03*
X983615Y1222295D03*
X1073785Y1212295D03*
X1073785Y1222295D03*
D14*
X1013820Y1103350D03*
X1023820Y1103350D03*
X1028820Y1103350D03*
X1033820Y1103350D03*
X1038820Y1103350D03*
X1043820Y1103350D03*
X1048820Y1103350D03*
X1053820Y1103350D03*
X1018820Y1103350D03*
X1053820Y1098350D03*
X1053820Y1093350D03*
X1053820Y1088350D03*
X1053820Y1083350D03*
X1053820Y1078350D03*
X1053820Y1073350D03*
X1053820Y1068350D03*
X1053820Y1063350D03*
X1048820Y1063350D03*
X1043820Y1063350D03*
X1038820Y1063350D03*
X1033820Y1063350D03*
X1028820Y1063350D03*
X1023820Y1063350D03*
X1018820Y1063350D03*
X1013820Y1063350D03*
X1013820Y1068350D03*
X1013820Y1073350D03*
X1013820Y1078350D03*
X1013820Y1083350D03*
X1013820Y1088350D03*
X1013820Y1093350D03*
X1013820Y1098350D03*
X1023820Y1093350D03*
X1028820Y1093350D03*
X1033820Y1093350D03*
X1038820Y1093350D03*
X1043820Y1093350D03*
X1043820Y1083350D03*
X1043820Y1078350D03*
X1043820Y1073350D03*
X1038820Y1073350D03*
X1033820Y1073350D03*
X1028820Y1073350D03*
X1023820Y1073350D03*
X1023820Y1078350D03*
X1023820Y1083350D03*
X1023820Y1088350D03*
X1028820Y1088350D03*
X1038820Y1088350D03*
X1038820Y1078350D03*
X1028820Y1078350D03*
D15*
X1042450Y1189990D03*
X1014950Y1189990D03*
D16*
X1028700Y1174740D03*
X1028700Y1205240D03*
D10*
X996950Y1091010D03*
X996950Y1101010D03*
D17*
X1033980Y1045210D03*
X1058980Y1045210D03*
D18*
X1028785Y1161415D03*
X1017185Y1161415D03*
D10*
X1005205Y1156890D03*
X1005205Y1146890D03*
X1005205Y1167210D03*
X1005205Y1177210D03*
D19*
X996950Y1080245D03*
X996950Y1062245D03*
D10*
X1013460Y1050210D03*
X1013460Y1040210D03*
X1052830Y1008460D03*
X1052830Y1018460D03*
D20*
X1034700Y956860D03*
D21*
X1017200Y1021715D03*
X1040200Y1021715D03*
D10*
X1033700Y1008380D03*
X1023700Y1008380D03*
D18*
X1017185Y1147445D03*
X1028785Y1147445D03*
D10*
X1218645Y1173480D03*
X1228645Y1173480D03*
D11*
X1231740Y1143660D03*
X1231740Y1162660D03*
X1210740Y1153160D03*
D10*
X1212295Y1132840D03*
X1222295Y1132840D03*
X1212295Y1122680D03*
X1222295Y1122680D03*
D12*
X1238760Y855415D03*
D13*
X1228760Y830415D03*
X1223760Y830415D03*
D12*
X1143760Y855415D03*
D13*
X1218760Y830415D03*
X1213760Y830415D03*
X1208760Y830415D03*
X1203760Y830415D03*
X1198760Y830415D03*
X1193760Y830415D03*
X1188760Y830415D03*
X1183760Y830415D03*
X1178760Y830415D03*
X1173760Y830415D03*
X1168760Y830415D03*
X1163760Y830415D03*
X1158760Y830415D03*
X1153760Y830415D03*
D10*
X1146175Y1212295D03*
X1146175Y1222295D03*
X1236345Y1212295D03*
X1236345Y1222295D03*
D14*
X1176380Y1103350D03*
X1186380Y1103350D03*
X1191380Y1103350D03*
X1196380Y1103350D03*
X1201380Y1103350D03*
X1206380Y1103350D03*
X1211380Y1103350D03*
X1216380Y1103350D03*
X1181380Y1103350D03*
X1216380Y1098350D03*
X1216380Y1093350D03*
X1216380Y1088350D03*
X1216380Y1083350D03*
X1216380Y1078350D03*
X1216380Y1073350D03*
X1216380Y1068350D03*
X1216380Y1063350D03*
X1211380Y1063350D03*
X1206380Y1063350D03*
X1201380Y1063350D03*
X1196380Y1063350D03*
X1191380Y1063350D03*
X1186380Y1063350D03*
X1181380Y1063350D03*
X1176380Y1063350D03*
X1176380Y1068350D03*
X1176380Y1073350D03*
X1176380Y1078350D03*
X1176380Y1083350D03*
X1176380Y1088350D03*
X1176380Y1093350D03*
X1176380Y1098350D03*
X1186380Y1093350D03*
X1191380Y1093350D03*
X1196380Y1093350D03*
X1201380Y1093350D03*
X1206380Y1093350D03*
X1206380Y1083350D03*
X1206380Y1078350D03*
X1206380Y1073350D03*
X1201380Y1073350D03*
X1196380Y1073350D03*
X1191380Y1073350D03*
X1186380Y1073350D03*
X1186380Y1078350D03*
X1186380Y1083350D03*
X1186380Y1088350D03*
X1191380Y1088350D03*
X1201380Y1088350D03*
X1201380Y1078350D03*
X1191380Y1078350D03*
D15*
X1205010Y1189990D03*
X1177510Y1189990D03*
D16*
X1191260Y1174740D03*
X1191260Y1205240D03*
D10*
X1159510Y1091010D03*
X1159510Y1101010D03*
D17*
X1196540Y1045210D03*
X1221540Y1045210D03*
D18*
X1191345Y1161415D03*
X1179745Y1161415D03*
D10*
X1167765Y1156890D03*
X1167765Y1146890D03*
X1167765Y1167210D03*
X1167765Y1177210D03*
D19*
X1159510Y1080245D03*
X1159510Y1062245D03*
D10*
X1176020Y1050210D03*
X1176020Y1040210D03*
X1215390Y1008460D03*
X1215390Y1018460D03*
D20*
X1197260Y956860D03*
D21*
X1179760Y1021715D03*
X1202760Y1021715D03*
D10*
X1196260Y1008380D03*
X1186260Y1008380D03*
D18*
X1179745Y1147445D03*
X1191345Y1147445D03*
D10*
X1381205Y1173480D03*
X1391205Y1173480D03*
D11*
X1394300Y1143660D03*
X1394300Y1162660D03*
X1373300Y1153160D03*
D10*
X1374855Y1132840D03*
X1384855Y1132840D03*
X1374855Y1122680D03*
X1384855Y1122680D03*
D12*
X1401320Y855415D03*
D13*
X1391320Y830415D03*
X1386320Y830415D03*
D12*
X1306320Y855415D03*
D13*
X1381320Y830415D03*
X1376320Y830415D03*
X1371320Y830415D03*
X1366320Y830415D03*
X1361320Y830415D03*
X1356320Y830415D03*
X1351320Y830415D03*
X1346320Y830415D03*
X1341320Y830415D03*
X1336320Y830415D03*
X1331320Y830415D03*
X1326320Y830415D03*
X1321320Y830415D03*
X1316320Y830415D03*
D10*
X1308735Y1212295D03*
X1308735Y1222295D03*
X1398905Y1212295D03*
X1398905Y1222295D03*
D14*
X1338940Y1103350D03*
X1348940Y1103350D03*
X1353940Y1103350D03*
X1358940Y1103350D03*
X1363940Y1103350D03*
X1368940Y1103350D03*
X1373940Y1103350D03*
X1378940Y1103350D03*
X1343940Y1103350D03*
X1378940Y1098350D03*
X1378940Y1093350D03*
X1378940Y1088350D03*
X1378940Y1083350D03*
X1378940Y1078350D03*
X1378940Y1073350D03*
X1378940Y1068350D03*
X1378940Y1063350D03*
X1373940Y1063350D03*
X1368940Y1063350D03*
X1363940Y1063350D03*
X1358940Y1063350D03*
X1353940Y1063350D03*
X1348940Y1063350D03*
X1343940Y1063350D03*
X1338940Y1063350D03*
X1338940Y1068350D03*
X1338940Y1073350D03*
X1338940Y1078350D03*
X1338940Y1083350D03*
X1338940Y1088350D03*
X1338940Y1093350D03*
X1338940Y1098350D03*
X1348940Y1093350D03*
X1353940Y1093350D03*
X1358940Y1093350D03*
X1363940Y1093350D03*
X1368940Y1093350D03*
X1368940Y1083350D03*
X1368940Y1078350D03*
X1368940Y1073350D03*
X1363940Y1073350D03*
X1358940Y1073350D03*
X1353940Y1073350D03*
X1348940Y1073350D03*
X1348940Y1078350D03*
X1348940Y1083350D03*
X1348940Y1088350D03*
X1353940Y1088350D03*
X1363940Y1088350D03*
X1363940Y1078350D03*
X1353940Y1078350D03*
D15*
X1367570Y1189990D03*
X1340070Y1189990D03*
D16*
X1353820Y1174740D03*
X1353820Y1205240D03*
D10*
X1322070Y1091010D03*
X1322070Y1101010D03*
D17*
X1359100Y1045210D03*
X1384100Y1045210D03*
D18*
X1353905Y1161415D03*
X1342305Y1161415D03*
D10*
X1330325Y1156890D03*
X1330325Y1146890D03*
X1330325Y1167210D03*
X1330325Y1177210D03*
D19*
X1322070Y1080245D03*
X1322070Y1062245D03*
D10*
X1338580Y1050210D03*
X1338580Y1040210D03*
X1377950Y1008460D03*
X1377950Y1018460D03*
D20*
X1359820Y956860D03*
D21*
X1342320Y1021715D03*
X1365320Y1021715D03*
D10*
X1358820Y1008380D03*
X1348820Y1008380D03*
D18*
X1342305Y1147445D03*
X1353905Y1147445D03*
D10*
X1543765Y1173480D03*
X1553765Y1173480D03*
D11*
X1556860Y1143660D03*
X1556860Y1162660D03*
X1535860Y1153160D03*
D10*
X1537415Y1132840D03*
X1547415Y1132840D03*
X1537415Y1122680D03*
X1547415Y1122680D03*
D12*
X1563880Y855415D03*
D13*
X1553880Y830415D03*
X1548880Y830415D03*
D12*
X1468880Y855415D03*
D13*
X1543880Y830415D03*
X1538880Y830415D03*
X1533880Y830415D03*
X1528880Y830415D03*
X1523880Y830415D03*
X1518880Y830415D03*
X1513880Y830415D03*
X1508880Y830415D03*
X1503880Y830415D03*
X1498880Y830415D03*
X1493880Y830415D03*
X1488880Y830415D03*
X1483880Y830415D03*
X1478880Y830415D03*
D10*
X1471295Y1212295D03*
X1471295Y1222295D03*
X1561465Y1212295D03*
X1561465Y1222295D03*
D14*
X1501500Y1103350D03*
X1511500Y1103350D03*
X1516500Y1103350D03*
X1521500Y1103350D03*
X1526500Y1103350D03*
X1531500Y1103350D03*
X1536500Y1103350D03*
X1541500Y1103350D03*
X1506500Y1103350D03*
X1541500Y1098350D03*
X1541500Y1093350D03*
X1541500Y1088350D03*
X1541500Y1083350D03*
X1541500Y1078350D03*
X1541500Y1073350D03*
X1541500Y1068350D03*
X1541500Y1063350D03*
X1536500Y1063350D03*
X1531500Y1063350D03*
X1526500Y1063350D03*
X1521500Y1063350D03*
X1516500Y1063350D03*
X1511500Y1063350D03*
X1506500Y1063350D03*
X1501500Y1063350D03*
X1501500Y1068350D03*
X1501500Y1073350D03*
X1501500Y1078350D03*
X1501500Y1083350D03*
X1501500Y1088350D03*
X1501500Y1093350D03*
X1501500Y1098350D03*
X1511500Y1093350D03*
X1516500Y1093350D03*
X1521500Y1093350D03*
X1526500Y1093350D03*
X1531500Y1093350D03*
X1531500Y1083350D03*
X1531500Y1078350D03*
X1531500Y1073350D03*
X1526500Y1073350D03*
X1521500Y1073350D03*
X1516500Y1073350D03*
X1511500Y1073350D03*
X1511500Y1078350D03*
X1511500Y1083350D03*
X1511500Y1088350D03*
X1516500Y1088350D03*
X1526500Y1088350D03*
X1526500Y1078350D03*
X1516500Y1078350D03*
D15*
X1530130Y1189990D03*
X1502630Y1189990D03*
D16*
X1516380Y1174740D03*
X1516380Y1205240D03*
D10*
X1484630Y1091010D03*
X1484630Y1101010D03*
D17*
X1521660Y1045210D03*
X1546660Y1045210D03*
D18*
X1516465Y1161415D03*
X1504865Y1161415D03*
D10*
X1492885Y1156890D03*
X1492885Y1146890D03*
X1492885Y1167210D03*
X1492885Y1177210D03*
D19*
X1484630Y1080245D03*
X1484630Y1062245D03*
D10*
X1501140Y1050210D03*
X1501140Y1040210D03*
X1540510Y1008460D03*
X1540510Y1018460D03*
D20*
X1522380Y956860D03*
D21*
X1504880Y1021715D03*
X1527880Y1021715D03*
D10*
X1521380Y1008380D03*
X1511380Y1008380D03*
D18*
X1504865Y1147445D03*
X1516465Y1147445D03*
M02*
