M48
;GenerationSoftware,Autodesk,EAGLE,9.6.2*%
;CreationDate,2021-05-04T08:38:27Z*%
FMAT,2
ICI,OFF
METRIC,TZ,000.000
T2C0.200
T1C0.300
%
G90
M71
T1
X152654Y16192
X55118Y57340
X38862Y57340
X120142Y16192
X103886Y16192
X55118Y16192
X71374Y57340
X87630Y16192
X71374Y16192
X22606Y16192
X22606Y57340
X38862Y16192
X136398Y16192
X6350Y57340
X6350Y16192
X87630Y57340
X103886Y57340
X120142Y57340
X136398Y57340
X152654Y57340
X6350Y98488
X22606Y98488
X38862Y98488
X55118Y98488
X71374Y98488
X87630Y98488
X103886Y98488
X120142Y98488
X136398Y98488
X152654Y98488
T2
X8509Y29210
X6350Y33846
X5969Y31432
X5969Y29210
X5969Y30289
X4699Y29210
X4699Y30289
X4699Y31432
X2159Y28575
X8890Y19050
X3048Y27051
X8636Y27051
X8636Y23622
X4699Y21717
X1905Y33020
X2540Y17780
X2540Y20320
X5334Y15240
X7239Y26543
X2540Y15240
X2540Y12700
X8890Y12700
X8890Y15875
X6350Y32448
X7620Y29210
X3048Y22733
X3175Y28956
X7616Y39180
X7620Y1460
X7111Y39180
X7112Y1460
X6606Y39180
X6607Y1460
X6101Y39180
X6096Y1460
X5596Y39180
X5591Y1460
X5092Y39180
X5086Y1460
X4587Y39180
X8255Y34036
X4082Y39180
X4582Y1460
X3577Y39180
X3619Y1460
X4318Y28829
X3072Y39180
X3115Y1460
X3048Y27559
X8561Y1968
X8561Y1460
X8616Y39180
X8616Y38735
X2096Y39180
X2096Y38735
X2096Y1460
X2092Y1968
X1587Y1957
X1587Y1460
X5334Y23495
X5842Y23495
X5842Y26035
X9092Y1957
X9081Y1460
X24380Y38957
X24384Y38481
X18820Y38989
X18796Y38481
X18860Y1714
X18860Y2159
X24347Y1704
X24340Y2205
X23876Y37465
X23876Y36195
X19304Y36195
X19304Y37465
X20193Y35179
X22987Y35179
X24765Y31877
X24765Y29210
X22606Y33846
X22225Y31432
X22225Y29210
X22225Y30289
X20955Y29210
X20955Y30289
X20955Y31432
X18415Y28575
X25146Y19050
X19304Y27051
X24892Y27051
X24892Y23622
X20955Y21717
X18161Y33020
X18796Y17780
X18796Y20320
X21590Y15240
X23495Y26543
X18796Y15240
X18796Y12700
X25146Y12700
X25146Y15875
X22606Y32448
X23876Y29210
X19304Y22733
X19431Y28956
X23872Y39180
X23876Y1460
X23367Y39180
X23368Y1460
X22862Y39180
X22863Y1460
X22357Y39180
X22352Y1460
X21852Y39180
X21847Y1460
X21348Y39180
X21342Y1460
X20843Y39180
X24511Y34036
X20338Y39180
X20838Y1460
X19833Y39180
X19876Y1460
X20574Y28829
X19329Y39180
X19371Y1460
X19304Y27559
X24817Y1968
X24817Y1460
X24872Y39180
X24872Y38735
X18352Y39180
X18352Y38735
X18352Y1460
X18348Y1968
X17844Y1957
X17844Y1460
X21590Y23495
X22098Y23495
X22098Y26035
X25348Y1957
X25336Y1460
X40636Y38957
X40640Y38481
X35076Y38989
X35052Y38481
X35116Y1714
X35116Y2159
X40603Y1704
X40596Y2205
X40132Y37465
X40132Y36195
X35560Y36195
X35560Y37465
X36449Y35179
X39243Y35179
X41021Y31877
X41021Y29210
X38862Y33846
X38481Y31432
X38481Y29210
X38481Y30289
X37211Y29210
X37211Y30289
X37211Y31432
X34671Y28575
X41402Y19050
X35560Y27051
X41148Y27051
X41148Y23622
X37211Y21717
X34417Y33020
X35052Y17780
X35052Y20320
X37846Y15240
X39751Y26543
X35052Y15240
X35052Y12700
X41402Y12700
X41402Y15875
X38862Y32448
X40132Y29210
X35560Y22733
X35687Y28956
X40128Y39180
X40132Y1460
X39623Y39180
X39624Y1460
X39118Y39180
X39119Y1460
X38613Y39180
X38608Y1460
X38109Y39180
X38103Y1460
X37604Y39180
X37598Y1460
X37099Y39180
X40767Y34036
X36594Y39180
X37094Y1460
X36089Y39180
X36132Y1460
X36830Y28829
X35585Y39180
X35627Y1460
X35560Y27559
X41073Y1968
X41073Y1460
X41128Y39180
X41128Y38735
X34608Y39180
X34608Y38735
X34608Y1460
X34604Y1968
X34100Y1957
X34100Y1460
X37846Y23495
X38354Y23495
X38354Y26035
X41604Y1957
X41593Y1460
X56892Y38957
X56896Y38481
X51332Y38989
X51308Y38481
X51371Y1714
X51371Y2159
X56859Y1704
X56852Y2205
X56388Y37465
X56388Y36195
X51816Y36195
X51816Y37465
X52705Y35179
X55499Y35179
X57277Y31877
X57277Y29210
X55118Y33846
X54737Y31432
X54737Y29210
X54737Y30289
X53467Y29210
X53467Y30289
X53467Y31432
X50927Y28575
X57658Y19050
X51816Y27051
X57404Y27051
X57404Y23622
X53467Y21717
X50673Y33020
X51308Y17780
X51308Y20320
X54102Y15240
X56007Y26543
X51308Y15240
X51308Y12700
X57658Y12700
X57658Y15875
X55118Y32448
X56388Y29210
X51816Y22733
X51943Y28956
X56384Y39180
X56388Y1460
X55879Y39180
X55880Y1460
X55374Y39180
X55375Y1460
X54869Y39180
X54864Y1460
X54364Y39180
X54359Y1460
X53860Y39180
X53854Y1460
X53355Y39180
X57023Y34036
X52850Y39180
X53350Y1460
X52345Y39180
X52387Y1460
X53086Y28829
X51840Y39180
X51883Y1460
X51816Y27559
X57329Y1968
X57329Y1460
X57384Y39180
X57384Y38735
X50863Y39180
X50863Y38735
X50863Y1460
X50860Y1968
X50355Y1957
X50355Y1460
X54102Y23495
X54610Y23495
X54610Y26035
X57860Y1957
X57848Y1460
X73148Y38957
X73152Y38481
X67588Y38989
X67564Y38481
X67628Y1714
X67628Y2159
X73115Y1704
X73108Y2205
X72644Y37465
X72644Y36195
X68072Y36195
X68072Y37465
X68961Y35179
X71755Y35179
X73533Y31877
X73533Y29210
X71374Y33846
X70993Y31432
X70993Y29210
X70993Y30289
X69723Y29210
X69723Y30289
X69723Y31432
X67183Y28575
X73914Y19050
X68072Y27051
X73660Y27051
X73660Y23622
X69723Y21717
X66929Y33020
X67564Y17780
X67564Y20320
X70358Y15240
X72263Y26543
X67564Y15240
X67564Y12700
X73914Y12700
X73914Y15875
X71374Y32448
X72644Y29210
X68072Y22733
X68199Y28956
X72640Y39180
X72644Y1460
X72135Y39180
X72136Y1460
X71630Y39180
X71631Y1460
X71125Y39180
X71120Y1460
X70621Y39180
X70615Y1460
X70116Y39180
X70110Y1460
X69611Y39180
X73279Y34036
X69106Y39180
X69606Y1460
X68601Y39180
X68644Y1460
X69342Y28829
X68097Y39180
X68139Y1460
X68072Y27559
X73585Y1968
X73585Y1460
X73640Y39180
X73640Y38735
X67120Y39180
X67120Y38735
X67120Y1460
X67116Y1968
X66612Y1957
X66612Y1460
X70358Y23495
X70866Y23495
X70866Y26035
X74116Y1957
X74105Y1460
X89404Y38957
X89408Y38481
X83844Y38989
X83820Y38481
X83884Y1714
X83884Y2159
X89371Y1704
X89364Y2205
X88900Y37465
X88900Y36195
X84328Y36195
X84328Y37465
X85217Y35179
X88011Y35179
X89789Y31877
X89789Y29210
X87630Y33846
X87249Y31432
X87249Y29210
X87249Y30289
X85979Y29210
X85979Y30289
X85979Y31432
X83439Y28575
X90170Y19050
X84328Y27051
X89916Y27051
X89916Y23622
X85979Y21717
X83185Y33020
X83820Y17780
X83820Y20320
X86614Y15240
X88519Y26543
X83820Y15240
X83820Y12700
X90170Y12700
X90170Y15875
X87630Y32448
X88900Y29210
X84328Y22733
X84455Y28956
X88896Y39180
X88900Y1460
X88391Y39180
X88392Y1460
X87886Y39180
X87887Y1460
X87381Y39180
X87376Y1460
X86877Y39180
X86871Y1460
X86372Y39180
X86366Y1460
X85867Y39180
X89535Y34036
X85362Y39180
X85862Y1460
X84857Y39180
X84900Y1460
X85598Y28829
X84353Y39180
X84395Y1460
X84328Y27559
X89841Y1968
X89841Y1460
X89896Y39180
X89896Y38735
X83376Y39180
X83376Y38735
X83376Y1460
X83372Y1968
X82868Y1957
X82868Y1460
X86614Y23495
X87122Y23495
X87122Y26035
X90372Y1957
X90360Y1460
X105660Y38957
X105664Y38481
X100100Y38989
X100076Y38481
X100139Y1714
X100139Y2159
X105627Y1704
X105620Y2205
X105156Y37465
X105156Y36195
X100584Y36195
X100584Y37465
X101473Y35179
X104267Y35179
X106045Y31877
X106045Y29210
X103886Y33846
X103505Y31432
X103505Y29210
X103505Y30289
X102235Y29210
X102235Y30289
X102235Y31432
X99695Y28575
X106426Y19050
X100584Y27051
X106172Y27051
X106172Y23622
X102235Y21717
X99441Y33020
X100076Y17780
X100076Y20320
X102870Y15240
X104775Y26543
X100076Y15240
X100076Y12700
X106426Y12700
X106426Y15875
X103886Y32448
X105156Y29210
X100584Y22733
X100711Y28956
X105152Y39180
X105156Y1460
X104647Y39180
X104648Y1460
X104142Y39180
X104143Y1460
X103637Y39180
X103632Y1460
X103132Y39180
X103127Y1460
X102628Y39180
X102622Y1460
X102123Y39180
X105791Y34036
X101618Y39180
X102118Y1460
X101113Y39180
X101155Y1460
X101854Y28829
X100608Y39180
X100651Y1460
X100584Y27559
X106097Y1968
X106097Y1460
X106152Y39180
X106152Y38735
X99631Y39180
X99631Y38735
X99631Y1460
X99628Y1968
X99123Y1957
X99123Y1460
X102870Y23495
X103378Y23495
X103378Y26035
X106628Y1957
X106616Y1460
X121916Y38957
X121920Y38481
X116356Y38989
X116332Y38481
X116395Y1714
X116395Y2159
X121883Y1704
X121876Y2205
X121412Y37465
X121412Y36195
X116840Y36195
X116840Y37465
X117729Y35179
X120523Y35179
X122301Y31877
X122301Y29210
X120142Y33846
X119761Y31432
X119761Y29210
X119761Y30289
X118491Y29210
X118491Y30289
X118491Y31432
X115951Y28575
X122682Y19050
X116840Y27051
X122428Y27051
X122428Y23622
X118491Y21717
X115697Y33020
X116332Y17780
X116332Y20320
X119126Y15240
X121031Y26543
X116332Y15240
X116332Y12700
X122682Y12700
X122682Y15875
X120142Y32448
X121412Y29210
X116840Y22733
X116967Y28956
X121408Y39180
X121412Y1460
X120903Y39180
X120904Y1460
X120398Y39180
X120399Y1460
X119893Y39180
X119888Y1460
X119388Y39180
X119383Y1460
X118884Y39180
X118878Y1460
X118379Y39180
X122047Y34036
X117874Y39180
X118374Y1460
X117369Y39180
X117411Y1460
X118110Y28829
X116864Y39180
X116907Y1460
X116840Y27559
X122353Y1968
X122353Y1460
X122408Y39180
X122408Y38735
X115887Y39180
X115887Y38735
X115887Y1460
X115884Y1968
X115379Y1957
X115379Y1460
X119126Y23495
X119634Y23495
X119634Y26035
X122884Y1957
X122872Y1460
X138172Y38957
X138176Y38481
X132612Y38989
X132588Y38481
X132652Y1714
X132652Y2159
X138139Y1704
X138132Y2205
X137668Y37465
X137668Y36195
X133096Y36195
X133096Y37465
X133985Y35179
X136779Y35179
X138557Y31877
X138557Y29210
X136398Y33846
X136017Y31432
X136017Y29210
X136017Y30289
X134747Y29210
X134747Y30289
X134747Y31432
X132207Y28575
X138938Y19050
X133096Y27051
X138684Y27051
X138684Y23622
X134747Y21717
X131953Y33020
X132588Y17780
X132588Y20320
X135382Y15240
X137287Y26543
X132588Y15240
X132588Y12700
X138938Y12700
X138938Y15875
X136398Y32448
X137668Y29210
X133096Y22733
X133223Y28956
X137664Y39180
X137668Y1460
X137159Y39180
X137160Y1460
X136654Y39180
X136655Y1460
X136149Y39180
X136144Y1460
X135645Y39180
X135639Y1460
X135140Y39180
X135134Y1460
X134635Y39180
X138303Y34036
X134130Y39180
X134630Y1460
X133625Y39180
X133668Y1460
X134366Y28829
X133121Y39180
X133163Y1460
X133096Y27559
X138609Y1968
X138609Y1460
X138664Y39180
X138664Y38735
X132144Y39180
X132144Y38735
X132144Y1460
X132140Y1968
X131636Y1957
X131636Y1460
X135382Y23495
X135890Y23495
X135890Y26035
X139140Y1957
X139129Y1460
X154428Y38957
X154432Y38481
X148868Y38989
X148844Y38481
X148908Y1714
X148908Y2159
X154395Y1704
X154388Y2205
X153924Y37465
X153924Y36195
X149352Y36195
X149352Y37465
X150241Y35179
X153035Y35179
X154813Y31877
X154813Y29210
X152654Y33846
X152273Y31432
X152273Y29210
X152273Y30289
X151003Y29210
X151003Y30289
X151003Y31432
X148463Y28575
X155194Y19050
X149352Y27051
X154940Y27051
X154940Y23622
X151003Y21717
X148209Y33020
X148844Y17780
X148844Y20320
X151638Y15240
X153543Y26543
X148844Y15240
X148844Y12700
X155194Y12700
X155194Y15875
X152654Y32448
X153924Y29210
X149352Y22733
X149479Y28956
X153920Y39180
X153924Y1460
X153415Y39180
X153416Y1460
X152910Y39180
X152911Y1460
X152405Y39180
X152400Y1460
X151901Y39180
X151895Y1460
X151396Y39180
X151390Y1460
X150891Y39180
X154559Y34036
X150386Y39180
X150886Y1460
X149881Y39180
X149924Y1460
X150622Y28829
X149377Y39180
X149419Y1460
X149352Y27559
X154865Y1968
X154865Y1460
X154920Y39180
X154920Y38735
X148400Y39180
X148400Y38735
X148400Y1460
X148396Y1968
X147892Y1957
X147892Y1460
X151638Y23495
X152146Y23495
X152146Y26035
X155396Y1957
X155385Y1460
X8124Y80105
X8128Y79629
X2564Y80137
X2540Y79629
X2604Y42863
X2604Y43307
X8091Y42852
X8084Y43353
X7620Y78613
X7620Y77343
X3048Y77343
X3048Y78613
X3937Y76327
X6731Y76327
X8509Y73025
X8509Y70358
X6350Y74994
X5969Y72581
X5969Y70358
X5969Y71438
X4699Y70358
X4699Y71438
X4699Y72581
X2159Y69723
X8890Y60198
X3048Y68199
X8636Y68199
X8636Y64770
X4699Y62865
X1905Y74168
X2540Y58928
X2540Y61468
X5334Y56388
X7239Y67691
X2540Y56388
X2540Y53848
X8890Y53848
X8890Y57023
X6350Y73597
X7620Y70358
X3048Y63881
X3175Y70104
X7616Y80328
X7620Y42609
X7111Y80328
X7112Y42609
X6606Y80328
X6607Y42609
X6101Y80328
X6096Y42609
X5596Y80328
X5591Y42609
X5092Y80328
X5086Y42609
X4587Y80328
X8255Y75184
X4082Y80328
X4582Y42609
X3577Y80328
X3619Y42609
X4318Y69977
X3072Y80328
X3115Y42609
X3048Y68707
X8561Y43117
X8561Y42609
X8616Y80328
X8616Y79883
X2096Y80328
X2096Y79883
X2096Y42609
X2092Y43117
X1587Y43105
X1587Y42609
X5334Y64643
X5842Y64643
X5842Y67183
X9092Y43105
X9081Y42609
X24380Y80105
X24384Y79629
X18820Y80137
X18796Y79629
X18860Y42863
X18860Y43307
X24347Y42852
X24340Y43353
X23876Y78613
X23876Y77343
X19304Y77343
X19304Y78613
X20193Y76327
X22987Y76327
X24765Y73025
X24765Y70358
X22606Y74994
X22225Y72581
X22225Y70358
X22225Y71438
X20955Y70358
X20955Y71438
X20955Y72581
X18415Y69723
X25146Y60198
X19304Y68199
X24892Y68199
X24892Y64770
X20955Y62865
X18161Y74168
X18796Y58928
X18796Y61468
X21590Y56388
X23495Y67691
X18796Y56388
X18796Y53848
X25146Y53848
X25146Y57023
X22606Y73597
X23876Y70358
X19304Y63881
X19431Y70104
X23872Y80328
X23876Y42609
X23367Y80328
X23368Y42609
X22862Y80328
X22863Y42609
X22357Y80328
X22352Y42609
X21852Y80328
X21847Y42609
X21348Y80328
X21342Y42609
X20843Y80328
X24511Y75184
X20338Y80328
X20838Y42609
X19833Y80328
X19876Y42609
X20574Y69977
X19329Y80328
X19371Y42609
X19304Y68707
X24817Y43117
X24817Y42609
X24872Y80328
X24872Y79883
X18352Y80328
X18352Y79883
X18352Y42609
X18348Y43117
X17844Y43105
X17844Y42609
X21590Y64643
X22098Y64643
X22098Y67183
X25348Y43105
X25336Y42609
X40636Y80105
X40640Y79629
X35076Y80137
X35052Y79629
X35116Y42863
X35116Y43307
X40603Y42852
X40596Y43353
X40132Y78613
X40132Y77343
X35560Y77343
X35560Y78613
X36449Y76327
X39243Y76327
X41021Y73025
X41021Y70358
X38862Y74994
X38481Y72581
X38481Y70358
X38481Y71438
X37211Y70358
X37211Y71438
X37211Y72581
X34671Y69723
X41402Y60198
X35560Y68199
X41148Y68199
X41148Y64770
X37211Y62865
X34417Y74168
X35052Y58928
X35052Y61468
X37846Y56388
X39751Y67691
X35052Y56388
X35052Y53848
X41402Y53848
X41402Y57023
X38862Y73597
X40132Y70358
X35560Y63881
X35687Y70104
X40128Y80328
X40132Y42609
X39623Y80328
X39624Y42609
X39118Y80328
X39119Y42609
X38613Y80328
X38608Y42609
X38109Y80328
X38103Y42609
X37604Y80328
X37598Y42609
X37099Y80328
X40767Y75184
X36594Y80328
X37094Y42609
X36089Y80328
X36132Y42609
X36830Y69977
X35585Y80328
X35627Y42609
X35560Y68707
X41073Y43117
X41073Y42609
X41128Y80328
X41128Y79883
X34608Y80328
X34608Y79883
X34608Y42609
X34604Y43117
X34100Y43105
X34100Y42609
X37846Y64643
X38354Y64643
X38354Y67183
X41604Y43105
X41593Y42609
X56892Y80105
X56896Y79629
X51332Y80137
X51308Y79629
X51371Y42863
X51371Y43307
X56859Y42852
X56852Y43353
X56388Y78613
X56388Y77343
X51816Y77343
X51816Y78613
X52705Y76327
X55499Y76327
X57277Y73025
X57277Y70358
X55118Y74994
X54737Y72581
X54737Y70358
X54737Y71438
X53467Y70358
X53467Y71438
X53467Y72581
X50927Y69723
X57658Y60198
X51816Y68199
X57404Y68199
X57404Y64770
X53467Y62865
X50673Y74168
X51308Y58928
X51308Y61468
X54102Y56388
X56007Y67691
X51308Y56388
X51308Y53848
X57658Y53848
X57658Y57023
X55118Y73597
X56388Y70358
X51816Y63881
X51943Y70104
X56384Y80328
X56388Y42609
X55879Y80328
X55880Y42609
X55374Y80328
X55375Y42609
X54869Y80328
X54864Y42609
X54364Y80328
X54359Y42609
X53860Y80328
X53854Y42609
X53355Y80328
X57023Y75184
X52850Y80328
X53350Y42609
X52345Y80328
X52387Y42609
X53086Y69977
X51840Y80328
X51883Y42609
X51816Y68707
X57329Y43117
X57329Y42609
X57384Y80328
X57384Y79883
X50863Y80328
X50863Y79883
X50863Y42609
X50860Y43117
X50355Y43105
X50355Y42609
X54102Y64643
X54610Y64643
X54610Y67183
X57860Y43105
X57848Y42609
X73148Y80105
X73152Y79629
X67588Y80137
X67564Y79629
X67628Y42863
X67628Y43307
X73115Y42852
X73108Y43353
X72644Y78613
X72644Y77343
X68072Y77343
X68072Y78613
X68961Y76327
X71755Y76327
X73533Y73025
X73533Y70358
X71374Y74994
X70993Y72581
X70993Y70358
X70993Y71438
X69723Y70358
X69723Y71438
X69723Y72581
X67183Y69723
X73914Y60198
X68072Y68199
X73660Y68199
X73660Y64770
X69723Y62865
X66929Y74168
X67564Y58928
X67564Y61468
X70358Y56388
X72263Y67691
X67564Y56388
X67564Y53848
X73914Y53848
X73914Y57023
X71374Y73597
X72644Y70358
X68072Y63881
X68199Y70104
X72640Y80328
X72644Y42609
X72135Y80328
X72136Y42609
X71630Y80328
X71631Y42609
X71125Y80328
X71120Y42609
X70621Y80328
X70615Y42609
X70116Y80328
X70110Y42609
X69611Y80328
X73279Y75184
X69106Y80328
X69606Y42609
X68601Y80328
X68644Y42609
X69342Y69977
X68097Y80328
X68139Y42609
X68072Y68707
X73585Y43117
X73585Y42609
X73640Y80328
X73640Y79883
X67120Y80328
X67120Y79883
X67120Y42609
X67116Y43117
X66612Y43105
X66612Y42609
X70358Y64643
X70866Y64643
X70866Y67183
X74116Y43105
X74105Y42609
X89404Y80105
X89408Y79629
X83844Y80137
X83820Y79629
X83884Y42863
X83884Y43307
X89371Y42852
X89364Y43353
X88900Y78613
X88900Y77343
X84328Y77343
X84328Y78613
X85217Y76327
X88011Y76327
X89789Y73025
X89789Y70358
X87630Y74994
X87249Y72581
X87249Y70358
X87249Y71438
X85979Y70358
X85979Y71438
X85979Y72581
X83439Y69723
X90170Y60198
X84328Y68199
X89916Y68199
X89916Y64770
X85979Y62865
X83185Y74168
X83820Y58928
X83820Y61468
X86614Y56388
X88519Y67691
X83820Y56388
X83820Y53848
X90170Y53848
X90170Y57023
X87630Y73597
X88900Y70358
X84328Y63881
X84455Y70104
X88896Y80328
X88900Y42609
X88391Y80328
X88392Y42609
X87886Y80328
X87887Y42609
X87381Y80328
X87376Y42609
X86877Y80328
X86871Y42609
X86372Y80328
X86366Y42609
X85867Y80328
X89535Y75184
X85362Y80328
X85862Y42609
X84857Y80328
X84900Y42609
X85598Y69977
X84353Y80328
X84395Y42609
X84328Y68707
X89841Y43117
X89841Y42609
X89896Y80328
X89896Y79883
X83376Y80328
X83376Y79883
X83376Y42609
X83372Y43117
X82868Y43105
X82868Y42609
X8124Y38957
X86614Y64643
X87122Y64643
X87122Y67183
X90372Y43105
X90360Y42609
X105660Y80105
X105664Y79629
X100100Y80137
X100076Y79629
X100139Y42863
X100139Y43307
X105627Y42852
X105620Y43353
X105156Y78613
X105156Y77343
X100584Y77343
X100584Y78613
X101473Y76327
X104267Y76327
X106045Y73025
X106045Y70358
X103886Y74994
X103505Y72581
X103505Y70358
X103505Y71438
X102235Y70358
X102235Y71438
X102235Y72581
X99695Y69723
X106426Y60198
X100584Y68199
X106172Y68199
X106172Y64770
X102235Y62865
X99441Y74168
X100076Y58928
X100076Y61468
X102870Y56388
X104775Y67691
X100076Y56388
X100076Y53848
X106426Y53848
X106426Y57023
X103886Y73597
X105156Y70358
X100584Y63881
X100711Y70104
X105152Y80328
X105156Y42609
X104647Y80328
X104648Y42609
X104142Y80328
X104143Y42609
X103637Y80328
X103632Y42609
X103132Y80328
X103127Y42609
X102628Y80328
X102622Y42609
X102123Y80328
X105791Y75184
X101618Y80328
X102118Y42609
X101113Y80328
X101155Y42609
X101854Y69977
X100608Y80328
X100651Y42609
X100584Y68707
X106097Y43117
X106097Y42609
X106152Y80328
X106152Y79883
X99631Y80328
X99631Y79883
X99631Y42609
X99628Y43117
X99123Y43105
X99123Y42609
X8128Y38481
X102870Y64643
X103378Y64643
X103378Y67183
X106628Y43105
X106616Y42609
X121916Y80105
X121920Y79629
X116356Y80137
X116332Y79629
X116395Y42863
X116395Y43307
X121883Y42852
X121876Y43353
X121412Y78613
X121412Y77343
X116840Y77343
X116840Y78613
X117729Y76327
X120523Y76327
X122301Y73025
X122301Y70358
X120142Y74994
X119761Y72581
X119761Y70358
X119761Y71438
X118491Y70358
X118491Y71438
X118491Y72581
X115951Y69723
X122682Y60198
X116840Y68199
X122428Y68199
X122428Y64770
X118491Y62865
X115697Y74168
X116332Y58928
X116332Y61468
X119126Y56388
X121031Y67691
X116332Y56388
X116332Y53848
X122682Y53848
X122682Y57023
X120142Y73597
X121412Y70358
X116840Y63881
X116967Y70104
X121408Y80328
X121412Y42609
X120903Y80328
X120904Y42609
X120398Y80328
X120399Y42609
X119893Y80328
X119888Y42609
X119388Y80328
X119383Y42609
X118884Y80328
X118878Y42609
X118379Y80328
X122047Y75184
X117874Y80328
X118374Y42609
X117369Y80328
X117411Y42609
X118110Y69977
X116864Y80328
X116907Y42609
X116840Y68707
X122353Y43117
X122353Y42609
X122408Y80328
X122408Y79883
X115887Y80328
X115887Y79883
X115887Y42609
X115884Y43117
X115379Y43105
X115379Y42609
X2564Y38989
X119126Y64643
X119634Y64643
X119634Y67183
X122884Y43105
X122872Y42609
X138172Y80105
X138176Y79629
X132612Y80137
X132588Y79629
X132652Y42863
X132652Y43307
X138139Y42852
X138132Y43353
X137668Y78613
X137668Y77343
X133096Y77343
X133096Y78613
X133985Y76327
X136779Y76327
X138557Y73025
X138557Y70358
X136398Y74994
X136017Y72581
X136017Y70358
X136017Y71438
X134747Y70358
X134747Y71438
X134747Y72581
X132207Y69723
X138938Y60198
X133096Y68199
X138684Y68199
X138684Y64770
X134747Y62865
X131953Y74168
X132588Y58928
X132588Y61468
X135382Y56388
X137287Y67691
X132588Y56388
X132588Y53848
X138938Y53848
X138938Y57023
X136398Y73597
X137668Y70358
X133096Y63881
X133223Y70104
X137664Y80328
X137668Y42609
X137159Y80328
X137160Y42609
X136654Y80328
X136655Y42609
X136149Y80328
X136144Y42609
X135645Y80328
X135639Y42609
X135140Y80328
X135134Y42609
X134635Y80328
X138303Y75184
X134130Y80328
X134630Y42609
X133625Y80328
X133668Y42609
X134366Y69977
X133121Y80328
X133163Y42609
X133096Y68707
X138609Y43117
X138609Y42609
X138664Y80328
X138664Y79883
X132144Y80328
X132144Y79883
X132144Y42609
X132140Y43117
X131636Y43105
X131636Y42609
X2540Y38481
X135382Y64643
X135890Y64643
X135890Y67183
X139140Y43105
X139129Y42609
X154428Y80105
X154432Y79629
X148868Y80137
X148844Y79629
X148908Y42863
X148908Y43307
X154395Y42852
X154388Y43353
X153924Y78613
X153924Y77343
X149352Y77343
X149352Y78613
X150241Y76327
X153035Y76327
X154813Y73025
X154813Y70358
X152654Y74994
X152273Y72581
X152273Y70358
X152273Y71438
X151003Y70358
X151003Y71438
X151003Y72581
X148463Y69723
X155194Y60198
X149352Y68199
X154940Y68199
X154940Y64770
X151003Y62865
X148209Y74168
X148844Y58928
X148844Y61468
X151638Y56388
X153543Y67691
X148844Y56388
X148844Y53848
X155194Y53848
X155194Y57023
X152654Y73597
X153924Y70358
X149352Y63881
X149479Y70104
X153920Y80328
X153924Y42609
X153415Y80328
X153416Y42609
X152910Y80328
X152911Y42609
X152405Y80328
X152400Y42609
X151901Y80328
X151895Y42609
X151396Y80328
X151390Y42609
X150891Y80328
X154559Y75184
X150386Y80328
X150886Y42609
X149881Y80328
X149924Y42609
X150622Y69977
X149377Y80328
X149419Y42609
X149352Y68707
X154865Y43117
X154865Y42609
X154920Y80328
X154920Y79883
X148400Y80328
X148400Y79883
X148400Y42609
X148396Y43117
X147892Y43105
X147892Y42609
X2604Y1714
X151638Y64643
X152146Y64643
X152146Y67183
X155396Y43105
X155385Y42609
X8124Y121253
X8128Y120777
X2564Y121285
X2540Y120777
X2604Y84011
X2604Y84455
X8091Y84000
X8084Y84501
X7620Y119761
X7620Y118491
X3048Y118491
X3048Y119761
X3937Y117475
X6731Y117475
X8509Y114173
X8509Y111506
X6350Y116141
X5969Y113728
X5969Y111506
X5969Y112585
X4699Y111506
X4699Y112585
X4699Y113728
X2159Y110871
X8890Y101346
X3048Y109347
X8636Y109347
X8636Y105918
X4699Y104013
X1905Y115316
X2540Y100076
X2540Y102616
X5334Y97536
X7239Y108839
X2540Y97536
X2540Y94996
X8890Y94996
X8890Y98171
X6350Y114744
X7620Y111506
X3048Y105029
X3175Y111252
X7616Y121475
X7620Y83757
X7111Y121475
X7112Y83757
X6606Y121475
X6607Y83757
X6101Y121475
X6096Y83757
X5596Y121475
X5591Y83757
X5092Y121475
X5086Y83757
X4587Y121475
X8255Y116332
X4082Y121475
X4582Y83757
X3577Y121475
X3619Y83757
X4318Y111125
X3072Y121475
X3115Y83757
X3048Y109855
X8561Y84265
X8561Y83757
X8616Y121475
X8616Y121031
X2096Y121475
X2096Y121031
X2096Y83757
X2092Y84265
X1587Y84253
X1587Y83757
X2604Y2159
X5334Y105791
X5842Y105791
X5842Y108331
X9092Y84253
X9081Y83757
X24380Y121253
X24384Y120777
X18820Y121285
X18796Y120777
X18860Y84011
X18860Y84455
X24347Y84000
X24340Y84501
X23876Y119761
X23876Y118491
X19304Y118491
X19304Y119761
X20193Y117475
X22987Y117475
X24765Y114173
X24765Y111506
X22606Y116141
X22225Y113728
X22225Y111506
X22225Y112585
X20955Y111506
X20955Y112585
X20955Y113728
X18415Y110871
X25146Y101346
X19304Y109347
X24892Y109347
X24892Y105918
X20955Y104013
X18161Y115316
X18796Y100076
X18796Y102616
X21590Y97536
X23495Y108839
X18796Y97536
X18796Y94996
X25146Y94996
X25146Y98171
X22606Y114744
X23876Y111506
X19304Y105029
X19431Y111252
X23872Y121475
X23876Y83757
X23367Y121475
X23368Y83757
X22862Y121475
X22863Y83757
X22357Y121475
X22352Y83757
X21852Y121475
X21847Y83757
X21348Y121475
X21342Y83757
X20843Y121475
X24511Y116332
X20338Y121475
X20838Y83757
X19833Y121475
X19876Y83757
X20574Y111125
X19329Y121475
X19371Y83757
X19304Y109855
X24817Y84265
X24817Y83757
X24872Y121475
X24872Y121031
X18352Y121475
X18352Y121031
X18352Y83757
X18348Y84265
X17844Y84253
X17844Y83757
X8091Y1704
X21590Y105791
X22098Y105791
X22098Y108331
X25348Y84253
X25336Y83757
X40636Y121253
X40640Y120777
X35076Y121285
X35052Y120777
X35116Y84011
X35116Y84455
X40603Y84000
X40596Y84501
X40132Y119761
X40132Y118491
X35560Y118491
X35560Y119761
X36449Y117475
X39243Y117475
X41021Y114173
X41021Y111506
X38862Y116141
X38481Y113728
X38481Y111506
X38481Y112585
X37211Y111506
X37211Y112585
X37211Y113728
X34671Y110871
X41402Y101346
X35560Y109347
X41148Y109347
X41148Y105918
X37211Y104013
X34417Y115316
X35052Y100076
X35052Y102616
X37846Y97536
X39751Y108839
X35052Y97536
X35052Y94996
X41402Y94996
X41402Y98171
X38862Y114744
X40132Y111506
X35560Y105029
X35687Y111252
X40128Y121475
X40132Y83757
X39623Y121475
X39624Y83757
X39118Y121475
X39119Y83757
X38613Y121475
X38608Y83757
X38109Y121475
X38103Y83757
X37604Y121475
X37598Y83757
X37099Y121475
X40767Y116332
X36594Y121475
X37094Y83757
X36089Y121475
X36132Y83757
X36830Y111125
X35585Y121475
X35627Y83757
X35560Y109855
X41073Y84265
X41073Y83757
X41128Y121475
X41128Y121031
X34608Y121475
X34608Y121031
X34608Y83757
X34604Y84265
X34100Y84253
X34100Y83757
X8084Y2205
X37846Y105791
X38354Y105791
X38354Y108331
X41604Y84253
X41593Y83757
X56892Y121253
X56896Y120777
X51332Y121285
X51308Y120777
X51371Y84011
X51371Y84455
X56859Y84000
X56852Y84501
X56388Y119761
X56388Y118491
X51816Y118491
X51816Y119761
X52705Y117475
X55499Y117475
X57277Y114173
X57277Y111506
X55118Y116141
X54737Y113728
X54737Y111506
X54737Y112585
X53467Y111506
X53467Y112585
X53467Y113728
X50927Y110871
X57658Y101346
X51816Y109347
X57404Y109347
X57404Y105918
X53467Y104013
X50673Y115316
X51308Y100076
X51308Y102616
X54102Y97536
X56007Y108839
X51308Y97536
X51308Y94996
X57658Y94996
X57658Y98171
X55118Y114744
X56388Y111506
X51816Y105029
X51943Y111252
X56384Y121475
X56388Y83757
X55879Y121475
X55880Y83757
X55374Y121475
X55375Y83757
X54869Y121475
X54864Y83757
X54364Y121475
X54359Y83757
X53860Y121475
X53854Y83757
X53355Y121475
X57023Y116332
X52850Y121475
X53350Y83757
X52345Y121475
X52387Y83757
X53086Y111125
X51840Y121475
X51883Y83757
X51816Y109855
X57329Y84265
X57329Y83757
X57384Y121475
X57384Y121031
X50863Y121475
X50863Y121031
X50863Y83757
X50860Y84265
X50355Y84253
X50355Y83757
X7620Y37465
X54102Y105791
X54610Y105791
X54610Y108331
X57860Y84253
X57848Y83757
X73148Y121253
X73152Y120777
X67588Y121285
X67564Y120777
X67628Y84011
X67628Y84455
X73115Y84000
X73108Y84501
X72644Y119761
X72644Y118491
X68072Y118491
X68072Y119761
X68961Y117475
X71755Y117475
X73533Y114173
X73533Y111506
X71374Y116141
X70993Y113728
X70993Y111506
X70993Y112585
X69723Y111506
X69723Y112585
X69723Y113728
X67183Y110871
X73914Y101346
X68072Y109347
X73660Y109347
X73660Y105918
X69723Y104013
X66929Y115316
X67564Y100076
X67564Y102616
X70358Y97536
X72263Y108839
X67564Y97536
X67564Y94996
X73914Y94996
X73914Y98171
X71374Y114744
X72644Y111506
X68072Y105029
X68199Y111252
X72640Y121475
X72644Y83757
X72135Y121475
X72136Y83757
X71630Y121475
X71631Y83757
X71125Y121475
X71120Y83757
X70621Y121475
X70615Y83757
X70116Y121475
X70110Y83757
X69611Y121475
X73279Y116332
X69106Y121475
X69606Y83757
X68601Y121475
X68644Y83757
X69342Y111125
X68097Y121475
X68139Y83757
X68072Y109855
X73585Y84265
X73585Y83757
X73640Y121475
X73640Y121031
X67120Y121475
X67120Y121031
X67120Y83757
X67116Y84265
X66612Y84253
X66612Y83757
X7620Y36195
X70358Y105791
X70866Y105791
X70866Y108331
X74116Y84253
X74105Y83757
X89404Y121253
X89408Y120777
X83844Y121285
X83820Y120777
X83884Y84011
X83884Y84455
X89371Y84000
X89364Y84501
X88900Y119761
X88900Y118491
X84328Y118491
X84328Y119761
X85217Y117475
X88011Y117475
X89789Y114173
X89789Y111506
X87630Y116141
X87249Y113728
X87249Y111506
X87249Y112585
X85979Y111506
X85979Y112585
X85979Y113728
X83439Y110871
X90170Y101346
X84328Y109347
X89916Y109347
X89916Y105918
X85979Y104013
X83185Y115316
X83820Y100076
X83820Y102616
X86614Y97536
X88519Y108839
X83820Y97536
X83820Y94996
X90170Y94996
X90170Y98171
X87630Y114744
X88900Y111506
X84328Y105029
X84455Y111252
X88896Y121475
X88900Y83757
X88391Y121475
X88392Y83757
X87886Y121475
X87887Y83757
X87381Y121475
X87376Y83757
X86877Y121475
X86871Y83757
X86372Y121475
X86366Y83757
X85867Y121475
X89535Y116332
X85362Y121475
X85862Y83757
X84857Y121475
X84900Y83757
X85598Y111125
X84353Y121475
X84395Y83757
X84328Y109855
X89841Y84265
X89841Y83757
X89896Y121475
X89896Y121031
X83376Y121475
X83376Y121031
X83376Y83757
X83372Y84265
X82868Y84253
X82868Y83757
X3048Y36195
X86614Y105791
X87122Y105791
X87122Y108331
X90372Y84253
X90360Y83757
X105660Y121253
X105664Y120777
X100100Y121285
X100076Y120777
X100139Y84011
X100139Y84455
X105627Y84000
X105620Y84501
X105156Y119761
X105156Y118491
X100584Y118491
X100584Y119761
X101473Y117475
X104267Y117475
X106045Y114173
X106045Y111506
X103886Y116141
X103505Y113728
X103505Y111506
X103505Y112585
X102235Y111506
X102235Y112585
X102235Y113728
X99695Y110871
X106426Y101346
X100584Y109347
X106172Y109347
X106172Y105918
X102235Y104013
X99441Y115316
X100076Y100076
X100076Y102616
X102870Y97536
X104775Y108839
X100076Y97536
X100076Y94996
X106426Y94996
X106426Y98171
X103886Y114744
X105156Y111506
X100584Y105029
X100711Y111252
X105152Y121475
X105156Y83757
X104647Y121475
X104648Y83757
X104142Y121475
X104143Y83757
X103637Y121475
X103632Y83757
X103132Y121475
X103127Y83757
X102628Y121475
X102622Y83757
X102123Y121475
X105791Y116332
X101618Y121475
X102118Y83757
X101113Y121475
X101155Y83757
X101854Y111125
X100608Y121475
X100651Y83757
X100584Y109855
X106097Y84265
X106097Y83757
X106152Y121475
X106152Y121031
X99631Y121475
X99631Y121031
X99631Y83757
X99628Y84265
X99123Y84253
X99123Y83757
X3048Y37465
X102870Y105791
X103378Y105791
X103378Y108331
X106628Y84253
X106616Y83757
X121916Y121253
X121920Y120777
X116356Y121285
X116332Y120777
X116395Y84011
X116395Y84455
X121883Y84000
X121876Y84501
X121412Y119761
X121412Y118491
X116840Y118491
X116840Y119761
X117729Y117475
X120523Y117475
X122301Y114173
X122301Y111506
X120142Y116141
X119761Y113728
X119761Y111506
X119761Y112585
X118491Y111506
X118491Y112585
X118491Y113728
X115951Y110871
X122682Y101346
X116840Y109347
X122428Y109347
X122428Y105918
X118491Y104013
X115697Y115316
X116332Y100076
X116332Y102616
X119126Y97536
X121031Y108839
X116332Y97536
X116332Y94996
X122682Y94996
X122682Y98171
X120142Y114744
X121412Y111506
X116840Y105029
X116967Y111252
X121408Y121475
X121412Y83757
X120903Y121475
X120904Y83757
X120398Y121475
X120399Y83757
X119893Y121475
X119888Y83757
X119388Y121475
X119383Y83757
X118884Y121475
X118878Y83757
X118379Y121475
X122047Y116332
X117874Y121475
X118374Y83757
X117369Y121475
X117411Y83757
X118110Y111125
X116864Y121475
X116907Y83757
X116840Y109855
X122353Y84265
X122353Y83757
X122408Y121475
X122408Y121031
X115887Y121475
X115887Y121031
X115887Y83757
X115884Y84265
X115379Y84253
X115379Y83757
X3937Y35179
X119126Y105791
X119634Y105791
X119634Y108331
X122884Y84253
X122872Y83757
X138172Y121253
X138176Y120777
X132612Y121285
X132588Y120777
X132652Y84011
X132652Y84455
X138139Y84000
X138132Y84501
X137668Y119761
X137668Y118491
X133096Y118491
X133096Y119761
X133985Y117475
X136779Y117475
X138557Y114173
X138557Y111506
X136398Y116141
X136017Y113728
X136017Y111506
X136017Y112585
X134747Y111506
X134747Y112585
X134747Y113728
X132207Y110871
X138938Y101346
X133096Y109347
X138684Y109347
X138684Y105918
X134747Y104013
X131953Y115316
X132588Y100076
X132588Y102616
X135382Y97536
X137287Y108839
X132588Y97536
X132588Y94996
X138938Y94996
X138938Y98171
X136398Y114744
X137668Y111506
X133096Y105029
X133223Y111252
X137664Y121475
X137668Y83757
X137159Y121475
X137160Y83757
X136654Y121475
X136655Y83757
X136149Y121475
X136144Y83757
X135645Y121475
X135639Y83757
X135140Y121475
X135134Y83757
X134635Y121475
X138303Y116332
X134130Y121475
X134630Y83757
X133625Y121475
X133668Y83757
X134366Y111125
X133121Y121475
X133163Y83757
X133096Y109855
X138609Y84265
X138609Y83757
X138664Y121475
X138664Y121031
X132144Y121475
X132144Y121031
X132144Y83757
X132140Y84265
X131636Y84253
X131636Y83757
X6731Y35179
X135382Y105791
X135890Y105791
X135890Y108331
X139140Y84253
X139129Y83757
X154428Y121253
X154432Y120777
X148868Y121285
X148844Y120777
X148908Y84011
X148908Y84455
X154395Y84000
X154388Y84501
X153924Y119761
X153924Y118491
X149352Y118491
X149352Y119761
X150241Y117475
X153035Y117475
X154813Y114173
X154813Y111506
X152654Y116141
X152273Y113728
X152273Y111506
X152273Y112585
X151003Y111506
X151003Y112585
X151003Y113728
X148463Y110871
X155194Y101346
X149352Y109347
X154940Y109347
X154940Y105918
X151003Y104013
X148209Y115316
X148844Y100076
X148844Y102616
X151638Y97536
X153543Y108839
X148844Y97536
X148844Y94996
X155194Y94996
X155194Y98171
X152654Y114744
X153924Y111506
X149352Y105029
X149479Y111252
X153920Y121475
X153924Y83757
X153415Y121475
X153416Y83757
X152910Y121475
X152911Y83757
X152405Y121475
X152400Y83757
X151901Y121475
X151895Y83757
X151396Y121475
X151390Y83757
X150891Y121475
X154559Y116332
X150386Y121475
X150886Y83757
X149881Y121475
X149924Y83757
X150622Y111125
X149377Y121475
X149419Y83757
X149352Y109855
X154865Y84265
X154865Y83757
X154920Y121475
X154920Y121031
X148400Y121475
X148400Y121031
X148400Y83757
X148396Y84265
X147892Y84253
X147892Y83757
X8509Y31877
X151638Y105791
X152146Y105791
X152146Y108331
X155396Y84253
X155385Y83757
M30