G04 EAGLE Gerber RS-274X export*
G75*
%MOMM*%
%FSLAX34Y34*%
%LPD*%
%INSolderpaste Bottom*%
%IPPOS*%
%AMOC8*
5,1,8,0,0,1.08239X$1,22.5*%
G01*
%ADD10R,0.600000X0.600000*%
%ADD11R,0.400000X0.800000*%
%ADD12R,0.250000X0.650000*%


D10*
X20955Y28020D03*
X20955Y38020D03*
X85725Y28655D03*
X85725Y38655D03*
D11*
X100840Y373945D03*
D12*
X90840Y398945D03*
X85840Y398945D03*
D11*
X5840Y373945D03*
D12*
X80840Y398945D03*
X75840Y398945D03*
X70840Y398945D03*
X65840Y398945D03*
X60840Y398945D03*
X55840Y398945D03*
X50840Y398945D03*
X45840Y398945D03*
X40840Y398945D03*
X35840Y398945D03*
X30840Y398945D03*
X25840Y398945D03*
X20840Y398945D03*
X15840Y398945D03*
D10*
X132715Y28020D03*
X132715Y38020D03*
X197485Y28655D03*
X197485Y38655D03*
D11*
X212600Y373945D03*
D12*
X202600Y398945D03*
X197600Y398945D03*
D11*
X117600Y373945D03*
D12*
X192600Y398945D03*
X187600Y398945D03*
X182600Y398945D03*
X177600Y398945D03*
X172600Y398945D03*
X167600Y398945D03*
X162600Y398945D03*
X157600Y398945D03*
X152600Y398945D03*
X147600Y398945D03*
X142600Y398945D03*
X137600Y398945D03*
X132600Y398945D03*
X127600Y398945D03*
D10*
X244475Y28020D03*
X244475Y38020D03*
X309245Y28655D03*
X309245Y38655D03*
D11*
X324360Y373945D03*
D12*
X314360Y398945D03*
X309360Y398945D03*
D11*
X229360Y373945D03*
D12*
X304360Y398945D03*
X299360Y398945D03*
X294360Y398945D03*
X289360Y398945D03*
X284360Y398945D03*
X279360Y398945D03*
X274360Y398945D03*
X269360Y398945D03*
X264360Y398945D03*
X259360Y398945D03*
X254360Y398945D03*
X249360Y398945D03*
X244360Y398945D03*
X239360Y398945D03*
D10*
X356235Y28020D03*
X356235Y38020D03*
X421005Y28655D03*
X421005Y38655D03*
D11*
X436120Y373945D03*
D12*
X426120Y398945D03*
X421120Y398945D03*
D11*
X341120Y373945D03*
D12*
X416120Y398945D03*
X411120Y398945D03*
X406120Y398945D03*
X401120Y398945D03*
X396120Y398945D03*
X391120Y398945D03*
X386120Y398945D03*
X381120Y398945D03*
X376120Y398945D03*
X371120Y398945D03*
X366120Y398945D03*
X361120Y398945D03*
X356120Y398945D03*
X351120Y398945D03*
D10*
X467995Y28020D03*
X467995Y38020D03*
X532765Y28655D03*
X532765Y38655D03*
D11*
X547880Y373945D03*
D12*
X537880Y398945D03*
X532880Y398945D03*
D11*
X452880Y373945D03*
D12*
X527880Y398945D03*
X522880Y398945D03*
X517880Y398945D03*
X512880Y398945D03*
X507880Y398945D03*
X502880Y398945D03*
X497880Y398945D03*
X492880Y398945D03*
X487880Y398945D03*
X482880Y398945D03*
X477880Y398945D03*
X472880Y398945D03*
X467880Y398945D03*
X462880Y398945D03*
D10*
X579755Y28020D03*
X579755Y38020D03*
X644525Y28655D03*
X644525Y38655D03*
D11*
X659640Y373945D03*
D12*
X649640Y398945D03*
X644640Y398945D03*
D11*
X564640Y373945D03*
D12*
X639640Y398945D03*
X634640Y398945D03*
X629640Y398945D03*
X624640Y398945D03*
X619640Y398945D03*
X614640Y398945D03*
X609640Y398945D03*
X604640Y398945D03*
X599640Y398945D03*
X594640Y398945D03*
X589640Y398945D03*
X584640Y398945D03*
X579640Y398945D03*
X574640Y398945D03*
D10*
X691515Y28020D03*
X691515Y38020D03*
X756285Y28655D03*
X756285Y38655D03*
D11*
X771400Y373945D03*
D12*
X761400Y398945D03*
X756400Y398945D03*
D11*
X676400Y373945D03*
D12*
X751400Y398945D03*
X746400Y398945D03*
X741400Y398945D03*
X736400Y398945D03*
X731400Y398945D03*
X726400Y398945D03*
X721400Y398945D03*
X716400Y398945D03*
X711400Y398945D03*
X706400Y398945D03*
X701400Y398945D03*
X696400Y398945D03*
X691400Y398945D03*
X686400Y398945D03*
D10*
X803275Y28020D03*
X803275Y38020D03*
X868045Y28655D03*
X868045Y38655D03*
D11*
X883160Y373945D03*
D12*
X873160Y398945D03*
X868160Y398945D03*
D11*
X788160Y373945D03*
D12*
X863160Y398945D03*
X858160Y398945D03*
X853160Y398945D03*
X848160Y398945D03*
X843160Y398945D03*
X838160Y398945D03*
X833160Y398945D03*
X828160Y398945D03*
X823160Y398945D03*
X818160Y398945D03*
X813160Y398945D03*
X808160Y398945D03*
X803160Y398945D03*
X798160Y398945D03*
D10*
X915035Y28020D03*
X915035Y38020D03*
X979805Y28655D03*
X979805Y38655D03*
D11*
X994920Y373945D03*
D12*
X984920Y398945D03*
X979920Y398945D03*
D11*
X899920Y373945D03*
D12*
X974920Y398945D03*
X969920Y398945D03*
X964920Y398945D03*
X959920Y398945D03*
X954920Y398945D03*
X949920Y398945D03*
X944920Y398945D03*
X939920Y398945D03*
X934920Y398945D03*
X929920Y398945D03*
X924920Y398945D03*
X919920Y398945D03*
X914920Y398945D03*
X909920Y398945D03*
D10*
X1026795Y28020D03*
X1026795Y38020D03*
X1091565Y28655D03*
X1091565Y38655D03*
D11*
X1106680Y373945D03*
D12*
X1096680Y398945D03*
X1091680Y398945D03*
D11*
X1011680Y373945D03*
D12*
X1086680Y398945D03*
X1081680Y398945D03*
X1076680Y398945D03*
X1071680Y398945D03*
X1066680Y398945D03*
X1061680Y398945D03*
X1056680Y398945D03*
X1051680Y398945D03*
X1046680Y398945D03*
X1041680Y398945D03*
X1036680Y398945D03*
X1031680Y398945D03*
X1026680Y398945D03*
X1021680Y398945D03*
D10*
X1138555Y28020D03*
X1138555Y38020D03*
X1203325Y28655D03*
X1203325Y38655D03*
D11*
X1218440Y373945D03*
D12*
X1208440Y398945D03*
X1203440Y398945D03*
D11*
X1123440Y373945D03*
D12*
X1198440Y398945D03*
X1193440Y398945D03*
X1188440Y398945D03*
X1183440Y398945D03*
X1178440Y398945D03*
X1173440Y398945D03*
X1168440Y398945D03*
X1163440Y398945D03*
X1158440Y398945D03*
X1153440Y398945D03*
X1148440Y398945D03*
X1143440Y398945D03*
X1138440Y398945D03*
X1133440Y398945D03*
D10*
X1250315Y28020D03*
X1250315Y38020D03*
X1315085Y28655D03*
X1315085Y38655D03*
D11*
X1330200Y373945D03*
D12*
X1320200Y398945D03*
X1315200Y398945D03*
D11*
X1235200Y373945D03*
D12*
X1310200Y398945D03*
X1305200Y398945D03*
X1300200Y398945D03*
X1295200Y398945D03*
X1290200Y398945D03*
X1285200Y398945D03*
X1280200Y398945D03*
X1275200Y398945D03*
X1270200Y398945D03*
X1265200Y398945D03*
X1260200Y398945D03*
X1255200Y398945D03*
X1250200Y398945D03*
X1245200Y398945D03*
D10*
X1362075Y28020D03*
X1362075Y38020D03*
X1426845Y28655D03*
X1426845Y38655D03*
D11*
X1441960Y373945D03*
D12*
X1431960Y398945D03*
X1426960Y398945D03*
D11*
X1346960Y373945D03*
D12*
X1421960Y398945D03*
X1416960Y398945D03*
X1411960Y398945D03*
X1406960Y398945D03*
X1401960Y398945D03*
X1396960Y398945D03*
X1391960Y398945D03*
X1386960Y398945D03*
X1381960Y398945D03*
X1376960Y398945D03*
X1371960Y398945D03*
X1366960Y398945D03*
X1361960Y398945D03*
X1356960Y398945D03*
D10*
X1473835Y28020D03*
X1473835Y38020D03*
X1538605Y28655D03*
X1538605Y38655D03*
D11*
X1553720Y373945D03*
D12*
X1543720Y398945D03*
X1538720Y398945D03*
D11*
X1458720Y373945D03*
D12*
X1533720Y398945D03*
X1528720Y398945D03*
X1523720Y398945D03*
X1518720Y398945D03*
X1513720Y398945D03*
X1508720Y398945D03*
X1503720Y398945D03*
X1498720Y398945D03*
X1493720Y398945D03*
X1488720Y398945D03*
X1483720Y398945D03*
X1478720Y398945D03*
X1473720Y398945D03*
X1468720Y398945D03*
D10*
X1585595Y28020D03*
X1585595Y38020D03*
X1650365Y28655D03*
X1650365Y38655D03*
D11*
X1665480Y373945D03*
D12*
X1655480Y398945D03*
X1650480Y398945D03*
D11*
X1570480Y373945D03*
D12*
X1645480Y398945D03*
X1640480Y398945D03*
X1635480Y398945D03*
X1630480Y398945D03*
X1625480Y398945D03*
X1620480Y398945D03*
X1615480Y398945D03*
X1610480Y398945D03*
X1605480Y398945D03*
X1600480Y398945D03*
X1595480Y398945D03*
X1590480Y398945D03*
X1585480Y398945D03*
X1580480Y398945D03*
D10*
X1697355Y28020D03*
X1697355Y38020D03*
X1762125Y28655D03*
X1762125Y38655D03*
D11*
X1777240Y373945D03*
D12*
X1767240Y398945D03*
X1762240Y398945D03*
D11*
X1682240Y373945D03*
D12*
X1757240Y398945D03*
X1752240Y398945D03*
X1747240Y398945D03*
X1742240Y398945D03*
X1737240Y398945D03*
X1732240Y398945D03*
X1727240Y398945D03*
X1722240Y398945D03*
X1717240Y398945D03*
X1712240Y398945D03*
X1707240Y398945D03*
X1702240Y398945D03*
X1697240Y398945D03*
X1692240Y398945D03*
D10*
X20955Y439500D03*
X20955Y449500D03*
X85725Y440135D03*
X85725Y450135D03*
D11*
X100840Y785425D03*
D12*
X90840Y810425D03*
X85840Y810425D03*
D11*
X5840Y785425D03*
D12*
X80840Y810425D03*
X75840Y810425D03*
X70840Y810425D03*
X65840Y810425D03*
X60840Y810425D03*
X55840Y810425D03*
X50840Y810425D03*
X45840Y810425D03*
X40840Y810425D03*
X35840Y810425D03*
X30840Y810425D03*
X25840Y810425D03*
X20840Y810425D03*
X15840Y810425D03*
D10*
X132715Y439500D03*
X132715Y449500D03*
X197485Y440135D03*
X197485Y450135D03*
D11*
X212600Y785425D03*
D12*
X202600Y810425D03*
X197600Y810425D03*
D11*
X117600Y785425D03*
D12*
X192600Y810425D03*
X187600Y810425D03*
X182600Y810425D03*
X177600Y810425D03*
X172600Y810425D03*
X167600Y810425D03*
X162600Y810425D03*
X157600Y810425D03*
X152600Y810425D03*
X147600Y810425D03*
X142600Y810425D03*
X137600Y810425D03*
X132600Y810425D03*
X127600Y810425D03*
D10*
X244475Y439500D03*
X244475Y449500D03*
X309245Y440135D03*
X309245Y450135D03*
D11*
X324360Y785425D03*
D12*
X314360Y810425D03*
X309360Y810425D03*
D11*
X229360Y785425D03*
D12*
X304360Y810425D03*
X299360Y810425D03*
X294360Y810425D03*
X289360Y810425D03*
X284360Y810425D03*
X279360Y810425D03*
X274360Y810425D03*
X269360Y810425D03*
X264360Y810425D03*
X259360Y810425D03*
X254360Y810425D03*
X249360Y810425D03*
X244360Y810425D03*
X239360Y810425D03*
D10*
X356235Y439500D03*
X356235Y449500D03*
X421005Y440135D03*
X421005Y450135D03*
D11*
X436120Y785425D03*
D12*
X426120Y810425D03*
X421120Y810425D03*
D11*
X341120Y785425D03*
D12*
X416120Y810425D03*
X411120Y810425D03*
X406120Y810425D03*
X401120Y810425D03*
X396120Y810425D03*
X391120Y810425D03*
X386120Y810425D03*
X381120Y810425D03*
X376120Y810425D03*
X371120Y810425D03*
X366120Y810425D03*
X361120Y810425D03*
X356120Y810425D03*
X351120Y810425D03*
D10*
X467995Y439500D03*
X467995Y449500D03*
X532765Y440135D03*
X532765Y450135D03*
D11*
X547880Y785425D03*
D12*
X537880Y810425D03*
X532880Y810425D03*
D11*
X452880Y785425D03*
D12*
X527880Y810425D03*
X522880Y810425D03*
X517880Y810425D03*
X512880Y810425D03*
X507880Y810425D03*
X502880Y810425D03*
X497880Y810425D03*
X492880Y810425D03*
X487880Y810425D03*
X482880Y810425D03*
X477880Y810425D03*
X472880Y810425D03*
X467880Y810425D03*
X462880Y810425D03*
D10*
X579755Y439500D03*
X579755Y449500D03*
X644525Y440135D03*
X644525Y450135D03*
D11*
X659640Y785425D03*
D12*
X649640Y810425D03*
X644640Y810425D03*
D11*
X564640Y785425D03*
D12*
X639640Y810425D03*
X634640Y810425D03*
X629640Y810425D03*
X624640Y810425D03*
X619640Y810425D03*
X614640Y810425D03*
X609640Y810425D03*
X604640Y810425D03*
X599640Y810425D03*
X594640Y810425D03*
X589640Y810425D03*
X584640Y810425D03*
X579640Y810425D03*
X574640Y810425D03*
D10*
X691515Y439500D03*
X691515Y449500D03*
X756285Y440135D03*
X756285Y450135D03*
D11*
X771400Y785425D03*
D12*
X761400Y810425D03*
X756400Y810425D03*
D11*
X676400Y785425D03*
D12*
X751400Y810425D03*
X746400Y810425D03*
X741400Y810425D03*
X736400Y810425D03*
X731400Y810425D03*
X726400Y810425D03*
X721400Y810425D03*
X716400Y810425D03*
X711400Y810425D03*
X706400Y810425D03*
X701400Y810425D03*
X696400Y810425D03*
X691400Y810425D03*
X686400Y810425D03*
D10*
X803275Y439500D03*
X803275Y449500D03*
X868045Y440135D03*
X868045Y450135D03*
D11*
X883160Y785425D03*
D12*
X873160Y810425D03*
X868160Y810425D03*
D11*
X788160Y785425D03*
D12*
X863160Y810425D03*
X858160Y810425D03*
X853160Y810425D03*
X848160Y810425D03*
X843160Y810425D03*
X838160Y810425D03*
X833160Y810425D03*
X828160Y810425D03*
X823160Y810425D03*
X818160Y810425D03*
X813160Y810425D03*
X808160Y810425D03*
X803160Y810425D03*
X798160Y810425D03*
D10*
X915035Y439500D03*
X915035Y449500D03*
X979805Y440135D03*
X979805Y450135D03*
D11*
X994920Y785425D03*
D12*
X984920Y810425D03*
X979920Y810425D03*
D11*
X899920Y785425D03*
D12*
X974920Y810425D03*
X969920Y810425D03*
X964920Y810425D03*
X959920Y810425D03*
X954920Y810425D03*
X949920Y810425D03*
X944920Y810425D03*
X939920Y810425D03*
X934920Y810425D03*
X929920Y810425D03*
X924920Y810425D03*
X919920Y810425D03*
X914920Y810425D03*
X909920Y810425D03*
D10*
X1026795Y439500D03*
X1026795Y449500D03*
X1091565Y440135D03*
X1091565Y450135D03*
D11*
X1106680Y785425D03*
D12*
X1096680Y810425D03*
X1091680Y810425D03*
D11*
X1011680Y785425D03*
D12*
X1086680Y810425D03*
X1081680Y810425D03*
X1076680Y810425D03*
X1071680Y810425D03*
X1066680Y810425D03*
X1061680Y810425D03*
X1056680Y810425D03*
X1051680Y810425D03*
X1046680Y810425D03*
X1041680Y810425D03*
X1036680Y810425D03*
X1031680Y810425D03*
X1026680Y810425D03*
X1021680Y810425D03*
D10*
X1138555Y439500D03*
X1138555Y449500D03*
X1203325Y440135D03*
X1203325Y450135D03*
D11*
X1218440Y785425D03*
D12*
X1208440Y810425D03*
X1203440Y810425D03*
D11*
X1123440Y785425D03*
D12*
X1198440Y810425D03*
X1193440Y810425D03*
X1188440Y810425D03*
X1183440Y810425D03*
X1178440Y810425D03*
X1173440Y810425D03*
X1168440Y810425D03*
X1163440Y810425D03*
X1158440Y810425D03*
X1153440Y810425D03*
X1148440Y810425D03*
X1143440Y810425D03*
X1138440Y810425D03*
X1133440Y810425D03*
D10*
X1250315Y439500D03*
X1250315Y449500D03*
X1315085Y440135D03*
X1315085Y450135D03*
D11*
X1330200Y785425D03*
D12*
X1320200Y810425D03*
X1315200Y810425D03*
D11*
X1235200Y785425D03*
D12*
X1310200Y810425D03*
X1305200Y810425D03*
X1300200Y810425D03*
X1295200Y810425D03*
X1290200Y810425D03*
X1285200Y810425D03*
X1280200Y810425D03*
X1275200Y810425D03*
X1270200Y810425D03*
X1265200Y810425D03*
X1260200Y810425D03*
X1255200Y810425D03*
X1250200Y810425D03*
X1245200Y810425D03*
D10*
X1362075Y439500D03*
X1362075Y449500D03*
X1426845Y440135D03*
X1426845Y450135D03*
D11*
X1441960Y785425D03*
D12*
X1431960Y810425D03*
X1426960Y810425D03*
D11*
X1346960Y785425D03*
D12*
X1421960Y810425D03*
X1416960Y810425D03*
X1411960Y810425D03*
X1406960Y810425D03*
X1401960Y810425D03*
X1396960Y810425D03*
X1391960Y810425D03*
X1386960Y810425D03*
X1381960Y810425D03*
X1376960Y810425D03*
X1371960Y810425D03*
X1366960Y810425D03*
X1361960Y810425D03*
X1356960Y810425D03*
D10*
X1473835Y439500D03*
X1473835Y449500D03*
X1538605Y440135D03*
X1538605Y450135D03*
D11*
X1553720Y785425D03*
D12*
X1543720Y810425D03*
X1538720Y810425D03*
D11*
X1458720Y785425D03*
D12*
X1533720Y810425D03*
X1528720Y810425D03*
X1523720Y810425D03*
X1518720Y810425D03*
X1513720Y810425D03*
X1508720Y810425D03*
X1503720Y810425D03*
X1498720Y810425D03*
X1493720Y810425D03*
X1488720Y810425D03*
X1483720Y810425D03*
X1478720Y810425D03*
X1473720Y810425D03*
X1468720Y810425D03*
D10*
X1585595Y439500D03*
X1585595Y449500D03*
X1650365Y440135D03*
X1650365Y450135D03*
D11*
X1665480Y785425D03*
D12*
X1655480Y810425D03*
X1650480Y810425D03*
D11*
X1570480Y785425D03*
D12*
X1645480Y810425D03*
X1640480Y810425D03*
X1635480Y810425D03*
X1630480Y810425D03*
X1625480Y810425D03*
X1620480Y810425D03*
X1615480Y810425D03*
X1610480Y810425D03*
X1605480Y810425D03*
X1600480Y810425D03*
X1595480Y810425D03*
X1590480Y810425D03*
X1585480Y810425D03*
X1580480Y810425D03*
D10*
X1697355Y439500D03*
X1697355Y449500D03*
X1762125Y440135D03*
X1762125Y450135D03*
D11*
X1777240Y785425D03*
D12*
X1767240Y810425D03*
X1762240Y810425D03*
D11*
X1682240Y785425D03*
D12*
X1757240Y810425D03*
X1752240Y810425D03*
X1747240Y810425D03*
X1742240Y810425D03*
X1737240Y810425D03*
X1732240Y810425D03*
X1727240Y810425D03*
X1722240Y810425D03*
X1717240Y810425D03*
X1712240Y810425D03*
X1707240Y810425D03*
X1702240Y810425D03*
X1697240Y810425D03*
X1692240Y810425D03*
D10*
X20955Y850980D03*
X20955Y860980D03*
X85725Y851615D03*
X85725Y861615D03*
D11*
X100840Y1196905D03*
D12*
X90840Y1221905D03*
X85840Y1221905D03*
D11*
X5840Y1196905D03*
D12*
X80840Y1221905D03*
X75840Y1221905D03*
X70840Y1221905D03*
X65840Y1221905D03*
X60840Y1221905D03*
X55840Y1221905D03*
X50840Y1221905D03*
X45840Y1221905D03*
X40840Y1221905D03*
X35840Y1221905D03*
X30840Y1221905D03*
X25840Y1221905D03*
X20840Y1221905D03*
X15840Y1221905D03*
D10*
X132715Y850980D03*
X132715Y860980D03*
X197485Y851615D03*
X197485Y861615D03*
D11*
X212600Y1196905D03*
D12*
X202600Y1221905D03*
X197600Y1221905D03*
D11*
X117600Y1196905D03*
D12*
X192600Y1221905D03*
X187600Y1221905D03*
X182600Y1221905D03*
X177600Y1221905D03*
X172600Y1221905D03*
X167600Y1221905D03*
X162600Y1221905D03*
X157600Y1221905D03*
X152600Y1221905D03*
X147600Y1221905D03*
X142600Y1221905D03*
X137600Y1221905D03*
X132600Y1221905D03*
X127600Y1221905D03*
D10*
X244475Y850980D03*
X244475Y860980D03*
X309245Y851615D03*
X309245Y861615D03*
D11*
X324360Y1196905D03*
D12*
X314360Y1221905D03*
X309360Y1221905D03*
D11*
X229360Y1196905D03*
D12*
X304360Y1221905D03*
X299360Y1221905D03*
X294360Y1221905D03*
X289360Y1221905D03*
X284360Y1221905D03*
X279360Y1221905D03*
X274360Y1221905D03*
X269360Y1221905D03*
X264360Y1221905D03*
X259360Y1221905D03*
X254360Y1221905D03*
X249360Y1221905D03*
X244360Y1221905D03*
X239360Y1221905D03*
D10*
X356235Y850980D03*
X356235Y860980D03*
X421005Y851615D03*
X421005Y861615D03*
D11*
X436120Y1196905D03*
D12*
X426120Y1221905D03*
X421120Y1221905D03*
D11*
X341120Y1196905D03*
D12*
X416120Y1221905D03*
X411120Y1221905D03*
X406120Y1221905D03*
X401120Y1221905D03*
X396120Y1221905D03*
X391120Y1221905D03*
X386120Y1221905D03*
X381120Y1221905D03*
X376120Y1221905D03*
X371120Y1221905D03*
X366120Y1221905D03*
X361120Y1221905D03*
X356120Y1221905D03*
X351120Y1221905D03*
D10*
X467995Y850980D03*
X467995Y860980D03*
X532765Y851615D03*
X532765Y861615D03*
D11*
X547880Y1196905D03*
D12*
X537880Y1221905D03*
X532880Y1221905D03*
D11*
X452880Y1196905D03*
D12*
X527880Y1221905D03*
X522880Y1221905D03*
X517880Y1221905D03*
X512880Y1221905D03*
X507880Y1221905D03*
X502880Y1221905D03*
X497880Y1221905D03*
X492880Y1221905D03*
X487880Y1221905D03*
X482880Y1221905D03*
X477880Y1221905D03*
X472880Y1221905D03*
X467880Y1221905D03*
X462880Y1221905D03*
D10*
X579755Y850980D03*
X579755Y860980D03*
X644525Y851615D03*
X644525Y861615D03*
D11*
X659640Y1196905D03*
D12*
X649640Y1221905D03*
X644640Y1221905D03*
D11*
X564640Y1196905D03*
D12*
X639640Y1221905D03*
X634640Y1221905D03*
X629640Y1221905D03*
X624640Y1221905D03*
X619640Y1221905D03*
X614640Y1221905D03*
X609640Y1221905D03*
X604640Y1221905D03*
X599640Y1221905D03*
X594640Y1221905D03*
X589640Y1221905D03*
X584640Y1221905D03*
X579640Y1221905D03*
X574640Y1221905D03*
D10*
X691515Y850980D03*
X691515Y860980D03*
X756285Y851615D03*
X756285Y861615D03*
D11*
X771400Y1196905D03*
D12*
X761400Y1221905D03*
X756400Y1221905D03*
D11*
X676400Y1196905D03*
D12*
X751400Y1221905D03*
X746400Y1221905D03*
X741400Y1221905D03*
X736400Y1221905D03*
X731400Y1221905D03*
X726400Y1221905D03*
X721400Y1221905D03*
X716400Y1221905D03*
X711400Y1221905D03*
X706400Y1221905D03*
X701400Y1221905D03*
X696400Y1221905D03*
X691400Y1221905D03*
X686400Y1221905D03*
D10*
X803275Y850980D03*
X803275Y860980D03*
X868045Y851615D03*
X868045Y861615D03*
D11*
X883160Y1196905D03*
D12*
X873160Y1221905D03*
X868160Y1221905D03*
D11*
X788160Y1196905D03*
D12*
X863160Y1221905D03*
X858160Y1221905D03*
X853160Y1221905D03*
X848160Y1221905D03*
X843160Y1221905D03*
X838160Y1221905D03*
X833160Y1221905D03*
X828160Y1221905D03*
X823160Y1221905D03*
X818160Y1221905D03*
X813160Y1221905D03*
X808160Y1221905D03*
X803160Y1221905D03*
X798160Y1221905D03*
D10*
X915035Y850980D03*
X915035Y860980D03*
X979805Y851615D03*
X979805Y861615D03*
D11*
X994920Y1196905D03*
D12*
X984920Y1221905D03*
X979920Y1221905D03*
D11*
X899920Y1196905D03*
D12*
X974920Y1221905D03*
X969920Y1221905D03*
X964920Y1221905D03*
X959920Y1221905D03*
X954920Y1221905D03*
X949920Y1221905D03*
X944920Y1221905D03*
X939920Y1221905D03*
X934920Y1221905D03*
X929920Y1221905D03*
X924920Y1221905D03*
X919920Y1221905D03*
X914920Y1221905D03*
X909920Y1221905D03*
D10*
X1026795Y850980D03*
X1026795Y860980D03*
X1091565Y851615D03*
X1091565Y861615D03*
D11*
X1106680Y1196905D03*
D12*
X1096680Y1221905D03*
X1091680Y1221905D03*
D11*
X1011680Y1196905D03*
D12*
X1086680Y1221905D03*
X1081680Y1221905D03*
X1076680Y1221905D03*
X1071680Y1221905D03*
X1066680Y1221905D03*
X1061680Y1221905D03*
X1056680Y1221905D03*
X1051680Y1221905D03*
X1046680Y1221905D03*
X1041680Y1221905D03*
X1036680Y1221905D03*
X1031680Y1221905D03*
X1026680Y1221905D03*
X1021680Y1221905D03*
D10*
X1138555Y850980D03*
X1138555Y860980D03*
X1203325Y851615D03*
X1203325Y861615D03*
D11*
X1218440Y1196905D03*
D12*
X1208440Y1221905D03*
X1203440Y1221905D03*
D11*
X1123440Y1196905D03*
D12*
X1198440Y1221905D03*
X1193440Y1221905D03*
X1188440Y1221905D03*
X1183440Y1221905D03*
X1178440Y1221905D03*
X1173440Y1221905D03*
X1168440Y1221905D03*
X1163440Y1221905D03*
X1158440Y1221905D03*
X1153440Y1221905D03*
X1148440Y1221905D03*
X1143440Y1221905D03*
X1138440Y1221905D03*
X1133440Y1221905D03*
D10*
X1250315Y850980D03*
X1250315Y860980D03*
X1315085Y851615D03*
X1315085Y861615D03*
D11*
X1330200Y1196905D03*
D12*
X1320200Y1221905D03*
X1315200Y1221905D03*
D11*
X1235200Y1196905D03*
D12*
X1310200Y1221905D03*
X1305200Y1221905D03*
X1300200Y1221905D03*
X1295200Y1221905D03*
X1290200Y1221905D03*
X1285200Y1221905D03*
X1280200Y1221905D03*
X1275200Y1221905D03*
X1270200Y1221905D03*
X1265200Y1221905D03*
X1260200Y1221905D03*
X1255200Y1221905D03*
X1250200Y1221905D03*
X1245200Y1221905D03*
D10*
X1362075Y850980D03*
X1362075Y860980D03*
X1426845Y851615D03*
X1426845Y861615D03*
D11*
X1441960Y1196905D03*
D12*
X1431960Y1221905D03*
X1426960Y1221905D03*
D11*
X1346960Y1196905D03*
D12*
X1421960Y1221905D03*
X1416960Y1221905D03*
X1411960Y1221905D03*
X1406960Y1221905D03*
X1401960Y1221905D03*
X1396960Y1221905D03*
X1391960Y1221905D03*
X1386960Y1221905D03*
X1381960Y1221905D03*
X1376960Y1221905D03*
X1371960Y1221905D03*
X1366960Y1221905D03*
X1361960Y1221905D03*
X1356960Y1221905D03*
D10*
X1473835Y850980D03*
X1473835Y860980D03*
X1538605Y851615D03*
X1538605Y861615D03*
D11*
X1553720Y1196905D03*
D12*
X1543720Y1221905D03*
X1538720Y1221905D03*
D11*
X1458720Y1196905D03*
D12*
X1533720Y1221905D03*
X1528720Y1221905D03*
X1523720Y1221905D03*
X1518720Y1221905D03*
X1513720Y1221905D03*
X1508720Y1221905D03*
X1503720Y1221905D03*
X1498720Y1221905D03*
X1493720Y1221905D03*
X1488720Y1221905D03*
X1483720Y1221905D03*
X1478720Y1221905D03*
X1473720Y1221905D03*
X1468720Y1221905D03*
D10*
X1585595Y850980D03*
X1585595Y860980D03*
X1650365Y851615D03*
X1650365Y861615D03*
D11*
X1665480Y1196905D03*
D12*
X1655480Y1221905D03*
X1650480Y1221905D03*
D11*
X1570480Y1196905D03*
D12*
X1645480Y1221905D03*
X1640480Y1221905D03*
X1635480Y1221905D03*
X1630480Y1221905D03*
X1625480Y1221905D03*
X1620480Y1221905D03*
X1615480Y1221905D03*
X1610480Y1221905D03*
X1605480Y1221905D03*
X1600480Y1221905D03*
X1595480Y1221905D03*
X1590480Y1221905D03*
X1585480Y1221905D03*
X1580480Y1221905D03*
D10*
X1697355Y850980D03*
X1697355Y860980D03*
X1762125Y851615D03*
X1762125Y861615D03*
D11*
X1777240Y1196905D03*
D12*
X1767240Y1221905D03*
X1762240Y1221905D03*
D11*
X1682240Y1196905D03*
D12*
X1757240Y1221905D03*
X1752240Y1221905D03*
X1747240Y1221905D03*
X1742240Y1221905D03*
X1737240Y1221905D03*
X1732240Y1221905D03*
X1727240Y1221905D03*
X1722240Y1221905D03*
X1717240Y1221905D03*
X1712240Y1221905D03*
X1707240Y1221905D03*
X1702240Y1221905D03*
X1697240Y1221905D03*
X1692240Y1221905D03*
M02*
