G04 EAGLE Gerber RS-274X export*
G75*
%MOMM*%
%FSLAX34Y34*%
%LPD*%
%INSolderpaste Bottom*%
%IPPOS*%
%AMOC8*
5,1,8,0,0,1.08239X$1,22.5*%
G01*
%ADD10R,0.600000X0.600000*%
%ADD11R,0.400000X0.800000*%
%ADD12R,0.250000X0.650000*%


D10*
X20955Y28020D03*
X20955Y38020D03*
X85725Y28655D03*
X85725Y38655D03*
D11*
X100840Y373945D03*
D12*
X90840Y398945D03*
X85840Y398945D03*
D11*
X5840Y373945D03*
D12*
X80840Y398945D03*
X75840Y398945D03*
X70840Y398945D03*
X65840Y398945D03*
X60840Y398945D03*
X55840Y398945D03*
X50840Y398945D03*
X45840Y398945D03*
X40840Y398945D03*
X35840Y398945D03*
X30840Y398945D03*
X25840Y398945D03*
X20840Y398945D03*
X15840Y398945D03*
D10*
X183515Y28020D03*
X183515Y38020D03*
X248285Y28655D03*
X248285Y38655D03*
D11*
X263400Y373945D03*
D12*
X253400Y398945D03*
X248400Y398945D03*
D11*
X168400Y373945D03*
D12*
X243400Y398945D03*
X238400Y398945D03*
X233400Y398945D03*
X228400Y398945D03*
X223400Y398945D03*
X218400Y398945D03*
X213400Y398945D03*
X208400Y398945D03*
X203400Y398945D03*
X198400Y398945D03*
X193400Y398945D03*
X188400Y398945D03*
X183400Y398945D03*
X178400Y398945D03*
D10*
X346075Y28020D03*
X346075Y38020D03*
X410845Y28655D03*
X410845Y38655D03*
D11*
X425960Y373945D03*
D12*
X415960Y398945D03*
X410960Y398945D03*
D11*
X330960Y373945D03*
D12*
X405960Y398945D03*
X400960Y398945D03*
X395960Y398945D03*
X390960Y398945D03*
X385960Y398945D03*
X380960Y398945D03*
X375960Y398945D03*
X370960Y398945D03*
X365960Y398945D03*
X360960Y398945D03*
X355960Y398945D03*
X350960Y398945D03*
X345960Y398945D03*
X340960Y398945D03*
D10*
X508635Y28020D03*
X508635Y38020D03*
X573405Y28655D03*
X573405Y38655D03*
D11*
X588520Y373945D03*
D12*
X578520Y398945D03*
X573520Y398945D03*
D11*
X493520Y373945D03*
D12*
X568520Y398945D03*
X563520Y398945D03*
X558520Y398945D03*
X553520Y398945D03*
X548520Y398945D03*
X543520Y398945D03*
X538520Y398945D03*
X533520Y398945D03*
X528520Y398945D03*
X523520Y398945D03*
X518520Y398945D03*
X513520Y398945D03*
X508520Y398945D03*
X503520Y398945D03*
D10*
X671195Y28020D03*
X671195Y38020D03*
X735965Y28655D03*
X735965Y38655D03*
D11*
X751080Y373945D03*
D12*
X741080Y398945D03*
X736080Y398945D03*
D11*
X656080Y373945D03*
D12*
X731080Y398945D03*
X726080Y398945D03*
X721080Y398945D03*
X716080Y398945D03*
X711080Y398945D03*
X706080Y398945D03*
X701080Y398945D03*
X696080Y398945D03*
X691080Y398945D03*
X686080Y398945D03*
X681080Y398945D03*
X676080Y398945D03*
X671080Y398945D03*
X666080Y398945D03*
D10*
X833755Y28020D03*
X833755Y38020D03*
X898525Y28655D03*
X898525Y38655D03*
D11*
X913640Y373945D03*
D12*
X903640Y398945D03*
X898640Y398945D03*
D11*
X818640Y373945D03*
D12*
X893640Y398945D03*
X888640Y398945D03*
X883640Y398945D03*
X878640Y398945D03*
X873640Y398945D03*
X868640Y398945D03*
X863640Y398945D03*
X858640Y398945D03*
X853640Y398945D03*
X848640Y398945D03*
X843640Y398945D03*
X838640Y398945D03*
X833640Y398945D03*
X828640Y398945D03*
D10*
X996315Y28020D03*
X996315Y38020D03*
X1061085Y28655D03*
X1061085Y38655D03*
D11*
X1076200Y373945D03*
D12*
X1066200Y398945D03*
X1061200Y398945D03*
D11*
X981200Y373945D03*
D12*
X1056200Y398945D03*
X1051200Y398945D03*
X1046200Y398945D03*
X1041200Y398945D03*
X1036200Y398945D03*
X1031200Y398945D03*
X1026200Y398945D03*
X1021200Y398945D03*
X1016200Y398945D03*
X1011200Y398945D03*
X1006200Y398945D03*
X1001200Y398945D03*
X996200Y398945D03*
X991200Y398945D03*
D10*
X1158875Y28020D03*
X1158875Y38020D03*
X1223645Y28655D03*
X1223645Y38655D03*
D11*
X1238760Y373945D03*
D12*
X1228760Y398945D03*
X1223760Y398945D03*
D11*
X1143760Y373945D03*
D12*
X1218760Y398945D03*
X1213760Y398945D03*
X1208760Y398945D03*
X1203760Y398945D03*
X1198760Y398945D03*
X1193760Y398945D03*
X1188760Y398945D03*
X1183760Y398945D03*
X1178760Y398945D03*
X1173760Y398945D03*
X1168760Y398945D03*
X1163760Y398945D03*
X1158760Y398945D03*
X1153760Y398945D03*
D10*
X1321435Y28020D03*
X1321435Y38020D03*
X1386205Y28655D03*
X1386205Y38655D03*
D11*
X1401320Y373945D03*
D12*
X1391320Y398945D03*
X1386320Y398945D03*
D11*
X1306320Y373945D03*
D12*
X1381320Y398945D03*
X1376320Y398945D03*
X1371320Y398945D03*
X1366320Y398945D03*
X1361320Y398945D03*
X1356320Y398945D03*
X1351320Y398945D03*
X1346320Y398945D03*
X1341320Y398945D03*
X1336320Y398945D03*
X1331320Y398945D03*
X1326320Y398945D03*
X1321320Y398945D03*
X1316320Y398945D03*
D10*
X1483995Y28020D03*
X1483995Y38020D03*
X1548765Y28655D03*
X1548765Y38655D03*
D11*
X1563880Y373945D03*
D12*
X1553880Y398945D03*
X1548880Y398945D03*
D11*
X1468880Y373945D03*
D12*
X1543880Y398945D03*
X1538880Y398945D03*
X1533880Y398945D03*
X1528880Y398945D03*
X1523880Y398945D03*
X1518880Y398945D03*
X1513880Y398945D03*
X1508880Y398945D03*
X1503880Y398945D03*
X1498880Y398945D03*
X1493880Y398945D03*
X1488880Y398945D03*
X1483880Y398945D03*
X1478880Y398945D03*
D10*
X20955Y439500D03*
X20955Y449500D03*
X85725Y440135D03*
X85725Y450135D03*
D11*
X100840Y785425D03*
D12*
X90840Y810425D03*
X85840Y810425D03*
D11*
X5840Y785425D03*
D12*
X80840Y810425D03*
X75840Y810425D03*
X70840Y810425D03*
X65840Y810425D03*
X60840Y810425D03*
X55840Y810425D03*
X50840Y810425D03*
X45840Y810425D03*
X40840Y810425D03*
X35840Y810425D03*
X30840Y810425D03*
X25840Y810425D03*
X20840Y810425D03*
X15840Y810425D03*
D10*
X183515Y439500D03*
X183515Y449500D03*
X248285Y440135D03*
X248285Y450135D03*
D11*
X263400Y785425D03*
D12*
X253400Y810425D03*
X248400Y810425D03*
D11*
X168400Y785425D03*
D12*
X243400Y810425D03*
X238400Y810425D03*
X233400Y810425D03*
X228400Y810425D03*
X223400Y810425D03*
X218400Y810425D03*
X213400Y810425D03*
X208400Y810425D03*
X203400Y810425D03*
X198400Y810425D03*
X193400Y810425D03*
X188400Y810425D03*
X183400Y810425D03*
X178400Y810425D03*
D10*
X346075Y439500D03*
X346075Y449500D03*
X410845Y440135D03*
X410845Y450135D03*
D11*
X425960Y785425D03*
D12*
X415960Y810425D03*
X410960Y810425D03*
D11*
X330960Y785425D03*
D12*
X405960Y810425D03*
X400960Y810425D03*
X395960Y810425D03*
X390960Y810425D03*
X385960Y810425D03*
X380960Y810425D03*
X375960Y810425D03*
X370960Y810425D03*
X365960Y810425D03*
X360960Y810425D03*
X355960Y810425D03*
X350960Y810425D03*
X345960Y810425D03*
X340960Y810425D03*
D10*
X508635Y439500D03*
X508635Y449500D03*
X573405Y440135D03*
X573405Y450135D03*
D11*
X588520Y785425D03*
D12*
X578520Y810425D03*
X573520Y810425D03*
D11*
X493520Y785425D03*
D12*
X568520Y810425D03*
X563520Y810425D03*
X558520Y810425D03*
X553520Y810425D03*
X548520Y810425D03*
X543520Y810425D03*
X538520Y810425D03*
X533520Y810425D03*
X528520Y810425D03*
X523520Y810425D03*
X518520Y810425D03*
X513520Y810425D03*
X508520Y810425D03*
X503520Y810425D03*
D10*
X671195Y439500D03*
X671195Y449500D03*
X735965Y440135D03*
X735965Y450135D03*
D11*
X751080Y785425D03*
D12*
X741080Y810425D03*
X736080Y810425D03*
D11*
X656080Y785425D03*
D12*
X731080Y810425D03*
X726080Y810425D03*
X721080Y810425D03*
X716080Y810425D03*
X711080Y810425D03*
X706080Y810425D03*
X701080Y810425D03*
X696080Y810425D03*
X691080Y810425D03*
X686080Y810425D03*
X681080Y810425D03*
X676080Y810425D03*
X671080Y810425D03*
X666080Y810425D03*
D10*
X833755Y439500D03*
X833755Y449500D03*
X898525Y440135D03*
X898525Y450135D03*
D11*
X913640Y785425D03*
D12*
X903640Y810425D03*
X898640Y810425D03*
D11*
X818640Y785425D03*
D12*
X893640Y810425D03*
X888640Y810425D03*
X883640Y810425D03*
X878640Y810425D03*
X873640Y810425D03*
X868640Y810425D03*
X863640Y810425D03*
X858640Y810425D03*
X853640Y810425D03*
X848640Y810425D03*
X843640Y810425D03*
X838640Y810425D03*
X833640Y810425D03*
X828640Y810425D03*
D10*
X996315Y439500D03*
X996315Y449500D03*
X1061085Y440135D03*
X1061085Y450135D03*
D11*
X1076200Y785425D03*
D12*
X1066200Y810425D03*
X1061200Y810425D03*
D11*
X981200Y785425D03*
D12*
X1056200Y810425D03*
X1051200Y810425D03*
X1046200Y810425D03*
X1041200Y810425D03*
X1036200Y810425D03*
X1031200Y810425D03*
X1026200Y810425D03*
X1021200Y810425D03*
X1016200Y810425D03*
X1011200Y810425D03*
X1006200Y810425D03*
X1001200Y810425D03*
X996200Y810425D03*
X991200Y810425D03*
D10*
X1158875Y439500D03*
X1158875Y449500D03*
X1223645Y440135D03*
X1223645Y450135D03*
D11*
X1238760Y785425D03*
D12*
X1228760Y810425D03*
X1223760Y810425D03*
D11*
X1143760Y785425D03*
D12*
X1218760Y810425D03*
X1213760Y810425D03*
X1208760Y810425D03*
X1203760Y810425D03*
X1198760Y810425D03*
X1193760Y810425D03*
X1188760Y810425D03*
X1183760Y810425D03*
X1178760Y810425D03*
X1173760Y810425D03*
X1168760Y810425D03*
X1163760Y810425D03*
X1158760Y810425D03*
X1153760Y810425D03*
D10*
X1321435Y439500D03*
X1321435Y449500D03*
X1386205Y440135D03*
X1386205Y450135D03*
D11*
X1401320Y785425D03*
D12*
X1391320Y810425D03*
X1386320Y810425D03*
D11*
X1306320Y785425D03*
D12*
X1381320Y810425D03*
X1376320Y810425D03*
X1371320Y810425D03*
X1366320Y810425D03*
X1361320Y810425D03*
X1356320Y810425D03*
X1351320Y810425D03*
X1346320Y810425D03*
X1341320Y810425D03*
X1336320Y810425D03*
X1331320Y810425D03*
X1326320Y810425D03*
X1321320Y810425D03*
X1316320Y810425D03*
D10*
X1483995Y439500D03*
X1483995Y449500D03*
X1548765Y440135D03*
X1548765Y450135D03*
D11*
X1563880Y785425D03*
D12*
X1553880Y810425D03*
X1548880Y810425D03*
D11*
X1468880Y785425D03*
D12*
X1543880Y810425D03*
X1538880Y810425D03*
X1533880Y810425D03*
X1528880Y810425D03*
X1523880Y810425D03*
X1518880Y810425D03*
X1513880Y810425D03*
X1508880Y810425D03*
X1503880Y810425D03*
X1498880Y810425D03*
X1493880Y810425D03*
X1488880Y810425D03*
X1483880Y810425D03*
X1478880Y810425D03*
D10*
X20955Y850980D03*
X20955Y860980D03*
X85725Y851615D03*
X85725Y861615D03*
D11*
X100840Y1196905D03*
D12*
X90840Y1221905D03*
X85840Y1221905D03*
D11*
X5840Y1196905D03*
D12*
X80840Y1221905D03*
X75840Y1221905D03*
X70840Y1221905D03*
X65840Y1221905D03*
X60840Y1221905D03*
X55840Y1221905D03*
X50840Y1221905D03*
X45840Y1221905D03*
X40840Y1221905D03*
X35840Y1221905D03*
X30840Y1221905D03*
X25840Y1221905D03*
X20840Y1221905D03*
X15840Y1221905D03*
D10*
X183515Y850980D03*
X183515Y860980D03*
X248285Y851615D03*
X248285Y861615D03*
D11*
X263400Y1196905D03*
D12*
X253400Y1221905D03*
X248400Y1221905D03*
D11*
X168400Y1196905D03*
D12*
X243400Y1221905D03*
X238400Y1221905D03*
X233400Y1221905D03*
X228400Y1221905D03*
X223400Y1221905D03*
X218400Y1221905D03*
X213400Y1221905D03*
X208400Y1221905D03*
X203400Y1221905D03*
X198400Y1221905D03*
X193400Y1221905D03*
X188400Y1221905D03*
X183400Y1221905D03*
X178400Y1221905D03*
D10*
X346075Y850980D03*
X346075Y860980D03*
X410845Y851615D03*
X410845Y861615D03*
D11*
X425960Y1196905D03*
D12*
X415960Y1221905D03*
X410960Y1221905D03*
D11*
X330960Y1196905D03*
D12*
X405960Y1221905D03*
X400960Y1221905D03*
X395960Y1221905D03*
X390960Y1221905D03*
X385960Y1221905D03*
X380960Y1221905D03*
X375960Y1221905D03*
X370960Y1221905D03*
X365960Y1221905D03*
X360960Y1221905D03*
X355960Y1221905D03*
X350960Y1221905D03*
X345960Y1221905D03*
X340960Y1221905D03*
D10*
X508635Y850980D03*
X508635Y860980D03*
X573405Y851615D03*
X573405Y861615D03*
D11*
X588520Y1196905D03*
D12*
X578520Y1221905D03*
X573520Y1221905D03*
D11*
X493520Y1196905D03*
D12*
X568520Y1221905D03*
X563520Y1221905D03*
X558520Y1221905D03*
X553520Y1221905D03*
X548520Y1221905D03*
X543520Y1221905D03*
X538520Y1221905D03*
X533520Y1221905D03*
X528520Y1221905D03*
X523520Y1221905D03*
X518520Y1221905D03*
X513520Y1221905D03*
X508520Y1221905D03*
X503520Y1221905D03*
D10*
X671195Y850980D03*
X671195Y860980D03*
X735965Y851615D03*
X735965Y861615D03*
D11*
X751080Y1196905D03*
D12*
X741080Y1221905D03*
X736080Y1221905D03*
D11*
X656080Y1196905D03*
D12*
X731080Y1221905D03*
X726080Y1221905D03*
X721080Y1221905D03*
X716080Y1221905D03*
X711080Y1221905D03*
X706080Y1221905D03*
X701080Y1221905D03*
X696080Y1221905D03*
X691080Y1221905D03*
X686080Y1221905D03*
X681080Y1221905D03*
X676080Y1221905D03*
X671080Y1221905D03*
X666080Y1221905D03*
D10*
X833755Y850980D03*
X833755Y860980D03*
X898525Y851615D03*
X898525Y861615D03*
D11*
X913640Y1196905D03*
D12*
X903640Y1221905D03*
X898640Y1221905D03*
D11*
X818640Y1196905D03*
D12*
X893640Y1221905D03*
X888640Y1221905D03*
X883640Y1221905D03*
X878640Y1221905D03*
X873640Y1221905D03*
X868640Y1221905D03*
X863640Y1221905D03*
X858640Y1221905D03*
X853640Y1221905D03*
X848640Y1221905D03*
X843640Y1221905D03*
X838640Y1221905D03*
X833640Y1221905D03*
X828640Y1221905D03*
D10*
X996315Y850980D03*
X996315Y860980D03*
X1061085Y851615D03*
X1061085Y861615D03*
D11*
X1076200Y1196905D03*
D12*
X1066200Y1221905D03*
X1061200Y1221905D03*
D11*
X981200Y1196905D03*
D12*
X1056200Y1221905D03*
X1051200Y1221905D03*
X1046200Y1221905D03*
X1041200Y1221905D03*
X1036200Y1221905D03*
X1031200Y1221905D03*
X1026200Y1221905D03*
X1021200Y1221905D03*
X1016200Y1221905D03*
X1011200Y1221905D03*
X1006200Y1221905D03*
X1001200Y1221905D03*
X996200Y1221905D03*
X991200Y1221905D03*
D10*
X1158875Y850980D03*
X1158875Y860980D03*
X1223645Y851615D03*
X1223645Y861615D03*
D11*
X1238760Y1196905D03*
D12*
X1228760Y1221905D03*
X1223760Y1221905D03*
D11*
X1143760Y1196905D03*
D12*
X1218760Y1221905D03*
X1213760Y1221905D03*
X1208760Y1221905D03*
X1203760Y1221905D03*
X1198760Y1221905D03*
X1193760Y1221905D03*
X1188760Y1221905D03*
X1183760Y1221905D03*
X1178760Y1221905D03*
X1173760Y1221905D03*
X1168760Y1221905D03*
X1163760Y1221905D03*
X1158760Y1221905D03*
X1153760Y1221905D03*
D10*
X1321435Y850980D03*
X1321435Y860980D03*
X1386205Y851615D03*
X1386205Y861615D03*
D11*
X1401320Y1196905D03*
D12*
X1391320Y1221905D03*
X1386320Y1221905D03*
D11*
X1306320Y1196905D03*
D12*
X1381320Y1221905D03*
X1376320Y1221905D03*
X1371320Y1221905D03*
X1366320Y1221905D03*
X1361320Y1221905D03*
X1356320Y1221905D03*
X1351320Y1221905D03*
X1346320Y1221905D03*
X1341320Y1221905D03*
X1336320Y1221905D03*
X1331320Y1221905D03*
X1326320Y1221905D03*
X1321320Y1221905D03*
X1316320Y1221905D03*
D10*
X1483995Y850980D03*
X1483995Y860980D03*
X1548765Y851615D03*
X1548765Y861615D03*
D11*
X1563880Y1196905D03*
D12*
X1553880Y1221905D03*
X1548880Y1221905D03*
D11*
X1468880Y1196905D03*
D12*
X1543880Y1221905D03*
X1538880Y1221905D03*
X1533880Y1221905D03*
X1528880Y1221905D03*
X1523880Y1221905D03*
X1518880Y1221905D03*
X1513880Y1221905D03*
X1508880Y1221905D03*
X1503880Y1221905D03*
X1498880Y1221905D03*
X1493880Y1221905D03*
X1488880Y1221905D03*
X1483880Y1221905D03*
X1478880Y1221905D03*
M02*
