M48
;GenerationSoftware,Autodesk,EAGLE,9.6.2*%
;CreationDate,2021-07-30T11:35:30Z*%
FMAT,2
ICI,OFF
METRIC,TZ,000.000
T2C0.200
T1C0.300
%
G90
M71
T1
X151638Y16192
X118110Y16192
X6350Y16192
X62230Y16192
X28702Y16192
X95758Y16192
X84582Y16192
X51054Y57340
X129286Y16192
X17526Y57340
X39878Y57340
X106934Y16192
X73406Y16192
X17526Y16192
X28702Y57340
X73406Y57340
X62230Y57340
X6350Y57340
X173990Y16192
X140462Y16192
X84582Y57340
X51054Y16192
X39878Y16192
X162814Y16192
X95758Y57340
X106934Y57340
X118110Y57340
X129286Y57340
X140462Y57340
X151638Y57340
X162814Y57340
X173990Y57340
X6350Y98488
X17526Y98488
X28702Y98488
X39878Y98488
X51054Y98488
X62230Y98488
X73406Y98488
X84582Y98488
X95758Y98488
X106934Y98488
X118110Y98488
X129286Y98488
X140462Y98488
X151638Y98488
X162814Y98488
X173990Y98488
T2
X8890Y19050
X3048Y27051
X8636Y27051
X8636Y23622
X4699Y21717
X1905Y33020
X2540Y17780
X2540Y20320
X5334Y15240
X7239Y26543
X2540Y15240
X2540Y12700
X8890Y12700
X8890Y15875
X6350Y32448
X7620Y29210
X3048Y22733
X3175Y28956
X7616Y39180
X7620Y1460
X7111Y39180
X7112Y1460
X6606Y39180
X6607Y1460
X6101Y39180
X6096Y1460
X5596Y39180
X5591Y1460
X5092Y39180
X5086Y1460
X4587Y39180
X8255Y34036
X4082Y39180
X4582Y1460
X3577Y39180
X3619Y1460
X4318Y28829
X3072Y39180
X3115Y1460
X3048Y27559
X8561Y1968
X8561Y1460
X8616Y39180
X8616Y38735
X2096Y39180
X2096Y38735
X2096Y1460
X2092Y1968
X1587Y1957
X1587Y1460
X5334Y23495
X5842Y23495
X5842Y26035
X9092Y1957
X9081Y1460
X19300Y38957
X19304Y38481
X13740Y38989
X13716Y38481
X13779Y1714
X13779Y2159
X19267Y1704
X19260Y2205
X18796Y37465
X18796Y36195
X14224Y36195
X14224Y37465
X15113Y35179
X17907Y35179
X19685Y31877
X19685Y29210
X17526Y33846
X17145Y31432
X17145Y29210
X17145Y30289
X15875Y29210
X15875Y30289
X15875Y31432
X13335Y28575
X20066Y19050
X14224Y27051
X19812Y27051
X19812Y23622
X15875Y21717
X13081Y33020
X13716Y17780
X13716Y20320
X16510Y15240
X18415Y26543
X13716Y15240
X13716Y12700
X20066Y12700
X20066Y15875
X17526Y32448
X18796Y29210
X14224Y22733
X14351Y28956
X18792Y39180
X18796Y1460
X18287Y39180
X18288Y1460
X17782Y39180
X17783Y1460
X17277Y39180
X17272Y1460
X16773Y39180
X16767Y1460
X16268Y39180
X16262Y1460
X15763Y39180
X19431Y34036
X15258Y39180
X15758Y1460
X14753Y39180
X14795Y1460
X15494Y28829
X14248Y39180
X14291Y1460
X14224Y27559
X19737Y1968
X19737Y1460
X19792Y39180
X19792Y38735
X13271Y39180
X13271Y38735
X13271Y1460
X13268Y1968
X12763Y1957
X12763Y1460
X16510Y23495
X17018Y23495
X17018Y26035
X20268Y1957
X20257Y1460
X30476Y38957
X30480Y38481
X24916Y38989
X24892Y38481
X24955Y1714
X24955Y2159
X30443Y1704
X30436Y2205
X29972Y37465
X29972Y36195
X25400Y36195
X25400Y37465
X26289Y35179
X29083Y35179
X30861Y31877
X30861Y29210
X28702Y33846
X28321Y31432
X28321Y29210
X28321Y30289
X27051Y29210
X27051Y30289
X27051Y31432
X24511Y28575
X31242Y19050
X25400Y27051
X30988Y27051
X30988Y23622
X27051Y21717
X24257Y33020
X24892Y17780
X24892Y20320
X27686Y15240
X29591Y26543
X24892Y15240
X24892Y12700
X31242Y12700
X31242Y15875
X28702Y32448
X29972Y29210
X25400Y22733
X25527Y28956
X29968Y39180
X29972Y1460
X29463Y39180
X29464Y1460
X28958Y39180
X28959Y1460
X28453Y39180
X28448Y1460
X27948Y39180
X27943Y1460
X27444Y39180
X27438Y1460
X26939Y39180
X30607Y34036
X26434Y39180
X26934Y1460
X25929Y39180
X25971Y1460
X26670Y28829
X25424Y39180
X25467Y1460
X25400Y27559
X30913Y1968
X30913Y1460
X30968Y39180
X30968Y38735
X24447Y39180
X24447Y38735
X24447Y1460
X24444Y1968
X23939Y1957
X23939Y1460
X27686Y23495
X28194Y23495
X28194Y26035
X31444Y1957
X31432Y1460
X41652Y38957
X41656Y38481
X36092Y38989
X36068Y38481
X36132Y1714
X36132Y2159
X41619Y1704
X41612Y2205
X41148Y37465
X41148Y36195
X36576Y36195
X36576Y37465
X37465Y35179
X40259Y35179
X42037Y31877
X42037Y29210
X39878Y33846
X39497Y31432
X39497Y29210
X39497Y30289
X38227Y29210
X38227Y30289
X38227Y31432
X35687Y28575
X42418Y19050
X36576Y27051
X42164Y27051
X42164Y23622
X38227Y21717
X35433Y33020
X36068Y17780
X36068Y20320
X38862Y15240
X40767Y26543
X36068Y15240
X36068Y12700
X42418Y12700
X42418Y15875
X39878Y32448
X41148Y29210
X36576Y22733
X36703Y28956
X41144Y39180
X41148Y1460
X40639Y39180
X40640Y1460
X40134Y39180
X40135Y1460
X39629Y39180
X39624Y1460
X39125Y39180
X39119Y1460
X38620Y39180
X38614Y1460
X38115Y39180
X41783Y34036
X37610Y39180
X38110Y1460
X37105Y39180
X37148Y1460
X37846Y28829
X36601Y39180
X36643Y1460
X36576Y27559
X42089Y1968
X42089Y1460
X42144Y39180
X42144Y38735
X35624Y39180
X35624Y38735
X35624Y1460
X35620Y1968
X35116Y1957
X35116Y1460
X38862Y23495
X39370Y23495
X39370Y26035
X42620Y1957
X42609Y1460
X52828Y38957
X52832Y38481
X47268Y38989
X47244Y38481
X47307Y1714
X47307Y2159
X52795Y1704
X52788Y2205
X52324Y37465
X52324Y36195
X47752Y36195
X47752Y37465
X48641Y35179
X51435Y35179
X53213Y31877
X53213Y29210
X51054Y33846
X50673Y31432
X50673Y29210
X50673Y30289
X49403Y29210
X49403Y30289
X49403Y31432
X46863Y28575
X53594Y19050
X47752Y27051
X53340Y27051
X53340Y23622
X49403Y21717
X46609Y33020
X47244Y17780
X47244Y20320
X50038Y15240
X51943Y26543
X47244Y15240
X47244Y12700
X53594Y12700
X53594Y15875
X51054Y32448
X52324Y29210
X47752Y22733
X47879Y28956
X52320Y39180
X52324Y1460
X51815Y39180
X51816Y1460
X51310Y39180
X51311Y1460
X50805Y39180
X50800Y1460
X50300Y39180
X50295Y1460
X49796Y39180
X49790Y1460
X49291Y39180
X52959Y34036
X48786Y39180
X49286Y1460
X48281Y39180
X48323Y1460
X49022Y28829
X47776Y39180
X47819Y1460
X47752Y27559
X53265Y1968
X53265Y1460
X53320Y39180
X53320Y38735
X46799Y39180
X46799Y38735
X46799Y1460
X46796Y1968
X46291Y1957
X46291Y1460
X50038Y23495
X50546Y23495
X50546Y26035
X53796Y1957
X53784Y1460
X64004Y38957
X64008Y38481
X58444Y38989
X58420Y38481
X58483Y1714
X58483Y2159
X63971Y1704
X63964Y2205
X63500Y37465
X63500Y36195
X58928Y36195
X58928Y37465
X59817Y35179
X62611Y35179
X64389Y31877
X64389Y29210
X62230Y33846
X61849Y31432
X61849Y29210
X61849Y30289
X60579Y29210
X60579Y30289
X60579Y31432
X58039Y28575
X64770Y19050
X58928Y27051
X64516Y27051
X64516Y23622
X60579Y21717
X57785Y33020
X58420Y17780
X58420Y20320
X61214Y15240
X63119Y26543
X58420Y15240
X58420Y12700
X64770Y12700
X64770Y15875
X62230Y32448
X63500Y29210
X58928Y22733
X59055Y28956
X63496Y39180
X63500Y1460
X62991Y39180
X62992Y1460
X62486Y39180
X62487Y1460
X61981Y39180
X61976Y1460
X61476Y39180
X61471Y1460
X60972Y39180
X60966Y1460
X60467Y39180
X64135Y34036
X59962Y39180
X60462Y1460
X59457Y39180
X59499Y1460
X60198Y28829
X58952Y39180
X58995Y1460
X58928Y27559
X64441Y1968
X64441Y1460
X64496Y39180
X64496Y38735
X57975Y39180
X57975Y38735
X57975Y1460
X57972Y1968
X57467Y1957
X57467Y1460
X61214Y23495
X61722Y23495
X61722Y26035
X64972Y1957
X64960Y1460
X75180Y38957
X75184Y38481
X69620Y38989
X69596Y38481
X69660Y1714
X69660Y2159
X75147Y1704
X75140Y2205
X74676Y37465
X74676Y36195
X70104Y36195
X70104Y37465
X70993Y35179
X73787Y35179
X75565Y31877
X75565Y29210
X73406Y33846
X73025Y31432
X73025Y29210
X73025Y30289
X71755Y29210
X71755Y30289
X71755Y31432
X69215Y28575
X75946Y19050
X70104Y27051
X75692Y27051
X75692Y23622
X71755Y21717
X68961Y33020
X69596Y17780
X69596Y20320
X72390Y15240
X74295Y26543
X69596Y15240
X69596Y12700
X75946Y12700
X75946Y15875
X73406Y32448
X74676Y29210
X70104Y22733
X70231Y28956
X74672Y39180
X74676Y1460
X74167Y39180
X74168Y1460
X73662Y39180
X73663Y1460
X73157Y39180
X73152Y1460
X72653Y39180
X72647Y1460
X72148Y39180
X72142Y1460
X71643Y39180
X75311Y34036
X71138Y39180
X71638Y1460
X70633Y39180
X70676Y1460
X71374Y28829
X70129Y39180
X70171Y1460
X70104Y27559
X75617Y1968
X75617Y1460
X75672Y39180
X75672Y38735
X69152Y39180
X69152Y38735
X69152Y1460
X69148Y1968
X68644Y1957
X68644Y1460
X72390Y23495
X72898Y23495
X72898Y26035
X76148Y1957
X76137Y1460
X86356Y38957
X86360Y38481
X80796Y38989
X80772Y38481
X80836Y1714
X80836Y2159
X86323Y1704
X86316Y2205
X85852Y37465
X85852Y36195
X81280Y36195
X81280Y37465
X82169Y35179
X84963Y35179
X86741Y31877
X86741Y29210
X84582Y33846
X84201Y31432
X84201Y29210
X84201Y30289
X82931Y29210
X82931Y30289
X82931Y31432
X80391Y28575
X87122Y19050
X81280Y27051
X86868Y27051
X86868Y23622
X82931Y21717
X80137Y33020
X80772Y17780
X80772Y20320
X83566Y15240
X85471Y26543
X80772Y15240
X80772Y12700
X87122Y12700
X87122Y15875
X84582Y32448
X85852Y29210
X81280Y22733
X81407Y28956
X85848Y39180
X85852Y1460
X85343Y39180
X85344Y1460
X84838Y39180
X84839Y1460
X84333Y39180
X84328Y1460
X83829Y39180
X83823Y1460
X83324Y39180
X83318Y1460
X82819Y39180
X86487Y34036
X82314Y39180
X82814Y1460
X81809Y39180
X81852Y1460
X82550Y28829
X81305Y39180
X81347Y1460
X81280Y27559
X86793Y1968
X86793Y1460
X86848Y39180
X86848Y38735
X80328Y39180
X80328Y38735
X80328Y1460
X80324Y1968
X79820Y1957
X79820Y1460
X83566Y23495
X84074Y23495
X84074Y26035
X87324Y1957
X87313Y1460
X97532Y38957
X97536Y38481
X91972Y38989
X91948Y38481
X92011Y1714
X92011Y2159
X97499Y1704
X97492Y2205
X97028Y37465
X97028Y36195
X92456Y36195
X92456Y37465
X93345Y35179
X96139Y35179
X97917Y31877
X97917Y29210
X95758Y33846
X95377Y31432
X95377Y29210
X95377Y30289
X94107Y29210
X94107Y30289
X94107Y31432
X91567Y28575
X98298Y19050
X92456Y27051
X98044Y27051
X98044Y23622
X94107Y21717
X91313Y33020
X91948Y17780
X91948Y20320
X94742Y15240
X96647Y26543
X91948Y15240
X91948Y12700
X98298Y12700
X98298Y15875
X95758Y32448
X97028Y29210
X92456Y22733
X92583Y28956
X97024Y39180
X97028Y1460
X96519Y39180
X96520Y1460
X96014Y39180
X96015Y1460
X95509Y39180
X95504Y1460
X95004Y39180
X94999Y1460
X94500Y39180
X94494Y1460
X93995Y39180
X97663Y34036
X93490Y39180
X93990Y1460
X92985Y39180
X93027Y1460
X93726Y28829
X92480Y39180
X92523Y1460
X92456Y27559
X97969Y1968
X97969Y1460
X98024Y39180
X98024Y38735
X91503Y39180
X91503Y38735
X91503Y1460
X91500Y1968
X90995Y1957
X90995Y1460
X94742Y23495
X95250Y23495
X95250Y26035
X98500Y1957
X98488Y1460
X108708Y38957
X108712Y38481
X103148Y38989
X103124Y38481
X103187Y1714
X103187Y2159
X108675Y1704
X108668Y2205
X108204Y37465
X108204Y36195
X103632Y36195
X103632Y37465
X104521Y35179
X107315Y35179
X109093Y31877
X109093Y29210
X106934Y33846
X106553Y31432
X106553Y29210
X106553Y30289
X105283Y29210
X105283Y30289
X105283Y31432
X102743Y28575
X109474Y19050
X103632Y27051
X109220Y27051
X109220Y23622
X105283Y21717
X102489Y33020
X103124Y17780
X103124Y20320
X105918Y15240
X107823Y26543
X103124Y15240
X103124Y12700
X109474Y12700
X109474Y15875
X106934Y32448
X108204Y29210
X103632Y22733
X103759Y28956
X108200Y39180
X108204Y1460
X107695Y39180
X107696Y1460
X107190Y39180
X107191Y1460
X106685Y39180
X106680Y1460
X106180Y39180
X106175Y1460
X105676Y39180
X105670Y1460
X105171Y39180
X108839Y34036
X104666Y39180
X105166Y1460
X104161Y39180
X104203Y1460
X104902Y28829
X103656Y39180
X103699Y1460
X103632Y27559
X109145Y1968
X109145Y1460
X109200Y39180
X109200Y38735
X102679Y39180
X102679Y38735
X102679Y1460
X102676Y1968
X102171Y1957
X102171Y1460
X105918Y23495
X106426Y23495
X106426Y26035
X109676Y1957
X109664Y1460
X119884Y38957
X119888Y38481
X114324Y38989
X114300Y38481
X114363Y1714
X114363Y2159
X119851Y1704
X119844Y2205
X119380Y37465
X119380Y36195
X114808Y36195
X114808Y37465
X115697Y35179
X118491Y35179
X120269Y31877
X120269Y29210
X118110Y33846
X117729Y31432
X117729Y29210
X117729Y30289
X116459Y29210
X116459Y30289
X116459Y31432
X113919Y28575
X120650Y19050
X114808Y27051
X120396Y27051
X120396Y23622
X116459Y21717
X113665Y33020
X114300Y17780
X114300Y20320
X117094Y15240
X118999Y26543
X114300Y15240
X114300Y12700
X120650Y12700
X120650Y15875
X118110Y32448
X119380Y29210
X114808Y22733
X114935Y28956
X119376Y39180
X119380Y1460
X118871Y39180
X118872Y1460
X118366Y39180
X118367Y1460
X117861Y39180
X117856Y1460
X117356Y39180
X117351Y1460
X116852Y39180
X116846Y1460
X116347Y39180
X120015Y34036
X115842Y39180
X116342Y1460
X115337Y39180
X115379Y1460
X116078Y28829
X114832Y39180
X114875Y1460
X114808Y27559
X120321Y1968
X120321Y1460
X120376Y39180
X120376Y38735
X113855Y39180
X113855Y38735
X113855Y1460
X113852Y1968
X113347Y1957
X113347Y1460
X117094Y23495
X117602Y23495
X117602Y26035
X120852Y1957
X120840Y1460
X131060Y38957
X131064Y38481
X125500Y38989
X125476Y38481
X125539Y1714
X125539Y2159
X131027Y1704
X131020Y2205
X130556Y37465
X130556Y36195
X125984Y36195
X125984Y37465
X126873Y35179
X129667Y35179
X131445Y31877
X131445Y29210
X129286Y33846
X128905Y31432
X128905Y29210
X128905Y30289
X127635Y29210
X127635Y30289
X127635Y31432
X125095Y28575
X131826Y19050
X125984Y27051
X131572Y27051
X131572Y23622
X127635Y21717
X124841Y33020
X125476Y17780
X125476Y20320
X128270Y15240
X130175Y26543
X125476Y15240
X125476Y12700
X131826Y12700
X131826Y15875
X129286Y32448
X130556Y29210
X125984Y22733
X126111Y28956
X130552Y39180
X130556Y1460
X130047Y39180
X130048Y1460
X129542Y39180
X129543Y1460
X129037Y39180
X129032Y1460
X128532Y39180
X128527Y1460
X128028Y39180
X128022Y1460
X127523Y39180
X131191Y34036
X127018Y39180
X127518Y1460
X126513Y39180
X126555Y1460
X127254Y28829
X126008Y39180
X126051Y1460
X125984Y27559
X131497Y1968
X131497Y1460
X131552Y39180
X131552Y38735
X125031Y39180
X125031Y38735
X125031Y1460
X125028Y1968
X124523Y1957
X124523Y1460
X128270Y23495
X128778Y23495
X128778Y26035
X132028Y1957
X132017Y1460
X142236Y38957
X142240Y38481
X136676Y38989
X136652Y38481
X136716Y1714
X136716Y2159
X142203Y1704
X142196Y2205
X141732Y37465
X141732Y36195
X137160Y36195
X137160Y37465
X138049Y35179
X140843Y35179
X142621Y31877
X142621Y29210
X140462Y33846
X140081Y31432
X140081Y29210
X140081Y30289
X138811Y29210
X138811Y30289
X138811Y31432
X136271Y28575
X143002Y19050
X137160Y27051
X142748Y27051
X142748Y23622
X138811Y21717
X136017Y33020
X136652Y17780
X136652Y20320
X139446Y15240
X141351Y26543
X136652Y15240
X136652Y12700
X143002Y12700
X143002Y15875
X140462Y32448
X141732Y29210
X137160Y22733
X137287Y28956
X141728Y39180
X141732Y1460
X141223Y39180
X141224Y1460
X140718Y39180
X140719Y1460
X140213Y39180
X140208Y1460
X139709Y39180
X139703Y1460
X139204Y39180
X139198Y1460
X138699Y39180
X142367Y34036
X138194Y39180
X138694Y1460
X137689Y39180
X137732Y1460
X138430Y28829
X137185Y39180
X137227Y1460
X137160Y27559
X142673Y1968
X142673Y1460
X142728Y39180
X142728Y38735
X136208Y39180
X136208Y38735
X136208Y1460
X136204Y1968
X135700Y1957
X135700Y1460
X139446Y23495
X139954Y23495
X139954Y26035
X143204Y1957
X143193Y1460
X153412Y38957
X153416Y38481
X147852Y38989
X147828Y38481
X147892Y1714
X147892Y2159
X153379Y1704
X153372Y2205
X152908Y37465
X152908Y36195
X148336Y36195
X148336Y37465
X149225Y35179
X152019Y35179
X153797Y31877
X153797Y29210
X151638Y33846
X151257Y31432
X151257Y29210
X151257Y30289
X149987Y29210
X149987Y30289
X149987Y31432
X147447Y28575
X154178Y19050
X148336Y27051
X153924Y27051
X153924Y23622
X149987Y21717
X147193Y33020
X147828Y17780
X147828Y20320
X150622Y15240
X152527Y26543
X147828Y15240
X147828Y12700
X154178Y12700
X154178Y15875
X151638Y32448
X152908Y29210
X148336Y22733
X148463Y28956
X152904Y39180
X152908Y1460
X152399Y39180
X152400Y1460
X151894Y39180
X151895Y1460
X151389Y39180
X151384Y1460
X150885Y39180
X150879Y1460
X150380Y39180
X150374Y1460
X149875Y39180
X153543Y34036
X149370Y39180
X149870Y1460
X148865Y39180
X148908Y1460
X149606Y28829
X148361Y39180
X148403Y1460
X148336Y27559
X153849Y1968
X153849Y1460
X153904Y39180
X153904Y38735
X147384Y39180
X147384Y38735
X147384Y1460
X147380Y1968
X146876Y1957
X146876Y1460
X150622Y23495
X151130Y23495
X151130Y26035
X154380Y1957
X154369Y1460
X164588Y38957
X164592Y38481
X159028Y38989
X159004Y38481
X159068Y1714
X159068Y2159
X164555Y1704
X164548Y2205
X164084Y37465
X164084Y36195
X159512Y36195
X159512Y37465
X160401Y35179
X163195Y35179
X164973Y31877
X164973Y29210
X162814Y33846
X162433Y31432
X162433Y29210
X162433Y30289
X161163Y29210
X161163Y30289
X161163Y31432
X158623Y28575
X165354Y19050
X159512Y27051
X165100Y27051
X165100Y23622
X161163Y21717
X158369Y33020
X159004Y17780
X159004Y20320
X161798Y15240
X163703Y26543
X159004Y15240
X159004Y12700
X165354Y12700
X165354Y15875
X162814Y32448
X164084Y29210
X159512Y22733
X159639Y28956
X164080Y39180
X164084Y1460
X163575Y39180
X163576Y1460
X163070Y39180
X163071Y1460
X162565Y39180
X162560Y1460
X162061Y39180
X162055Y1460
X161556Y39180
X161550Y1460
X161051Y39180
X164719Y34036
X160546Y39180
X161046Y1460
X160041Y39180
X160084Y1460
X160782Y28829
X159537Y39180
X159579Y1460
X159512Y27559
X165025Y1968
X165025Y1460
X165080Y39180
X165080Y38735
X158560Y39180
X158560Y38735
X158560Y1460
X158556Y1968
X158052Y1957
X158052Y1460
X161798Y23495
X162306Y23495
X162306Y26035
X165556Y1957
X165545Y1460
X175764Y38957
X175768Y38481
X170204Y38989
X170180Y38481
X170244Y1714
X170244Y2159
X175731Y1704
X175724Y2205
X175260Y37465
X175260Y36195
X170688Y36195
X170688Y37465
X171577Y35179
X174371Y35179
X176149Y31877
X176149Y29210
X173990Y33846
X173609Y31432
X173609Y29210
X173609Y30289
X172339Y29210
X172339Y30289
X172339Y31432
X169799Y28575
X176530Y19050
X170688Y27051
X176276Y27051
X176276Y23622
X172339Y21717
X169545Y33020
X170180Y17780
X170180Y20320
X172974Y15240
X174879Y26543
X170180Y15240
X170180Y12700
X176530Y12700
X176530Y15875
X173990Y32448
X175260Y29210
X170688Y22733
X170815Y28956
X175256Y39180
X175260Y1460
X174751Y39180
X174752Y1460
X174246Y39180
X174247Y1460
X173741Y39180
X173736Y1460
X173237Y39180
X173231Y1460
X172732Y39180
X172726Y1460
X172227Y39180
X175895Y34036
X171722Y39180
X172222Y1460
X171217Y39180
X171260Y1460
X171958Y28829
X170713Y39180
X170755Y1460
X170688Y27559
X176201Y1968
X176201Y1460
X176256Y39180
X176256Y38735
X169736Y39180
X169736Y38735
X169736Y1460
X169732Y1968
X169228Y1957
X169228Y1460
X172974Y23495
X173482Y23495
X173482Y26035
X176732Y1957
X176720Y1460
X8124Y80105
X8128Y79629
X2564Y80137
X2540Y79629
X2604Y42863
X2604Y43307
X8091Y42852
X8084Y43353
X7620Y78613
X7620Y77343
X3048Y77343
X3048Y78613
X3937Y76327
X6731Y76327
X8509Y73025
X8509Y70358
X6350Y74994
X5969Y72581
X5969Y70358
X5969Y71438
X4699Y70358
X4699Y71438
X4699Y72581
X2159Y69723
X8890Y60198
X3048Y68199
X8636Y68199
X8636Y64770
X4699Y62865
X1905Y74168
X2540Y58928
X2540Y61468
X5334Y56388
X7239Y67691
X2540Y56388
X2540Y53848
X8890Y53848
X8890Y57023
X6350Y73597
X7620Y70358
X3048Y63881
X3175Y70104
X7616Y80328
X7620Y42609
X7111Y80328
X7112Y42609
X6606Y80328
X6607Y42609
X6101Y80328
X6096Y42609
X5596Y80328
X5591Y42609
X5092Y80328
X5086Y42609
X4587Y80328
X8255Y75184
X4082Y80328
X4582Y42609
X3577Y80328
X3619Y42609
X4318Y69977
X3072Y80328
X3115Y42609
X3048Y68707
X8561Y43117
X8561Y42609
X8616Y80328
X8616Y79883
X2096Y80328
X2096Y79883
X2096Y42609
X2092Y43117
X1587Y43105
X1587Y42609
X5334Y64643
X5842Y64643
X5842Y67183
X9092Y43105
X9081Y42609
X19300Y80105
X19304Y79629
X13740Y80137
X13716Y79629
X13779Y42863
X13779Y43307
X19267Y42852
X19260Y43353
X18796Y78613
X18796Y77343
X14224Y77343
X14224Y78613
X15113Y76327
X17907Y76327
X19685Y73025
X19685Y70358
X17526Y74994
X17145Y72581
X17145Y70358
X17145Y71438
X15875Y70358
X15875Y71438
X15875Y72581
X13335Y69723
X20066Y60198
X14224Y68199
X19812Y68199
X19812Y64770
X15875Y62865
X13081Y74168
X13716Y58928
X13716Y61468
X16510Y56388
X18415Y67691
X13716Y56388
X13716Y53848
X20066Y53848
X20066Y57023
X17526Y73597
X18796Y70358
X14224Y63881
X14351Y70104
X18792Y80328
X18796Y42609
X18287Y80328
X18288Y42609
X17782Y80328
X17783Y42609
X17277Y80328
X17272Y42609
X16773Y80328
X16767Y42609
X16268Y80328
X16262Y42609
X15763Y80328
X19431Y75184
X15258Y80328
X15758Y42609
X14753Y80328
X14795Y42609
X15494Y69977
X14248Y80328
X14291Y42609
X14224Y68707
X19737Y43117
X19737Y42609
X19792Y80328
X19792Y79883
X13271Y80328
X13271Y79883
X13271Y42609
X13268Y43117
X12763Y43105
X12763Y42609
X16510Y64643
X17018Y64643
X17018Y67183
X20268Y43105
X20257Y42609
X30476Y80105
X30480Y79629
X24916Y80137
X24892Y79629
X24955Y42863
X24955Y43307
X30443Y42852
X30436Y43353
X29972Y78613
X29972Y77343
X25400Y77343
X25400Y78613
X26289Y76327
X29083Y76327
X30861Y73025
X30861Y70358
X28702Y74994
X28321Y72581
X28321Y70358
X28321Y71438
X27051Y70358
X27051Y71438
X27051Y72581
X24511Y69723
X31242Y60198
X25400Y68199
X30988Y68199
X30988Y64770
X27051Y62865
X24257Y74168
X24892Y58928
X24892Y61468
X27686Y56388
X29591Y67691
X24892Y56388
X24892Y53848
X31242Y53848
X31242Y57023
X28702Y73597
X29972Y70358
X25400Y63881
X25527Y70104
X29968Y80328
X29972Y42609
X29463Y80328
X29464Y42609
X28958Y80328
X28959Y42609
X28453Y80328
X28448Y42609
X27948Y80328
X27943Y42609
X27444Y80328
X27438Y42609
X26939Y80328
X30607Y75184
X26434Y80328
X26934Y42609
X25929Y80328
X25971Y42609
X26670Y69977
X25424Y80328
X25467Y42609
X25400Y68707
X30913Y43117
X30913Y42609
X30968Y80328
X30968Y79883
X24447Y80328
X24447Y79883
X24447Y42609
X24444Y43117
X23939Y43105
X23939Y42609
X27686Y64643
X28194Y64643
X28194Y67183
X31444Y43105
X31432Y42609
X41652Y80105
X41656Y79629
X36092Y80137
X36068Y79629
X36132Y42863
X36132Y43307
X41619Y42852
X41612Y43353
X41148Y78613
X41148Y77343
X36576Y77343
X36576Y78613
X37465Y76327
X40259Y76327
X42037Y73025
X42037Y70358
X39878Y74994
X39497Y72581
X39497Y70358
X39497Y71438
X38227Y70358
X38227Y71438
X38227Y72581
X35687Y69723
X42418Y60198
X36576Y68199
X42164Y68199
X42164Y64770
X38227Y62865
X35433Y74168
X36068Y58928
X36068Y61468
X38862Y56388
X40767Y67691
X36068Y56388
X36068Y53848
X42418Y53848
X42418Y57023
X39878Y73597
X41148Y70358
X36576Y63881
X36703Y70104
X41144Y80328
X41148Y42609
X40639Y80328
X40640Y42609
X40134Y80328
X40135Y42609
X39629Y80328
X39624Y42609
X39125Y80328
X39119Y42609
X38620Y80328
X38614Y42609
X38115Y80328
X41783Y75184
X37610Y80328
X38110Y42609
X37105Y80328
X37148Y42609
X37846Y69977
X36601Y80328
X36643Y42609
X36576Y68707
X42089Y43117
X42089Y42609
X42144Y80328
X42144Y79883
X35624Y80328
X35624Y79883
X35624Y42609
X35620Y43117
X35116Y43105
X35116Y42609
X38862Y64643
X39370Y64643
X39370Y67183
X42620Y43105
X42609Y42609
X52828Y80105
X52832Y79629
X47268Y80137
X47244Y79629
X47307Y42863
X47307Y43307
X52795Y42852
X52788Y43353
X52324Y78613
X52324Y77343
X47752Y77343
X47752Y78613
X48641Y76327
X51435Y76327
X53213Y73025
X53213Y70358
X51054Y74994
X50673Y72581
X50673Y70358
X50673Y71438
X49403Y70358
X49403Y71438
X49403Y72581
X46863Y69723
X53594Y60198
X47752Y68199
X53340Y68199
X53340Y64770
X49403Y62865
X46609Y74168
X47244Y58928
X47244Y61468
X50038Y56388
X51943Y67691
X47244Y56388
X47244Y53848
X53594Y53848
X53594Y57023
X51054Y73597
X52324Y70358
X47752Y63881
X47879Y70104
X52320Y80328
X52324Y42609
X51815Y80328
X51816Y42609
X51310Y80328
X51311Y42609
X50805Y80328
X50800Y42609
X50300Y80328
X50295Y42609
X49796Y80328
X49790Y42609
X49291Y80328
X52959Y75184
X48786Y80328
X49286Y42609
X48281Y80328
X48323Y42609
X49022Y69977
X47776Y80328
X47819Y42609
X47752Y68707
X53265Y43117
X53265Y42609
X53320Y80328
X53320Y79883
X46799Y80328
X46799Y79883
X46799Y42609
X46796Y43117
X46291Y43105
X46291Y42609
X50038Y64643
X50546Y64643
X50546Y67183
X53796Y43105
X53784Y42609
X64004Y80105
X64008Y79629
X58444Y80137
X58420Y79629
X58483Y42863
X58483Y43307
X63971Y42852
X63964Y43353
X63500Y78613
X63500Y77343
X58928Y77343
X58928Y78613
X59817Y76327
X62611Y76327
X64389Y73025
X64389Y70358
X62230Y74994
X61849Y72581
X61849Y70358
X61849Y71438
X60579Y70358
X60579Y71438
X60579Y72581
X58039Y69723
X64770Y60198
X58928Y68199
X64516Y68199
X64516Y64770
X60579Y62865
X57785Y74168
X58420Y58928
X58420Y61468
X61214Y56388
X63119Y67691
X58420Y56388
X58420Y53848
X64770Y53848
X64770Y57023
X62230Y73597
X63500Y70358
X58928Y63881
X59055Y70104
X63496Y80328
X63500Y42609
X62991Y80328
X62992Y42609
X62486Y80328
X62487Y42609
X61981Y80328
X61976Y42609
X61476Y80328
X61471Y42609
X60972Y80328
X60966Y42609
X60467Y80328
X64135Y75184
X59962Y80328
X60462Y42609
X59457Y80328
X59499Y42609
X60198Y69977
X58952Y80328
X58995Y42609
X58928Y68707
X64441Y43117
X64441Y42609
X64496Y80328
X64496Y79883
X57975Y80328
X57975Y79883
X57975Y42609
X57972Y43117
X57467Y43105
X57467Y42609
X61214Y64643
X61722Y64643
X61722Y67183
X64972Y43105
X64960Y42609
X75180Y80105
X75184Y79629
X69620Y80137
X69596Y79629
X69660Y42863
X69660Y43307
X75147Y42852
X75140Y43353
X74676Y78613
X74676Y77343
X70104Y77343
X70104Y78613
X70993Y76327
X73787Y76327
X75565Y73025
X75565Y70358
X73406Y74994
X73025Y72581
X73025Y70358
X73025Y71438
X71755Y70358
X71755Y71438
X71755Y72581
X69215Y69723
X75946Y60198
X70104Y68199
X75692Y68199
X75692Y64770
X71755Y62865
X68961Y74168
X69596Y58928
X69596Y61468
X72390Y56388
X74295Y67691
X69596Y56388
X69596Y53848
X75946Y53848
X75946Y57023
X73406Y73597
X74676Y70358
X70104Y63881
X70231Y70104
X74672Y80328
X74676Y42609
X74167Y80328
X74168Y42609
X73662Y80328
X73663Y42609
X73157Y80328
X73152Y42609
X72653Y80328
X72647Y42609
X72148Y80328
X72142Y42609
X71643Y80328
X75311Y75184
X71138Y80328
X71638Y42609
X70633Y80328
X70676Y42609
X71374Y69977
X70129Y80328
X70171Y42609
X70104Y68707
X75617Y43117
X75617Y42609
X75672Y80328
X75672Y79883
X69152Y80328
X69152Y79883
X69152Y42609
X69148Y43117
X68644Y43105
X68644Y42609
X72390Y64643
X72898Y64643
X72898Y67183
X76148Y43105
X76137Y42609
X86356Y80105
X86360Y79629
X80796Y80137
X80772Y79629
X80836Y42863
X80836Y43307
X86323Y42852
X86316Y43353
X85852Y78613
X85852Y77343
X81280Y77343
X81280Y78613
X82169Y76327
X84963Y76327
X86741Y73025
X86741Y70358
X84582Y74994
X84201Y72581
X84201Y70358
X84201Y71438
X82931Y70358
X82931Y71438
X82931Y72581
X80391Y69723
X87122Y60198
X81280Y68199
X86868Y68199
X86868Y64770
X82931Y62865
X80137Y74168
X80772Y58928
X80772Y61468
X83566Y56388
X85471Y67691
X80772Y56388
X80772Y53848
X87122Y53848
X87122Y57023
X84582Y73597
X85852Y70358
X81280Y63881
X81407Y70104
X85848Y80328
X85852Y42609
X85343Y80328
X85344Y42609
X84838Y80328
X84839Y42609
X84333Y80328
X84328Y42609
X83829Y80328
X83823Y42609
X83324Y80328
X83318Y42609
X82819Y80328
X86487Y75184
X82314Y80328
X82814Y42609
X81809Y80328
X81852Y42609
X82550Y69977
X81305Y80328
X81347Y42609
X81280Y68707
X86793Y43117
X86793Y42609
X86848Y80328
X86848Y79883
X80328Y80328
X80328Y79883
X80328Y42609
X80324Y43117
X79820Y43105
X79820Y42609
X83566Y64643
X84074Y64643
X84074Y67183
X87324Y43105
X87313Y42609
X97532Y80105
X97536Y79629
X91972Y80137
X91948Y79629
X92011Y42863
X92011Y43307
X97499Y42852
X97492Y43353
X97028Y78613
X97028Y77343
X92456Y77343
X92456Y78613
X93345Y76327
X96139Y76327
X97917Y73025
X97917Y70358
X95758Y74994
X95377Y72581
X95377Y70358
X95377Y71438
X94107Y70358
X94107Y71438
X94107Y72581
X91567Y69723
X98298Y60198
X92456Y68199
X98044Y68199
X98044Y64770
X94107Y62865
X91313Y74168
X91948Y58928
X91948Y61468
X94742Y56388
X96647Y67691
X91948Y56388
X91948Y53848
X98298Y53848
X98298Y57023
X95758Y73597
X97028Y70358
X92456Y63881
X92583Y70104
X97024Y80328
X97028Y42609
X96519Y80328
X96520Y42609
X96014Y80328
X96015Y42609
X95509Y80328
X95504Y42609
X95004Y80328
X94999Y42609
X94500Y80328
X94494Y42609
X93995Y80328
X97663Y75184
X93490Y80328
X93990Y42609
X92985Y80328
X93027Y42609
X93726Y69977
X92480Y80328
X92523Y42609
X92456Y68707
X97969Y43117
X97969Y42609
X98024Y80328
X98024Y79883
X91503Y80328
X91503Y79883
X91503Y42609
X91500Y43117
X90995Y43105
X90995Y42609
X8124Y38957
X94742Y64643
X95250Y64643
X95250Y67183
X98500Y43105
X98488Y42609
X108708Y80105
X108712Y79629
X103148Y80137
X103124Y79629
X103187Y42863
X103187Y43307
X108675Y42852
X108668Y43353
X108204Y78613
X108204Y77343
X103632Y77343
X103632Y78613
X104521Y76327
X107315Y76327
X109093Y73025
X109093Y70358
X106934Y74994
X106553Y72581
X106553Y70358
X106553Y71438
X105283Y70358
X105283Y71438
X105283Y72581
X102743Y69723
X109474Y60198
X103632Y68199
X109220Y68199
X109220Y64770
X105283Y62865
X102489Y74168
X103124Y58928
X103124Y61468
X105918Y56388
X107823Y67691
X103124Y56388
X103124Y53848
X109474Y53848
X109474Y57023
X106934Y73597
X108204Y70358
X103632Y63881
X103759Y70104
X108200Y80328
X108204Y42609
X107695Y80328
X107696Y42609
X107190Y80328
X107191Y42609
X106685Y80328
X106680Y42609
X106180Y80328
X106175Y42609
X105676Y80328
X105670Y42609
X105171Y80328
X108839Y75184
X104666Y80328
X105166Y42609
X104161Y80328
X104203Y42609
X104902Y69977
X103656Y80328
X103699Y42609
X103632Y68707
X109145Y43117
X109145Y42609
X109200Y80328
X109200Y79883
X102679Y80328
X102679Y79883
X102679Y42609
X102676Y43117
X102171Y43105
X102171Y42609
X8128Y38481
X105918Y64643
X106426Y64643
X106426Y67183
X109676Y43105
X109664Y42609
X119884Y80105
X119888Y79629
X114324Y80137
X114300Y79629
X114363Y42863
X114363Y43307
X119851Y42852
X119844Y43353
X119380Y78613
X119380Y77343
X114808Y77343
X114808Y78613
X115697Y76327
X118491Y76327
X120269Y73025
X120269Y70358
X118110Y74994
X117729Y72581
X117729Y70358
X117729Y71438
X116459Y70358
X116459Y71438
X116459Y72581
X113919Y69723
X120650Y60198
X114808Y68199
X120396Y68199
X120396Y64770
X116459Y62865
X113665Y74168
X114300Y58928
X114300Y61468
X117094Y56388
X118999Y67691
X114300Y56388
X114300Y53848
X120650Y53848
X120650Y57023
X118110Y73597
X119380Y70358
X114808Y63881
X114935Y70104
X119376Y80328
X119380Y42609
X118871Y80328
X118872Y42609
X118366Y80328
X118367Y42609
X117861Y80328
X117856Y42609
X117356Y80328
X117351Y42609
X116852Y80328
X116846Y42609
X116347Y80328
X120015Y75184
X115842Y80328
X116342Y42609
X115337Y80328
X115379Y42609
X116078Y69977
X114832Y80328
X114875Y42609
X114808Y68707
X120321Y43117
X120321Y42609
X120376Y80328
X120376Y79883
X113855Y80328
X113855Y79883
X113855Y42609
X113852Y43117
X113347Y43105
X113347Y42609
X2564Y38989
X117094Y64643
X117602Y64643
X117602Y67183
X120852Y43105
X120840Y42609
X131060Y80105
X131064Y79629
X125500Y80137
X125476Y79629
X125539Y42863
X125539Y43307
X131027Y42852
X131020Y43353
X130556Y78613
X130556Y77343
X125984Y77343
X125984Y78613
X126873Y76327
X129667Y76327
X131445Y73025
X131445Y70358
X129286Y74994
X128905Y72581
X128905Y70358
X128905Y71438
X127635Y70358
X127635Y71438
X127635Y72581
X125095Y69723
X131826Y60198
X125984Y68199
X131572Y68199
X131572Y64770
X127635Y62865
X124841Y74168
X125476Y58928
X125476Y61468
X128270Y56388
X130175Y67691
X125476Y56388
X125476Y53848
X131826Y53848
X131826Y57023
X129286Y73597
X130556Y70358
X125984Y63881
X126111Y70104
X130552Y80328
X130556Y42609
X130047Y80328
X130048Y42609
X129542Y80328
X129543Y42609
X129037Y80328
X129032Y42609
X128532Y80328
X128527Y42609
X128028Y80328
X128022Y42609
X127523Y80328
X131191Y75184
X127018Y80328
X127518Y42609
X126513Y80328
X126555Y42609
X127254Y69977
X126008Y80328
X126051Y42609
X125984Y68707
X131497Y43117
X131497Y42609
X131552Y80328
X131552Y79883
X125031Y80328
X125031Y79883
X125031Y42609
X125028Y43117
X124523Y43105
X124523Y42609
X2540Y38481
X128270Y64643
X128778Y64643
X128778Y67183
X132028Y43105
X132017Y42609
X142236Y80105
X142240Y79629
X136676Y80137
X136652Y79629
X136716Y42863
X136716Y43307
X142203Y42852
X142196Y43353
X141732Y78613
X141732Y77343
X137160Y77343
X137160Y78613
X138049Y76327
X140843Y76327
X142621Y73025
X142621Y70358
X140462Y74994
X140081Y72581
X140081Y70358
X140081Y71438
X138811Y70358
X138811Y71438
X138811Y72581
X136271Y69723
X143002Y60198
X137160Y68199
X142748Y68199
X142748Y64770
X138811Y62865
X136017Y74168
X136652Y58928
X136652Y61468
X139446Y56388
X141351Y67691
X136652Y56388
X136652Y53848
X143002Y53848
X143002Y57023
X140462Y73597
X141732Y70358
X137160Y63881
X137287Y70104
X141728Y80328
X141732Y42609
X141223Y80328
X141224Y42609
X140718Y80328
X140719Y42609
X140213Y80328
X140208Y42609
X139709Y80328
X139703Y42609
X139204Y80328
X139198Y42609
X138699Y80328
X142367Y75184
X138194Y80328
X138694Y42609
X137689Y80328
X137732Y42609
X138430Y69977
X137185Y80328
X137227Y42609
X137160Y68707
X142673Y43117
X142673Y42609
X142728Y80328
X142728Y79883
X136208Y80328
X136208Y79883
X136208Y42609
X136204Y43117
X135700Y43105
X135700Y42609
X2604Y1714
X139446Y64643
X139954Y64643
X139954Y67183
X143204Y43105
X143193Y42609
X153412Y80105
X153416Y79629
X147852Y80137
X147828Y79629
X147892Y42863
X147892Y43307
X153379Y42852
X153372Y43353
X152908Y78613
X152908Y77343
X148336Y77343
X148336Y78613
X149225Y76327
X152019Y76327
X153797Y73025
X153797Y70358
X151638Y74994
X151257Y72581
X151257Y70358
X151257Y71438
X149987Y70358
X149987Y71438
X149987Y72581
X147447Y69723
X154178Y60198
X148336Y68199
X153924Y68199
X153924Y64770
X149987Y62865
X147193Y74168
X147828Y58928
X147828Y61468
X150622Y56388
X152527Y67691
X147828Y56388
X147828Y53848
X154178Y53848
X154178Y57023
X151638Y73597
X152908Y70358
X148336Y63881
X148463Y70104
X152904Y80328
X152908Y42609
X152399Y80328
X152400Y42609
X151894Y80328
X151895Y42609
X151389Y80328
X151384Y42609
X150885Y80328
X150879Y42609
X150380Y80328
X150374Y42609
X149875Y80328
X153543Y75184
X149370Y80328
X149870Y42609
X148865Y80328
X148908Y42609
X149606Y69977
X148361Y80328
X148403Y42609
X148336Y68707
X153849Y43117
X153849Y42609
X153904Y80328
X153904Y79883
X147384Y80328
X147384Y79883
X147384Y42609
X147380Y43117
X146876Y43105
X146876Y42609
X2604Y2159
X150622Y64643
X151130Y64643
X151130Y67183
X154380Y43105
X154369Y42609
X164588Y80105
X164592Y79629
X159028Y80137
X159004Y79629
X159068Y42863
X159068Y43307
X164555Y42852
X164548Y43353
X164084Y78613
X164084Y77343
X159512Y77343
X159512Y78613
X160401Y76327
X163195Y76327
X164973Y73025
X164973Y70358
X162814Y74994
X162433Y72581
X162433Y70358
X162433Y71438
X161163Y70358
X161163Y71438
X161163Y72581
X158623Y69723
X165354Y60198
X159512Y68199
X165100Y68199
X165100Y64770
X161163Y62865
X158369Y74168
X159004Y58928
X159004Y61468
X161798Y56388
X163703Y67691
X159004Y56388
X159004Y53848
X165354Y53848
X165354Y57023
X162814Y73597
X164084Y70358
X159512Y63881
X159639Y70104
X164080Y80328
X164084Y42609
X163575Y80328
X163576Y42609
X163070Y80328
X163071Y42609
X162565Y80328
X162560Y42609
X162061Y80328
X162055Y42609
X161556Y80328
X161550Y42609
X161051Y80328
X164719Y75184
X160546Y80328
X161046Y42609
X160041Y80328
X160084Y42609
X160782Y69977
X159537Y80328
X159579Y42609
X159512Y68707
X165025Y43117
X165025Y42609
X165080Y80328
X165080Y79883
X158560Y80328
X158560Y79883
X158560Y42609
X158556Y43117
X158052Y43105
X158052Y42609
X8091Y1704
X161798Y64643
X162306Y64643
X162306Y67183
X165556Y43105
X165545Y42609
X175764Y80105
X175768Y79629
X170204Y80137
X170180Y79629
X170244Y42863
X170244Y43307
X175731Y42852
X175724Y43353
X175260Y78613
X175260Y77343
X170688Y77343
X170688Y78613
X171577Y76327
X174371Y76327
X176149Y73025
X176149Y70358
X173990Y74994
X173609Y72581
X173609Y70358
X173609Y71438
X172339Y70358
X172339Y71438
X172339Y72581
X169799Y69723
X176530Y60198
X170688Y68199
X176276Y68199
X176276Y64770
X172339Y62865
X169545Y74168
X170180Y58928
X170180Y61468
X172974Y56388
X174879Y67691
X170180Y56388
X170180Y53848
X176530Y53848
X176530Y57023
X173990Y73597
X175260Y70358
X170688Y63881
X170815Y70104
X175256Y80328
X175260Y42609
X174751Y80328
X174752Y42609
X174246Y80328
X174247Y42609
X173741Y80328
X173736Y42609
X173237Y80328
X173231Y42609
X172732Y80328
X172726Y42609
X172227Y80328
X175895Y75184
X171722Y80328
X172222Y42609
X171217Y80328
X171260Y42609
X171958Y69977
X170713Y80328
X170755Y42609
X170688Y68707
X176201Y43117
X176201Y42609
X176256Y80328
X176256Y79883
X169736Y80328
X169736Y79883
X169736Y42609
X169732Y43117
X169228Y43105
X169228Y42609
X8084Y2205
X172974Y64643
X173482Y64643
X173482Y67183
X176732Y43105
X176720Y42609
X8124Y121253
X8128Y120777
X2564Y121285
X2540Y120777
X2604Y84011
X2604Y84455
X8091Y84000
X8084Y84501
X7620Y119761
X7620Y118491
X3048Y118491
X3048Y119761
X3937Y117475
X6731Y117475
X8509Y114173
X8509Y111506
X6350Y116141
X5969Y113728
X5969Y111506
X5969Y112585
X4699Y111506
X4699Y112585
X4699Y113728
X2159Y110871
X8890Y101346
X3048Y109347
X8636Y109347
X8636Y105918
X4699Y104013
X1905Y115316
X2540Y100076
X2540Y102616
X5334Y97536
X7239Y108839
X2540Y97536
X2540Y94996
X8890Y94996
X8890Y98171
X6350Y114744
X7620Y111506
X3048Y105029
X3175Y111252
X7616Y121475
X7620Y83757
X7111Y121475
X7112Y83757
X6606Y121475
X6607Y83757
X6101Y121475
X6096Y83757
X5596Y121475
X5591Y83757
X5092Y121475
X5086Y83757
X4587Y121475
X8255Y116332
X4082Y121475
X4582Y83757
X3577Y121475
X3619Y83757
X4318Y111125
X3072Y121475
X3115Y83757
X3048Y109855
X8561Y84265
X8561Y83757
X8616Y121475
X8616Y121031
X2096Y121475
X2096Y121031
X2096Y83757
X2092Y84265
X1587Y84253
X1587Y83757
X7620Y37465
X5334Y105791
X5842Y105791
X5842Y108331
X9092Y84253
X9081Y83757
X19300Y121253
X19304Y120777
X13740Y121285
X13716Y120777
X13779Y84011
X13779Y84455
X19267Y84000
X19260Y84501
X18796Y119761
X18796Y118491
X14224Y118491
X14224Y119761
X15113Y117475
X17907Y117475
X19685Y114173
X19685Y111506
X17526Y116141
X17145Y113728
X17145Y111506
X17145Y112585
X15875Y111506
X15875Y112585
X15875Y113728
X13335Y110871
X20066Y101346
X14224Y109347
X19812Y109347
X19812Y105918
X15875Y104013
X13081Y115316
X13716Y100076
X13716Y102616
X16510Y97536
X18415Y108839
X13716Y97536
X13716Y94996
X20066Y94996
X20066Y98171
X17526Y114744
X18796Y111506
X14224Y105029
X14351Y111252
X18792Y121475
X18796Y83757
X18287Y121475
X18288Y83757
X17782Y121475
X17783Y83757
X17277Y121475
X17272Y83757
X16773Y121475
X16767Y83757
X16268Y121475
X16262Y83757
X15763Y121475
X19431Y116332
X15258Y121475
X15758Y83757
X14753Y121475
X14795Y83757
X15494Y111125
X14248Y121475
X14291Y83757
X14224Y109855
X19737Y84265
X19737Y83757
X19792Y121475
X19792Y121031
X13271Y121475
X13271Y121031
X13271Y83757
X13268Y84265
X12763Y84253
X12763Y83757
X7620Y36195
X16510Y105791
X17018Y105791
X17018Y108331
X20268Y84253
X20257Y83757
X30476Y121253
X30480Y120777
X24916Y121285
X24892Y120777
X24955Y84011
X24955Y84455
X30443Y84000
X30436Y84501
X29972Y119761
X29972Y118491
X25400Y118491
X25400Y119761
X26289Y117475
X29083Y117475
X30861Y114173
X30861Y111506
X28702Y116141
X28321Y113728
X28321Y111506
X28321Y112585
X27051Y111506
X27051Y112585
X27051Y113728
X24511Y110871
X31242Y101346
X25400Y109347
X30988Y109347
X30988Y105918
X27051Y104013
X24257Y115316
X24892Y100076
X24892Y102616
X27686Y97536
X29591Y108839
X24892Y97536
X24892Y94996
X31242Y94996
X31242Y98171
X28702Y114744
X29972Y111506
X25400Y105029
X25527Y111252
X29968Y121475
X29972Y83757
X29463Y121475
X29464Y83757
X28958Y121475
X28959Y83757
X28453Y121475
X28448Y83757
X27948Y121475
X27943Y83757
X27444Y121475
X27438Y83757
X26939Y121475
X30607Y116332
X26434Y121475
X26934Y83757
X25929Y121475
X25971Y83757
X26670Y111125
X25424Y121475
X25467Y83757
X25400Y109855
X30913Y84265
X30913Y83757
X30968Y121475
X30968Y121031
X24447Y121475
X24447Y121031
X24447Y83757
X24444Y84265
X23939Y84253
X23939Y83757
X3048Y36195
X27686Y105791
X28194Y105791
X28194Y108331
X31444Y84253
X31432Y83757
X41652Y121253
X41656Y120777
X36092Y121285
X36068Y120777
X36132Y84011
X36132Y84455
X41619Y84000
X41612Y84501
X41148Y119761
X41148Y118491
X36576Y118491
X36576Y119761
X37465Y117475
X40259Y117475
X42037Y114173
X42037Y111506
X39878Y116141
X39497Y113728
X39497Y111506
X39497Y112585
X38227Y111506
X38227Y112585
X38227Y113728
X35687Y110871
X42418Y101346
X36576Y109347
X42164Y109347
X42164Y105918
X38227Y104013
X35433Y115316
X36068Y100076
X36068Y102616
X38862Y97536
X40767Y108839
X36068Y97536
X36068Y94996
X42418Y94996
X42418Y98171
X39878Y114744
X41148Y111506
X36576Y105029
X36703Y111252
X41144Y121475
X41148Y83757
X40639Y121475
X40640Y83757
X40134Y121475
X40135Y83757
X39629Y121475
X39624Y83757
X39125Y121475
X39119Y83757
X38620Y121475
X38614Y83757
X38115Y121475
X41783Y116332
X37610Y121475
X38110Y83757
X37105Y121475
X37148Y83757
X37846Y111125
X36601Y121475
X36643Y83757
X36576Y109855
X42089Y84265
X42089Y83757
X42144Y121475
X42144Y121031
X35624Y121475
X35624Y121031
X35624Y83757
X35620Y84265
X35116Y84253
X35116Y83757
X3048Y37465
X38862Y105791
X39370Y105791
X39370Y108331
X42620Y84253
X42609Y83757
X52828Y121253
X52832Y120777
X47268Y121285
X47244Y120777
X47307Y84011
X47307Y84455
X52795Y84000
X52788Y84501
X52324Y119761
X52324Y118491
X47752Y118491
X47752Y119761
X48641Y117475
X51435Y117475
X53213Y114173
X53213Y111506
X51054Y116141
X50673Y113728
X50673Y111506
X50673Y112585
X49403Y111506
X49403Y112585
X49403Y113728
X46863Y110871
X53594Y101346
X47752Y109347
X53340Y109347
X53340Y105918
X49403Y104013
X46609Y115316
X47244Y100076
X47244Y102616
X50038Y97536
X51943Y108839
X47244Y97536
X47244Y94996
X53594Y94996
X53594Y98171
X51054Y114744
X52324Y111506
X47752Y105029
X47879Y111252
X52320Y121475
X52324Y83757
X51815Y121475
X51816Y83757
X51310Y121475
X51311Y83757
X50805Y121475
X50800Y83757
X50300Y121475
X50295Y83757
X49796Y121475
X49790Y83757
X49291Y121475
X52959Y116332
X48786Y121475
X49286Y83757
X48281Y121475
X48323Y83757
X49022Y111125
X47776Y121475
X47819Y83757
X47752Y109855
X53265Y84265
X53265Y83757
X53320Y121475
X53320Y121031
X46799Y121475
X46799Y121031
X46799Y83757
X46796Y84265
X46291Y84253
X46291Y83757
X3937Y35179
X50038Y105791
X50546Y105791
X50546Y108331
X53796Y84253
X53784Y83757
X64004Y121253
X64008Y120777
X58444Y121285
X58420Y120777
X58483Y84011
X58483Y84455
X63971Y84000
X63964Y84501
X63500Y119761
X63500Y118491
X58928Y118491
X58928Y119761
X59817Y117475
X62611Y117475
X64389Y114173
X64389Y111506
X62230Y116141
X61849Y113728
X61849Y111506
X61849Y112585
X60579Y111506
X60579Y112585
X60579Y113728
X58039Y110871
X64770Y101346
X58928Y109347
X64516Y109347
X64516Y105918
X60579Y104013
X57785Y115316
X58420Y100076
X58420Y102616
X61214Y97536
X63119Y108839
X58420Y97536
X58420Y94996
X64770Y94996
X64770Y98171
X62230Y114744
X63500Y111506
X58928Y105029
X59055Y111252
X63496Y121475
X63500Y83757
X62991Y121475
X62992Y83757
X62486Y121475
X62487Y83757
X61981Y121475
X61976Y83757
X61476Y121475
X61471Y83757
X60972Y121475
X60966Y83757
X60467Y121475
X64135Y116332
X59962Y121475
X60462Y83757
X59457Y121475
X59499Y83757
X60198Y111125
X58952Y121475
X58995Y83757
X58928Y109855
X64441Y84265
X64441Y83757
X64496Y121475
X64496Y121031
X57975Y121475
X57975Y121031
X57975Y83757
X57972Y84265
X57467Y84253
X57467Y83757
X6731Y35179
X61214Y105791
X61722Y105791
X61722Y108331
X64972Y84253
X64960Y83757
X75180Y121253
X75184Y120777
X69620Y121285
X69596Y120777
X69660Y84011
X69660Y84455
X75147Y84000
X75140Y84501
X74676Y119761
X74676Y118491
X70104Y118491
X70104Y119761
X70993Y117475
X73787Y117475
X75565Y114173
X75565Y111506
X73406Y116141
X73025Y113728
X73025Y111506
X73025Y112585
X71755Y111506
X71755Y112585
X71755Y113728
X69215Y110871
X75946Y101346
X70104Y109347
X75692Y109347
X75692Y105918
X71755Y104013
X68961Y115316
X69596Y100076
X69596Y102616
X72390Y97536
X74295Y108839
X69596Y97536
X69596Y94996
X75946Y94996
X75946Y98171
X73406Y114744
X74676Y111506
X70104Y105029
X70231Y111252
X74672Y121475
X74676Y83757
X74167Y121475
X74168Y83757
X73662Y121475
X73663Y83757
X73157Y121475
X73152Y83757
X72653Y121475
X72647Y83757
X72148Y121475
X72142Y83757
X71643Y121475
X75311Y116332
X71138Y121475
X71638Y83757
X70633Y121475
X70676Y83757
X71374Y111125
X70129Y121475
X70171Y83757
X70104Y109855
X75617Y84265
X75617Y83757
X75672Y121475
X75672Y121031
X69152Y121475
X69152Y121031
X69152Y83757
X69148Y84265
X68644Y84253
X68644Y83757
X8509Y31877
X72390Y105791
X72898Y105791
X72898Y108331
X76148Y84253
X76137Y83757
X86356Y121253
X86360Y120777
X80796Y121285
X80772Y120777
X80836Y84011
X80836Y84455
X86323Y84000
X86316Y84501
X85852Y119761
X85852Y118491
X81280Y118491
X81280Y119761
X82169Y117475
X84963Y117475
X86741Y114173
X86741Y111506
X84582Y116141
X84201Y113728
X84201Y111506
X84201Y112585
X82931Y111506
X82931Y112585
X82931Y113728
X80391Y110871
X87122Y101346
X81280Y109347
X86868Y109347
X86868Y105918
X82931Y104013
X80137Y115316
X80772Y100076
X80772Y102616
X83566Y97536
X85471Y108839
X80772Y97536
X80772Y94996
X87122Y94996
X87122Y98171
X84582Y114744
X85852Y111506
X81280Y105029
X81407Y111252
X85848Y121475
X85852Y83757
X85343Y121475
X85344Y83757
X84838Y121475
X84839Y83757
X84333Y121475
X84328Y83757
X83829Y121475
X83823Y83757
X83324Y121475
X83318Y83757
X82819Y121475
X86487Y116332
X82314Y121475
X82814Y83757
X81809Y121475
X81852Y83757
X82550Y111125
X81305Y121475
X81347Y83757
X81280Y109855
X86793Y84265
X86793Y83757
X86848Y121475
X86848Y121031
X80328Y121475
X80328Y121031
X80328Y83757
X80324Y84265
X79820Y84253
X79820Y83757
X8509Y29210
X83566Y105791
X84074Y105791
X84074Y108331
X87324Y84253
X87313Y83757
X97532Y121253
X97536Y120777
X91972Y121285
X91948Y120777
X92011Y84011
X92011Y84455
X97499Y84000
X97492Y84501
X97028Y119761
X97028Y118491
X92456Y118491
X92456Y119761
X93345Y117475
X96139Y117475
X97917Y114173
X97917Y111506
X95758Y116141
X95377Y113728
X95377Y111506
X95377Y112585
X94107Y111506
X94107Y112585
X94107Y113728
X91567Y110871
X98298Y101346
X92456Y109347
X98044Y109347
X98044Y105918
X94107Y104013
X91313Y115316
X91948Y100076
X91948Y102616
X94742Y97536
X96647Y108839
X91948Y97536
X91948Y94996
X98298Y94996
X98298Y98171
X95758Y114744
X97028Y111506
X92456Y105029
X92583Y111252
X97024Y121475
X97028Y83757
X96519Y121475
X96520Y83757
X96014Y121475
X96015Y83757
X95509Y121475
X95504Y83757
X95004Y121475
X94999Y83757
X94500Y121475
X94494Y83757
X93995Y121475
X97663Y116332
X93490Y121475
X93990Y83757
X92985Y121475
X93027Y83757
X93726Y111125
X92480Y121475
X92523Y83757
X92456Y109855
X97969Y84265
X97969Y83757
X98024Y121475
X98024Y121031
X91503Y121475
X91503Y121031
X91503Y83757
X91500Y84265
X90995Y84253
X90995Y83757
X6350Y33846
X94742Y105791
X95250Y105791
X95250Y108331
X98500Y84253
X98488Y83757
X108708Y121253
X108712Y120777
X103148Y121285
X103124Y120777
X103187Y84011
X103187Y84455
X108675Y84000
X108668Y84501
X108204Y119761
X108204Y118491
X103632Y118491
X103632Y119761
X104521Y117475
X107315Y117475
X109093Y114173
X109093Y111506
X106934Y116141
X106553Y113728
X106553Y111506
X106553Y112585
X105283Y111506
X105283Y112585
X105283Y113728
X102743Y110871
X109474Y101346
X103632Y109347
X109220Y109347
X109220Y105918
X105283Y104013
X102489Y115316
X103124Y100076
X103124Y102616
X105918Y97536
X107823Y108839
X103124Y97536
X103124Y94996
X109474Y94996
X109474Y98171
X106934Y114744
X108204Y111506
X103632Y105029
X103759Y111252
X108200Y121475
X108204Y83757
X107695Y121475
X107696Y83757
X107190Y121475
X107191Y83757
X106685Y121475
X106680Y83757
X106180Y121475
X106175Y83757
X105676Y121475
X105670Y83757
X105171Y121475
X108839Y116332
X104666Y121475
X105166Y83757
X104161Y121475
X104203Y83757
X104902Y111125
X103656Y121475
X103699Y83757
X103632Y109855
X109145Y84265
X109145Y83757
X109200Y121475
X109200Y121031
X102679Y121475
X102679Y121031
X102679Y83757
X102676Y84265
X102171Y84253
X102171Y83757
X5969Y31432
X105918Y105791
X106426Y105791
X106426Y108331
X109676Y84253
X109664Y83757
X119884Y121253
X119888Y120777
X114324Y121285
X114300Y120777
X114363Y84011
X114363Y84455
X119851Y84000
X119844Y84501
X119380Y119761
X119380Y118491
X114808Y118491
X114808Y119761
X115697Y117475
X118491Y117475
X120269Y114173
X120269Y111506
X118110Y116141
X117729Y113728
X117729Y111506
X117729Y112585
X116459Y111506
X116459Y112585
X116459Y113728
X113919Y110871
X120650Y101346
X114808Y109347
X120396Y109347
X120396Y105918
X116459Y104013
X113665Y115316
X114300Y100076
X114300Y102616
X117094Y97536
X118999Y108839
X114300Y97536
X114300Y94996
X120650Y94996
X120650Y98171
X118110Y114744
X119380Y111506
X114808Y105029
X114935Y111252
X119376Y121475
X119380Y83757
X118871Y121475
X118872Y83757
X118366Y121475
X118367Y83757
X117861Y121475
X117856Y83757
X117356Y121475
X117351Y83757
X116852Y121475
X116846Y83757
X116347Y121475
X120015Y116332
X115842Y121475
X116342Y83757
X115337Y121475
X115379Y83757
X116078Y111125
X114832Y121475
X114875Y83757
X114808Y109855
X120321Y84265
X120321Y83757
X120376Y121475
X120376Y121031
X113855Y121475
X113855Y121031
X113855Y83757
X113852Y84265
X113347Y84253
X113347Y83757
X5969Y29210
X117094Y105791
X117602Y105791
X117602Y108331
X120852Y84253
X120840Y83757
X131060Y121253
X131064Y120777
X125500Y121285
X125476Y120777
X125539Y84011
X125539Y84455
X131027Y84000
X131020Y84501
X130556Y119761
X130556Y118491
X125984Y118491
X125984Y119761
X126873Y117475
X129667Y117475
X131445Y114173
X131445Y111506
X129286Y116141
X128905Y113728
X128905Y111506
X128905Y112585
X127635Y111506
X127635Y112585
X127635Y113728
X125095Y110871
X131826Y101346
X125984Y109347
X131572Y109347
X131572Y105918
X127635Y104013
X124841Y115316
X125476Y100076
X125476Y102616
X128270Y97536
X130175Y108839
X125476Y97536
X125476Y94996
X131826Y94996
X131826Y98171
X129286Y114744
X130556Y111506
X125984Y105029
X126111Y111252
X130552Y121475
X130556Y83757
X130047Y121475
X130048Y83757
X129542Y121475
X129543Y83757
X129037Y121475
X129032Y83757
X128532Y121475
X128527Y83757
X128028Y121475
X128022Y83757
X127523Y121475
X131191Y116332
X127018Y121475
X127518Y83757
X126513Y121475
X126555Y83757
X127254Y111125
X126008Y121475
X126051Y83757
X125984Y109855
X131497Y84265
X131497Y83757
X131552Y121475
X131552Y121031
X125031Y121475
X125031Y121031
X125031Y83757
X125028Y84265
X124523Y84253
X124523Y83757
X5969Y30289
X128270Y105791
X128778Y105791
X128778Y108331
X132028Y84253
X132017Y83757
X142236Y121253
X142240Y120777
X136676Y121285
X136652Y120777
X136716Y84011
X136716Y84455
X142203Y84000
X142196Y84501
X141732Y119761
X141732Y118491
X137160Y118491
X137160Y119761
X138049Y117475
X140843Y117475
X142621Y114173
X142621Y111506
X140462Y116141
X140081Y113728
X140081Y111506
X140081Y112585
X138811Y111506
X138811Y112585
X138811Y113728
X136271Y110871
X143002Y101346
X137160Y109347
X142748Y109347
X142748Y105918
X138811Y104013
X136017Y115316
X136652Y100076
X136652Y102616
X139446Y97536
X141351Y108839
X136652Y97536
X136652Y94996
X143002Y94996
X143002Y98171
X140462Y114744
X141732Y111506
X137160Y105029
X137287Y111252
X141728Y121475
X141732Y83757
X141223Y121475
X141224Y83757
X140718Y121475
X140719Y83757
X140213Y121475
X140208Y83757
X139709Y121475
X139703Y83757
X139204Y121475
X139198Y83757
X138699Y121475
X142367Y116332
X138194Y121475
X138694Y83757
X137689Y121475
X137732Y83757
X138430Y111125
X137185Y121475
X137227Y83757
X137160Y109855
X142673Y84265
X142673Y83757
X142728Y121475
X142728Y121031
X136208Y121475
X136208Y121031
X136208Y83757
X136204Y84265
X135700Y84253
X135700Y83757
X4699Y29210
X139446Y105791
X139954Y105791
X139954Y108331
X143204Y84253
X143193Y83757
X153412Y121253
X153416Y120777
X147852Y121285
X147828Y120777
X147892Y84011
X147892Y84455
X153379Y84000
X153372Y84501
X152908Y119761
X152908Y118491
X148336Y118491
X148336Y119761
X149225Y117475
X152019Y117475
X153797Y114173
X153797Y111506
X151638Y116141
X151257Y113728
X151257Y111506
X151257Y112585
X149987Y111506
X149987Y112585
X149987Y113728
X147447Y110871
X154178Y101346
X148336Y109347
X153924Y109347
X153924Y105918
X149987Y104013
X147193Y115316
X147828Y100076
X147828Y102616
X150622Y97536
X152527Y108839
X147828Y97536
X147828Y94996
X154178Y94996
X154178Y98171
X151638Y114744
X152908Y111506
X148336Y105029
X148463Y111252
X152904Y121475
X152908Y83757
X152399Y121475
X152400Y83757
X151894Y121475
X151895Y83757
X151389Y121475
X151384Y83757
X150885Y121475
X150879Y83757
X150380Y121475
X150374Y83757
X149875Y121475
X153543Y116332
X149370Y121475
X149870Y83757
X148865Y121475
X148908Y83757
X149606Y111125
X148361Y121475
X148403Y83757
X148336Y109855
X153849Y84265
X153849Y83757
X153904Y121475
X153904Y121031
X147384Y121475
X147384Y121031
X147384Y83757
X147380Y84265
X146876Y84253
X146876Y83757
X4699Y30289
X150622Y105791
X151130Y105791
X151130Y108331
X154380Y84253
X154369Y83757
X164588Y121253
X164592Y120777
X159028Y121285
X159004Y120777
X159068Y84011
X159068Y84455
X164555Y84000
X164548Y84501
X164084Y119761
X164084Y118491
X159512Y118491
X159512Y119761
X160401Y117475
X163195Y117475
X164973Y114173
X164973Y111506
X162814Y116141
X162433Y113728
X162433Y111506
X162433Y112585
X161163Y111506
X161163Y112585
X161163Y113728
X158623Y110871
X165354Y101346
X159512Y109347
X165100Y109347
X165100Y105918
X161163Y104013
X158369Y115316
X159004Y100076
X159004Y102616
X161798Y97536
X163703Y108839
X159004Y97536
X159004Y94996
X165354Y94996
X165354Y98171
X162814Y114744
X164084Y111506
X159512Y105029
X159639Y111252
X164080Y121475
X164084Y83757
X163575Y121475
X163576Y83757
X163070Y121475
X163071Y83757
X162565Y121475
X162560Y83757
X162061Y121475
X162055Y83757
X161556Y121475
X161550Y83757
X161051Y121475
X164719Y116332
X160546Y121475
X161046Y83757
X160041Y121475
X160084Y83757
X160782Y111125
X159537Y121475
X159579Y83757
X159512Y109855
X165025Y84265
X165025Y83757
X165080Y121475
X165080Y121031
X158560Y121475
X158560Y121031
X158560Y83757
X158556Y84265
X158052Y84253
X158052Y83757
X4699Y31432
X161798Y105791
X162306Y105791
X162306Y108331
X165556Y84253
X165545Y83757
X175764Y121253
X175768Y120777
X170204Y121285
X170180Y120777
X170244Y84011
X170244Y84455
X175731Y84000
X175724Y84501
X175260Y119761
X175260Y118491
X170688Y118491
X170688Y119761
X171577Y117475
X174371Y117475
X176149Y114173
X176149Y111506
X173990Y116141
X173609Y113728
X173609Y111506
X173609Y112585
X172339Y111506
X172339Y112585
X172339Y113728
X169799Y110871
X176530Y101346
X170688Y109347
X176276Y109347
X176276Y105918
X172339Y104013
X169545Y115316
X170180Y100076
X170180Y102616
X172974Y97536
X174879Y108839
X170180Y97536
X170180Y94996
X176530Y94996
X176530Y98171
X173990Y114744
X175260Y111506
X170688Y105029
X170815Y111252
X175256Y121475
X175260Y83757
X174751Y121475
X174752Y83757
X174246Y121475
X174247Y83757
X173741Y121475
X173736Y83757
X173237Y121475
X173231Y83757
X172732Y121475
X172726Y83757
X172227Y121475
X175895Y116332
X171722Y121475
X172222Y83757
X171217Y121475
X171260Y83757
X171958Y111125
X170713Y121475
X170755Y83757
X170688Y109855
X176201Y84265
X176201Y83757
X176256Y121475
X176256Y121031
X169736Y121475
X169736Y121031
X169736Y83757
X169732Y84265
X169228Y84253
X169228Y83757
X2159Y28575
X172974Y105791
X173482Y105791
X173482Y108331
X176732Y84253
X176720Y83757
M30