G04 EAGLE Gerber RS-274X export*
G75*
%MOMM*%
%FSLAX34Y34*%
%LPD*%
%INSolderpaste Top*%
%IPPOS*%
%AMOC8*
5,1,8,0,0,1.08239X$1,22.5*%
G01*
%ADD10R,0.600000X0.600000*%
%ADD11R,0.900000X0.800000*%
%ADD12R,0.400000X0.800000*%
%ADD13R,0.250000X0.650000*%
%ADD14C,0.250000*%
%ADD15R,0.850000X2.200000*%
%ADD16R,1.000000X1.050000*%
%ADD17R,1.000000X1.800000*%
%ADD18R,0.850000X0.900000*%
%ADD19R,1.800000X0.800000*%
%ADD20R,4.200000X1.700000*%
%ADD21R,0.630000X0.830000*%

G36*
X1756599Y977924D02*
X1756599Y977924D01*
X1756626Y977926D01*
X1756661Y977952D01*
X1756701Y977970D01*
X1756716Y977993D01*
X1756738Y978009D01*
X1756754Y978050D01*
X1756778Y978087D01*
X1756785Y978130D01*
X1756788Y978139D01*
X1756787Y978146D01*
X1756789Y978160D01*
X1756789Y1002160D01*
X1756784Y1002176D01*
X1756787Y1002193D01*
X1756765Y1002243D01*
X1756750Y1002294D01*
X1756737Y1002305D01*
X1756730Y1002321D01*
X1756685Y1002351D01*
X1756645Y1002386D01*
X1756628Y1002389D01*
X1756614Y1002398D01*
X1756540Y1002409D01*
X1732540Y1002409D01*
X1732498Y1002397D01*
X1732454Y1002394D01*
X1732432Y1002378D01*
X1732406Y1002370D01*
X1732377Y1002337D01*
X1732342Y1002311D01*
X1732332Y1002285D01*
X1732314Y1002265D01*
X1732307Y1002221D01*
X1732292Y1002181D01*
X1732297Y1002154D01*
X1732293Y1002127D01*
X1732311Y1002086D01*
X1732320Y1002044D01*
X1732346Y1002008D01*
X1732350Y1001999D01*
X1732355Y1001995D01*
X1732364Y1001984D01*
X1756364Y977984D01*
X1756402Y977963D01*
X1756435Y977934D01*
X1756462Y977930D01*
X1756486Y977917D01*
X1756530Y977920D01*
X1756573Y977913D01*
X1756599Y977924D01*
G37*
G36*
X1533079Y977924D02*
X1533079Y977924D01*
X1533106Y977926D01*
X1533141Y977952D01*
X1533181Y977970D01*
X1533196Y977993D01*
X1533218Y978009D01*
X1533234Y978050D01*
X1533258Y978087D01*
X1533265Y978130D01*
X1533268Y978139D01*
X1533267Y978146D01*
X1533269Y978160D01*
X1533269Y1002160D01*
X1533264Y1002176D01*
X1533267Y1002193D01*
X1533245Y1002243D01*
X1533230Y1002294D01*
X1533217Y1002305D01*
X1533210Y1002321D01*
X1533165Y1002351D01*
X1533125Y1002386D01*
X1533108Y1002389D01*
X1533094Y1002398D01*
X1533020Y1002409D01*
X1509020Y1002409D01*
X1508978Y1002397D01*
X1508934Y1002394D01*
X1508912Y1002378D01*
X1508886Y1002370D01*
X1508857Y1002337D01*
X1508822Y1002311D01*
X1508812Y1002285D01*
X1508794Y1002265D01*
X1508787Y1002221D01*
X1508772Y1002181D01*
X1508777Y1002154D01*
X1508773Y1002127D01*
X1508791Y1002086D01*
X1508800Y1002044D01*
X1508826Y1002008D01*
X1508830Y1001999D01*
X1508835Y1001995D01*
X1508844Y1001984D01*
X1532844Y977984D01*
X1532882Y977963D01*
X1532915Y977934D01*
X1532942Y977930D01*
X1532966Y977917D01*
X1533010Y977920D01*
X1533053Y977913D01*
X1533079Y977924D01*
G37*
G36*
X1309559Y977924D02*
X1309559Y977924D01*
X1309586Y977926D01*
X1309621Y977952D01*
X1309661Y977970D01*
X1309676Y977993D01*
X1309698Y978009D01*
X1309714Y978050D01*
X1309738Y978087D01*
X1309745Y978130D01*
X1309748Y978139D01*
X1309747Y978146D01*
X1309749Y978160D01*
X1309749Y1002160D01*
X1309744Y1002176D01*
X1309747Y1002193D01*
X1309725Y1002243D01*
X1309710Y1002294D01*
X1309697Y1002305D01*
X1309690Y1002321D01*
X1309645Y1002351D01*
X1309605Y1002386D01*
X1309588Y1002389D01*
X1309574Y1002398D01*
X1309500Y1002409D01*
X1285500Y1002409D01*
X1285458Y1002397D01*
X1285414Y1002394D01*
X1285392Y1002378D01*
X1285366Y1002370D01*
X1285337Y1002337D01*
X1285302Y1002311D01*
X1285292Y1002285D01*
X1285274Y1002265D01*
X1285267Y1002221D01*
X1285252Y1002181D01*
X1285257Y1002154D01*
X1285253Y1002127D01*
X1285271Y1002086D01*
X1285280Y1002044D01*
X1285306Y1002008D01*
X1285310Y1001999D01*
X1285315Y1001995D01*
X1285324Y1001984D01*
X1309324Y977984D01*
X1309362Y977963D01*
X1309395Y977934D01*
X1309422Y977930D01*
X1309446Y977917D01*
X1309490Y977920D01*
X1309533Y977913D01*
X1309559Y977924D01*
G37*
G36*
X638999Y977924D02*
X638999Y977924D01*
X639026Y977926D01*
X639061Y977952D01*
X639101Y977970D01*
X639116Y977993D01*
X639138Y978009D01*
X639154Y978050D01*
X639178Y978087D01*
X639185Y978130D01*
X639188Y978139D01*
X639187Y978146D01*
X639189Y978160D01*
X639189Y1002160D01*
X639184Y1002176D01*
X639187Y1002193D01*
X639165Y1002243D01*
X639150Y1002294D01*
X639137Y1002305D01*
X639130Y1002321D01*
X639085Y1002351D01*
X639045Y1002386D01*
X639028Y1002389D01*
X639014Y1002398D01*
X638940Y1002409D01*
X614940Y1002409D01*
X614898Y1002397D01*
X614854Y1002394D01*
X614832Y1002378D01*
X614806Y1002370D01*
X614777Y1002337D01*
X614742Y1002311D01*
X614732Y1002285D01*
X614714Y1002265D01*
X614707Y1002221D01*
X614692Y1002181D01*
X614697Y1002154D01*
X614693Y1002127D01*
X614711Y1002086D01*
X614720Y1002044D01*
X614746Y1002008D01*
X614750Y1001999D01*
X614755Y1001995D01*
X614764Y1001984D01*
X638764Y977984D01*
X638802Y977963D01*
X638835Y977934D01*
X638862Y977930D01*
X638886Y977917D01*
X638930Y977920D01*
X638973Y977913D01*
X638999Y977924D01*
G37*
G36*
X191959Y977924D02*
X191959Y977924D01*
X191986Y977926D01*
X192021Y977952D01*
X192061Y977970D01*
X192076Y977993D01*
X192098Y978009D01*
X192114Y978050D01*
X192138Y978087D01*
X192145Y978130D01*
X192148Y978139D01*
X192147Y978146D01*
X192149Y978160D01*
X192149Y1002160D01*
X192144Y1002176D01*
X192147Y1002193D01*
X192125Y1002243D01*
X192110Y1002294D01*
X192097Y1002305D01*
X192090Y1002321D01*
X192045Y1002351D01*
X192005Y1002386D01*
X191988Y1002389D01*
X191974Y1002398D01*
X191900Y1002409D01*
X167900Y1002409D01*
X167858Y1002397D01*
X167814Y1002394D01*
X167792Y1002378D01*
X167766Y1002370D01*
X167737Y1002337D01*
X167702Y1002311D01*
X167692Y1002285D01*
X167674Y1002265D01*
X167667Y1002221D01*
X167652Y1002181D01*
X167657Y1002154D01*
X167653Y1002127D01*
X167671Y1002086D01*
X167680Y1002044D01*
X167706Y1002008D01*
X167710Y1001999D01*
X167715Y1001995D01*
X167724Y1001984D01*
X191724Y977984D01*
X191762Y977963D01*
X191795Y977934D01*
X191822Y977930D01*
X191846Y977917D01*
X191890Y977920D01*
X191933Y977913D01*
X191959Y977924D01*
G37*
G36*
X1421319Y977924D02*
X1421319Y977924D01*
X1421346Y977926D01*
X1421381Y977952D01*
X1421421Y977970D01*
X1421436Y977993D01*
X1421458Y978009D01*
X1421474Y978050D01*
X1421498Y978087D01*
X1421505Y978130D01*
X1421508Y978139D01*
X1421507Y978146D01*
X1421509Y978160D01*
X1421509Y1002160D01*
X1421504Y1002176D01*
X1421507Y1002193D01*
X1421485Y1002243D01*
X1421470Y1002294D01*
X1421457Y1002305D01*
X1421450Y1002321D01*
X1421405Y1002351D01*
X1421365Y1002386D01*
X1421348Y1002389D01*
X1421334Y1002398D01*
X1421260Y1002409D01*
X1397260Y1002409D01*
X1397218Y1002397D01*
X1397174Y1002394D01*
X1397152Y1002378D01*
X1397126Y1002370D01*
X1397097Y1002337D01*
X1397062Y1002311D01*
X1397052Y1002285D01*
X1397034Y1002265D01*
X1397027Y1002221D01*
X1397012Y1002181D01*
X1397017Y1002154D01*
X1397013Y1002127D01*
X1397031Y1002086D01*
X1397040Y1002044D01*
X1397066Y1002008D01*
X1397070Y1001999D01*
X1397075Y1001995D01*
X1397084Y1001984D01*
X1421084Y977984D01*
X1421122Y977963D01*
X1421155Y977934D01*
X1421182Y977930D01*
X1421206Y977917D01*
X1421250Y977920D01*
X1421293Y977913D01*
X1421319Y977924D01*
G37*
G36*
X527239Y977924D02*
X527239Y977924D01*
X527266Y977926D01*
X527301Y977952D01*
X527341Y977970D01*
X527356Y977993D01*
X527378Y978009D01*
X527394Y978050D01*
X527418Y978087D01*
X527425Y978130D01*
X527428Y978139D01*
X527427Y978146D01*
X527429Y978160D01*
X527429Y1002160D01*
X527424Y1002176D01*
X527427Y1002193D01*
X527405Y1002243D01*
X527390Y1002294D01*
X527377Y1002305D01*
X527370Y1002321D01*
X527325Y1002351D01*
X527285Y1002386D01*
X527268Y1002389D01*
X527254Y1002398D01*
X527180Y1002409D01*
X503180Y1002409D01*
X503138Y1002397D01*
X503094Y1002394D01*
X503072Y1002378D01*
X503046Y1002370D01*
X503017Y1002337D01*
X502982Y1002311D01*
X502972Y1002285D01*
X502954Y1002265D01*
X502947Y1002221D01*
X502932Y1002181D01*
X502937Y1002154D01*
X502933Y1002127D01*
X502951Y1002086D01*
X502960Y1002044D01*
X502986Y1002008D01*
X502990Y1001999D01*
X502995Y1001995D01*
X503004Y1001984D01*
X527004Y977984D01*
X527042Y977963D01*
X527075Y977934D01*
X527102Y977930D01*
X527126Y977917D01*
X527170Y977920D01*
X527213Y977913D01*
X527239Y977924D01*
G37*
G36*
X1197799Y977924D02*
X1197799Y977924D01*
X1197826Y977926D01*
X1197861Y977952D01*
X1197901Y977970D01*
X1197916Y977993D01*
X1197938Y978009D01*
X1197954Y978050D01*
X1197978Y978087D01*
X1197985Y978130D01*
X1197988Y978139D01*
X1197987Y978146D01*
X1197989Y978160D01*
X1197989Y1002160D01*
X1197984Y1002176D01*
X1197987Y1002193D01*
X1197965Y1002243D01*
X1197950Y1002294D01*
X1197937Y1002305D01*
X1197930Y1002321D01*
X1197885Y1002351D01*
X1197845Y1002386D01*
X1197828Y1002389D01*
X1197814Y1002398D01*
X1197740Y1002409D01*
X1173740Y1002409D01*
X1173698Y1002397D01*
X1173654Y1002394D01*
X1173632Y1002378D01*
X1173606Y1002370D01*
X1173577Y1002337D01*
X1173542Y1002311D01*
X1173532Y1002285D01*
X1173514Y1002265D01*
X1173507Y1002221D01*
X1173492Y1002181D01*
X1173497Y1002154D01*
X1173493Y1002127D01*
X1173511Y1002086D01*
X1173520Y1002044D01*
X1173546Y1002008D01*
X1173550Y1001999D01*
X1173555Y1001995D01*
X1173564Y1001984D01*
X1197564Y977984D01*
X1197602Y977963D01*
X1197635Y977934D01*
X1197662Y977930D01*
X1197686Y977917D01*
X1197730Y977920D01*
X1197773Y977913D01*
X1197799Y977924D01*
G37*
G36*
X1644839Y977924D02*
X1644839Y977924D01*
X1644866Y977926D01*
X1644901Y977952D01*
X1644941Y977970D01*
X1644956Y977993D01*
X1644978Y978009D01*
X1644994Y978050D01*
X1645018Y978087D01*
X1645025Y978130D01*
X1645028Y978139D01*
X1645027Y978146D01*
X1645029Y978160D01*
X1645029Y1002160D01*
X1645024Y1002176D01*
X1645027Y1002193D01*
X1645005Y1002243D01*
X1644990Y1002294D01*
X1644977Y1002305D01*
X1644970Y1002321D01*
X1644925Y1002351D01*
X1644885Y1002386D01*
X1644868Y1002389D01*
X1644854Y1002398D01*
X1644780Y1002409D01*
X1620780Y1002409D01*
X1620738Y1002397D01*
X1620694Y1002394D01*
X1620672Y1002378D01*
X1620646Y1002370D01*
X1620617Y1002337D01*
X1620582Y1002311D01*
X1620572Y1002285D01*
X1620554Y1002265D01*
X1620547Y1002221D01*
X1620532Y1002181D01*
X1620537Y1002154D01*
X1620533Y1002127D01*
X1620551Y1002086D01*
X1620560Y1002044D01*
X1620586Y1002008D01*
X1620590Y1001999D01*
X1620595Y1001995D01*
X1620604Y1001984D01*
X1644604Y977984D01*
X1644642Y977963D01*
X1644675Y977934D01*
X1644702Y977930D01*
X1644726Y977917D01*
X1644770Y977920D01*
X1644813Y977913D01*
X1644839Y977924D01*
G37*
G36*
X862519Y977924D02*
X862519Y977924D01*
X862546Y977926D01*
X862581Y977952D01*
X862621Y977970D01*
X862636Y977993D01*
X862658Y978009D01*
X862674Y978050D01*
X862698Y978087D01*
X862705Y978130D01*
X862708Y978139D01*
X862707Y978146D01*
X862709Y978160D01*
X862709Y1002160D01*
X862704Y1002176D01*
X862707Y1002193D01*
X862685Y1002243D01*
X862670Y1002294D01*
X862657Y1002305D01*
X862650Y1002321D01*
X862605Y1002351D01*
X862565Y1002386D01*
X862548Y1002389D01*
X862534Y1002398D01*
X862460Y1002409D01*
X838460Y1002409D01*
X838418Y1002397D01*
X838374Y1002394D01*
X838352Y1002378D01*
X838326Y1002370D01*
X838297Y1002337D01*
X838262Y1002311D01*
X838252Y1002285D01*
X838234Y1002265D01*
X838227Y1002221D01*
X838212Y1002181D01*
X838217Y1002154D01*
X838213Y1002127D01*
X838231Y1002086D01*
X838240Y1002044D01*
X838266Y1002008D01*
X838270Y1001999D01*
X838275Y1001995D01*
X838284Y1001984D01*
X862284Y977984D01*
X862322Y977963D01*
X862355Y977934D01*
X862382Y977930D01*
X862406Y977917D01*
X862450Y977920D01*
X862493Y977913D01*
X862519Y977924D01*
G37*
G36*
X415479Y977924D02*
X415479Y977924D01*
X415506Y977926D01*
X415541Y977952D01*
X415581Y977970D01*
X415596Y977993D01*
X415618Y978009D01*
X415634Y978050D01*
X415658Y978087D01*
X415665Y978130D01*
X415668Y978139D01*
X415667Y978146D01*
X415669Y978160D01*
X415669Y1002160D01*
X415664Y1002176D01*
X415667Y1002193D01*
X415645Y1002243D01*
X415630Y1002294D01*
X415617Y1002305D01*
X415610Y1002321D01*
X415565Y1002351D01*
X415525Y1002386D01*
X415508Y1002389D01*
X415494Y1002398D01*
X415420Y1002409D01*
X391420Y1002409D01*
X391378Y1002397D01*
X391334Y1002394D01*
X391312Y1002378D01*
X391286Y1002370D01*
X391257Y1002337D01*
X391222Y1002311D01*
X391212Y1002285D01*
X391194Y1002265D01*
X391187Y1002221D01*
X391172Y1002181D01*
X391177Y1002154D01*
X391173Y1002127D01*
X391191Y1002086D01*
X391200Y1002044D01*
X391226Y1002008D01*
X391230Y1001999D01*
X391235Y1001995D01*
X391244Y1001984D01*
X415244Y977984D01*
X415282Y977963D01*
X415315Y977934D01*
X415342Y977930D01*
X415366Y977917D01*
X415410Y977920D01*
X415453Y977913D01*
X415479Y977924D01*
G37*
G36*
X974279Y977924D02*
X974279Y977924D01*
X974306Y977926D01*
X974341Y977952D01*
X974381Y977970D01*
X974396Y977993D01*
X974418Y978009D01*
X974434Y978050D01*
X974458Y978087D01*
X974465Y978130D01*
X974468Y978139D01*
X974467Y978146D01*
X974469Y978160D01*
X974469Y1002160D01*
X974464Y1002176D01*
X974467Y1002193D01*
X974445Y1002243D01*
X974430Y1002294D01*
X974417Y1002305D01*
X974410Y1002321D01*
X974365Y1002351D01*
X974325Y1002386D01*
X974308Y1002389D01*
X974294Y1002398D01*
X974220Y1002409D01*
X950220Y1002409D01*
X950178Y1002397D01*
X950134Y1002394D01*
X950112Y1002378D01*
X950086Y1002370D01*
X950057Y1002337D01*
X950022Y1002311D01*
X950012Y1002285D01*
X949994Y1002265D01*
X949987Y1002221D01*
X949972Y1002181D01*
X949977Y1002154D01*
X949973Y1002127D01*
X949991Y1002086D01*
X950000Y1002044D01*
X950026Y1002008D01*
X950030Y1001999D01*
X950035Y1001995D01*
X950044Y1001984D01*
X974044Y977984D01*
X974082Y977963D01*
X974115Y977934D01*
X974142Y977930D01*
X974166Y977917D01*
X974210Y977920D01*
X974253Y977913D01*
X974279Y977924D01*
G37*
G36*
X1086039Y977924D02*
X1086039Y977924D01*
X1086066Y977926D01*
X1086101Y977952D01*
X1086141Y977970D01*
X1086156Y977993D01*
X1086178Y978009D01*
X1086194Y978050D01*
X1086218Y978087D01*
X1086225Y978130D01*
X1086228Y978139D01*
X1086227Y978146D01*
X1086229Y978160D01*
X1086229Y1002160D01*
X1086224Y1002176D01*
X1086227Y1002193D01*
X1086205Y1002243D01*
X1086190Y1002294D01*
X1086177Y1002305D01*
X1086170Y1002321D01*
X1086125Y1002351D01*
X1086085Y1002386D01*
X1086068Y1002389D01*
X1086054Y1002398D01*
X1085980Y1002409D01*
X1061980Y1002409D01*
X1061938Y1002397D01*
X1061894Y1002394D01*
X1061872Y1002378D01*
X1061846Y1002370D01*
X1061817Y1002337D01*
X1061782Y1002311D01*
X1061772Y1002285D01*
X1061754Y1002265D01*
X1061747Y1002221D01*
X1061732Y1002181D01*
X1061737Y1002154D01*
X1061733Y1002127D01*
X1061751Y1002086D01*
X1061760Y1002044D01*
X1061786Y1002008D01*
X1061790Y1001999D01*
X1061795Y1001995D01*
X1061804Y1001984D01*
X1085804Y977984D01*
X1085842Y977963D01*
X1085875Y977934D01*
X1085902Y977930D01*
X1085926Y977917D01*
X1085970Y977920D01*
X1086013Y977913D01*
X1086039Y977924D01*
G37*
G36*
X750759Y977924D02*
X750759Y977924D01*
X750786Y977926D01*
X750821Y977952D01*
X750861Y977970D01*
X750876Y977993D01*
X750898Y978009D01*
X750914Y978050D01*
X750938Y978087D01*
X750945Y978130D01*
X750948Y978139D01*
X750947Y978146D01*
X750949Y978160D01*
X750949Y1002160D01*
X750944Y1002176D01*
X750947Y1002193D01*
X750925Y1002243D01*
X750910Y1002294D01*
X750897Y1002305D01*
X750890Y1002321D01*
X750845Y1002351D01*
X750805Y1002386D01*
X750788Y1002389D01*
X750774Y1002398D01*
X750700Y1002409D01*
X726700Y1002409D01*
X726658Y1002397D01*
X726614Y1002394D01*
X726592Y1002378D01*
X726566Y1002370D01*
X726537Y1002337D01*
X726502Y1002311D01*
X726492Y1002285D01*
X726474Y1002265D01*
X726467Y1002221D01*
X726452Y1002181D01*
X726457Y1002154D01*
X726453Y1002127D01*
X726471Y1002086D01*
X726480Y1002044D01*
X726506Y1002008D01*
X726510Y1001999D01*
X726515Y1001995D01*
X726524Y1001984D01*
X750524Y977984D01*
X750562Y977963D01*
X750595Y977934D01*
X750622Y977930D01*
X750646Y977917D01*
X750690Y977920D01*
X750733Y977913D01*
X750759Y977924D01*
G37*
G36*
X303719Y977924D02*
X303719Y977924D01*
X303746Y977926D01*
X303781Y977952D01*
X303821Y977970D01*
X303836Y977993D01*
X303858Y978009D01*
X303874Y978050D01*
X303898Y978087D01*
X303905Y978130D01*
X303908Y978139D01*
X303907Y978146D01*
X303909Y978160D01*
X303909Y1002160D01*
X303904Y1002176D01*
X303907Y1002193D01*
X303885Y1002243D01*
X303870Y1002294D01*
X303857Y1002305D01*
X303850Y1002321D01*
X303805Y1002351D01*
X303765Y1002386D01*
X303748Y1002389D01*
X303734Y1002398D01*
X303660Y1002409D01*
X279660Y1002409D01*
X279618Y1002397D01*
X279574Y1002394D01*
X279552Y1002378D01*
X279526Y1002370D01*
X279497Y1002337D01*
X279462Y1002311D01*
X279452Y1002285D01*
X279434Y1002265D01*
X279427Y1002221D01*
X279412Y1002181D01*
X279417Y1002154D01*
X279413Y1002127D01*
X279431Y1002086D01*
X279440Y1002044D01*
X279466Y1002008D01*
X279470Y1001999D01*
X279475Y1001995D01*
X279484Y1001984D01*
X303484Y977984D01*
X303522Y977963D01*
X303555Y977934D01*
X303582Y977930D01*
X303606Y977917D01*
X303650Y977920D01*
X303693Y977913D01*
X303719Y977924D01*
G37*
G36*
X80199Y977924D02*
X80199Y977924D01*
X80226Y977926D01*
X80261Y977952D01*
X80301Y977970D01*
X80316Y977993D01*
X80338Y978009D01*
X80354Y978050D01*
X80378Y978087D01*
X80385Y978130D01*
X80388Y978139D01*
X80387Y978146D01*
X80389Y978160D01*
X80389Y1002160D01*
X80384Y1002176D01*
X80387Y1002193D01*
X80365Y1002243D01*
X80350Y1002294D01*
X80337Y1002305D01*
X80330Y1002321D01*
X80285Y1002351D01*
X80245Y1002386D01*
X80228Y1002389D01*
X80214Y1002398D01*
X80140Y1002409D01*
X56140Y1002409D01*
X56098Y1002397D01*
X56054Y1002394D01*
X56032Y1002378D01*
X56006Y1002370D01*
X55977Y1002337D01*
X55942Y1002311D01*
X55932Y1002285D01*
X55914Y1002265D01*
X55907Y1002221D01*
X55892Y1002181D01*
X55897Y1002154D01*
X55893Y1002127D01*
X55911Y1002086D01*
X55920Y1002044D01*
X55946Y1002008D01*
X55950Y1001999D01*
X55955Y1001995D01*
X55964Y1001984D01*
X79964Y977984D01*
X80002Y977963D01*
X80035Y977934D01*
X80062Y977930D01*
X80086Y977917D01*
X80130Y977920D01*
X80173Y977913D01*
X80199Y977924D01*
G37*
G36*
X1756599Y566444D02*
X1756599Y566444D01*
X1756626Y566446D01*
X1756661Y566472D01*
X1756701Y566490D01*
X1756716Y566513D01*
X1756738Y566529D01*
X1756754Y566570D01*
X1756778Y566607D01*
X1756785Y566650D01*
X1756788Y566659D01*
X1756787Y566666D01*
X1756789Y566680D01*
X1756789Y590680D01*
X1756784Y590696D01*
X1756787Y590713D01*
X1756765Y590763D01*
X1756750Y590814D01*
X1756737Y590825D01*
X1756730Y590841D01*
X1756685Y590871D01*
X1756645Y590906D01*
X1756628Y590909D01*
X1756614Y590918D01*
X1756540Y590929D01*
X1732540Y590929D01*
X1732498Y590917D01*
X1732454Y590914D01*
X1732432Y590898D01*
X1732406Y590890D01*
X1732377Y590857D01*
X1732342Y590831D01*
X1732332Y590805D01*
X1732314Y590785D01*
X1732307Y590741D01*
X1732292Y590701D01*
X1732297Y590674D01*
X1732293Y590647D01*
X1732311Y590606D01*
X1732320Y590564D01*
X1732346Y590528D01*
X1732350Y590519D01*
X1732355Y590515D01*
X1732364Y590504D01*
X1756364Y566504D01*
X1756402Y566483D01*
X1756435Y566454D01*
X1756462Y566450D01*
X1756486Y566437D01*
X1756530Y566440D01*
X1756573Y566433D01*
X1756599Y566444D01*
G37*
G36*
X750759Y566444D02*
X750759Y566444D01*
X750786Y566446D01*
X750821Y566472D01*
X750861Y566490D01*
X750876Y566513D01*
X750898Y566529D01*
X750914Y566570D01*
X750938Y566607D01*
X750945Y566650D01*
X750948Y566659D01*
X750947Y566666D01*
X750949Y566680D01*
X750949Y590680D01*
X750944Y590696D01*
X750947Y590713D01*
X750925Y590763D01*
X750910Y590814D01*
X750897Y590825D01*
X750890Y590841D01*
X750845Y590871D01*
X750805Y590906D01*
X750788Y590909D01*
X750774Y590918D01*
X750700Y590929D01*
X726700Y590929D01*
X726658Y590917D01*
X726614Y590914D01*
X726592Y590898D01*
X726566Y590890D01*
X726537Y590857D01*
X726502Y590831D01*
X726492Y590805D01*
X726474Y590785D01*
X726467Y590741D01*
X726452Y590701D01*
X726457Y590674D01*
X726453Y590647D01*
X726471Y590606D01*
X726480Y590564D01*
X726506Y590528D01*
X726510Y590519D01*
X726515Y590515D01*
X726524Y590504D01*
X750524Y566504D01*
X750562Y566483D01*
X750595Y566454D01*
X750622Y566450D01*
X750646Y566437D01*
X750690Y566440D01*
X750733Y566433D01*
X750759Y566444D01*
G37*
G36*
X1644839Y566444D02*
X1644839Y566444D01*
X1644866Y566446D01*
X1644901Y566472D01*
X1644941Y566490D01*
X1644956Y566513D01*
X1644978Y566529D01*
X1644994Y566570D01*
X1645018Y566607D01*
X1645025Y566650D01*
X1645028Y566659D01*
X1645027Y566666D01*
X1645029Y566680D01*
X1645029Y590680D01*
X1645024Y590696D01*
X1645027Y590713D01*
X1645005Y590763D01*
X1644990Y590814D01*
X1644977Y590825D01*
X1644970Y590841D01*
X1644925Y590871D01*
X1644885Y590906D01*
X1644868Y590909D01*
X1644854Y590918D01*
X1644780Y590929D01*
X1620780Y590929D01*
X1620738Y590917D01*
X1620694Y590914D01*
X1620672Y590898D01*
X1620646Y590890D01*
X1620617Y590857D01*
X1620582Y590831D01*
X1620572Y590805D01*
X1620554Y590785D01*
X1620547Y590741D01*
X1620532Y590701D01*
X1620537Y590674D01*
X1620533Y590647D01*
X1620551Y590606D01*
X1620560Y590564D01*
X1620586Y590528D01*
X1620590Y590519D01*
X1620595Y590515D01*
X1620604Y590504D01*
X1644604Y566504D01*
X1644642Y566483D01*
X1644675Y566454D01*
X1644702Y566450D01*
X1644726Y566437D01*
X1644770Y566440D01*
X1644813Y566433D01*
X1644839Y566444D01*
G37*
G36*
X191959Y566444D02*
X191959Y566444D01*
X191986Y566446D01*
X192021Y566472D01*
X192061Y566490D01*
X192076Y566513D01*
X192098Y566529D01*
X192114Y566570D01*
X192138Y566607D01*
X192145Y566650D01*
X192148Y566659D01*
X192147Y566666D01*
X192149Y566680D01*
X192149Y590680D01*
X192144Y590696D01*
X192147Y590713D01*
X192125Y590763D01*
X192110Y590814D01*
X192097Y590825D01*
X192090Y590841D01*
X192045Y590871D01*
X192005Y590906D01*
X191988Y590909D01*
X191974Y590918D01*
X191900Y590929D01*
X167900Y590929D01*
X167858Y590917D01*
X167814Y590914D01*
X167792Y590898D01*
X167766Y590890D01*
X167737Y590857D01*
X167702Y590831D01*
X167692Y590805D01*
X167674Y590785D01*
X167667Y590741D01*
X167652Y590701D01*
X167657Y590674D01*
X167653Y590647D01*
X167671Y590606D01*
X167680Y590564D01*
X167706Y590528D01*
X167710Y590519D01*
X167715Y590515D01*
X167724Y590504D01*
X191724Y566504D01*
X191762Y566483D01*
X191795Y566454D01*
X191822Y566450D01*
X191846Y566437D01*
X191890Y566440D01*
X191933Y566433D01*
X191959Y566444D01*
G37*
G36*
X415479Y566444D02*
X415479Y566444D01*
X415506Y566446D01*
X415541Y566472D01*
X415581Y566490D01*
X415596Y566513D01*
X415618Y566529D01*
X415634Y566570D01*
X415658Y566607D01*
X415665Y566650D01*
X415668Y566659D01*
X415667Y566666D01*
X415669Y566680D01*
X415669Y590680D01*
X415664Y590696D01*
X415667Y590713D01*
X415645Y590763D01*
X415630Y590814D01*
X415617Y590825D01*
X415610Y590841D01*
X415565Y590871D01*
X415525Y590906D01*
X415508Y590909D01*
X415494Y590918D01*
X415420Y590929D01*
X391420Y590929D01*
X391378Y590917D01*
X391334Y590914D01*
X391312Y590898D01*
X391286Y590890D01*
X391257Y590857D01*
X391222Y590831D01*
X391212Y590805D01*
X391194Y590785D01*
X391187Y590741D01*
X391172Y590701D01*
X391177Y590674D01*
X391173Y590647D01*
X391191Y590606D01*
X391200Y590564D01*
X391226Y590528D01*
X391230Y590519D01*
X391235Y590515D01*
X391244Y590504D01*
X415244Y566504D01*
X415282Y566483D01*
X415315Y566454D01*
X415342Y566450D01*
X415366Y566437D01*
X415410Y566440D01*
X415453Y566433D01*
X415479Y566444D01*
G37*
G36*
X303719Y566444D02*
X303719Y566444D01*
X303746Y566446D01*
X303781Y566472D01*
X303821Y566490D01*
X303836Y566513D01*
X303858Y566529D01*
X303874Y566570D01*
X303898Y566607D01*
X303905Y566650D01*
X303908Y566659D01*
X303907Y566666D01*
X303909Y566680D01*
X303909Y590680D01*
X303904Y590696D01*
X303907Y590713D01*
X303885Y590763D01*
X303870Y590814D01*
X303857Y590825D01*
X303850Y590841D01*
X303805Y590871D01*
X303765Y590906D01*
X303748Y590909D01*
X303734Y590918D01*
X303660Y590929D01*
X279660Y590929D01*
X279618Y590917D01*
X279574Y590914D01*
X279552Y590898D01*
X279526Y590890D01*
X279497Y590857D01*
X279462Y590831D01*
X279452Y590805D01*
X279434Y590785D01*
X279427Y590741D01*
X279412Y590701D01*
X279417Y590674D01*
X279413Y590647D01*
X279431Y590606D01*
X279440Y590564D01*
X279466Y590528D01*
X279470Y590519D01*
X279475Y590515D01*
X279484Y590504D01*
X303484Y566504D01*
X303522Y566483D01*
X303555Y566454D01*
X303582Y566450D01*
X303606Y566437D01*
X303650Y566440D01*
X303693Y566433D01*
X303719Y566444D01*
G37*
G36*
X638999Y566444D02*
X638999Y566444D01*
X639026Y566446D01*
X639061Y566472D01*
X639101Y566490D01*
X639116Y566513D01*
X639138Y566529D01*
X639154Y566570D01*
X639178Y566607D01*
X639185Y566650D01*
X639188Y566659D01*
X639187Y566666D01*
X639189Y566680D01*
X639189Y590680D01*
X639184Y590696D01*
X639187Y590713D01*
X639165Y590763D01*
X639150Y590814D01*
X639137Y590825D01*
X639130Y590841D01*
X639085Y590871D01*
X639045Y590906D01*
X639028Y590909D01*
X639014Y590918D01*
X638940Y590929D01*
X614940Y590929D01*
X614898Y590917D01*
X614854Y590914D01*
X614832Y590898D01*
X614806Y590890D01*
X614777Y590857D01*
X614742Y590831D01*
X614732Y590805D01*
X614714Y590785D01*
X614707Y590741D01*
X614692Y590701D01*
X614697Y590674D01*
X614693Y590647D01*
X614711Y590606D01*
X614720Y590564D01*
X614746Y590528D01*
X614750Y590519D01*
X614755Y590515D01*
X614764Y590504D01*
X638764Y566504D01*
X638802Y566483D01*
X638835Y566454D01*
X638862Y566450D01*
X638886Y566437D01*
X638930Y566440D01*
X638973Y566433D01*
X638999Y566444D01*
G37*
G36*
X1086039Y566444D02*
X1086039Y566444D01*
X1086066Y566446D01*
X1086101Y566472D01*
X1086141Y566490D01*
X1086156Y566513D01*
X1086178Y566529D01*
X1086194Y566570D01*
X1086218Y566607D01*
X1086225Y566650D01*
X1086228Y566659D01*
X1086227Y566666D01*
X1086229Y566680D01*
X1086229Y590680D01*
X1086224Y590696D01*
X1086227Y590713D01*
X1086205Y590763D01*
X1086190Y590814D01*
X1086177Y590825D01*
X1086170Y590841D01*
X1086125Y590871D01*
X1086085Y590906D01*
X1086068Y590909D01*
X1086054Y590918D01*
X1085980Y590929D01*
X1061980Y590929D01*
X1061938Y590917D01*
X1061894Y590914D01*
X1061872Y590898D01*
X1061846Y590890D01*
X1061817Y590857D01*
X1061782Y590831D01*
X1061772Y590805D01*
X1061754Y590785D01*
X1061747Y590741D01*
X1061732Y590701D01*
X1061737Y590674D01*
X1061733Y590647D01*
X1061751Y590606D01*
X1061760Y590564D01*
X1061786Y590528D01*
X1061790Y590519D01*
X1061795Y590515D01*
X1061804Y590504D01*
X1085804Y566504D01*
X1085842Y566483D01*
X1085875Y566454D01*
X1085902Y566450D01*
X1085926Y566437D01*
X1085970Y566440D01*
X1086013Y566433D01*
X1086039Y566444D01*
G37*
G36*
X80199Y566444D02*
X80199Y566444D01*
X80226Y566446D01*
X80261Y566472D01*
X80301Y566490D01*
X80316Y566513D01*
X80338Y566529D01*
X80354Y566570D01*
X80378Y566607D01*
X80385Y566650D01*
X80388Y566659D01*
X80387Y566666D01*
X80389Y566680D01*
X80389Y590680D01*
X80384Y590696D01*
X80387Y590713D01*
X80365Y590763D01*
X80350Y590814D01*
X80337Y590825D01*
X80330Y590841D01*
X80285Y590871D01*
X80245Y590906D01*
X80228Y590909D01*
X80214Y590918D01*
X80140Y590929D01*
X56140Y590929D01*
X56098Y590917D01*
X56054Y590914D01*
X56032Y590898D01*
X56006Y590890D01*
X55977Y590857D01*
X55942Y590831D01*
X55932Y590805D01*
X55914Y590785D01*
X55907Y590741D01*
X55892Y590701D01*
X55897Y590674D01*
X55893Y590647D01*
X55911Y590606D01*
X55920Y590564D01*
X55946Y590528D01*
X55950Y590519D01*
X55955Y590515D01*
X55964Y590504D01*
X79964Y566504D01*
X80002Y566483D01*
X80035Y566454D01*
X80062Y566450D01*
X80086Y566437D01*
X80130Y566440D01*
X80173Y566433D01*
X80199Y566444D01*
G37*
G36*
X1421319Y566444D02*
X1421319Y566444D01*
X1421346Y566446D01*
X1421381Y566472D01*
X1421421Y566490D01*
X1421436Y566513D01*
X1421458Y566529D01*
X1421474Y566570D01*
X1421498Y566607D01*
X1421505Y566650D01*
X1421508Y566659D01*
X1421507Y566666D01*
X1421509Y566680D01*
X1421509Y590680D01*
X1421504Y590696D01*
X1421507Y590713D01*
X1421485Y590763D01*
X1421470Y590814D01*
X1421457Y590825D01*
X1421450Y590841D01*
X1421405Y590871D01*
X1421365Y590906D01*
X1421348Y590909D01*
X1421334Y590918D01*
X1421260Y590929D01*
X1397260Y590929D01*
X1397218Y590917D01*
X1397174Y590914D01*
X1397152Y590898D01*
X1397126Y590890D01*
X1397097Y590857D01*
X1397062Y590831D01*
X1397052Y590805D01*
X1397034Y590785D01*
X1397027Y590741D01*
X1397012Y590701D01*
X1397017Y590674D01*
X1397013Y590647D01*
X1397031Y590606D01*
X1397040Y590564D01*
X1397066Y590528D01*
X1397070Y590519D01*
X1397075Y590515D01*
X1397084Y590504D01*
X1421084Y566504D01*
X1421122Y566483D01*
X1421155Y566454D01*
X1421182Y566450D01*
X1421206Y566437D01*
X1421250Y566440D01*
X1421293Y566433D01*
X1421319Y566444D01*
G37*
G36*
X527239Y566444D02*
X527239Y566444D01*
X527266Y566446D01*
X527301Y566472D01*
X527341Y566490D01*
X527356Y566513D01*
X527378Y566529D01*
X527394Y566570D01*
X527418Y566607D01*
X527425Y566650D01*
X527428Y566659D01*
X527427Y566666D01*
X527429Y566680D01*
X527429Y590680D01*
X527424Y590696D01*
X527427Y590713D01*
X527405Y590763D01*
X527390Y590814D01*
X527377Y590825D01*
X527370Y590841D01*
X527325Y590871D01*
X527285Y590906D01*
X527268Y590909D01*
X527254Y590918D01*
X527180Y590929D01*
X503180Y590929D01*
X503138Y590917D01*
X503094Y590914D01*
X503072Y590898D01*
X503046Y590890D01*
X503017Y590857D01*
X502982Y590831D01*
X502972Y590805D01*
X502954Y590785D01*
X502947Y590741D01*
X502932Y590701D01*
X502937Y590674D01*
X502933Y590647D01*
X502951Y590606D01*
X502960Y590564D01*
X502986Y590528D01*
X502990Y590519D01*
X502995Y590515D01*
X503004Y590504D01*
X527004Y566504D01*
X527042Y566483D01*
X527075Y566454D01*
X527102Y566450D01*
X527126Y566437D01*
X527170Y566440D01*
X527213Y566433D01*
X527239Y566444D01*
G37*
G36*
X974279Y566444D02*
X974279Y566444D01*
X974306Y566446D01*
X974341Y566472D01*
X974381Y566490D01*
X974396Y566513D01*
X974418Y566529D01*
X974434Y566570D01*
X974458Y566607D01*
X974465Y566650D01*
X974468Y566659D01*
X974467Y566666D01*
X974469Y566680D01*
X974469Y590680D01*
X974464Y590696D01*
X974467Y590713D01*
X974445Y590763D01*
X974430Y590814D01*
X974417Y590825D01*
X974410Y590841D01*
X974365Y590871D01*
X974325Y590906D01*
X974308Y590909D01*
X974294Y590918D01*
X974220Y590929D01*
X950220Y590929D01*
X950178Y590917D01*
X950134Y590914D01*
X950112Y590898D01*
X950086Y590890D01*
X950057Y590857D01*
X950022Y590831D01*
X950012Y590805D01*
X949994Y590785D01*
X949987Y590741D01*
X949972Y590701D01*
X949977Y590674D01*
X949973Y590647D01*
X949991Y590606D01*
X950000Y590564D01*
X950026Y590528D01*
X950030Y590519D01*
X950035Y590515D01*
X950044Y590504D01*
X974044Y566504D01*
X974082Y566483D01*
X974115Y566454D01*
X974142Y566450D01*
X974166Y566437D01*
X974210Y566440D01*
X974253Y566433D01*
X974279Y566444D01*
G37*
G36*
X1197799Y566444D02*
X1197799Y566444D01*
X1197826Y566446D01*
X1197861Y566472D01*
X1197901Y566490D01*
X1197916Y566513D01*
X1197938Y566529D01*
X1197954Y566570D01*
X1197978Y566607D01*
X1197985Y566650D01*
X1197988Y566659D01*
X1197987Y566666D01*
X1197989Y566680D01*
X1197989Y590680D01*
X1197984Y590696D01*
X1197987Y590713D01*
X1197965Y590763D01*
X1197950Y590814D01*
X1197937Y590825D01*
X1197930Y590841D01*
X1197885Y590871D01*
X1197845Y590906D01*
X1197828Y590909D01*
X1197814Y590918D01*
X1197740Y590929D01*
X1173740Y590929D01*
X1173698Y590917D01*
X1173654Y590914D01*
X1173632Y590898D01*
X1173606Y590890D01*
X1173577Y590857D01*
X1173542Y590831D01*
X1173532Y590805D01*
X1173514Y590785D01*
X1173507Y590741D01*
X1173492Y590701D01*
X1173497Y590674D01*
X1173493Y590647D01*
X1173511Y590606D01*
X1173520Y590564D01*
X1173546Y590528D01*
X1173550Y590519D01*
X1173555Y590515D01*
X1173564Y590504D01*
X1197564Y566504D01*
X1197602Y566483D01*
X1197635Y566454D01*
X1197662Y566450D01*
X1197686Y566437D01*
X1197730Y566440D01*
X1197773Y566433D01*
X1197799Y566444D01*
G37*
G36*
X862519Y566444D02*
X862519Y566444D01*
X862546Y566446D01*
X862581Y566472D01*
X862621Y566490D01*
X862636Y566513D01*
X862658Y566529D01*
X862674Y566570D01*
X862698Y566607D01*
X862705Y566650D01*
X862708Y566659D01*
X862707Y566666D01*
X862709Y566680D01*
X862709Y590680D01*
X862704Y590696D01*
X862707Y590713D01*
X862685Y590763D01*
X862670Y590814D01*
X862657Y590825D01*
X862650Y590841D01*
X862605Y590871D01*
X862565Y590906D01*
X862548Y590909D01*
X862534Y590918D01*
X862460Y590929D01*
X838460Y590929D01*
X838418Y590917D01*
X838374Y590914D01*
X838352Y590898D01*
X838326Y590890D01*
X838297Y590857D01*
X838262Y590831D01*
X838252Y590805D01*
X838234Y590785D01*
X838227Y590741D01*
X838212Y590701D01*
X838217Y590674D01*
X838213Y590647D01*
X838231Y590606D01*
X838240Y590564D01*
X838266Y590528D01*
X838270Y590519D01*
X838275Y590515D01*
X838284Y590504D01*
X862284Y566504D01*
X862322Y566483D01*
X862355Y566454D01*
X862382Y566450D01*
X862406Y566437D01*
X862450Y566440D01*
X862493Y566433D01*
X862519Y566444D01*
G37*
G36*
X1533079Y566444D02*
X1533079Y566444D01*
X1533106Y566446D01*
X1533141Y566472D01*
X1533181Y566490D01*
X1533196Y566513D01*
X1533218Y566529D01*
X1533234Y566570D01*
X1533258Y566607D01*
X1533265Y566650D01*
X1533268Y566659D01*
X1533267Y566666D01*
X1533269Y566680D01*
X1533269Y590680D01*
X1533264Y590696D01*
X1533267Y590713D01*
X1533245Y590763D01*
X1533230Y590814D01*
X1533217Y590825D01*
X1533210Y590841D01*
X1533165Y590871D01*
X1533125Y590906D01*
X1533108Y590909D01*
X1533094Y590918D01*
X1533020Y590929D01*
X1509020Y590929D01*
X1508978Y590917D01*
X1508934Y590914D01*
X1508912Y590898D01*
X1508886Y590890D01*
X1508857Y590857D01*
X1508822Y590831D01*
X1508812Y590805D01*
X1508794Y590785D01*
X1508787Y590741D01*
X1508772Y590701D01*
X1508777Y590674D01*
X1508773Y590647D01*
X1508791Y590606D01*
X1508800Y590564D01*
X1508826Y590528D01*
X1508830Y590519D01*
X1508835Y590515D01*
X1508844Y590504D01*
X1532844Y566504D01*
X1532882Y566483D01*
X1532915Y566454D01*
X1532942Y566450D01*
X1532966Y566437D01*
X1533010Y566440D01*
X1533053Y566433D01*
X1533079Y566444D01*
G37*
G36*
X1309559Y566444D02*
X1309559Y566444D01*
X1309586Y566446D01*
X1309621Y566472D01*
X1309661Y566490D01*
X1309676Y566513D01*
X1309698Y566529D01*
X1309714Y566570D01*
X1309738Y566607D01*
X1309745Y566650D01*
X1309748Y566659D01*
X1309747Y566666D01*
X1309749Y566680D01*
X1309749Y590680D01*
X1309744Y590696D01*
X1309747Y590713D01*
X1309725Y590763D01*
X1309710Y590814D01*
X1309697Y590825D01*
X1309690Y590841D01*
X1309645Y590871D01*
X1309605Y590906D01*
X1309588Y590909D01*
X1309574Y590918D01*
X1309500Y590929D01*
X1285500Y590929D01*
X1285458Y590917D01*
X1285414Y590914D01*
X1285392Y590898D01*
X1285366Y590890D01*
X1285337Y590857D01*
X1285302Y590831D01*
X1285292Y590805D01*
X1285274Y590785D01*
X1285267Y590741D01*
X1285252Y590701D01*
X1285257Y590674D01*
X1285253Y590647D01*
X1285271Y590606D01*
X1285280Y590564D01*
X1285306Y590528D01*
X1285310Y590519D01*
X1285315Y590515D01*
X1285324Y590504D01*
X1309324Y566504D01*
X1309362Y566483D01*
X1309395Y566454D01*
X1309422Y566450D01*
X1309446Y566437D01*
X1309490Y566440D01*
X1309533Y566433D01*
X1309559Y566444D01*
G37*
G36*
X1756599Y154964D02*
X1756599Y154964D01*
X1756626Y154966D01*
X1756661Y154992D01*
X1756701Y155010D01*
X1756716Y155033D01*
X1756738Y155049D01*
X1756754Y155090D01*
X1756778Y155127D01*
X1756785Y155170D01*
X1756788Y155179D01*
X1756787Y155186D01*
X1756789Y155200D01*
X1756789Y179200D01*
X1756784Y179216D01*
X1756787Y179233D01*
X1756765Y179283D01*
X1756750Y179334D01*
X1756737Y179345D01*
X1756730Y179361D01*
X1756685Y179391D01*
X1756645Y179426D01*
X1756628Y179429D01*
X1756614Y179438D01*
X1756540Y179449D01*
X1732540Y179449D01*
X1732498Y179437D01*
X1732454Y179434D01*
X1732432Y179418D01*
X1732406Y179410D01*
X1732377Y179377D01*
X1732342Y179351D01*
X1732332Y179325D01*
X1732314Y179305D01*
X1732307Y179261D01*
X1732292Y179221D01*
X1732297Y179194D01*
X1732293Y179167D01*
X1732311Y179126D01*
X1732320Y179084D01*
X1732346Y179048D01*
X1732350Y179039D01*
X1732355Y179035D01*
X1732364Y179024D01*
X1756364Y155024D01*
X1756402Y155003D01*
X1756435Y154974D01*
X1756462Y154970D01*
X1756486Y154957D01*
X1756530Y154960D01*
X1756573Y154953D01*
X1756599Y154964D01*
G37*
G36*
X1533079Y154964D02*
X1533079Y154964D01*
X1533106Y154966D01*
X1533141Y154992D01*
X1533181Y155010D01*
X1533196Y155033D01*
X1533218Y155049D01*
X1533234Y155090D01*
X1533258Y155127D01*
X1533265Y155170D01*
X1533268Y155179D01*
X1533267Y155186D01*
X1533269Y155200D01*
X1533269Y179200D01*
X1533264Y179216D01*
X1533267Y179233D01*
X1533245Y179283D01*
X1533230Y179334D01*
X1533217Y179345D01*
X1533210Y179361D01*
X1533165Y179391D01*
X1533125Y179426D01*
X1533108Y179429D01*
X1533094Y179438D01*
X1533020Y179449D01*
X1509020Y179449D01*
X1508978Y179437D01*
X1508934Y179434D01*
X1508912Y179418D01*
X1508886Y179410D01*
X1508857Y179377D01*
X1508822Y179351D01*
X1508812Y179325D01*
X1508794Y179305D01*
X1508787Y179261D01*
X1508772Y179221D01*
X1508777Y179194D01*
X1508773Y179167D01*
X1508791Y179126D01*
X1508800Y179084D01*
X1508826Y179048D01*
X1508830Y179039D01*
X1508835Y179035D01*
X1508844Y179024D01*
X1532844Y155024D01*
X1532882Y155003D01*
X1532915Y154974D01*
X1532942Y154970D01*
X1532966Y154957D01*
X1533010Y154960D01*
X1533053Y154953D01*
X1533079Y154964D01*
G37*
G36*
X862519Y154964D02*
X862519Y154964D01*
X862546Y154966D01*
X862581Y154992D01*
X862621Y155010D01*
X862636Y155033D01*
X862658Y155049D01*
X862674Y155090D01*
X862698Y155127D01*
X862705Y155170D01*
X862708Y155179D01*
X862707Y155186D01*
X862709Y155200D01*
X862709Y179200D01*
X862704Y179216D01*
X862707Y179233D01*
X862685Y179283D01*
X862670Y179334D01*
X862657Y179345D01*
X862650Y179361D01*
X862605Y179391D01*
X862565Y179426D01*
X862548Y179429D01*
X862534Y179438D01*
X862460Y179449D01*
X838460Y179449D01*
X838418Y179437D01*
X838374Y179434D01*
X838352Y179418D01*
X838326Y179410D01*
X838297Y179377D01*
X838262Y179351D01*
X838252Y179325D01*
X838234Y179305D01*
X838227Y179261D01*
X838212Y179221D01*
X838217Y179194D01*
X838213Y179167D01*
X838231Y179126D01*
X838240Y179084D01*
X838266Y179048D01*
X838270Y179039D01*
X838275Y179035D01*
X838284Y179024D01*
X862284Y155024D01*
X862322Y155003D01*
X862355Y154974D01*
X862382Y154970D01*
X862406Y154957D01*
X862450Y154960D01*
X862493Y154953D01*
X862519Y154964D01*
G37*
G36*
X527239Y154964D02*
X527239Y154964D01*
X527266Y154966D01*
X527301Y154992D01*
X527341Y155010D01*
X527356Y155033D01*
X527378Y155049D01*
X527394Y155090D01*
X527418Y155127D01*
X527425Y155170D01*
X527428Y155179D01*
X527427Y155186D01*
X527429Y155200D01*
X527429Y179200D01*
X527424Y179216D01*
X527427Y179233D01*
X527405Y179283D01*
X527390Y179334D01*
X527377Y179345D01*
X527370Y179361D01*
X527325Y179391D01*
X527285Y179426D01*
X527268Y179429D01*
X527254Y179438D01*
X527180Y179449D01*
X503180Y179449D01*
X503138Y179437D01*
X503094Y179434D01*
X503072Y179418D01*
X503046Y179410D01*
X503017Y179377D01*
X502982Y179351D01*
X502972Y179325D01*
X502954Y179305D01*
X502947Y179261D01*
X502932Y179221D01*
X502937Y179194D01*
X502933Y179167D01*
X502951Y179126D01*
X502960Y179084D01*
X502986Y179048D01*
X502990Y179039D01*
X502995Y179035D01*
X503004Y179024D01*
X527004Y155024D01*
X527042Y155003D01*
X527075Y154974D01*
X527102Y154970D01*
X527126Y154957D01*
X527170Y154960D01*
X527213Y154953D01*
X527239Y154964D01*
G37*
G36*
X415479Y154964D02*
X415479Y154964D01*
X415506Y154966D01*
X415541Y154992D01*
X415581Y155010D01*
X415596Y155033D01*
X415618Y155049D01*
X415634Y155090D01*
X415658Y155127D01*
X415665Y155170D01*
X415668Y155179D01*
X415667Y155186D01*
X415669Y155200D01*
X415669Y179200D01*
X415664Y179216D01*
X415667Y179233D01*
X415645Y179283D01*
X415630Y179334D01*
X415617Y179345D01*
X415610Y179361D01*
X415565Y179391D01*
X415525Y179426D01*
X415508Y179429D01*
X415494Y179438D01*
X415420Y179449D01*
X391420Y179449D01*
X391378Y179437D01*
X391334Y179434D01*
X391312Y179418D01*
X391286Y179410D01*
X391257Y179377D01*
X391222Y179351D01*
X391212Y179325D01*
X391194Y179305D01*
X391187Y179261D01*
X391172Y179221D01*
X391177Y179194D01*
X391173Y179167D01*
X391191Y179126D01*
X391200Y179084D01*
X391226Y179048D01*
X391230Y179039D01*
X391235Y179035D01*
X391244Y179024D01*
X415244Y155024D01*
X415282Y155003D01*
X415315Y154974D01*
X415342Y154970D01*
X415366Y154957D01*
X415410Y154960D01*
X415453Y154953D01*
X415479Y154964D01*
G37*
G36*
X974279Y154964D02*
X974279Y154964D01*
X974306Y154966D01*
X974341Y154992D01*
X974381Y155010D01*
X974396Y155033D01*
X974418Y155049D01*
X974434Y155090D01*
X974458Y155127D01*
X974465Y155170D01*
X974468Y155179D01*
X974467Y155186D01*
X974469Y155200D01*
X974469Y179200D01*
X974464Y179216D01*
X974467Y179233D01*
X974445Y179283D01*
X974430Y179334D01*
X974417Y179345D01*
X974410Y179361D01*
X974365Y179391D01*
X974325Y179426D01*
X974308Y179429D01*
X974294Y179438D01*
X974220Y179449D01*
X950220Y179449D01*
X950178Y179437D01*
X950134Y179434D01*
X950112Y179418D01*
X950086Y179410D01*
X950057Y179377D01*
X950022Y179351D01*
X950012Y179325D01*
X949994Y179305D01*
X949987Y179261D01*
X949972Y179221D01*
X949977Y179194D01*
X949973Y179167D01*
X949991Y179126D01*
X950000Y179084D01*
X950026Y179048D01*
X950030Y179039D01*
X950035Y179035D01*
X950044Y179024D01*
X974044Y155024D01*
X974082Y155003D01*
X974115Y154974D01*
X974142Y154970D01*
X974166Y154957D01*
X974210Y154960D01*
X974253Y154953D01*
X974279Y154964D01*
G37*
G36*
X303719Y154964D02*
X303719Y154964D01*
X303746Y154966D01*
X303781Y154992D01*
X303821Y155010D01*
X303836Y155033D01*
X303858Y155049D01*
X303874Y155090D01*
X303898Y155127D01*
X303905Y155170D01*
X303908Y155179D01*
X303907Y155186D01*
X303909Y155200D01*
X303909Y179200D01*
X303904Y179216D01*
X303907Y179233D01*
X303885Y179283D01*
X303870Y179334D01*
X303857Y179345D01*
X303850Y179361D01*
X303805Y179391D01*
X303765Y179426D01*
X303748Y179429D01*
X303734Y179438D01*
X303660Y179449D01*
X279660Y179449D01*
X279618Y179437D01*
X279574Y179434D01*
X279552Y179418D01*
X279526Y179410D01*
X279497Y179377D01*
X279462Y179351D01*
X279452Y179325D01*
X279434Y179305D01*
X279427Y179261D01*
X279412Y179221D01*
X279417Y179194D01*
X279413Y179167D01*
X279431Y179126D01*
X279440Y179084D01*
X279466Y179048D01*
X279470Y179039D01*
X279475Y179035D01*
X279484Y179024D01*
X303484Y155024D01*
X303522Y155003D01*
X303555Y154974D01*
X303582Y154970D01*
X303606Y154957D01*
X303650Y154960D01*
X303693Y154953D01*
X303719Y154964D01*
G37*
G36*
X80199Y154964D02*
X80199Y154964D01*
X80226Y154966D01*
X80261Y154992D01*
X80301Y155010D01*
X80316Y155033D01*
X80338Y155049D01*
X80354Y155090D01*
X80378Y155127D01*
X80385Y155170D01*
X80388Y155179D01*
X80387Y155186D01*
X80389Y155200D01*
X80389Y179200D01*
X80384Y179216D01*
X80387Y179233D01*
X80365Y179283D01*
X80350Y179334D01*
X80337Y179345D01*
X80330Y179361D01*
X80285Y179391D01*
X80245Y179426D01*
X80228Y179429D01*
X80214Y179438D01*
X80140Y179449D01*
X56140Y179449D01*
X56098Y179437D01*
X56054Y179434D01*
X56032Y179418D01*
X56006Y179410D01*
X55977Y179377D01*
X55942Y179351D01*
X55932Y179325D01*
X55914Y179305D01*
X55907Y179261D01*
X55892Y179221D01*
X55897Y179194D01*
X55893Y179167D01*
X55911Y179126D01*
X55920Y179084D01*
X55946Y179048D01*
X55950Y179039D01*
X55955Y179035D01*
X55964Y179024D01*
X79964Y155024D01*
X80002Y155003D01*
X80035Y154974D01*
X80062Y154970D01*
X80086Y154957D01*
X80130Y154960D01*
X80173Y154953D01*
X80199Y154964D01*
G37*
G36*
X1197799Y154964D02*
X1197799Y154964D01*
X1197826Y154966D01*
X1197861Y154992D01*
X1197901Y155010D01*
X1197916Y155033D01*
X1197938Y155049D01*
X1197954Y155090D01*
X1197978Y155127D01*
X1197985Y155170D01*
X1197988Y155179D01*
X1197987Y155186D01*
X1197989Y155200D01*
X1197989Y179200D01*
X1197984Y179216D01*
X1197987Y179233D01*
X1197965Y179283D01*
X1197950Y179334D01*
X1197937Y179345D01*
X1197930Y179361D01*
X1197885Y179391D01*
X1197845Y179426D01*
X1197828Y179429D01*
X1197814Y179438D01*
X1197740Y179449D01*
X1173740Y179449D01*
X1173698Y179437D01*
X1173654Y179434D01*
X1173632Y179418D01*
X1173606Y179410D01*
X1173577Y179377D01*
X1173542Y179351D01*
X1173532Y179325D01*
X1173514Y179305D01*
X1173507Y179261D01*
X1173492Y179221D01*
X1173497Y179194D01*
X1173493Y179167D01*
X1173511Y179126D01*
X1173520Y179084D01*
X1173546Y179048D01*
X1173550Y179039D01*
X1173555Y179035D01*
X1173564Y179024D01*
X1197564Y155024D01*
X1197602Y155003D01*
X1197635Y154974D01*
X1197662Y154970D01*
X1197686Y154957D01*
X1197730Y154960D01*
X1197773Y154953D01*
X1197799Y154964D01*
G37*
G36*
X191959Y154964D02*
X191959Y154964D01*
X191986Y154966D01*
X192021Y154992D01*
X192061Y155010D01*
X192076Y155033D01*
X192098Y155049D01*
X192114Y155090D01*
X192138Y155127D01*
X192145Y155170D01*
X192148Y155179D01*
X192147Y155186D01*
X192149Y155200D01*
X192149Y179200D01*
X192144Y179216D01*
X192147Y179233D01*
X192125Y179283D01*
X192110Y179334D01*
X192097Y179345D01*
X192090Y179361D01*
X192045Y179391D01*
X192005Y179426D01*
X191988Y179429D01*
X191974Y179438D01*
X191900Y179449D01*
X167900Y179449D01*
X167858Y179437D01*
X167814Y179434D01*
X167792Y179418D01*
X167766Y179410D01*
X167737Y179377D01*
X167702Y179351D01*
X167692Y179325D01*
X167674Y179305D01*
X167667Y179261D01*
X167652Y179221D01*
X167657Y179194D01*
X167653Y179167D01*
X167671Y179126D01*
X167680Y179084D01*
X167706Y179048D01*
X167710Y179039D01*
X167715Y179035D01*
X167724Y179024D01*
X191724Y155024D01*
X191762Y155003D01*
X191795Y154974D01*
X191822Y154970D01*
X191846Y154957D01*
X191890Y154960D01*
X191933Y154953D01*
X191959Y154964D01*
G37*
G36*
X1309559Y154964D02*
X1309559Y154964D01*
X1309586Y154966D01*
X1309621Y154992D01*
X1309661Y155010D01*
X1309676Y155033D01*
X1309698Y155049D01*
X1309714Y155090D01*
X1309738Y155127D01*
X1309745Y155170D01*
X1309748Y155179D01*
X1309747Y155186D01*
X1309749Y155200D01*
X1309749Y179200D01*
X1309744Y179216D01*
X1309747Y179233D01*
X1309725Y179283D01*
X1309710Y179334D01*
X1309697Y179345D01*
X1309690Y179361D01*
X1309645Y179391D01*
X1309605Y179426D01*
X1309588Y179429D01*
X1309574Y179438D01*
X1309500Y179449D01*
X1285500Y179449D01*
X1285458Y179437D01*
X1285414Y179434D01*
X1285392Y179418D01*
X1285366Y179410D01*
X1285337Y179377D01*
X1285302Y179351D01*
X1285292Y179325D01*
X1285274Y179305D01*
X1285267Y179261D01*
X1285252Y179221D01*
X1285257Y179194D01*
X1285253Y179167D01*
X1285271Y179126D01*
X1285280Y179084D01*
X1285306Y179048D01*
X1285310Y179039D01*
X1285315Y179035D01*
X1285324Y179024D01*
X1309324Y155024D01*
X1309362Y155003D01*
X1309395Y154974D01*
X1309422Y154970D01*
X1309446Y154957D01*
X1309490Y154960D01*
X1309533Y154953D01*
X1309559Y154964D01*
G37*
G36*
X638999Y154964D02*
X638999Y154964D01*
X639026Y154966D01*
X639061Y154992D01*
X639101Y155010D01*
X639116Y155033D01*
X639138Y155049D01*
X639154Y155090D01*
X639178Y155127D01*
X639185Y155170D01*
X639188Y155179D01*
X639187Y155186D01*
X639189Y155200D01*
X639189Y179200D01*
X639184Y179216D01*
X639187Y179233D01*
X639165Y179283D01*
X639150Y179334D01*
X639137Y179345D01*
X639130Y179361D01*
X639085Y179391D01*
X639045Y179426D01*
X639028Y179429D01*
X639014Y179438D01*
X638940Y179449D01*
X614940Y179449D01*
X614898Y179437D01*
X614854Y179434D01*
X614832Y179418D01*
X614806Y179410D01*
X614777Y179377D01*
X614742Y179351D01*
X614732Y179325D01*
X614714Y179305D01*
X614707Y179261D01*
X614692Y179221D01*
X614697Y179194D01*
X614693Y179167D01*
X614711Y179126D01*
X614720Y179084D01*
X614746Y179048D01*
X614750Y179039D01*
X614755Y179035D01*
X614764Y179024D01*
X638764Y155024D01*
X638802Y155003D01*
X638835Y154974D01*
X638862Y154970D01*
X638886Y154957D01*
X638930Y154960D01*
X638973Y154953D01*
X638999Y154964D01*
G37*
G36*
X1086039Y154964D02*
X1086039Y154964D01*
X1086066Y154966D01*
X1086101Y154992D01*
X1086141Y155010D01*
X1086156Y155033D01*
X1086178Y155049D01*
X1086194Y155090D01*
X1086218Y155127D01*
X1086225Y155170D01*
X1086228Y155179D01*
X1086227Y155186D01*
X1086229Y155200D01*
X1086229Y179200D01*
X1086224Y179216D01*
X1086227Y179233D01*
X1086205Y179283D01*
X1086190Y179334D01*
X1086177Y179345D01*
X1086170Y179361D01*
X1086125Y179391D01*
X1086085Y179426D01*
X1086068Y179429D01*
X1086054Y179438D01*
X1085980Y179449D01*
X1061980Y179449D01*
X1061938Y179437D01*
X1061894Y179434D01*
X1061872Y179418D01*
X1061846Y179410D01*
X1061817Y179377D01*
X1061782Y179351D01*
X1061772Y179325D01*
X1061754Y179305D01*
X1061747Y179261D01*
X1061732Y179221D01*
X1061737Y179194D01*
X1061733Y179167D01*
X1061751Y179126D01*
X1061760Y179084D01*
X1061786Y179048D01*
X1061790Y179039D01*
X1061795Y179035D01*
X1061804Y179024D01*
X1085804Y155024D01*
X1085842Y155003D01*
X1085875Y154974D01*
X1085902Y154970D01*
X1085926Y154957D01*
X1085970Y154960D01*
X1086013Y154953D01*
X1086039Y154964D01*
G37*
G36*
X750759Y154964D02*
X750759Y154964D01*
X750786Y154966D01*
X750821Y154992D01*
X750861Y155010D01*
X750876Y155033D01*
X750898Y155049D01*
X750914Y155090D01*
X750938Y155127D01*
X750945Y155170D01*
X750948Y155179D01*
X750947Y155186D01*
X750949Y155200D01*
X750949Y179200D01*
X750944Y179216D01*
X750947Y179233D01*
X750925Y179283D01*
X750910Y179334D01*
X750897Y179345D01*
X750890Y179361D01*
X750845Y179391D01*
X750805Y179426D01*
X750788Y179429D01*
X750774Y179438D01*
X750700Y179449D01*
X726700Y179449D01*
X726658Y179437D01*
X726614Y179434D01*
X726592Y179418D01*
X726566Y179410D01*
X726537Y179377D01*
X726502Y179351D01*
X726492Y179325D01*
X726474Y179305D01*
X726467Y179261D01*
X726452Y179221D01*
X726457Y179194D01*
X726453Y179167D01*
X726471Y179126D01*
X726480Y179084D01*
X726506Y179048D01*
X726510Y179039D01*
X726515Y179035D01*
X726524Y179024D01*
X750524Y155024D01*
X750562Y155003D01*
X750595Y154974D01*
X750622Y154970D01*
X750646Y154957D01*
X750690Y154960D01*
X750733Y154953D01*
X750759Y154964D01*
G37*
G36*
X1421319Y154964D02*
X1421319Y154964D01*
X1421346Y154966D01*
X1421381Y154992D01*
X1421421Y155010D01*
X1421436Y155033D01*
X1421458Y155049D01*
X1421474Y155090D01*
X1421498Y155127D01*
X1421505Y155170D01*
X1421508Y155179D01*
X1421507Y155186D01*
X1421509Y155200D01*
X1421509Y179200D01*
X1421504Y179216D01*
X1421507Y179233D01*
X1421485Y179283D01*
X1421470Y179334D01*
X1421457Y179345D01*
X1421450Y179361D01*
X1421405Y179391D01*
X1421365Y179426D01*
X1421348Y179429D01*
X1421334Y179438D01*
X1421260Y179449D01*
X1397260Y179449D01*
X1397218Y179437D01*
X1397174Y179434D01*
X1397152Y179418D01*
X1397126Y179410D01*
X1397097Y179377D01*
X1397062Y179351D01*
X1397052Y179325D01*
X1397034Y179305D01*
X1397027Y179261D01*
X1397012Y179221D01*
X1397017Y179194D01*
X1397013Y179167D01*
X1397031Y179126D01*
X1397040Y179084D01*
X1397066Y179048D01*
X1397070Y179039D01*
X1397075Y179035D01*
X1397084Y179024D01*
X1421084Y155024D01*
X1421122Y155003D01*
X1421155Y154974D01*
X1421182Y154970D01*
X1421206Y154957D01*
X1421250Y154960D01*
X1421293Y154953D01*
X1421319Y154964D01*
G37*
G36*
X1644839Y154964D02*
X1644839Y154964D01*
X1644866Y154966D01*
X1644901Y154992D01*
X1644941Y155010D01*
X1644956Y155033D01*
X1644978Y155049D01*
X1644994Y155090D01*
X1645018Y155127D01*
X1645025Y155170D01*
X1645028Y155179D01*
X1645027Y155186D01*
X1645029Y155200D01*
X1645029Y179200D01*
X1645024Y179216D01*
X1645027Y179233D01*
X1645005Y179283D01*
X1644990Y179334D01*
X1644977Y179345D01*
X1644970Y179361D01*
X1644925Y179391D01*
X1644885Y179426D01*
X1644868Y179429D01*
X1644854Y179438D01*
X1644780Y179449D01*
X1620780Y179449D01*
X1620738Y179437D01*
X1620694Y179434D01*
X1620672Y179418D01*
X1620646Y179410D01*
X1620617Y179377D01*
X1620582Y179351D01*
X1620572Y179325D01*
X1620554Y179305D01*
X1620547Y179261D01*
X1620532Y179221D01*
X1620537Y179194D01*
X1620533Y179167D01*
X1620551Y179126D01*
X1620560Y179084D01*
X1620586Y179048D01*
X1620590Y179039D01*
X1620595Y179035D01*
X1620604Y179024D01*
X1644604Y155024D01*
X1644642Y155003D01*
X1644675Y154974D01*
X1644702Y154970D01*
X1644726Y154957D01*
X1644770Y154960D01*
X1644813Y154953D01*
X1644839Y154964D01*
G37*
D10*
X80725Y350520D03*
X90725Y350520D03*
D11*
X93820Y320700D03*
X93820Y339700D03*
X72820Y330200D03*
D10*
X74375Y309880D03*
X84375Y309880D03*
X74375Y299720D03*
X84375Y299720D03*
D12*
X100840Y32455D03*
D13*
X90840Y7455D03*
X85840Y7455D03*
D12*
X5840Y32455D03*
D13*
X80840Y7455D03*
X75840Y7455D03*
X70840Y7455D03*
X65840Y7455D03*
X60840Y7455D03*
X55840Y7455D03*
X50840Y7455D03*
X45840Y7455D03*
X40840Y7455D03*
X35840Y7455D03*
X30840Y7455D03*
X25840Y7455D03*
X20840Y7455D03*
X15840Y7455D03*
D10*
X8255Y389335D03*
X8255Y399335D03*
X98425Y389335D03*
X98425Y399335D03*
D14*
X38460Y280390D03*
X48460Y280390D03*
X53460Y280390D03*
X58460Y280390D03*
X63460Y280390D03*
X68460Y280390D03*
X73460Y280390D03*
X78460Y280390D03*
X43460Y280390D03*
X78460Y275390D03*
X78460Y270390D03*
X78460Y265390D03*
X78460Y260390D03*
X78460Y255390D03*
X78460Y250390D03*
X78460Y245390D03*
X78460Y240390D03*
X73460Y240390D03*
X68460Y240390D03*
X63460Y240390D03*
X58460Y240390D03*
X53460Y240390D03*
X48460Y240390D03*
X43460Y240390D03*
X38460Y240390D03*
X38460Y245390D03*
X38460Y250390D03*
X38460Y255390D03*
X38460Y260390D03*
X38460Y265390D03*
X38460Y270390D03*
X38460Y275390D03*
X48460Y270390D03*
X53460Y270390D03*
X58460Y270390D03*
X63460Y270390D03*
X68460Y270390D03*
X68460Y260390D03*
X68460Y255390D03*
X68460Y250390D03*
X63460Y250390D03*
X58460Y250390D03*
X53460Y250390D03*
X48460Y250390D03*
X48460Y255390D03*
X48460Y260390D03*
X48460Y265390D03*
X53460Y265390D03*
X63460Y265390D03*
X63460Y255390D03*
X53460Y255390D03*
D15*
X67090Y367030D03*
X39590Y367030D03*
D16*
X53340Y351780D03*
X53340Y382280D03*
D10*
X21590Y268050D03*
X21590Y278050D03*
D17*
X58620Y222250D03*
X83620Y222250D03*
D18*
X53425Y338455D03*
X41825Y338455D03*
D10*
X29845Y333930D03*
X29845Y323930D03*
X29845Y344250D03*
X29845Y354250D03*
D19*
X21590Y257285D03*
X21590Y239285D03*
D10*
X38100Y227250D03*
X38100Y217250D03*
X77470Y185500D03*
X77470Y195500D03*
D20*
X59340Y133900D03*
D21*
X41840Y198755D03*
X64840Y198755D03*
D10*
X58340Y185420D03*
X48340Y185420D03*
D18*
X41825Y324485D03*
X53425Y324485D03*
D10*
X192485Y350520D03*
X202485Y350520D03*
D11*
X205580Y320700D03*
X205580Y339700D03*
X184580Y330200D03*
D10*
X186135Y309880D03*
X196135Y309880D03*
X186135Y299720D03*
X196135Y299720D03*
D12*
X212600Y32455D03*
D13*
X202600Y7455D03*
X197600Y7455D03*
D12*
X117600Y32455D03*
D13*
X192600Y7455D03*
X187600Y7455D03*
X182600Y7455D03*
X177600Y7455D03*
X172600Y7455D03*
X167600Y7455D03*
X162600Y7455D03*
X157600Y7455D03*
X152600Y7455D03*
X147600Y7455D03*
X142600Y7455D03*
X137600Y7455D03*
X132600Y7455D03*
X127600Y7455D03*
D10*
X120015Y389335D03*
X120015Y399335D03*
X210185Y389335D03*
X210185Y399335D03*
D14*
X150220Y280390D03*
X160220Y280390D03*
X165220Y280390D03*
X170220Y280390D03*
X175220Y280390D03*
X180220Y280390D03*
X185220Y280390D03*
X190220Y280390D03*
X155220Y280390D03*
X190220Y275390D03*
X190220Y270390D03*
X190220Y265390D03*
X190220Y260390D03*
X190220Y255390D03*
X190220Y250390D03*
X190220Y245390D03*
X190220Y240390D03*
X185220Y240390D03*
X180220Y240390D03*
X175220Y240390D03*
X170220Y240390D03*
X165220Y240390D03*
X160220Y240390D03*
X155220Y240390D03*
X150220Y240390D03*
X150220Y245390D03*
X150220Y250390D03*
X150220Y255390D03*
X150220Y260390D03*
X150220Y265390D03*
X150220Y270390D03*
X150220Y275390D03*
X160220Y270390D03*
X165220Y270390D03*
X170220Y270390D03*
X175220Y270390D03*
X180220Y270390D03*
X180220Y260390D03*
X180220Y255390D03*
X180220Y250390D03*
X175220Y250390D03*
X170220Y250390D03*
X165220Y250390D03*
X160220Y250390D03*
X160220Y255390D03*
X160220Y260390D03*
X160220Y265390D03*
X165220Y265390D03*
X175220Y265390D03*
X175220Y255390D03*
X165220Y255390D03*
D15*
X178850Y367030D03*
X151350Y367030D03*
D16*
X165100Y351780D03*
X165100Y382280D03*
D10*
X133350Y268050D03*
X133350Y278050D03*
D17*
X170380Y222250D03*
X195380Y222250D03*
D18*
X165185Y338455D03*
X153585Y338455D03*
D10*
X141605Y333930D03*
X141605Y323930D03*
X141605Y344250D03*
X141605Y354250D03*
D19*
X133350Y257285D03*
X133350Y239285D03*
D10*
X149860Y227250D03*
X149860Y217250D03*
X189230Y185500D03*
X189230Y195500D03*
D20*
X171100Y133900D03*
D21*
X153600Y198755D03*
X176600Y198755D03*
D10*
X170100Y185420D03*
X160100Y185420D03*
D18*
X153585Y324485D03*
X165185Y324485D03*
D10*
X304245Y350520D03*
X314245Y350520D03*
D11*
X317340Y320700D03*
X317340Y339700D03*
X296340Y330200D03*
D10*
X297895Y309880D03*
X307895Y309880D03*
X297895Y299720D03*
X307895Y299720D03*
D12*
X324360Y32455D03*
D13*
X314360Y7455D03*
X309360Y7455D03*
D12*
X229360Y32455D03*
D13*
X304360Y7455D03*
X299360Y7455D03*
X294360Y7455D03*
X289360Y7455D03*
X284360Y7455D03*
X279360Y7455D03*
X274360Y7455D03*
X269360Y7455D03*
X264360Y7455D03*
X259360Y7455D03*
X254360Y7455D03*
X249360Y7455D03*
X244360Y7455D03*
X239360Y7455D03*
D10*
X231775Y389335D03*
X231775Y399335D03*
X321945Y389335D03*
X321945Y399335D03*
D14*
X261980Y280390D03*
X271980Y280390D03*
X276980Y280390D03*
X281980Y280390D03*
X286980Y280390D03*
X291980Y280390D03*
X296980Y280390D03*
X301980Y280390D03*
X266980Y280390D03*
X301980Y275390D03*
X301980Y270390D03*
X301980Y265390D03*
X301980Y260390D03*
X301980Y255390D03*
X301980Y250390D03*
X301980Y245390D03*
X301980Y240390D03*
X296980Y240390D03*
X291980Y240390D03*
X286980Y240390D03*
X281980Y240390D03*
X276980Y240390D03*
X271980Y240390D03*
X266980Y240390D03*
X261980Y240390D03*
X261980Y245390D03*
X261980Y250390D03*
X261980Y255390D03*
X261980Y260390D03*
X261980Y265390D03*
X261980Y270390D03*
X261980Y275390D03*
X271980Y270390D03*
X276980Y270390D03*
X281980Y270390D03*
X286980Y270390D03*
X291980Y270390D03*
X291980Y260390D03*
X291980Y255390D03*
X291980Y250390D03*
X286980Y250390D03*
X281980Y250390D03*
X276980Y250390D03*
X271980Y250390D03*
X271980Y255390D03*
X271980Y260390D03*
X271980Y265390D03*
X276980Y265390D03*
X286980Y265390D03*
X286980Y255390D03*
X276980Y255390D03*
D15*
X290610Y367030D03*
X263110Y367030D03*
D16*
X276860Y351780D03*
X276860Y382280D03*
D10*
X245110Y268050D03*
X245110Y278050D03*
D17*
X282140Y222250D03*
X307140Y222250D03*
D18*
X276945Y338455D03*
X265345Y338455D03*
D10*
X253365Y333930D03*
X253365Y323930D03*
X253365Y344250D03*
X253365Y354250D03*
D19*
X245110Y257285D03*
X245110Y239285D03*
D10*
X261620Y227250D03*
X261620Y217250D03*
X300990Y185500D03*
X300990Y195500D03*
D20*
X282860Y133900D03*
D21*
X265360Y198755D03*
X288360Y198755D03*
D10*
X281860Y185420D03*
X271860Y185420D03*
D18*
X265345Y324485D03*
X276945Y324485D03*
D10*
X416005Y350520D03*
X426005Y350520D03*
D11*
X429100Y320700D03*
X429100Y339700D03*
X408100Y330200D03*
D10*
X409655Y309880D03*
X419655Y309880D03*
X409655Y299720D03*
X419655Y299720D03*
D12*
X436120Y32455D03*
D13*
X426120Y7455D03*
X421120Y7455D03*
D12*
X341120Y32455D03*
D13*
X416120Y7455D03*
X411120Y7455D03*
X406120Y7455D03*
X401120Y7455D03*
X396120Y7455D03*
X391120Y7455D03*
X386120Y7455D03*
X381120Y7455D03*
X376120Y7455D03*
X371120Y7455D03*
X366120Y7455D03*
X361120Y7455D03*
X356120Y7455D03*
X351120Y7455D03*
D10*
X343535Y389335D03*
X343535Y399335D03*
X433705Y389335D03*
X433705Y399335D03*
D14*
X373740Y280390D03*
X383740Y280390D03*
X388740Y280390D03*
X393740Y280390D03*
X398740Y280390D03*
X403740Y280390D03*
X408740Y280390D03*
X413740Y280390D03*
X378740Y280390D03*
X413740Y275390D03*
X413740Y270390D03*
X413740Y265390D03*
X413740Y260390D03*
X413740Y255390D03*
X413740Y250390D03*
X413740Y245390D03*
X413740Y240390D03*
X408740Y240390D03*
X403740Y240390D03*
X398740Y240390D03*
X393740Y240390D03*
X388740Y240390D03*
X383740Y240390D03*
X378740Y240390D03*
X373740Y240390D03*
X373740Y245390D03*
X373740Y250390D03*
X373740Y255390D03*
X373740Y260390D03*
X373740Y265390D03*
X373740Y270390D03*
X373740Y275390D03*
X383740Y270390D03*
X388740Y270390D03*
X393740Y270390D03*
X398740Y270390D03*
X403740Y270390D03*
X403740Y260390D03*
X403740Y255390D03*
X403740Y250390D03*
X398740Y250390D03*
X393740Y250390D03*
X388740Y250390D03*
X383740Y250390D03*
X383740Y255390D03*
X383740Y260390D03*
X383740Y265390D03*
X388740Y265390D03*
X398740Y265390D03*
X398740Y255390D03*
X388740Y255390D03*
D15*
X402370Y367030D03*
X374870Y367030D03*
D16*
X388620Y351780D03*
X388620Y382280D03*
D10*
X356870Y268050D03*
X356870Y278050D03*
D17*
X393900Y222250D03*
X418900Y222250D03*
D18*
X388705Y338455D03*
X377105Y338455D03*
D10*
X365125Y333930D03*
X365125Y323930D03*
X365125Y344250D03*
X365125Y354250D03*
D19*
X356870Y257285D03*
X356870Y239285D03*
D10*
X373380Y227250D03*
X373380Y217250D03*
X412750Y185500D03*
X412750Y195500D03*
D20*
X394620Y133900D03*
D21*
X377120Y198755D03*
X400120Y198755D03*
D10*
X393620Y185420D03*
X383620Y185420D03*
D18*
X377105Y324485D03*
X388705Y324485D03*
D10*
X527765Y350520D03*
X537765Y350520D03*
D11*
X540860Y320700D03*
X540860Y339700D03*
X519860Y330200D03*
D10*
X521415Y309880D03*
X531415Y309880D03*
X521415Y299720D03*
X531415Y299720D03*
D12*
X547880Y32455D03*
D13*
X537880Y7455D03*
X532880Y7455D03*
D12*
X452880Y32455D03*
D13*
X527880Y7455D03*
X522880Y7455D03*
X517880Y7455D03*
X512880Y7455D03*
X507880Y7455D03*
X502880Y7455D03*
X497880Y7455D03*
X492880Y7455D03*
X487880Y7455D03*
X482880Y7455D03*
X477880Y7455D03*
X472880Y7455D03*
X467880Y7455D03*
X462880Y7455D03*
D10*
X455295Y389335D03*
X455295Y399335D03*
X545465Y389335D03*
X545465Y399335D03*
D14*
X485500Y280390D03*
X495500Y280390D03*
X500500Y280390D03*
X505500Y280390D03*
X510500Y280390D03*
X515500Y280390D03*
X520500Y280390D03*
X525500Y280390D03*
X490500Y280390D03*
X525500Y275390D03*
X525500Y270390D03*
X525500Y265390D03*
X525500Y260390D03*
X525500Y255390D03*
X525500Y250390D03*
X525500Y245390D03*
X525500Y240390D03*
X520500Y240390D03*
X515500Y240390D03*
X510500Y240390D03*
X505500Y240390D03*
X500500Y240390D03*
X495500Y240390D03*
X490500Y240390D03*
X485500Y240390D03*
X485500Y245390D03*
X485500Y250390D03*
X485500Y255390D03*
X485500Y260390D03*
X485500Y265390D03*
X485500Y270390D03*
X485500Y275390D03*
X495500Y270390D03*
X500500Y270390D03*
X505500Y270390D03*
X510500Y270390D03*
X515500Y270390D03*
X515500Y260390D03*
X515500Y255390D03*
X515500Y250390D03*
X510500Y250390D03*
X505500Y250390D03*
X500500Y250390D03*
X495500Y250390D03*
X495500Y255390D03*
X495500Y260390D03*
X495500Y265390D03*
X500500Y265390D03*
X510500Y265390D03*
X510500Y255390D03*
X500500Y255390D03*
D15*
X514130Y367030D03*
X486630Y367030D03*
D16*
X500380Y351780D03*
X500380Y382280D03*
D10*
X468630Y268050D03*
X468630Y278050D03*
D17*
X505660Y222250D03*
X530660Y222250D03*
D18*
X500465Y338455D03*
X488865Y338455D03*
D10*
X476885Y333930D03*
X476885Y323930D03*
X476885Y344250D03*
X476885Y354250D03*
D19*
X468630Y257285D03*
X468630Y239285D03*
D10*
X485140Y227250D03*
X485140Y217250D03*
X524510Y185500D03*
X524510Y195500D03*
D20*
X506380Y133900D03*
D21*
X488880Y198755D03*
X511880Y198755D03*
D10*
X505380Y185420D03*
X495380Y185420D03*
D18*
X488865Y324485D03*
X500465Y324485D03*
D10*
X639525Y350520D03*
X649525Y350520D03*
D11*
X652620Y320700D03*
X652620Y339700D03*
X631620Y330200D03*
D10*
X633175Y309880D03*
X643175Y309880D03*
X633175Y299720D03*
X643175Y299720D03*
D12*
X659640Y32455D03*
D13*
X649640Y7455D03*
X644640Y7455D03*
D12*
X564640Y32455D03*
D13*
X639640Y7455D03*
X634640Y7455D03*
X629640Y7455D03*
X624640Y7455D03*
X619640Y7455D03*
X614640Y7455D03*
X609640Y7455D03*
X604640Y7455D03*
X599640Y7455D03*
X594640Y7455D03*
X589640Y7455D03*
X584640Y7455D03*
X579640Y7455D03*
X574640Y7455D03*
D10*
X567055Y389335D03*
X567055Y399335D03*
X657225Y389335D03*
X657225Y399335D03*
D14*
X597260Y280390D03*
X607260Y280390D03*
X612260Y280390D03*
X617260Y280390D03*
X622260Y280390D03*
X627260Y280390D03*
X632260Y280390D03*
X637260Y280390D03*
X602260Y280390D03*
X637260Y275390D03*
X637260Y270390D03*
X637260Y265390D03*
X637260Y260390D03*
X637260Y255390D03*
X637260Y250390D03*
X637260Y245390D03*
X637260Y240390D03*
X632260Y240390D03*
X627260Y240390D03*
X622260Y240390D03*
X617260Y240390D03*
X612260Y240390D03*
X607260Y240390D03*
X602260Y240390D03*
X597260Y240390D03*
X597260Y245390D03*
X597260Y250390D03*
X597260Y255390D03*
X597260Y260390D03*
X597260Y265390D03*
X597260Y270390D03*
X597260Y275390D03*
X607260Y270390D03*
X612260Y270390D03*
X617260Y270390D03*
X622260Y270390D03*
X627260Y270390D03*
X627260Y260390D03*
X627260Y255390D03*
X627260Y250390D03*
X622260Y250390D03*
X617260Y250390D03*
X612260Y250390D03*
X607260Y250390D03*
X607260Y255390D03*
X607260Y260390D03*
X607260Y265390D03*
X612260Y265390D03*
X622260Y265390D03*
X622260Y255390D03*
X612260Y255390D03*
D15*
X625890Y367030D03*
X598390Y367030D03*
D16*
X612140Y351780D03*
X612140Y382280D03*
D10*
X580390Y268050D03*
X580390Y278050D03*
D17*
X617420Y222250D03*
X642420Y222250D03*
D18*
X612225Y338455D03*
X600625Y338455D03*
D10*
X588645Y333930D03*
X588645Y323930D03*
X588645Y344250D03*
X588645Y354250D03*
D19*
X580390Y257285D03*
X580390Y239285D03*
D10*
X596900Y227250D03*
X596900Y217250D03*
X636270Y185500D03*
X636270Y195500D03*
D20*
X618140Y133900D03*
D21*
X600640Y198755D03*
X623640Y198755D03*
D10*
X617140Y185420D03*
X607140Y185420D03*
D18*
X600625Y324485D03*
X612225Y324485D03*
D10*
X751285Y350520D03*
X761285Y350520D03*
D11*
X764380Y320700D03*
X764380Y339700D03*
X743380Y330200D03*
D10*
X744935Y309880D03*
X754935Y309880D03*
X744935Y299720D03*
X754935Y299720D03*
D12*
X771400Y32455D03*
D13*
X761400Y7455D03*
X756400Y7455D03*
D12*
X676400Y32455D03*
D13*
X751400Y7455D03*
X746400Y7455D03*
X741400Y7455D03*
X736400Y7455D03*
X731400Y7455D03*
X726400Y7455D03*
X721400Y7455D03*
X716400Y7455D03*
X711400Y7455D03*
X706400Y7455D03*
X701400Y7455D03*
X696400Y7455D03*
X691400Y7455D03*
X686400Y7455D03*
D10*
X678815Y389335D03*
X678815Y399335D03*
X768985Y389335D03*
X768985Y399335D03*
D14*
X709020Y280390D03*
X719020Y280390D03*
X724020Y280390D03*
X729020Y280390D03*
X734020Y280390D03*
X739020Y280390D03*
X744020Y280390D03*
X749020Y280390D03*
X714020Y280390D03*
X749020Y275390D03*
X749020Y270390D03*
X749020Y265390D03*
X749020Y260390D03*
X749020Y255390D03*
X749020Y250390D03*
X749020Y245390D03*
X749020Y240390D03*
X744020Y240390D03*
X739020Y240390D03*
X734020Y240390D03*
X729020Y240390D03*
X724020Y240390D03*
X719020Y240390D03*
X714020Y240390D03*
X709020Y240390D03*
X709020Y245390D03*
X709020Y250390D03*
X709020Y255390D03*
X709020Y260390D03*
X709020Y265390D03*
X709020Y270390D03*
X709020Y275390D03*
X719020Y270390D03*
X724020Y270390D03*
X729020Y270390D03*
X734020Y270390D03*
X739020Y270390D03*
X739020Y260390D03*
X739020Y255390D03*
X739020Y250390D03*
X734020Y250390D03*
X729020Y250390D03*
X724020Y250390D03*
X719020Y250390D03*
X719020Y255390D03*
X719020Y260390D03*
X719020Y265390D03*
X724020Y265390D03*
X734020Y265390D03*
X734020Y255390D03*
X724020Y255390D03*
D15*
X737650Y367030D03*
X710150Y367030D03*
D16*
X723900Y351780D03*
X723900Y382280D03*
D10*
X692150Y268050D03*
X692150Y278050D03*
D17*
X729180Y222250D03*
X754180Y222250D03*
D18*
X723985Y338455D03*
X712385Y338455D03*
D10*
X700405Y333930D03*
X700405Y323930D03*
X700405Y344250D03*
X700405Y354250D03*
D19*
X692150Y257285D03*
X692150Y239285D03*
D10*
X708660Y227250D03*
X708660Y217250D03*
X748030Y185500D03*
X748030Y195500D03*
D20*
X729900Y133900D03*
D21*
X712400Y198755D03*
X735400Y198755D03*
D10*
X728900Y185420D03*
X718900Y185420D03*
D18*
X712385Y324485D03*
X723985Y324485D03*
D10*
X863045Y350520D03*
X873045Y350520D03*
D11*
X876140Y320700D03*
X876140Y339700D03*
X855140Y330200D03*
D10*
X856695Y309880D03*
X866695Y309880D03*
X856695Y299720D03*
X866695Y299720D03*
D12*
X883160Y32455D03*
D13*
X873160Y7455D03*
X868160Y7455D03*
D12*
X788160Y32455D03*
D13*
X863160Y7455D03*
X858160Y7455D03*
X853160Y7455D03*
X848160Y7455D03*
X843160Y7455D03*
X838160Y7455D03*
X833160Y7455D03*
X828160Y7455D03*
X823160Y7455D03*
X818160Y7455D03*
X813160Y7455D03*
X808160Y7455D03*
X803160Y7455D03*
X798160Y7455D03*
D10*
X790575Y389335D03*
X790575Y399335D03*
X880745Y389335D03*
X880745Y399335D03*
D14*
X820780Y280390D03*
X830780Y280390D03*
X835780Y280390D03*
X840780Y280390D03*
X845780Y280390D03*
X850780Y280390D03*
X855780Y280390D03*
X860780Y280390D03*
X825780Y280390D03*
X860780Y275390D03*
X860780Y270390D03*
X860780Y265390D03*
X860780Y260390D03*
X860780Y255390D03*
X860780Y250390D03*
X860780Y245390D03*
X860780Y240390D03*
X855780Y240390D03*
X850780Y240390D03*
X845780Y240390D03*
X840780Y240390D03*
X835780Y240390D03*
X830780Y240390D03*
X825780Y240390D03*
X820780Y240390D03*
X820780Y245390D03*
X820780Y250390D03*
X820780Y255390D03*
X820780Y260390D03*
X820780Y265390D03*
X820780Y270390D03*
X820780Y275390D03*
X830780Y270390D03*
X835780Y270390D03*
X840780Y270390D03*
X845780Y270390D03*
X850780Y270390D03*
X850780Y260390D03*
X850780Y255390D03*
X850780Y250390D03*
X845780Y250390D03*
X840780Y250390D03*
X835780Y250390D03*
X830780Y250390D03*
X830780Y255390D03*
X830780Y260390D03*
X830780Y265390D03*
X835780Y265390D03*
X845780Y265390D03*
X845780Y255390D03*
X835780Y255390D03*
D15*
X849410Y367030D03*
X821910Y367030D03*
D16*
X835660Y351780D03*
X835660Y382280D03*
D10*
X803910Y268050D03*
X803910Y278050D03*
D17*
X840940Y222250D03*
X865940Y222250D03*
D18*
X835745Y338455D03*
X824145Y338455D03*
D10*
X812165Y333930D03*
X812165Y323930D03*
X812165Y344250D03*
X812165Y354250D03*
D19*
X803910Y257285D03*
X803910Y239285D03*
D10*
X820420Y227250D03*
X820420Y217250D03*
X859790Y185500D03*
X859790Y195500D03*
D20*
X841660Y133900D03*
D21*
X824160Y198755D03*
X847160Y198755D03*
D10*
X840660Y185420D03*
X830660Y185420D03*
D18*
X824145Y324485D03*
X835745Y324485D03*
D10*
X974805Y350520D03*
X984805Y350520D03*
D11*
X987900Y320700D03*
X987900Y339700D03*
X966900Y330200D03*
D10*
X968455Y309880D03*
X978455Y309880D03*
X968455Y299720D03*
X978455Y299720D03*
D12*
X994920Y32455D03*
D13*
X984920Y7455D03*
X979920Y7455D03*
D12*
X899920Y32455D03*
D13*
X974920Y7455D03*
X969920Y7455D03*
X964920Y7455D03*
X959920Y7455D03*
X954920Y7455D03*
X949920Y7455D03*
X944920Y7455D03*
X939920Y7455D03*
X934920Y7455D03*
X929920Y7455D03*
X924920Y7455D03*
X919920Y7455D03*
X914920Y7455D03*
X909920Y7455D03*
D10*
X902335Y389335D03*
X902335Y399335D03*
X992505Y389335D03*
X992505Y399335D03*
D14*
X932540Y280390D03*
X942540Y280390D03*
X947540Y280390D03*
X952540Y280390D03*
X957540Y280390D03*
X962540Y280390D03*
X967540Y280390D03*
X972540Y280390D03*
X937540Y280390D03*
X972540Y275390D03*
X972540Y270390D03*
X972540Y265390D03*
X972540Y260390D03*
X972540Y255390D03*
X972540Y250390D03*
X972540Y245390D03*
X972540Y240390D03*
X967540Y240390D03*
X962540Y240390D03*
X957540Y240390D03*
X952540Y240390D03*
X947540Y240390D03*
X942540Y240390D03*
X937540Y240390D03*
X932540Y240390D03*
X932540Y245390D03*
X932540Y250390D03*
X932540Y255390D03*
X932540Y260390D03*
X932540Y265390D03*
X932540Y270390D03*
X932540Y275390D03*
X942540Y270390D03*
X947540Y270390D03*
X952540Y270390D03*
X957540Y270390D03*
X962540Y270390D03*
X962540Y260390D03*
X962540Y255390D03*
X962540Y250390D03*
X957540Y250390D03*
X952540Y250390D03*
X947540Y250390D03*
X942540Y250390D03*
X942540Y255390D03*
X942540Y260390D03*
X942540Y265390D03*
X947540Y265390D03*
X957540Y265390D03*
X957540Y255390D03*
X947540Y255390D03*
D15*
X961170Y367030D03*
X933670Y367030D03*
D16*
X947420Y351780D03*
X947420Y382280D03*
D10*
X915670Y268050D03*
X915670Y278050D03*
D17*
X952700Y222250D03*
X977700Y222250D03*
D18*
X947505Y338455D03*
X935905Y338455D03*
D10*
X923925Y333930D03*
X923925Y323930D03*
X923925Y344250D03*
X923925Y354250D03*
D19*
X915670Y257285D03*
X915670Y239285D03*
D10*
X932180Y227250D03*
X932180Y217250D03*
X971550Y185500D03*
X971550Y195500D03*
D20*
X953420Y133900D03*
D21*
X935920Y198755D03*
X958920Y198755D03*
D10*
X952420Y185420D03*
X942420Y185420D03*
D18*
X935905Y324485D03*
X947505Y324485D03*
D10*
X1086565Y350520D03*
X1096565Y350520D03*
D11*
X1099660Y320700D03*
X1099660Y339700D03*
X1078660Y330200D03*
D10*
X1080215Y309880D03*
X1090215Y309880D03*
X1080215Y299720D03*
X1090215Y299720D03*
D12*
X1106680Y32455D03*
D13*
X1096680Y7455D03*
X1091680Y7455D03*
D12*
X1011680Y32455D03*
D13*
X1086680Y7455D03*
X1081680Y7455D03*
X1076680Y7455D03*
X1071680Y7455D03*
X1066680Y7455D03*
X1061680Y7455D03*
X1056680Y7455D03*
X1051680Y7455D03*
X1046680Y7455D03*
X1041680Y7455D03*
X1036680Y7455D03*
X1031680Y7455D03*
X1026680Y7455D03*
X1021680Y7455D03*
D10*
X1014095Y389335D03*
X1014095Y399335D03*
X1104265Y389335D03*
X1104265Y399335D03*
D14*
X1044300Y280390D03*
X1054300Y280390D03*
X1059300Y280390D03*
X1064300Y280390D03*
X1069300Y280390D03*
X1074300Y280390D03*
X1079300Y280390D03*
X1084300Y280390D03*
X1049300Y280390D03*
X1084300Y275390D03*
X1084300Y270390D03*
X1084300Y265390D03*
X1084300Y260390D03*
X1084300Y255390D03*
X1084300Y250390D03*
X1084300Y245390D03*
X1084300Y240390D03*
X1079300Y240390D03*
X1074300Y240390D03*
X1069300Y240390D03*
X1064300Y240390D03*
X1059300Y240390D03*
X1054300Y240390D03*
X1049300Y240390D03*
X1044300Y240390D03*
X1044300Y245390D03*
X1044300Y250390D03*
X1044300Y255390D03*
X1044300Y260390D03*
X1044300Y265390D03*
X1044300Y270390D03*
X1044300Y275390D03*
X1054300Y270390D03*
X1059300Y270390D03*
X1064300Y270390D03*
X1069300Y270390D03*
X1074300Y270390D03*
X1074300Y260390D03*
X1074300Y255390D03*
X1074300Y250390D03*
X1069300Y250390D03*
X1064300Y250390D03*
X1059300Y250390D03*
X1054300Y250390D03*
X1054300Y255390D03*
X1054300Y260390D03*
X1054300Y265390D03*
X1059300Y265390D03*
X1069300Y265390D03*
X1069300Y255390D03*
X1059300Y255390D03*
D15*
X1072930Y367030D03*
X1045430Y367030D03*
D16*
X1059180Y351780D03*
X1059180Y382280D03*
D10*
X1027430Y268050D03*
X1027430Y278050D03*
D17*
X1064460Y222250D03*
X1089460Y222250D03*
D18*
X1059265Y338455D03*
X1047665Y338455D03*
D10*
X1035685Y333930D03*
X1035685Y323930D03*
X1035685Y344250D03*
X1035685Y354250D03*
D19*
X1027430Y257285D03*
X1027430Y239285D03*
D10*
X1043940Y227250D03*
X1043940Y217250D03*
X1083310Y185500D03*
X1083310Y195500D03*
D20*
X1065180Y133900D03*
D21*
X1047680Y198755D03*
X1070680Y198755D03*
D10*
X1064180Y185420D03*
X1054180Y185420D03*
D18*
X1047665Y324485D03*
X1059265Y324485D03*
D10*
X1198325Y350520D03*
X1208325Y350520D03*
D11*
X1211420Y320700D03*
X1211420Y339700D03*
X1190420Y330200D03*
D10*
X1191975Y309880D03*
X1201975Y309880D03*
X1191975Y299720D03*
X1201975Y299720D03*
D12*
X1218440Y32455D03*
D13*
X1208440Y7455D03*
X1203440Y7455D03*
D12*
X1123440Y32455D03*
D13*
X1198440Y7455D03*
X1193440Y7455D03*
X1188440Y7455D03*
X1183440Y7455D03*
X1178440Y7455D03*
X1173440Y7455D03*
X1168440Y7455D03*
X1163440Y7455D03*
X1158440Y7455D03*
X1153440Y7455D03*
X1148440Y7455D03*
X1143440Y7455D03*
X1138440Y7455D03*
X1133440Y7455D03*
D10*
X1125855Y389335D03*
X1125855Y399335D03*
X1216025Y389335D03*
X1216025Y399335D03*
D14*
X1156060Y280390D03*
X1166060Y280390D03*
X1171060Y280390D03*
X1176060Y280390D03*
X1181060Y280390D03*
X1186060Y280390D03*
X1191060Y280390D03*
X1196060Y280390D03*
X1161060Y280390D03*
X1196060Y275390D03*
X1196060Y270390D03*
X1196060Y265390D03*
X1196060Y260390D03*
X1196060Y255390D03*
X1196060Y250390D03*
X1196060Y245390D03*
X1196060Y240390D03*
X1191060Y240390D03*
X1186060Y240390D03*
X1181060Y240390D03*
X1176060Y240390D03*
X1171060Y240390D03*
X1166060Y240390D03*
X1161060Y240390D03*
X1156060Y240390D03*
X1156060Y245390D03*
X1156060Y250390D03*
X1156060Y255390D03*
X1156060Y260390D03*
X1156060Y265390D03*
X1156060Y270390D03*
X1156060Y275390D03*
X1166060Y270390D03*
X1171060Y270390D03*
X1176060Y270390D03*
X1181060Y270390D03*
X1186060Y270390D03*
X1186060Y260390D03*
X1186060Y255390D03*
X1186060Y250390D03*
X1181060Y250390D03*
X1176060Y250390D03*
X1171060Y250390D03*
X1166060Y250390D03*
X1166060Y255390D03*
X1166060Y260390D03*
X1166060Y265390D03*
X1171060Y265390D03*
X1181060Y265390D03*
X1181060Y255390D03*
X1171060Y255390D03*
D15*
X1184690Y367030D03*
X1157190Y367030D03*
D16*
X1170940Y351780D03*
X1170940Y382280D03*
D10*
X1139190Y268050D03*
X1139190Y278050D03*
D17*
X1176220Y222250D03*
X1201220Y222250D03*
D18*
X1171025Y338455D03*
X1159425Y338455D03*
D10*
X1147445Y333930D03*
X1147445Y323930D03*
X1147445Y344250D03*
X1147445Y354250D03*
D19*
X1139190Y257285D03*
X1139190Y239285D03*
D10*
X1155700Y227250D03*
X1155700Y217250D03*
X1195070Y185500D03*
X1195070Y195500D03*
D20*
X1176940Y133900D03*
D21*
X1159440Y198755D03*
X1182440Y198755D03*
D10*
X1175940Y185420D03*
X1165940Y185420D03*
D18*
X1159425Y324485D03*
X1171025Y324485D03*
D10*
X1310085Y350520D03*
X1320085Y350520D03*
D11*
X1323180Y320700D03*
X1323180Y339700D03*
X1302180Y330200D03*
D10*
X1303735Y309880D03*
X1313735Y309880D03*
X1303735Y299720D03*
X1313735Y299720D03*
D12*
X1330200Y32455D03*
D13*
X1320200Y7455D03*
X1315200Y7455D03*
D12*
X1235200Y32455D03*
D13*
X1310200Y7455D03*
X1305200Y7455D03*
X1300200Y7455D03*
X1295200Y7455D03*
X1290200Y7455D03*
X1285200Y7455D03*
X1280200Y7455D03*
X1275200Y7455D03*
X1270200Y7455D03*
X1265200Y7455D03*
X1260200Y7455D03*
X1255200Y7455D03*
X1250200Y7455D03*
X1245200Y7455D03*
D10*
X1237615Y389335D03*
X1237615Y399335D03*
X1327785Y389335D03*
X1327785Y399335D03*
D14*
X1267820Y280390D03*
X1277820Y280390D03*
X1282820Y280390D03*
X1287820Y280390D03*
X1292820Y280390D03*
X1297820Y280390D03*
X1302820Y280390D03*
X1307820Y280390D03*
X1272820Y280390D03*
X1307820Y275390D03*
X1307820Y270390D03*
X1307820Y265390D03*
X1307820Y260390D03*
X1307820Y255390D03*
X1307820Y250390D03*
X1307820Y245390D03*
X1307820Y240390D03*
X1302820Y240390D03*
X1297820Y240390D03*
X1292820Y240390D03*
X1287820Y240390D03*
X1282820Y240390D03*
X1277820Y240390D03*
X1272820Y240390D03*
X1267820Y240390D03*
X1267820Y245390D03*
X1267820Y250390D03*
X1267820Y255390D03*
X1267820Y260390D03*
X1267820Y265390D03*
X1267820Y270390D03*
X1267820Y275390D03*
X1277820Y270390D03*
X1282820Y270390D03*
X1287820Y270390D03*
X1292820Y270390D03*
X1297820Y270390D03*
X1297820Y260390D03*
X1297820Y255390D03*
X1297820Y250390D03*
X1292820Y250390D03*
X1287820Y250390D03*
X1282820Y250390D03*
X1277820Y250390D03*
X1277820Y255390D03*
X1277820Y260390D03*
X1277820Y265390D03*
X1282820Y265390D03*
X1292820Y265390D03*
X1292820Y255390D03*
X1282820Y255390D03*
D15*
X1296450Y367030D03*
X1268950Y367030D03*
D16*
X1282700Y351780D03*
X1282700Y382280D03*
D10*
X1250950Y268050D03*
X1250950Y278050D03*
D17*
X1287980Y222250D03*
X1312980Y222250D03*
D18*
X1282785Y338455D03*
X1271185Y338455D03*
D10*
X1259205Y333930D03*
X1259205Y323930D03*
X1259205Y344250D03*
X1259205Y354250D03*
D19*
X1250950Y257285D03*
X1250950Y239285D03*
D10*
X1267460Y227250D03*
X1267460Y217250D03*
X1306830Y185500D03*
X1306830Y195500D03*
D20*
X1288700Y133900D03*
D21*
X1271200Y198755D03*
X1294200Y198755D03*
D10*
X1287700Y185420D03*
X1277700Y185420D03*
D18*
X1271185Y324485D03*
X1282785Y324485D03*
D10*
X1421845Y350520D03*
X1431845Y350520D03*
D11*
X1434940Y320700D03*
X1434940Y339700D03*
X1413940Y330200D03*
D10*
X1415495Y309880D03*
X1425495Y309880D03*
X1415495Y299720D03*
X1425495Y299720D03*
D12*
X1441960Y32455D03*
D13*
X1431960Y7455D03*
X1426960Y7455D03*
D12*
X1346960Y32455D03*
D13*
X1421960Y7455D03*
X1416960Y7455D03*
X1411960Y7455D03*
X1406960Y7455D03*
X1401960Y7455D03*
X1396960Y7455D03*
X1391960Y7455D03*
X1386960Y7455D03*
X1381960Y7455D03*
X1376960Y7455D03*
X1371960Y7455D03*
X1366960Y7455D03*
X1361960Y7455D03*
X1356960Y7455D03*
D10*
X1349375Y389335D03*
X1349375Y399335D03*
X1439545Y389335D03*
X1439545Y399335D03*
D14*
X1379580Y280390D03*
X1389580Y280390D03*
X1394580Y280390D03*
X1399580Y280390D03*
X1404580Y280390D03*
X1409580Y280390D03*
X1414580Y280390D03*
X1419580Y280390D03*
X1384580Y280390D03*
X1419580Y275390D03*
X1419580Y270390D03*
X1419580Y265390D03*
X1419580Y260390D03*
X1419580Y255390D03*
X1419580Y250390D03*
X1419580Y245390D03*
X1419580Y240390D03*
X1414580Y240390D03*
X1409580Y240390D03*
X1404580Y240390D03*
X1399580Y240390D03*
X1394580Y240390D03*
X1389580Y240390D03*
X1384580Y240390D03*
X1379580Y240390D03*
X1379580Y245390D03*
X1379580Y250390D03*
X1379580Y255390D03*
X1379580Y260390D03*
X1379580Y265390D03*
X1379580Y270390D03*
X1379580Y275390D03*
X1389580Y270390D03*
X1394580Y270390D03*
X1399580Y270390D03*
X1404580Y270390D03*
X1409580Y270390D03*
X1409580Y260390D03*
X1409580Y255390D03*
X1409580Y250390D03*
X1404580Y250390D03*
X1399580Y250390D03*
X1394580Y250390D03*
X1389580Y250390D03*
X1389580Y255390D03*
X1389580Y260390D03*
X1389580Y265390D03*
X1394580Y265390D03*
X1404580Y265390D03*
X1404580Y255390D03*
X1394580Y255390D03*
D15*
X1408210Y367030D03*
X1380710Y367030D03*
D16*
X1394460Y351780D03*
X1394460Y382280D03*
D10*
X1362710Y268050D03*
X1362710Y278050D03*
D17*
X1399740Y222250D03*
X1424740Y222250D03*
D18*
X1394545Y338455D03*
X1382945Y338455D03*
D10*
X1370965Y333930D03*
X1370965Y323930D03*
X1370965Y344250D03*
X1370965Y354250D03*
D19*
X1362710Y257285D03*
X1362710Y239285D03*
D10*
X1379220Y227250D03*
X1379220Y217250D03*
X1418590Y185500D03*
X1418590Y195500D03*
D20*
X1400460Y133900D03*
D21*
X1382960Y198755D03*
X1405960Y198755D03*
D10*
X1399460Y185420D03*
X1389460Y185420D03*
D18*
X1382945Y324485D03*
X1394545Y324485D03*
D10*
X1533605Y350520D03*
X1543605Y350520D03*
D11*
X1546700Y320700D03*
X1546700Y339700D03*
X1525700Y330200D03*
D10*
X1527255Y309880D03*
X1537255Y309880D03*
X1527255Y299720D03*
X1537255Y299720D03*
D12*
X1553720Y32455D03*
D13*
X1543720Y7455D03*
X1538720Y7455D03*
D12*
X1458720Y32455D03*
D13*
X1533720Y7455D03*
X1528720Y7455D03*
X1523720Y7455D03*
X1518720Y7455D03*
X1513720Y7455D03*
X1508720Y7455D03*
X1503720Y7455D03*
X1498720Y7455D03*
X1493720Y7455D03*
X1488720Y7455D03*
X1483720Y7455D03*
X1478720Y7455D03*
X1473720Y7455D03*
X1468720Y7455D03*
D10*
X1461135Y389335D03*
X1461135Y399335D03*
X1551305Y389335D03*
X1551305Y399335D03*
D14*
X1491340Y280390D03*
X1501340Y280390D03*
X1506340Y280390D03*
X1511340Y280390D03*
X1516340Y280390D03*
X1521340Y280390D03*
X1526340Y280390D03*
X1531340Y280390D03*
X1496340Y280390D03*
X1531340Y275390D03*
X1531340Y270390D03*
X1531340Y265390D03*
X1531340Y260390D03*
X1531340Y255390D03*
X1531340Y250390D03*
X1531340Y245390D03*
X1531340Y240390D03*
X1526340Y240390D03*
X1521340Y240390D03*
X1516340Y240390D03*
X1511340Y240390D03*
X1506340Y240390D03*
X1501340Y240390D03*
X1496340Y240390D03*
X1491340Y240390D03*
X1491340Y245390D03*
X1491340Y250390D03*
X1491340Y255390D03*
X1491340Y260390D03*
X1491340Y265390D03*
X1491340Y270390D03*
X1491340Y275390D03*
X1501340Y270390D03*
X1506340Y270390D03*
X1511340Y270390D03*
X1516340Y270390D03*
X1521340Y270390D03*
X1521340Y260390D03*
X1521340Y255390D03*
X1521340Y250390D03*
X1516340Y250390D03*
X1511340Y250390D03*
X1506340Y250390D03*
X1501340Y250390D03*
X1501340Y255390D03*
X1501340Y260390D03*
X1501340Y265390D03*
X1506340Y265390D03*
X1516340Y265390D03*
X1516340Y255390D03*
X1506340Y255390D03*
D15*
X1519970Y367030D03*
X1492470Y367030D03*
D16*
X1506220Y351780D03*
X1506220Y382280D03*
D10*
X1474470Y268050D03*
X1474470Y278050D03*
D17*
X1511500Y222250D03*
X1536500Y222250D03*
D18*
X1506305Y338455D03*
X1494705Y338455D03*
D10*
X1482725Y333930D03*
X1482725Y323930D03*
X1482725Y344250D03*
X1482725Y354250D03*
D19*
X1474470Y257285D03*
X1474470Y239285D03*
D10*
X1490980Y227250D03*
X1490980Y217250D03*
X1530350Y185500D03*
X1530350Y195500D03*
D20*
X1512220Y133900D03*
D21*
X1494720Y198755D03*
X1517720Y198755D03*
D10*
X1511220Y185420D03*
X1501220Y185420D03*
D18*
X1494705Y324485D03*
X1506305Y324485D03*
D10*
X1645365Y350520D03*
X1655365Y350520D03*
D11*
X1658460Y320700D03*
X1658460Y339700D03*
X1637460Y330200D03*
D10*
X1639015Y309880D03*
X1649015Y309880D03*
X1639015Y299720D03*
X1649015Y299720D03*
D12*
X1665480Y32455D03*
D13*
X1655480Y7455D03*
X1650480Y7455D03*
D12*
X1570480Y32455D03*
D13*
X1645480Y7455D03*
X1640480Y7455D03*
X1635480Y7455D03*
X1630480Y7455D03*
X1625480Y7455D03*
X1620480Y7455D03*
X1615480Y7455D03*
X1610480Y7455D03*
X1605480Y7455D03*
X1600480Y7455D03*
X1595480Y7455D03*
X1590480Y7455D03*
X1585480Y7455D03*
X1580480Y7455D03*
D10*
X1572895Y389335D03*
X1572895Y399335D03*
X1663065Y389335D03*
X1663065Y399335D03*
D14*
X1603100Y280390D03*
X1613100Y280390D03*
X1618100Y280390D03*
X1623100Y280390D03*
X1628100Y280390D03*
X1633100Y280390D03*
X1638100Y280390D03*
X1643100Y280390D03*
X1608100Y280390D03*
X1643100Y275390D03*
X1643100Y270390D03*
X1643100Y265390D03*
X1643100Y260390D03*
X1643100Y255390D03*
X1643100Y250390D03*
X1643100Y245390D03*
X1643100Y240390D03*
X1638100Y240390D03*
X1633100Y240390D03*
X1628100Y240390D03*
X1623100Y240390D03*
X1618100Y240390D03*
X1613100Y240390D03*
X1608100Y240390D03*
X1603100Y240390D03*
X1603100Y245390D03*
X1603100Y250390D03*
X1603100Y255390D03*
X1603100Y260390D03*
X1603100Y265390D03*
X1603100Y270390D03*
X1603100Y275390D03*
X1613100Y270390D03*
X1618100Y270390D03*
X1623100Y270390D03*
X1628100Y270390D03*
X1633100Y270390D03*
X1633100Y260390D03*
X1633100Y255390D03*
X1633100Y250390D03*
X1628100Y250390D03*
X1623100Y250390D03*
X1618100Y250390D03*
X1613100Y250390D03*
X1613100Y255390D03*
X1613100Y260390D03*
X1613100Y265390D03*
X1618100Y265390D03*
X1628100Y265390D03*
X1628100Y255390D03*
X1618100Y255390D03*
D15*
X1631730Y367030D03*
X1604230Y367030D03*
D16*
X1617980Y351780D03*
X1617980Y382280D03*
D10*
X1586230Y268050D03*
X1586230Y278050D03*
D17*
X1623260Y222250D03*
X1648260Y222250D03*
D18*
X1618065Y338455D03*
X1606465Y338455D03*
D10*
X1594485Y333930D03*
X1594485Y323930D03*
X1594485Y344250D03*
X1594485Y354250D03*
D19*
X1586230Y257285D03*
X1586230Y239285D03*
D10*
X1602740Y227250D03*
X1602740Y217250D03*
X1642110Y185500D03*
X1642110Y195500D03*
D20*
X1623980Y133900D03*
D21*
X1606480Y198755D03*
X1629480Y198755D03*
D10*
X1622980Y185420D03*
X1612980Y185420D03*
D18*
X1606465Y324485D03*
X1618065Y324485D03*
D10*
X1757125Y350520D03*
X1767125Y350520D03*
D11*
X1770220Y320700D03*
X1770220Y339700D03*
X1749220Y330200D03*
D10*
X1750775Y309880D03*
X1760775Y309880D03*
X1750775Y299720D03*
X1760775Y299720D03*
D12*
X1777240Y32455D03*
D13*
X1767240Y7455D03*
X1762240Y7455D03*
D12*
X1682240Y32455D03*
D13*
X1757240Y7455D03*
X1752240Y7455D03*
X1747240Y7455D03*
X1742240Y7455D03*
X1737240Y7455D03*
X1732240Y7455D03*
X1727240Y7455D03*
X1722240Y7455D03*
X1717240Y7455D03*
X1712240Y7455D03*
X1707240Y7455D03*
X1702240Y7455D03*
X1697240Y7455D03*
X1692240Y7455D03*
D10*
X1684655Y389335D03*
X1684655Y399335D03*
X1774825Y389335D03*
X1774825Y399335D03*
D14*
X1714860Y280390D03*
X1724860Y280390D03*
X1729860Y280390D03*
X1734860Y280390D03*
X1739860Y280390D03*
X1744860Y280390D03*
X1749860Y280390D03*
X1754860Y280390D03*
X1719860Y280390D03*
X1754860Y275390D03*
X1754860Y270390D03*
X1754860Y265390D03*
X1754860Y260390D03*
X1754860Y255390D03*
X1754860Y250390D03*
X1754860Y245390D03*
X1754860Y240390D03*
X1749860Y240390D03*
X1744860Y240390D03*
X1739860Y240390D03*
X1734860Y240390D03*
X1729860Y240390D03*
X1724860Y240390D03*
X1719860Y240390D03*
X1714860Y240390D03*
X1714860Y245390D03*
X1714860Y250390D03*
X1714860Y255390D03*
X1714860Y260390D03*
X1714860Y265390D03*
X1714860Y270390D03*
X1714860Y275390D03*
X1724860Y270390D03*
X1729860Y270390D03*
X1734860Y270390D03*
X1739860Y270390D03*
X1744860Y270390D03*
X1744860Y260390D03*
X1744860Y255390D03*
X1744860Y250390D03*
X1739860Y250390D03*
X1734860Y250390D03*
X1729860Y250390D03*
X1724860Y250390D03*
X1724860Y255390D03*
X1724860Y260390D03*
X1724860Y265390D03*
X1729860Y265390D03*
X1739860Y265390D03*
X1739860Y255390D03*
X1729860Y255390D03*
D15*
X1743490Y367030D03*
X1715990Y367030D03*
D16*
X1729740Y351780D03*
X1729740Y382280D03*
D10*
X1697990Y268050D03*
X1697990Y278050D03*
D17*
X1735020Y222250D03*
X1760020Y222250D03*
D18*
X1729825Y338455D03*
X1718225Y338455D03*
D10*
X1706245Y333930D03*
X1706245Y323930D03*
X1706245Y344250D03*
X1706245Y354250D03*
D19*
X1697990Y257285D03*
X1697990Y239285D03*
D10*
X1714500Y227250D03*
X1714500Y217250D03*
X1753870Y185500D03*
X1753870Y195500D03*
D20*
X1735740Y133900D03*
D21*
X1718240Y198755D03*
X1741240Y198755D03*
D10*
X1734740Y185420D03*
X1724740Y185420D03*
D18*
X1718225Y324485D03*
X1729825Y324485D03*
D10*
X80725Y762000D03*
X90725Y762000D03*
D11*
X93820Y732180D03*
X93820Y751180D03*
X72820Y741680D03*
D10*
X74375Y721360D03*
X84375Y721360D03*
X74375Y711200D03*
X84375Y711200D03*
D12*
X100840Y443935D03*
D13*
X90840Y418935D03*
X85840Y418935D03*
D12*
X5840Y443935D03*
D13*
X80840Y418935D03*
X75840Y418935D03*
X70840Y418935D03*
X65840Y418935D03*
X60840Y418935D03*
X55840Y418935D03*
X50840Y418935D03*
X45840Y418935D03*
X40840Y418935D03*
X35840Y418935D03*
X30840Y418935D03*
X25840Y418935D03*
X20840Y418935D03*
X15840Y418935D03*
D10*
X8255Y800815D03*
X8255Y810815D03*
X98425Y800815D03*
X98425Y810815D03*
D14*
X38460Y691870D03*
X48460Y691870D03*
X53460Y691870D03*
X58460Y691870D03*
X63460Y691870D03*
X68460Y691870D03*
X73460Y691870D03*
X78460Y691870D03*
X43460Y691870D03*
X78460Y686870D03*
X78460Y681870D03*
X78460Y676870D03*
X78460Y671870D03*
X78460Y666870D03*
X78460Y661870D03*
X78460Y656870D03*
X78460Y651870D03*
X73460Y651870D03*
X68460Y651870D03*
X63460Y651870D03*
X58460Y651870D03*
X53460Y651870D03*
X48460Y651870D03*
X43460Y651870D03*
X38460Y651870D03*
X38460Y656870D03*
X38460Y661870D03*
X38460Y666870D03*
X38460Y671870D03*
X38460Y676870D03*
X38460Y681870D03*
X38460Y686870D03*
X48460Y681870D03*
X53460Y681870D03*
X58460Y681870D03*
X63460Y681870D03*
X68460Y681870D03*
X68460Y671870D03*
X68460Y666870D03*
X68460Y661870D03*
X63460Y661870D03*
X58460Y661870D03*
X53460Y661870D03*
X48460Y661870D03*
X48460Y666870D03*
X48460Y671870D03*
X48460Y676870D03*
X53460Y676870D03*
X63460Y676870D03*
X63460Y666870D03*
X53460Y666870D03*
D15*
X67090Y778510D03*
X39590Y778510D03*
D16*
X53340Y763260D03*
X53340Y793760D03*
D10*
X21590Y679530D03*
X21590Y689530D03*
D17*
X58620Y633730D03*
X83620Y633730D03*
D18*
X53425Y749935D03*
X41825Y749935D03*
D10*
X29845Y745410D03*
X29845Y735410D03*
X29845Y755730D03*
X29845Y765730D03*
D19*
X21590Y668765D03*
X21590Y650765D03*
D10*
X38100Y638730D03*
X38100Y628730D03*
X77470Y596980D03*
X77470Y606980D03*
D20*
X59340Y545380D03*
D21*
X41840Y610235D03*
X64840Y610235D03*
D10*
X58340Y596900D03*
X48340Y596900D03*
D18*
X41825Y735965D03*
X53425Y735965D03*
D10*
X192485Y762000D03*
X202485Y762000D03*
D11*
X205580Y732180D03*
X205580Y751180D03*
X184580Y741680D03*
D10*
X186135Y721360D03*
X196135Y721360D03*
X186135Y711200D03*
X196135Y711200D03*
D12*
X212600Y443935D03*
D13*
X202600Y418935D03*
X197600Y418935D03*
D12*
X117600Y443935D03*
D13*
X192600Y418935D03*
X187600Y418935D03*
X182600Y418935D03*
X177600Y418935D03*
X172600Y418935D03*
X167600Y418935D03*
X162600Y418935D03*
X157600Y418935D03*
X152600Y418935D03*
X147600Y418935D03*
X142600Y418935D03*
X137600Y418935D03*
X132600Y418935D03*
X127600Y418935D03*
D10*
X120015Y800815D03*
X120015Y810815D03*
X210185Y800815D03*
X210185Y810815D03*
D14*
X150220Y691870D03*
X160220Y691870D03*
X165220Y691870D03*
X170220Y691870D03*
X175220Y691870D03*
X180220Y691870D03*
X185220Y691870D03*
X190220Y691870D03*
X155220Y691870D03*
X190220Y686870D03*
X190220Y681870D03*
X190220Y676870D03*
X190220Y671870D03*
X190220Y666870D03*
X190220Y661870D03*
X190220Y656870D03*
X190220Y651870D03*
X185220Y651870D03*
X180220Y651870D03*
X175220Y651870D03*
X170220Y651870D03*
X165220Y651870D03*
X160220Y651870D03*
X155220Y651870D03*
X150220Y651870D03*
X150220Y656870D03*
X150220Y661870D03*
X150220Y666870D03*
X150220Y671870D03*
X150220Y676870D03*
X150220Y681870D03*
X150220Y686870D03*
X160220Y681870D03*
X165220Y681870D03*
X170220Y681870D03*
X175220Y681870D03*
X180220Y681870D03*
X180220Y671870D03*
X180220Y666870D03*
X180220Y661870D03*
X175220Y661870D03*
X170220Y661870D03*
X165220Y661870D03*
X160220Y661870D03*
X160220Y666870D03*
X160220Y671870D03*
X160220Y676870D03*
X165220Y676870D03*
X175220Y676870D03*
X175220Y666870D03*
X165220Y666870D03*
D15*
X178850Y778510D03*
X151350Y778510D03*
D16*
X165100Y763260D03*
X165100Y793760D03*
D10*
X133350Y679530D03*
X133350Y689530D03*
D17*
X170380Y633730D03*
X195380Y633730D03*
D18*
X165185Y749935D03*
X153585Y749935D03*
D10*
X141605Y745410D03*
X141605Y735410D03*
X141605Y755730D03*
X141605Y765730D03*
D19*
X133350Y668765D03*
X133350Y650765D03*
D10*
X149860Y638730D03*
X149860Y628730D03*
X189230Y596980D03*
X189230Y606980D03*
D20*
X171100Y545380D03*
D21*
X153600Y610235D03*
X176600Y610235D03*
D10*
X170100Y596900D03*
X160100Y596900D03*
D18*
X153585Y735965D03*
X165185Y735965D03*
D10*
X304245Y762000D03*
X314245Y762000D03*
D11*
X317340Y732180D03*
X317340Y751180D03*
X296340Y741680D03*
D10*
X297895Y721360D03*
X307895Y721360D03*
X297895Y711200D03*
X307895Y711200D03*
D12*
X324360Y443935D03*
D13*
X314360Y418935D03*
X309360Y418935D03*
D12*
X229360Y443935D03*
D13*
X304360Y418935D03*
X299360Y418935D03*
X294360Y418935D03*
X289360Y418935D03*
X284360Y418935D03*
X279360Y418935D03*
X274360Y418935D03*
X269360Y418935D03*
X264360Y418935D03*
X259360Y418935D03*
X254360Y418935D03*
X249360Y418935D03*
X244360Y418935D03*
X239360Y418935D03*
D10*
X231775Y800815D03*
X231775Y810815D03*
X321945Y800815D03*
X321945Y810815D03*
D14*
X261980Y691870D03*
X271980Y691870D03*
X276980Y691870D03*
X281980Y691870D03*
X286980Y691870D03*
X291980Y691870D03*
X296980Y691870D03*
X301980Y691870D03*
X266980Y691870D03*
X301980Y686870D03*
X301980Y681870D03*
X301980Y676870D03*
X301980Y671870D03*
X301980Y666870D03*
X301980Y661870D03*
X301980Y656870D03*
X301980Y651870D03*
X296980Y651870D03*
X291980Y651870D03*
X286980Y651870D03*
X281980Y651870D03*
X276980Y651870D03*
X271980Y651870D03*
X266980Y651870D03*
X261980Y651870D03*
X261980Y656870D03*
X261980Y661870D03*
X261980Y666870D03*
X261980Y671870D03*
X261980Y676870D03*
X261980Y681870D03*
X261980Y686870D03*
X271980Y681870D03*
X276980Y681870D03*
X281980Y681870D03*
X286980Y681870D03*
X291980Y681870D03*
X291980Y671870D03*
X291980Y666870D03*
X291980Y661870D03*
X286980Y661870D03*
X281980Y661870D03*
X276980Y661870D03*
X271980Y661870D03*
X271980Y666870D03*
X271980Y671870D03*
X271980Y676870D03*
X276980Y676870D03*
X286980Y676870D03*
X286980Y666870D03*
X276980Y666870D03*
D15*
X290610Y778510D03*
X263110Y778510D03*
D16*
X276860Y763260D03*
X276860Y793760D03*
D10*
X245110Y679530D03*
X245110Y689530D03*
D17*
X282140Y633730D03*
X307140Y633730D03*
D18*
X276945Y749935D03*
X265345Y749935D03*
D10*
X253365Y745410D03*
X253365Y735410D03*
X253365Y755730D03*
X253365Y765730D03*
D19*
X245110Y668765D03*
X245110Y650765D03*
D10*
X261620Y638730D03*
X261620Y628730D03*
X300990Y596980D03*
X300990Y606980D03*
D20*
X282860Y545380D03*
D21*
X265360Y610235D03*
X288360Y610235D03*
D10*
X281860Y596900D03*
X271860Y596900D03*
D18*
X265345Y735965D03*
X276945Y735965D03*
D10*
X416005Y762000D03*
X426005Y762000D03*
D11*
X429100Y732180D03*
X429100Y751180D03*
X408100Y741680D03*
D10*
X409655Y721360D03*
X419655Y721360D03*
X409655Y711200D03*
X419655Y711200D03*
D12*
X436120Y443935D03*
D13*
X426120Y418935D03*
X421120Y418935D03*
D12*
X341120Y443935D03*
D13*
X416120Y418935D03*
X411120Y418935D03*
X406120Y418935D03*
X401120Y418935D03*
X396120Y418935D03*
X391120Y418935D03*
X386120Y418935D03*
X381120Y418935D03*
X376120Y418935D03*
X371120Y418935D03*
X366120Y418935D03*
X361120Y418935D03*
X356120Y418935D03*
X351120Y418935D03*
D10*
X343535Y800815D03*
X343535Y810815D03*
X433705Y800815D03*
X433705Y810815D03*
D14*
X373740Y691870D03*
X383740Y691870D03*
X388740Y691870D03*
X393740Y691870D03*
X398740Y691870D03*
X403740Y691870D03*
X408740Y691870D03*
X413740Y691870D03*
X378740Y691870D03*
X413740Y686870D03*
X413740Y681870D03*
X413740Y676870D03*
X413740Y671870D03*
X413740Y666870D03*
X413740Y661870D03*
X413740Y656870D03*
X413740Y651870D03*
X408740Y651870D03*
X403740Y651870D03*
X398740Y651870D03*
X393740Y651870D03*
X388740Y651870D03*
X383740Y651870D03*
X378740Y651870D03*
X373740Y651870D03*
X373740Y656870D03*
X373740Y661870D03*
X373740Y666870D03*
X373740Y671870D03*
X373740Y676870D03*
X373740Y681870D03*
X373740Y686870D03*
X383740Y681870D03*
X388740Y681870D03*
X393740Y681870D03*
X398740Y681870D03*
X403740Y681870D03*
X403740Y671870D03*
X403740Y666870D03*
X403740Y661870D03*
X398740Y661870D03*
X393740Y661870D03*
X388740Y661870D03*
X383740Y661870D03*
X383740Y666870D03*
X383740Y671870D03*
X383740Y676870D03*
X388740Y676870D03*
X398740Y676870D03*
X398740Y666870D03*
X388740Y666870D03*
D15*
X402370Y778510D03*
X374870Y778510D03*
D16*
X388620Y763260D03*
X388620Y793760D03*
D10*
X356870Y679530D03*
X356870Y689530D03*
D17*
X393900Y633730D03*
X418900Y633730D03*
D18*
X388705Y749935D03*
X377105Y749935D03*
D10*
X365125Y745410D03*
X365125Y735410D03*
X365125Y755730D03*
X365125Y765730D03*
D19*
X356870Y668765D03*
X356870Y650765D03*
D10*
X373380Y638730D03*
X373380Y628730D03*
X412750Y596980D03*
X412750Y606980D03*
D20*
X394620Y545380D03*
D21*
X377120Y610235D03*
X400120Y610235D03*
D10*
X393620Y596900D03*
X383620Y596900D03*
D18*
X377105Y735965D03*
X388705Y735965D03*
D10*
X527765Y762000D03*
X537765Y762000D03*
D11*
X540860Y732180D03*
X540860Y751180D03*
X519860Y741680D03*
D10*
X521415Y721360D03*
X531415Y721360D03*
X521415Y711200D03*
X531415Y711200D03*
D12*
X547880Y443935D03*
D13*
X537880Y418935D03*
X532880Y418935D03*
D12*
X452880Y443935D03*
D13*
X527880Y418935D03*
X522880Y418935D03*
X517880Y418935D03*
X512880Y418935D03*
X507880Y418935D03*
X502880Y418935D03*
X497880Y418935D03*
X492880Y418935D03*
X487880Y418935D03*
X482880Y418935D03*
X477880Y418935D03*
X472880Y418935D03*
X467880Y418935D03*
X462880Y418935D03*
D10*
X455295Y800815D03*
X455295Y810815D03*
X545465Y800815D03*
X545465Y810815D03*
D14*
X485500Y691870D03*
X495500Y691870D03*
X500500Y691870D03*
X505500Y691870D03*
X510500Y691870D03*
X515500Y691870D03*
X520500Y691870D03*
X525500Y691870D03*
X490500Y691870D03*
X525500Y686870D03*
X525500Y681870D03*
X525500Y676870D03*
X525500Y671870D03*
X525500Y666870D03*
X525500Y661870D03*
X525500Y656870D03*
X525500Y651870D03*
X520500Y651870D03*
X515500Y651870D03*
X510500Y651870D03*
X505500Y651870D03*
X500500Y651870D03*
X495500Y651870D03*
X490500Y651870D03*
X485500Y651870D03*
X485500Y656870D03*
X485500Y661870D03*
X485500Y666870D03*
X485500Y671870D03*
X485500Y676870D03*
X485500Y681870D03*
X485500Y686870D03*
X495500Y681870D03*
X500500Y681870D03*
X505500Y681870D03*
X510500Y681870D03*
X515500Y681870D03*
X515500Y671870D03*
X515500Y666870D03*
X515500Y661870D03*
X510500Y661870D03*
X505500Y661870D03*
X500500Y661870D03*
X495500Y661870D03*
X495500Y666870D03*
X495500Y671870D03*
X495500Y676870D03*
X500500Y676870D03*
X510500Y676870D03*
X510500Y666870D03*
X500500Y666870D03*
D15*
X514130Y778510D03*
X486630Y778510D03*
D16*
X500380Y763260D03*
X500380Y793760D03*
D10*
X468630Y679530D03*
X468630Y689530D03*
D17*
X505660Y633730D03*
X530660Y633730D03*
D18*
X500465Y749935D03*
X488865Y749935D03*
D10*
X476885Y745410D03*
X476885Y735410D03*
X476885Y755730D03*
X476885Y765730D03*
D19*
X468630Y668765D03*
X468630Y650765D03*
D10*
X485140Y638730D03*
X485140Y628730D03*
X524510Y596980D03*
X524510Y606980D03*
D20*
X506380Y545380D03*
D21*
X488880Y610235D03*
X511880Y610235D03*
D10*
X505380Y596900D03*
X495380Y596900D03*
D18*
X488865Y735965D03*
X500465Y735965D03*
D10*
X639525Y762000D03*
X649525Y762000D03*
D11*
X652620Y732180D03*
X652620Y751180D03*
X631620Y741680D03*
D10*
X633175Y721360D03*
X643175Y721360D03*
X633175Y711200D03*
X643175Y711200D03*
D12*
X659640Y443935D03*
D13*
X649640Y418935D03*
X644640Y418935D03*
D12*
X564640Y443935D03*
D13*
X639640Y418935D03*
X634640Y418935D03*
X629640Y418935D03*
X624640Y418935D03*
X619640Y418935D03*
X614640Y418935D03*
X609640Y418935D03*
X604640Y418935D03*
X599640Y418935D03*
X594640Y418935D03*
X589640Y418935D03*
X584640Y418935D03*
X579640Y418935D03*
X574640Y418935D03*
D10*
X567055Y800815D03*
X567055Y810815D03*
X657225Y800815D03*
X657225Y810815D03*
D14*
X597260Y691870D03*
X607260Y691870D03*
X612260Y691870D03*
X617260Y691870D03*
X622260Y691870D03*
X627260Y691870D03*
X632260Y691870D03*
X637260Y691870D03*
X602260Y691870D03*
X637260Y686870D03*
X637260Y681870D03*
X637260Y676870D03*
X637260Y671870D03*
X637260Y666870D03*
X637260Y661870D03*
X637260Y656870D03*
X637260Y651870D03*
X632260Y651870D03*
X627260Y651870D03*
X622260Y651870D03*
X617260Y651870D03*
X612260Y651870D03*
X607260Y651870D03*
X602260Y651870D03*
X597260Y651870D03*
X597260Y656870D03*
X597260Y661870D03*
X597260Y666870D03*
X597260Y671870D03*
X597260Y676870D03*
X597260Y681870D03*
X597260Y686870D03*
X607260Y681870D03*
X612260Y681870D03*
X617260Y681870D03*
X622260Y681870D03*
X627260Y681870D03*
X627260Y671870D03*
X627260Y666870D03*
X627260Y661870D03*
X622260Y661870D03*
X617260Y661870D03*
X612260Y661870D03*
X607260Y661870D03*
X607260Y666870D03*
X607260Y671870D03*
X607260Y676870D03*
X612260Y676870D03*
X622260Y676870D03*
X622260Y666870D03*
X612260Y666870D03*
D15*
X625890Y778510D03*
X598390Y778510D03*
D16*
X612140Y763260D03*
X612140Y793760D03*
D10*
X580390Y679530D03*
X580390Y689530D03*
D17*
X617420Y633730D03*
X642420Y633730D03*
D18*
X612225Y749935D03*
X600625Y749935D03*
D10*
X588645Y745410D03*
X588645Y735410D03*
X588645Y755730D03*
X588645Y765730D03*
D19*
X580390Y668765D03*
X580390Y650765D03*
D10*
X596900Y638730D03*
X596900Y628730D03*
X636270Y596980D03*
X636270Y606980D03*
D20*
X618140Y545380D03*
D21*
X600640Y610235D03*
X623640Y610235D03*
D10*
X617140Y596900D03*
X607140Y596900D03*
D18*
X600625Y735965D03*
X612225Y735965D03*
D10*
X751285Y762000D03*
X761285Y762000D03*
D11*
X764380Y732180D03*
X764380Y751180D03*
X743380Y741680D03*
D10*
X744935Y721360D03*
X754935Y721360D03*
X744935Y711200D03*
X754935Y711200D03*
D12*
X771400Y443935D03*
D13*
X761400Y418935D03*
X756400Y418935D03*
D12*
X676400Y443935D03*
D13*
X751400Y418935D03*
X746400Y418935D03*
X741400Y418935D03*
X736400Y418935D03*
X731400Y418935D03*
X726400Y418935D03*
X721400Y418935D03*
X716400Y418935D03*
X711400Y418935D03*
X706400Y418935D03*
X701400Y418935D03*
X696400Y418935D03*
X691400Y418935D03*
X686400Y418935D03*
D10*
X678815Y800815D03*
X678815Y810815D03*
X768985Y800815D03*
X768985Y810815D03*
D14*
X709020Y691870D03*
X719020Y691870D03*
X724020Y691870D03*
X729020Y691870D03*
X734020Y691870D03*
X739020Y691870D03*
X744020Y691870D03*
X749020Y691870D03*
X714020Y691870D03*
X749020Y686870D03*
X749020Y681870D03*
X749020Y676870D03*
X749020Y671870D03*
X749020Y666870D03*
X749020Y661870D03*
X749020Y656870D03*
X749020Y651870D03*
X744020Y651870D03*
X739020Y651870D03*
X734020Y651870D03*
X729020Y651870D03*
X724020Y651870D03*
X719020Y651870D03*
X714020Y651870D03*
X709020Y651870D03*
X709020Y656870D03*
X709020Y661870D03*
X709020Y666870D03*
X709020Y671870D03*
X709020Y676870D03*
X709020Y681870D03*
X709020Y686870D03*
X719020Y681870D03*
X724020Y681870D03*
X729020Y681870D03*
X734020Y681870D03*
X739020Y681870D03*
X739020Y671870D03*
X739020Y666870D03*
X739020Y661870D03*
X734020Y661870D03*
X729020Y661870D03*
X724020Y661870D03*
X719020Y661870D03*
X719020Y666870D03*
X719020Y671870D03*
X719020Y676870D03*
X724020Y676870D03*
X734020Y676870D03*
X734020Y666870D03*
X724020Y666870D03*
D15*
X737650Y778510D03*
X710150Y778510D03*
D16*
X723900Y763260D03*
X723900Y793760D03*
D10*
X692150Y679530D03*
X692150Y689530D03*
D17*
X729180Y633730D03*
X754180Y633730D03*
D18*
X723985Y749935D03*
X712385Y749935D03*
D10*
X700405Y745410D03*
X700405Y735410D03*
X700405Y755730D03*
X700405Y765730D03*
D19*
X692150Y668765D03*
X692150Y650765D03*
D10*
X708660Y638730D03*
X708660Y628730D03*
X748030Y596980D03*
X748030Y606980D03*
D20*
X729900Y545380D03*
D21*
X712400Y610235D03*
X735400Y610235D03*
D10*
X728900Y596900D03*
X718900Y596900D03*
D18*
X712385Y735965D03*
X723985Y735965D03*
D10*
X863045Y762000D03*
X873045Y762000D03*
D11*
X876140Y732180D03*
X876140Y751180D03*
X855140Y741680D03*
D10*
X856695Y721360D03*
X866695Y721360D03*
X856695Y711200D03*
X866695Y711200D03*
D12*
X883160Y443935D03*
D13*
X873160Y418935D03*
X868160Y418935D03*
D12*
X788160Y443935D03*
D13*
X863160Y418935D03*
X858160Y418935D03*
X853160Y418935D03*
X848160Y418935D03*
X843160Y418935D03*
X838160Y418935D03*
X833160Y418935D03*
X828160Y418935D03*
X823160Y418935D03*
X818160Y418935D03*
X813160Y418935D03*
X808160Y418935D03*
X803160Y418935D03*
X798160Y418935D03*
D10*
X790575Y800815D03*
X790575Y810815D03*
X880745Y800815D03*
X880745Y810815D03*
D14*
X820780Y691870D03*
X830780Y691870D03*
X835780Y691870D03*
X840780Y691870D03*
X845780Y691870D03*
X850780Y691870D03*
X855780Y691870D03*
X860780Y691870D03*
X825780Y691870D03*
X860780Y686870D03*
X860780Y681870D03*
X860780Y676870D03*
X860780Y671870D03*
X860780Y666870D03*
X860780Y661870D03*
X860780Y656870D03*
X860780Y651870D03*
X855780Y651870D03*
X850780Y651870D03*
X845780Y651870D03*
X840780Y651870D03*
X835780Y651870D03*
X830780Y651870D03*
X825780Y651870D03*
X820780Y651870D03*
X820780Y656870D03*
X820780Y661870D03*
X820780Y666870D03*
X820780Y671870D03*
X820780Y676870D03*
X820780Y681870D03*
X820780Y686870D03*
X830780Y681870D03*
X835780Y681870D03*
X840780Y681870D03*
X845780Y681870D03*
X850780Y681870D03*
X850780Y671870D03*
X850780Y666870D03*
X850780Y661870D03*
X845780Y661870D03*
X840780Y661870D03*
X835780Y661870D03*
X830780Y661870D03*
X830780Y666870D03*
X830780Y671870D03*
X830780Y676870D03*
X835780Y676870D03*
X845780Y676870D03*
X845780Y666870D03*
X835780Y666870D03*
D15*
X849410Y778510D03*
X821910Y778510D03*
D16*
X835660Y763260D03*
X835660Y793760D03*
D10*
X803910Y679530D03*
X803910Y689530D03*
D17*
X840940Y633730D03*
X865940Y633730D03*
D18*
X835745Y749935D03*
X824145Y749935D03*
D10*
X812165Y745410D03*
X812165Y735410D03*
X812165Y755730D03*
X812165Y765730D03*
D19*
X803910Y668765D03*
X803910Y650765D03*
D10*
X820420Y638730D03*
X820420Y628730D03*
X859790Y596980D03*
X859790Y606980D03*
D20*
X841660Y545380D03*
D21*
X824160Y610235D03*
X847160Y610235D03*
D10*
X840660Y596900D03*
X830660Y596900D03*
D18*
X824145Y735965D03*
X835745Y735965D03*
D10*
X974805Y762000D03*
X984805Y762000D03*
D11*
X987900Y732180D03*
X987900Y751180D03*
X966900Y741680D03*
D10*
X968455Y721360D03*
X978455Y721360D03*
X968455Y711200D03*
X978455Y711200D03*
D12*
X994920Y443935D03*
D13*
X984920Y418935D03*
X979920Y418935D03*
D12*
X899920Y443935D03*
D13*
X974920Y418935D03*
X969920Y418935D03*
X964920Y418935D03*
X959920Y418935D03*
X954920Y418935D03*
X949920Y418935D03*
X944920Y418935D03*
X939920Y418935D03*
X934920Y418935D03*
X929920Y418935D03*
X924920Y418935D03*
X919920Y418935D03*
X914920Y418935D03*
X909920Y418935D03*
D10*
X902335Y800815D03*
X902335Y810815D03*
X992505Y800815D03*
X992505Y810815D03*
D14*
X932540Y691870D03*
X942540Y691870D03*
X947540Y691870D03*
X952540Y691870D03*
X957540Y691870D03*
X962540Y691870D03*
X967540Y691870D03*
X972540Y691870D03*
X937540Y691870D03*
X972540Y686870D03*
X972540Y681870D03*
X972540Y676870D03*
X972540Y671870D03*
X972540Y666870D03*
X972540Y661870D03*
X972540Y656870D03*
X972540Y651870D03*
X967540Y651870D03*
X962540Y651870D03*
X957540Y651870D03*
X952540Y651870D03*
X947540Y651870D03*
X942540Y651870D03*
X937540Y651870D03*
X932540Y651870D03*
X932540Y656870D03*
X932540Y661870D03*
X932540Y666870D03*
X932540Y671870D03*
X932540Y676870D03*
X932540Y681870D03*
X932540Y686870D03*
X942540Y681870D03*
X947540Y681870D03*
X952540Y681870D03*
X957540Y681870D03*
X962540Y681870D03*
X962540Y671870D03*
X962540Y666870D03*
X962540Y661870D03*
X957540Y661870D03*
X952540Y661870D03*
X947540Y661870D03*
X942540Y661870D03*
X942540Y666870D03*
X942540Y671870D03*
X942540Y676870D03*
X947540Y676870D03*
X957540Y676870D03*
X957540Y666870D03*
X947540Y666870D03*
D15*
X961170Y778510D03*
X933670Y778510D03*
D16*
X947420Y763260D03*
X947420Y793760D03*
D10*
X915670Y679530D03*
X915670Y689530D03*
D17*
X952700Y633730D03*
X977700Y633730D03*
D18*
X947505Y749935D03*
X935905Y749935D03*
D10*
X923925Y745410D03*
X923925Y735410D03*
X923925Y755730D03*
X923925Y765730D03*
D19*
X915670Y668765D03*
X915670Y650765D03*
D10*
X932180Y638730D03*
X932180Y628730D03*
X971550Y596980D03*
X971550Y606980D03*
D20*
X953420Y545380D03*
D21*
X935920Y610235D03*
X958920Y610235D03*
D10*
X952420Y596900D03*
X942420Y596900D03*
D18*
X935905Y735965D03*
X947505Y735965D03*
D10*
X1086565Y762000D03*
X1096565Y762000D03*
D11*
X1099660Y732180D03*
X1099660Y751180D03*
X1078660Y741680D03*
D10*
X1080215Y721360D03*
X1090215Y721360D03*
X1080215Y711200D03*
X1090215Y711200D03*
D12*
X1106680Y443935D03*
D13*
X1096680Y418935D03*
X1091680Y418935D03*
D12*
X1011680Y443935D03*
D13*
X1086680Y418935D03*
X1081680Y418935D03*
X1076680Y418935D03*
X1071680Y418935D03*
X1066680Y418935D03*
X1061680Y418935D03*
X1056680Y418935D03*
X1051680Y418935D03*
X1046680Y418935D03*
X1041680Y418935D03*
X1036680Y418935D03*
X1031680Y418935D03*
X1026680Y418935D03*
X1021680Y418935D03*
D10*
X1014095Y800815D03*
X1014095Y810815D03*
X1104265Y800815D03*
X1104265Y810815D03*
D14*
X1044300Y691870D03*
X1054300Y691870D03*
X1059300Y691870D03*
X1064300Y691870D03*
X1069300Y691870D03*
X1074300Y691870D03*
X1079300Y691870D03*
X1084300Y691870D03*
X1049300Y691870D03*
X1084300Y686870D03*
X1084300Y681870D03*
X1084300Y676870D03*
X1084300Y671870D03*
X1084300Y666870D03*
X1084300Y661870D03*
X1084300Y656870D03*
X1084300Y651870D03*
X1079300Y651870D03*
X1074300Y651870D03*
X1069300Y651870D03*
X1064300Y651870D03*
X1059300Y651870D03*
X1054300Y651870D03*
X1049300Y651870D03*
X1044300Y651870D03*
X1044300Y656870D03*
X1044300Y661870D03*
X1044300Y666870D03*
X1044300Y671870D03*
X1044300Y676870D03*
X1044300Y681870D03*
X1044300Y686870D03*
X1054300Y681870D03*
X1059300Y681870D03*
X1064300Y681870D03*
X1069300Y681870D03*
X1074300Y681870D03*
X1074300Y671870D03*
X1074300Y666870D03*
X1074300Y661870D03*
X1069300Y661870D03*
X1064300Y661870D03*
X1059300Y661870D03*
X1054300Y661870D03*
X1054300Y666870D03*
X1054300Y671870D03*
X1054300Y676870D03*
X1059300Y676870D03*
X1069300Y676870D03*
X1069300Y666870D03*
X1059300Y666870D03*
D15*
X1072930Y778510D03*
X1045430Y778510D03*
D16*
X1059180Y763260D03*
X1059180Y793760D03*
D10*
X1027430Y679530D03*
X1027430Y689530D03*
D17*
X1064460Y633730D03*
X1089460Y633730D03*
D18*
X1059265Y749935D03*
X1047665Y749935D03*
D10*
X1035685Y745410D03*
X1035685Y735410D03*
X1035685Y755730D03*
X1035685Y765730D03*
D19*
X1027430Y668765D03*
X1027430Y650765D03*
D10*
X1043940Y638730D03*
X1043940Y628730D03*
X1083310Y596980D03*
X1083310Y606980D03*
D20*
X1065180Y545380D03*
D21*
X1047680Y610235D03*
X1070680Y610235D03*
D10*
X1064180Y596900D03*
X1054180Y596900D03*
D18*
X1047665Y735965D03*
X1059265Y735965D03*
D10*
X1198325Y762000D03*
X1208325Y762000D03*
D11*
X1211420Y732180D03*
X1211420Y751180D03*
X1190420Y741680D03*
D10*
X1191975Y721360D03*
X1201975Y721360D03*
X1191975Y711200D03*
X1201975Y711200D03*
D12*
X1218440Y443935D03*
D13*
X1208440Y418935D03*
X1203440Y418935D03*
D12*
X1123440Y443935D03*
D13*
X1198440Y418935D03*
X1193440Y418935D03*
X1188440Y418935D03*
X1183440Y418935D03*
X1178440Y418935D03*
X1173440Y418935D03*
X1168440Y418935D03*
X1163440Y418935D03*
X1158440Y418935D03*
X1153440Y418935D03*
X1148440Y418935D03*
X1143440Y418935D03*
X1138440Y418935D03*
X1133440Y418935D03*
D10*
X1125855Y800815D03*
X1125855Y810815D03*
X1216025Y800815D03*
X1216025Y810815D03*
D14*
X1156060Y691870D03*
X1166060Y691870D03*
X1171060Y691870D03*
X1176060Y691870D03*
X1181060Y691870D03*
X1186060Y691870D03*
X1191060Y691870D03*
X1196060Y691870D03*
X1161060Y691870D03*
X1196060Y686870D03*
X1196060Y681870D03*
X1196060Y676870D03*
X1196060Y671870D03*
X1196060Y666870D03*
X1196060Y661870D03*
X1196060Y656870D03*
X1196060Y651870D03*
X1191060Y651870D03*
X1186060Y651870D03*
X1181060Y651870D03*
X1176060Y651870D03*
X1171060Y651870D03*
X1166060Y651870D03*
X1161060Y651870D03*
X1156060Y651870D03*
X1156060Y656870D03*
X1156060Y661870D03*
X1156060Y666870D03*
X1156060Y671870D03*
X1156060Y676870D03*
X1156060Y681870D03*
X1156060Y686870D03*
X1166060Y681870D03*
X1171060Y681870D03*
X1176060Y681870D03*
X1181060Y681870D03*
X1186060Y681870D03*
X1186060Y671870D03*
X1186060Y666870D03*
X1186060Y661870D03*
X1181060Y661870D03*
X1176060Y661870D03*
X1171060Y661870D03*
X1166060Y661870D03*
X1166060Y666870D03*
X1166060Y671870D03*
X1166060Y676870D03*
X1171060Y676870D03*
X1181060Y676870D03*
X1181060Y666870D03*
X1171060Y666870D03*
D15*
X1184690Y778510D03*
X1157190Y778510D03*
D16*
X1170940Y763260D03*
X1170940Y793760D03*
D10*
X1139190Y679530D03*
X1139190Y689530D03*
D17*
X1176220Y633730D03*
X1201220Y633730D03*
D18*
X1171025Y749935D03*
X1159425Y749935D03*
D10*
X1147445Y745410D03*
X1147445Y735410D03*
X1147445Y755730D03*
X1147445Y765730D03*
D19*
X1139190Y668765D03*
X1139190Y650765D03*
D10*
X1155700Y638730D03*
X1155700Y628730D03*
X1195070Y596980D03*
X1195070Y606980D03*
D20*
X1176940Y545380D03*
D21*
X1159440Y610235D03*
X1182440Y610235D03*
D10*
X1175940Y596900D03*
X1165940Y596900D03*
D18*
X1159425Y735965D03*
X1171025Y735965D03*
D10*
X1310085Y762000D03*
X1320085Y762000D03*
D11*
X1323180Y732180D03*
X1323180Y751180D03*
X1302180Y741680D03*
D10*
X1303735Y721360D03*
X1313735Y721360D03*
X1303735Y711200D03*
X1313735Y711200D03*
D12*
X1330200Y443935D03*
D13*
X1320200Y418935D03*
X1315200Y418935D03*
D12*
X1235200Y443935D03*
D13*
X1310200Y418935D03*
X1305200Y418935D03*
X1300200Y418935D03*
X1295200Y418935D03*
X1290200Y418935D03*
X1285200Y418935D03*
X1280200Y418935D03*
X1275200Y418935D03*
X1270200Y418935D03*
X1265200Y418935D03*
X1260200Y418935D03*
X1255200Y418935D03*
X1250200Y418935D03*
X1245200Y418935D03*
D10*
X1237615Y800815D03*
X1237615Y810815D03*
X1327785Y800815D03*
X1327785Y810815D03*
D14*
X1267820Y691870D03*
X1277820Y691870D03*
X1282820Y691870D03*
X1287820Y691870D03*
X1292820Y691870D03*
X1297820Y691870D03*
X1302820Y691870D03*
X1307820Y691870D03*
X1272820Y691870D03*
X1307820Y686870D03*
X1307820Y681870D03*
X1307820Y676870D03*
X1307820Y671870D03*
X1307820Y666870D03*
X1307820Y661870D03*
X1307820Y656870D03*
X1307820Y651870D03*
X1302820Y651870D03*
X1297820Y651870D03*
X1292820Y651870D03*
X1287820Y651870D03*
X1282820Y651870D03*
X1277820Y651870D03*
X1272820Y651870D03*
X1267820Y651870D03*
X1267820Y656870D03*
X1267820Y661870D03*
X1267820Y666870D03*
X1267820Y671870D03*
X1267820Y676870D03*
X1267820Y681870D03*
X1267820Y686870D03*
X1277820Y681870D03*
X1282820Y681870D03*
X1287820Y681870D03*
X1292820Y681870D03*
X1297820Y681870D03*
X1297820Y671870D03*
X1297820Y666870D03*
X1297820Y661870D03*
X1292820Y661870D03*
X1287820Y661870D03*
X1282820Y661870D03*
X1277820Y661870D03*
X1277820Y666870D03*
X1277820Y671870D03*
X1277820Y676870D03*
X1282820Y676870D03*
X1292820Y676870D03*
X1292820Y666870D03*
X1282820Y666870D03*
D15*
X1296450Y778510D03*
X1268950Y778510D03*
D16*
X1282700Y763260D03*
X1282700Y793760D03*
D10*
X1250950Y679530D03*
X1250950Y689530D03*
D17*
X1287980Y633730D03*
X1312980Y633730D03*
D18*
X1282785Y749935D03*
X1271185Y749935D03*
D10*
X1259205Y745410D03*
X1259205Y735410D03*
X1259205Y755730D03*
X1259205Y765730D03*
D19*
X1250950Y668765D03*
X1250950Y650765D03*
D10*
X1267460Y638730D03*
X1267460Y628730D03*
X1306830Y596980D03*
X1306830Y606980D03*
D20*
X1288700Y545380D03*
D21*
X1271200Y610235D03*
X1294200Y610235D03*
D10*
X1287700Y596900D03*
X1277700Y596900D03*
D18*
X1271185Y735965D03*
X1282785Y735965D03*
D10*
X1421845Y762000D03*
X1431845Y762000D03*
D11*
X1434940Y732180D03*
X1434940Y751180D03*
X1413940Y741680D03*
D10*
X1415495Y721360D03*
X1425495Y721360D03*
X1415495Y711200D03*
X1425495Y711200D03*
D12*
X1441960Y443935D03*
D13*
X1431960Y418935D03*
X1426960Y418935D03*
D12*
X1346960Y443935D03*
D13*
X1421960Y418935D03*
X1416960Y418935D03*
X1411960Y418935D03*
X1406960Y418935D03*
X1401960Y418935D03*
X1396960Y418935D03*
X1391960Y418935D03*
X1386960Y418935D03*
X1381960Y418935D03*
X1376960Y418935D03*
X1371960Y418935D03*
X1366960Y418935D03*
X1361960Y418935D03*
X1356960Y418935D03*
D10*
X1349375Y800815D03*
X1349375Y810815D03*
X1439545Y800815D03*
X1439545Y810815D03*
D14*
X1379580Y691870D03*
X1389580Y691870D03*
X1394580Y691870D03*
X1399580Y691870D03*
X1404580Y691870D03*
X1409580Y691870D03*
X1414580Y691870D03*
X1419580Y691870D03*
X1384580Y691870D03*
X1419580Y686870D03*
X1419580Y681870D03*
X1419580Y676870D03*
X1419580Y671870D03*
X1419580Y666870D03*
X1419580Y661870D03*
X1419580Y656870D03*
X1419580Y651870D03*
X1414580Y651870D03*
X1409580Y651870D03*
X1404580Y651870D03*
X1399580Y651870D03*
X1394580Y651870D03*
X1389580Y651870D03*
X1384580Y651870D03*
X1379580Y651870D03*
X1379580Y656870D03*
X1379580Y661870D03*
X1379580Y666870D03*
X1379580Y671870D03*
X1379580Y676870D03*
X1379580Y681870D03*
X1379580Y686870D03*
X1389580Y681870D03*
X1394580Y681870D03*
X1399580Y681870D03*
X1404580Y681870D03*
X1409580Y681870D03*
X1409580Y671870D03*
X1409580Y666870D03*
X1409580Y661870D03*
X1404580Y661870D03*
X1399580Y661870D03*
X1394580Y661870D03*
X1389580Y661870D03*
X1389580Y666870D03*
X1389580Y671870D03*
X1389580Y676870D03*
X1394580Y676870D03*
X1404580Y676870D03*
X1404580Y666870D03*
X1394580Y666870D03*
D15*
X1408210Y778510D03*
X1380710Y778510D03*
D16*
X1394460Y763260D03*
X1394460Y793760D03*
D10*
X1362710Y679530D03*
X1362710Y689530D03*
D17*
X1399740Y633730D03*
X1424740Y633730D03*
D18*
X1394545Y749935D03*
X1382945Y749935D03*
D10*
X1370965Y745410D03*
X1370965Y735410D03*
X1370965Y755730D03*
X1370965Y765730D03*
D19*
X1362710Y668765D03*
X1362710Y650765D03*
D10*
X1379220Y638730D03*
X1379220Y628730D03*
X1418590Y596980D03*
X1418590Y606980D03*
D20*
X1400460Y545380D03*
D21*
X1382960Y610235D03*
X1405960Y610235D03*
D10*
X1399460Y596900D03*
X1389460Y596900D03*
D18*
X1382945Y735965D03*
X1394545Y735965D03*
D10*
X1533605Y762000D03*
X1543605Y762000D03*
D11*
X1546700Y732180D03*
X1546700Y751180D03*
X1525700Y741680D03*
D10*
X1527255Y721360D03*
X1537255Y721360D03*
X1527255Y711200D03*
X1537255Y711200D03*
D12*
X1553720Y443935D03*
D13*
X1543720Y418935D03*
X1538720Y418935D03*
D12*
X1458720Y443935D03*
D13*
X1533720Y418935D03*
X1528720Y418935D03*
X1523720Y418935D03*
X1518720Y418935D03*
X1513720Y418935D03*
X1508720Y418935D03*
X1503720Y418935D03*
X1498720Y418935D03*
X1493720Y418935D03*
X1488720Y418935D03*
X1483720Y418935D03*
X1478720Y418935D03*
X1473720Y418935D03*
X1468720Y418935D03*
D10*
X1461135Y800815D03*
X1461135Y810815D03*
X1551305Y800815D03*
X1551305Y810815D03*
D14*
X1491340Y691870D03*
X1501340Y691870D03*
X1506340Y691870D03*
X1511340Y691870D03*
X1516340Y691870D03*
X1521340Y691870D03*
X1526340Y691870D03*
X1531340Y691870D03*
X1496340Y691870D03*
X1531340Y686870D03*
X1531340Y681870D03*
X1531340Y676870D03*
X1531340Y671870D03*
X1531340Y666870D03*
X1531340Y661870D03*
X1531340Y656870D03*
X1531340Y651870D03*
X1526340Y651870D03*
X1521340Y651870D03*
X1516340Y651870D03*
X1511340Y651870D03*
X1506340Y651870D03*
X1501340Y651870D03*
X1496340Y651870D03*
X1491340Y651870D03*
X1491340Y656870D03*
X1491340Y661870D03*
X1491340Y666870D03*
X1491340Y671870D03*
X1491340Y676870D03*
X1491340Y681870D03*
X1491340Y686870D03*
X1501340Y681870D03*
X1506340Y681870D03*
X1511340Y681870D03*
X1516340Y681870D03*
X1521340Y681870D03*
X1521340Y671870D03*
X1521340Y666870D03*
X1521340Y661870D03*
X1516340Y661870D03*
X1511340Y661870D03*
X1506340Y661870D03*
X1501340Y661870D03*
X1501340Y666870D03*
X1501340Y671870D03*
X1501340Y676870D03*
X1506340Y676870D03*
X1516340Y676870D03*
X1516340Y666870D03*
X1506340Y666870D03*
D15*
X1519970Y778510D03*
X1492470Y778510D03*
D16*
X1506220Y763260D03*
X1506220Y793760D03*
D10*
X1474470Y679530D03*
X1474470Y689530D03*
D17*
X1511500Y633730D03*
X1536500Y633730D03*
D18*
X1506305Y749935D03*
X1494705Y749935D03*
D10*
X1482725Y745410D03*
X1482725Y735410D03*
X1482725Y755730D03*
X1482725Y765730D03*
D19*
X1474470Y668765D03*
X1474470Y650765D03*
D10*
X1490980Y638730D03*
X1490980Y628730D03*
X1530350Y596980D03*
X1530350Y606980D03*
D20*
X1512220Y545380D03*
D21*
X1494720Y610235D03*
X1517720Y610235D03*
D10*
X1511220Y596900D03*
X1501220Y596900D03*
D18*
X1494705Y735965D03*
X1506305Y735965D03*
D10*
X1645365Y762000D03*
X1655365Y762000D03*
D11*
X1658460Y732180D03*
X1658460Y751180D03*
X1637460Y741680D03*
D10*
X1639015Y721360D03*
X1649015Y721360D03*
X1639015Y711200D03*
X1649015Y711200D03*
D12*
X1665480Y443935D03*
D13*
X1655480Y418935D03*
X1650480Y418935D03*
D12*
X1570480Y443935D03*
D13*
X1645480Y418935D03*
X1640480Y418935D03*
X1635480Y418935D03*
X1630480Y418935D03*
X1625480Y418935D03*
X1620480Y418935D03*
X1615480Y418935D03*
X1610480Y418935D03*
X1605480Y418935D03*
X1600480Y418935D03*
X1595480Y418935D03*
X1590480Y418935D03*
X1585480Y418935D03*
X1580480Y418935D03*
D10*
X1572895Y800815D03*
X1572895Y810815D03*
X1663065Y800815D03*
X1663065Y810815D03*
D14*
X1603100Y691870D03*
X1613100Y691870D03*
X1618100Y691870D03*
X1623100Y691870D03*
X1628100Y691870D03*
X1633100Y691870D03*
X1638100Y691870D03*
X1643100Y691870D03*
X1608100Y691870D03*
X1643100Y686870D03*
X1643100Y681870D03*
X1643100Y676870D03*
X1643100Y671870D03*
X1643100Y666870D03*
X1643100Y661870D03*
X1643100Y656870D03*
X1643100Y651870D03*
X1638100Y651870D03*
X1633100Y651870D03*
X1628100Y651870D03*
X1623100Y651870D03*
X1618100Y651870D03*
X1613100Y651870D03*
X1608100Y651870D03*
X1603100Y651870D03*
X1603100Y656870D03*
X1603100Y661870D03*
X1603100Y666870D03*
X1603100Y671870D03*
X1603100Y676870D03*
X1603100Y681870D03*
X1603100Y686870D03*
X1613100Y681870D03*
X1618100Y681870D03*
X1623100Y681870D03*
X1628100Y681870D03*
X1633100Y681870D03*
X1633100Y671870D03*
X1633100Y666870D03*
X1633100Y661870D03*
X1628100Y661870D03*
X1623100Y661870D03*
X1618100Y661870D03*
X1613100Y661870D03*
X1613100Y666870D03*
X1613100Y671870D03*
X1613100Y676870D03*
X1618100Y676870D03*
X1628100Y676870D03*
X1628100Y666870D03*
X1618100Y666870D03*
D15*
X1631730Y778510D03*
X1604230Y778510D03*
D16*
X1617980Y763260D03*
X1617980Y793760D03*
D10*
X1586230Y679530D03*
X1586230Y689530D03*
D17*
X1623260Y633730D03*
X1648260Y633730D03*
D18*
X1618065Y749935D03*
X1606465Y749935D03*
D10*
X1594485Y745410D03*
X1594485Y735410D03*
X1594485Y755730D03*
X1594485Y765730D03*
D19*
X1586230Y668765D03*
X1586230Y650765D03*
D10*
X1602740Y638730D03*
X1602740Y628730D03*
X1642110Y596980D03*
X1642110Y606980D03*
D20*
X1623980Y545380D03*
D21*
X1606480Y610235D03*
X1629480Y610235D03*
D10*
X1622980Y596900D03*
X1612980Y596900D03*
D18*
X1606465Y735965D03*
X1618065Y735965D03*
D10*
X1757125Y762000D03*
X1767125Y762000D03*
D11*
X1770220Y732180D03*
X1770220Y751180D03*
X1749220Y741680D03*
D10*
X1750775Y721360D03*
X1760775Y721360D03*
X1750775Y711200D03*
X1760775Y711200D03*
D12*
X1777240Y443935D03*
D13*
X1767240Y418935D03*
X1762240Y418935D03*
D12*
X1682240Y443935D03*
D13*
X1757240Y418935D03*
X1752240Y418935D03*
X1747240Y418935D03*
X1742240Y418935D03*
X1737240Y418935D03*
X1732240Y418935D03*
X1727240Y418935D03*
X1722240Y418935D03*
X1717240Y418935D03*
X1712240Y418935D03*
X1707240Y418935D03*
X1702240Y418935D03*
X1697240Y418935D03*
X1692240Y418935D03*
D10*
X1684655Y800815D03*
X1684655Y810815D03*
X1774825Y800815D03*
X1774825Y810815D03*
D14*
X1714860Y691870D03*
X1724860Y691870D03*
X1729860Y691870D03*
X1734860Y691870D03*
X1739860Y691870D03*
X1744860Y691870D03*
X1749860Y691870D03*
X1754860Y691870D03*
X1719860Y691870D03*
X1754860Y686870D03*
X1754860Y681870D03*
X1754860Y676870D03*
X1754860Y671870D03*
X1754860Y666870D03*
X1754860Y661870D03*
X1754860Y656870D03*
X1754860Y651870D03*
X1749860Y651870D03*
X1744860Y651870D03*
X1739860Y651870D03*
X1734860Y651870D03*
X1729860Y651870D03*
X1724860Y651870D03*
X1719860Y651870D03*
X1714860Y651870D03*
X1714860Y656870D03*
X1714860Y661870D03*
X1714860Y666870D03*
X1714860Y671870D03*
X1714860Y676870D03*
X1714860Y681870D03*
X1714860Y686870D03*
X1724860Y681870D03*
X1729860Y681870D03*
X1734860Y681870D03*
X1739860Y681870D03*
X1744860Y681870D03*
X1744860Y671870D03*
X1744860Y666870D03*
X1744860Y661870D03*
X1739860Y661870D03*
X1734860Y661870D03*
X1729860Y661870D03*
X1724860Y661870D03*
X1724860Y666870D03*
X1724860Y671870D03*
X1724860Y676870D03*
X1729860Y676870D03*
X1739860Y676870D03*
X1739860Y666870D03*
X1729860Y666870D03*
D15*
X1743490Y778510D03*
X1715990Y778510D03*
D16*
X1729740Y763260D03*
X1729740Y793760D03*
D10*
X1697990Y679530D03*
X1697990Y689530D03*
D17*
X1735020Y633730D03*
X1760020Y633730D03*
D18*
X1729825Y749935D03*
X1718225Y749935D03*
D10*
X1706245Y745410D03*
X1706245Y735410D03*
X1706245Y755730D03*
X1706245Y765730D03*
D19*
X1697990Y668765D03*
X1697990Y650765D03*
D10*
X1714500Y638730D03*
X1714500Y628730D03*
X1753870Y596980D03*
X1753870Y606980D03*
D20*
X1735740Y545380D03*
D21*
X1718240Y610235D03*
X1741240Y610235D03*
D10*
X1734740Y596900D03*
X1724740Y596900D03*
D18*
X1718225Y735965D03*
X1729825Y735965D03*
D10*
X80725Y1173480D03*
X90725Y1173480D03*
D11*
X93820Y1143660D03*
X93820Y1162660D03*
X72820Y1153160D03*
D10*
X74375Y1132840D03*
X84375Y1132840D03*
X74375Y1122680D03*
X84375Y1122680D03*
D12*
X100840Y855415D03*
D13*
X90840Y830415D03*
X85840Y830415D03*
D12*
X5840Y855415D03*
D13*
X80840Y830415D03*
X75840Y830415D03*
X70840Y830415D03*
X65840Y830415D03*
X60840Y830415D03*
X55840Y830415D03*
X50840Y830415D03*
X45840Y830415D03*
X40840Y830415D03*
X35840Y830415D03*
X30840Y830415D03*
X25840Y830415D03*
X20840Y830415D03*
X15840Y830415D03*
D10*
X8255Y1212295D03*
X8255Y1222295D03*
X98425Y1212295D03*
X98425Y1222295D03*
D14*
X38460Y1103350D03*
X48460Y1103350D03*
X53460Y1103350D03*
X58460Y1103350D03*
X63460Y1103350D03*
X68460Y1103350D03*
X73460Y1103350D03*
X78460Y1103350D03*
X43460Y1103350D03*
X78460Y1098350D03*
X78460Y1093350D03*
X78460Y1088350D03*
X78460Y1083350D03*
X78460Y1078350D03*
X78460Y1073350D03*
X78460Y1068350D03*
X78460Y1063350D03*
X73460Y1063350D03*
X68460Y1063350D03*
X63460Y1063350D03*
X58460Y1063350D03*
X53460Y1063350D03*
X48460Y1063350D03*
X43460Y1063350D03*
X38460Y1063350D03*
X38460Y1068350D03*
X38460Y1073350D03*
X38460Y1078350D03*
X38460Y1083350D03*
X38460Y1088350D03*
X38460Y1093350D03*
X38460Y1098350D03*
X48460Y1093350D03*
X53460Y1093350D03*
X58460Y1093350D03*
X63460Y1093350D03*
X68460Y1093350D03*
X68460Y1083350D03*
X68460Y1078350D03*
X68460Y1073350D03*
X63460Y1073350D03*
X58460Y1073350D03*
X53460Y1073350D03*
X48460Y1073350D03*
X48460Y1078350D03*
X48460Y1083350D03*
X48460Y1088350D03*
X53460Y1088350D03*
X63460Y1088350D03*
X63460Y1078350D03*
X53460Y1078350D03*
D15*
X67090Y1189990D03*
X39590Y1189990D03*
D16*
X53340Y1174740D03*
X53340Y1205240D03*
D10*
X21590Y1091010D03*
X21590Y1101010D03*
D17*
X58620Y1045210D03*
X83620Y1045210D03*
D18*
X53425Y1161415D03*
X41825Y1161415D03*
D10*
X29845Y1156890D03*
X29845Y1146890D03*
X29845Y1167210D03*
X29845Y1177210D03*
D19*
X21590Y1080245D03*
X21590Y1062245D03*
D10*
X38100Y1050210D03*
X38100Y1040210D03*
X77470Y1008460D03*
X77470Y1018460D03*
D20*
X59340Y956860D03*
D21*
X41840Y1021715D03*
X64840Y1021715D03*
D10*
X58340Y1008380D03*
X48340Y1008380D03*
D18*
X41825Y1147445D03*
X53425Y1147445D03*
D10*
X192485Y1173480D03*
X202485Y1173480D03*
D11*
X205580Y1143660D03*
X205580Y1162660D03*
X184580Y1153160D03*
D10*
X186135Y1132840D03*
X196135Y1132840D03*
X186135Y1122680D03*
X196135Y1122680D03*
D12*
X212600Y855415D03*
D13*
X202600Y830415D03*
X197600Y830415D03*
D12*
X117600Y855415D03*
D13*
X192600Y830415D03*
X187600Y830415D03*
X182600Y830415D03*
X177600Y830415D03*
X172600Y830415D03*
X167600Y830415D03*
X162600Y830415D03*
X157600Y830415D03*
X152600Y830415D03*
X147600Y830415D03*
X142600Y830415D03*
X137600Y830415D03*
X132600Y830415D03*
X127600Y830415D03*
D10*
X120015Y1212295D03*
X120015Y1222295D03*
X210185Y1212295D03*
X210185Y1222295D03*
D14*
X150220Y1103350D03*
X160220Y1103350D03*
X165220Y1103350D03*
X170220Y1103350D03*
X175220Y1103350D03*
X180220Y1103350D03*
X185220Y1103350D03*
X190220Y1103350D03*
X155220Y1103350D03*
X190220Y1098350D03*
X190220Y1093350D03*
X190220Y1088350D03*
X190220Y1083350D03*
X190220Y1078350D03*
X190220Y1073350D03*
X190220Y1068350D03*
X190220Y1063350D03*
X185220Y1063350D03*
X180220Y1063350D03*
X175220Y1063350D03*
X170220Y1063350D03*
X165220Y1063350D03*
X160220Y1063350D03*
X155220Y1063350D03*
X150220Y1063350D03*
X150220Y1068350D03*
X150220Y1073350D03*
X150220Y1078350D03*
X150220Y1083350D03*
X150220Y1088350D03*
X150220Y1093350D03*
X150220Y1098350D03*
X160220Y1093350D03*
X165220Y1093350D03*
X170220Y1093350D03*
X175220Y1093350D03*
X180220Y1093350D03*
X180220Y1083350D03*
X180220Y1078350D03*
X180220Y1073350D03*
X175220Y1073350D03*
X170220Y1073350D03*
X165220Y1073350D03*
X160220Y1073350D03*
X160220Y1078350D03*
X160220Y1083350D03*
X160220Y1088350D03*
X165220Y1088350D03*
X175220Y1088350D03*
X175220Y1078350D03*
X165220Y1078350D03*
D15*
X178850Y1189990D03*
X151350Y1189990D03*
D16*
X165100Y1174740D03*
X165100Y1205240D03*
D10*
X133350Y1091010D03*
X133350Y1101010D03*
D17*
X170380Y1045210D03*
X195380Y1045210D03*
D18*
X165185Y1161415D03*
X153585Y1161415D03*
D10*
X141605Y1156890D03*
X141605Y1146890D03*
X141605Y1167210D03*
X141605Y1177210D03*
D19*
X133350Y1080245D03*
X133350Y1062245D03*
D10*
X149860Y1050210D03*
X149860Y1040210D03*
X189230Y1008460D03*
X189230Y1018460D03*
D20*
X171100Y956860D03*
D21*
X153600Y1021715D03*
X176600Y1021715D03*
D10*
X170100Y1008380D03*
X160100Y1008380D03*
D18*
X153585Y1147445D03*
X165185Y1147445D03*
D10*
X304245Y1173480D03*
X314245Y1173480D03*
D11*
X317340Y1143660D03*
X317340Y1162660D03*
X296340Y1153160D03*
D10*
X297895Y1132840D03*
X307895Y1132840D03*
X297895Y1122680D03*
X307895Y1122680D03*
D12*
X324360Y855415D03*
D13*
X314360Y830415D03*
X309360Y830415D03*
D12*
X229360Y855415D03*
D13*
X304360Y830415D03*
X299360Y830415D03*
X294360Y830415D03*
X289360Y830415D03*
X284360Y830415D03*
X279360Y830415D03*
X274360Y830415D03*
X269360Y830415D03*
X264360Y830415D03*
X259360Y830415D03*
X254360Y830415D03*
X249360Y830415D03*
X244360Y830415D03*
X239360Y830415D03*
D10*
X231775Y1212295D03*
X231775Y1222295D03*
X321945Y1212295D03*
X321945Y1222295D03*
D14*
X261980Y1103350D03*
X271980Y1103350D03*
X276980Y1103350D03*
X281980Y1103350D03*
X286980Y1103350D03*
X291980Y1103350D03*
X296980Y1103350D03*
X301980Y1103350D03*
X266980Y1103350D03*
X301980Y1098350D03*
X301980Y1093350D03*
X301980Y1088350D03*
X301980Y1083350D03*
X301980Y1078350D03*
X301980Y1073350D03*
X301980Y1068350D03*
X301980Y1063350D03*
X296980Y1063350D03*
X291980Y1063350D03*
X286980Y1063350D03*
X281980Y1063350D03*
X276980Y1063350D03*
X271980Y1063350D03*
X266980Y1063350D03*
X261980Y1063350D03*
X261980Y1068350D03*
X261980Y1073350D03*
X261980Y1078350D03*
X261980Y1083350D03*
X261980Y1088350D03*
X261980Y1093350D03*
X261980Y1098350D03*
X271980Y1093350D03*
X276980Y1093350D03*
X281980Y1093350D03*
X286980Y1093350D03*
X291980Y1093350D03*
X291980Y1083350D03*
X291980Y1078350D03*
X291980Y1073350D03*
X286980Y1073350D03*
X281980Y1073350D03*
X276980Y1073350D03*
X271980Y1073350D03*
X271980Y1078350D03*
X271980Y1083350D03*
X271980Y1088350D03*
X276980Y1088350D03*
X286980Y1088350D03*
X286980Y1078350D03*
X276980Y1078350D03*
D15*
X290610Y1189990D03*
X263110Y1189990D03*
D16*
X276860Y1174740D03*
X276860Y1205240D03*
D10*
X245110Y1091010D03*
X245110Y1101010D03*
D17*
X282140Y1045210D03*
X307140Y1045210D03*
D18*
X276945Y1161415D03*
X265345Y1161415D03*
D10*
X253365Y1156890D03*
X253365Y1146890D03*
X253365Y1167210D03*
X253365Y1177210D03*
D19*
X245110Y1080245D03*
X245110Y1062245D03*
D10*
X261620Y1050210D03*
X261620Y1040210D03*
X300990Y1008460D03*
X300990Y1018460D03*
D20*
X282860Y956860D03*
D21*
X265360Y1021715D03*
X288360Y1021715D03*
D10*
X281860Y1008380D03*
X271860Y1008380D03*
D18*
X265345Y1147445D03*
X276945Y1147445D03*
D10*
X416005Y1173480D03*
X426005Y1173480D03*
D11*
X429100Y1143660D03*
X429100Y1162660D03*
X408100Y1153160D03*
D10*
X409655Y1132840D03*
X419655Y1132840D03*
X409655Y1122680D03*
X419655Y1122680D03*
D12*
X436120Y855415D03*
D13*
X426120Y830415D03*
X421120Y830415D03*
D12*
X341120Y855415D03*
D13*
X416120Y830415D03*
X411120Y830415D03*
X406120Y830415D03*
X401120Y830415D03*
X396120Y830415D03*
X391120Y830415D03*
X386120Y830415D03*
X381120Y830415D03*
X376120Y830415D03*
X371120Y830415D03*
X366120Y830415D03*
X361120Y830415D03*
X356120Y830415D03*
X351120Y830415D03*
D10*
X343535Y1212295D03*
X343535Y1222295D03*
X433705Y1212295D03*
X433705Y1222295D03*
D14*
X373740Y1103350D03*
X383740Y1103350D03*
X388740Y1103350D03*
X393740Y1103350D03*
X398740Y1103350D03*
X403740Y1103350D03*
X408740Y1103350D03*
X413740Y1103350D03*
X378740Y1103350D03*
X413740Y1098350D03*
X413740Y1093350D03*
X413740Y1088350D03*
X413740Y1083350D03*
X413740Y1078350D03*
X413740Y1073350D03*
X413740Y1068350D03*
X413740Y1063350D03*
X408740Y1063350D03*
X403740Y1063350D03*
X398740Y1063350D03*
X393740Y1063350D03*
X388740Y1063350D03*
X383740Y1063350D03*
X378740Y1063350D03*
X373740Y1063350D03*
X373740Y1068350D03*
X373740Y1073350D03*
X373740Y1078350D03*
X373740Y1083350D03*
X373740Y1088350D03*
X373740Y1093350D03*
X373740Y1098350D03*
X383740Y1093350D03*
X388740Y1093350D03*
X393740Y1093350D03*
X398740Y1093350D03*
X403740Y1093350D03*
X403740Y1083350D03*
X403740Y1078350D03*
X403740Y1073350D03*
X398740Y1073350D03*
X393740Y1073350D03*
X388740Y1073350D03*
X383740Y1073350D03*
X383740Y1078350D03*
X383740Y1083350D03*
X383740Y1088350D03*
X388740Y1088350D03*
X398740Y1088350D03*
X398740Y1078350D03*
X388740Y1078350D03*
D15*
X402370Y1189990D03*
X374870Y1189990D03*
D16*
X388620Y1174740D03*
X388620Y1205240D03*
D10*
X356870Y1091010D03*
X356870Y1101010D03*
D17*
X393900Y1045210D03*
X418900Y1045210D03*
D18*
X388705Y1161415D03*
X377105Y1161415D03*
D10*
X365125Y1156890D03*
X365125Y1146890D03*
X365125Y1167210D03*
X365125Y1177210D03*
D19*
X356870Y1080245D03*
X356870Y1062245D03*
D10*
X373380Y1050210D03*
X373380Y1040210D03*
X412750Y1008460D03*
X412750Y1018460D03*
D20*
X394620Y956860D03*
D21*
X377120Y1021715D03*
X400120Y1021715D03*
D10*
X393620Y1008380D03*
X383620Y1008380D03*
D18*
X377105Y1147445D03*
X388705Y1147445D03*
D10*
X527765Y1173480D03*
X537765Y1173480D03*
D11*
X540860Y1143660D03*
X540860Y1162660D03*
X519860Y1153160D03*
D10*
X521415Y1132840D03*
X531415Y1132840D03*
X521415Y1122680D03*
X531415Y1122680D03*
D12*
X547880Y855415D03*
D13*
X537880Y830415D03*
X532880Y830415D03*
D12*
X452880Y855415D03*
D13*
X527880Y830415D03*
X522880Y830415D03*
X517880Y830415D03*
X512880Y830415D03*
X507880Y830415D03*
X502880Y830415D03*
X497880Y830415D03*
X492880Y830415D03*
X487880Y830415D03*
X482880Y830415D03*
X477880Y830415D03*
X472880Y830415D03*
X467880Y830415D03*
X462880Y830415D03*
D10*
X455295Y1212295D03*
X455295Y1222295D03*
X545465Y1212295D03*
X545465Y1222295D03*
D14*
X485500Y1103350D03*
X495500Y1103350D03*
X500500Y1103350D03*
X505500Y1103350D03*
X510500Y1103350D03*
X515500Y1103350D03*
X520500Y1103350D03*
X525500Y1103350D03*
X490500Y1103350D03*
X525500Y1098350D03*
X525500Y1093350D03*
X525500Y1088350D03*
X525500Y1083350D03*
X525500Y1078350D03*
X525500Y1073350D03*
X525500Y1068350D03*
X525500Y1063350D03*
X520500Y1063350D03*
X515500Y1063350D03*
X510500Y1063350D03*
X505500Y1063350D03*
X500500Y1063350D03*
X495500Y1063350D03*
X490500Y1063350D03*
X485500Y1063350D03*
X485500Y1068350D03*
X485500Y1073350D03*
X485500Y1078350D03*
X485500Y1083350D03*
X485500Y1088350D03*
X485500Y1093350D03*
X485500Y1098350D03*
X495500Y1093350D03*
X500500Y1093350D03*
X505500Y1093350D03*
X510500Y1093350D03*
X515500Y1093350D03*
X515500Y1083350D03*
X515500Y1078350D03*
X515500Y1073350D03*
X510500Y1073350D03*
X505500Y1073350D03*
X500500Y1073350D03*
X495500Y1073350D03*
X495500Y1078350D03*
X495500Y1083350D03*
X495500Y1088350D03*
X500500Y1088350D03*
X510500Y1088350D03*
X510500Y1078350D03*
X500500Y1078350D03*
D15*
X514130Y1189990D03*
X486630Y1189990D03*
D16*
X500380Y1174740D03*
X500380Y1205240D03*
D10*
X468630Y1091010D03*
X468630Y1101010D03*
D17*
X505660Y1045210D03*
X530660Y1045210D03*
D18*
X500465Y1161415D03*
X488865Y1161415D03*
D10*
X476885Y1156890D03*
X476885Y1146890D03*
X476885Y1167210D03*
X476885Y1177210D03*
D19*
X468630Y1080245D03*
X468630Y1062245D03*
D10*
X485140Y1050210D03*
X485140Y1040210D03*
X524510Y1008460D03*
X524510Y1018460D03*
D20*
X506380Y956860D03*
D21*
X488880Y1021715D03*
X511880Y1021715D03*
D10*
X505380Y1008380D03*
X495380Y1008380D03*
D18*
X488865Y1147445D03*
X500465Y1147445D03*
D10*
X639525Y1173480D03*
X649525Y1173480D03*
D11*
X652620Y1143660D03*
X652620Y1162660D03*
X631620Y1153160D03*
D10*
X633175Y1132840D03*
X643175Y1132840D03*
X633175Y1122680D03*
X643175Y1122680D03*
D12*
X659640Y855415D03*
D13*
X649640Y830415D03*
X644640Y830415D03*
D12*
X564640Y855415D03*
D13*
X639640Y830415D03*
X634640Y830415D03*
X629640Y830415D03*
X624640Y830415D03*
X619640Y830415D03*
X614640Y830415D03*
X609640Y830415D03*
X604640Y830415D03*
X599640Y830415D03*
X594640Y830415D03*
X589640Y830415D03*
X584640Y830415D03*
X579640Y830415D03*
X574640Y830415D03*
D10*
X567055Y1212295D03*
X567055Y1222295D03*
X657225Y1212295D03*
X657225Y1222295D03*
D14*
X597260Y1103350D03*
X607260Y1103350D03*
X612260Y1103350D03*
X617260Y1103350D03*
X622260Y1103350D03*
X627260Y1103350D03*
X632260Y1103350D03*
X637260Y1103350D03*
X602260Y1103350D03*
X637260Y1098350D03*
X637260Y1093350D03*
X637260Y1088350D03*
X637260Y1083350D03*
X637260Y1078350D03*
X637260Y1073350D03*
X637260Y1068350D03*
X637260Y1063350D03*
X632260Y1063350D03*
X627260Y1063350D03*
X622260Y1063350D03*
X617260Y1063350D03*
X612260Y1063350D03*
X607260Y1063350D03*
X602260Y1063350D03*
X597260Y1063350D03*
X597260Y1068350D03*
X597260Y1073350D03*
X597260Y1078350D03*
X597260Y1083350D03*
X597260Y1088350D03*
X597260Y1093350D03*
X597260Y1098350D03*
X607260Y1093350D03*
X612260Y1093350D03*
X617260Y1093350D03*
X622260Y1093350D03*
X627260Y1093350D03*
X627260Y1083350D03*
X627260Y1078350D03*
X627260Y1073350D03*
X622260Y1073350D03*
X617260Y1073350D03*
X612260Y1073350D03*
X607260Y1073350D03*
X607260Y1078350D03*
X607260Y1083350D03*
X607260Y1088350D03*
X612260Y1088350D03*
X622260Y1088350D03*
X622260Y1078350D03*
X612260Y1078350D03*
D15*
X625890Y1189990D03*
X598390Y1189990D03*
D16*
X612140Y1174740D03*
X612140Y1205240D03*
D10*
X580390Y1091010D03*
X580390Y1101010D03*
D17*
X617420Y1045210D03*
X642420Y1045210D03*
D18*
X612225Y1161415D03*
X600625Y1161415D03*
D10*
X588645Y1156890D03*
X588645Y1146890D03*
X588645Y1167210D03*
X588645Y1177210D03*
D19*
X580390Y1080245D03*
X580390Y1062245D03*
D10*
X596900Y1050210D03*
X596900Y1040210D03*
X636270Y1008460D03*
X636270Y1018460D03*
D20*
X618140Y956860D03*
D21*
X600640Y1021715D03*
X623640Y1021715D03*
D10*
X617140Y1008380D03*
X607140Y1008380D03*
D18*
X600625Y1147445D03*
X612225Y1147445D03*
D10*
X751285Y1173480D03*
X761285Y1173480D03*
D11*
X764380Y1143660D03*
X764380Y1162660D03*
X743380Y1153160D03*
D10*
X744935Y1132840D03*
X754935Y1132840D03*
X744935Y1122680D03*
X754935Y1122680D03*
D12*
X771400Y855415D03*
D13*
X761400Y830415D03*
X756400Y830415D03*
D12*
X676400Y855415D03*
D13*
X751400Y830415D03*
X746400Y830415D03*
X741400Y830415D03*
X736400Y830415D03*
X731400Y830415D03*
X726400Y830415D03*
X721400Y830415D03*
X716400Y830415D03*
X711400Y830415D03*
X706400Y830415D03*
X701400Y830415D03*
X696400Y830415D03*
X691400Y830415D03*
X686400Y830415D03*
D10*
X678815Y1212295D03*
X678815Y1222295D03*
X768985Y1212295D03*
X768985Y1222295D03*
D14*
X709020Y1103350D03*
X719020Y1103350D03*
X724020Y1103350D03*
X729020Y1103350D03*
X734020Y1103350D03*
X739020Y1103350D03*
X744020Y1103350D03*
X749020Y1103350D03*
X714020Y1103350D03*
X749020Y1098350D03*
X749020Y1093350D03*
X749020Y1088350D03*
X749020Y1083350D03*
X749020Y1078350D03*
X749020Y1073350D03*
X749020Y1068350D03*
X749020Y1063350D03*
X744020Y1063350D03*
X739020Y1063350D03*
X734020Y1063350D03*
X729020Y1063350D03*
X724020Y1063350D03*
X719020Y1063350D03*
X714020Y1063350D03*
X709020Y1063350D03*
X709020Y1068350D03*
X709020Y1073350D03*
X709020Y1078350D03*
X709020Y1083350D03*
X709020Y1088350D03*
X709020Y1093350D03*
X709020Y1098350D03*
X719020Y1093350D03*
X724020Y1093350D03*
X729020Y1093350D03*
X734020Y1093350D03*
X739020Y1093350D03*
X739020Y1083350D03*
X739020Y1078350D03*
X739020Y1073350D03*
X734020Y1073350D03*
X729020Y1073350D03*
X724020Y1073350D03*
X719020Y1073350D03*
X719020Y1078350D03*
X719020Y1083350D03*
X719020Y1088350D03*
X724020Y1088350D03*
X734020Y1088350D03*
X734020Y1078350D03*
X724020Y1078350D03*
D15*
X737650Y1189990D03*
X710150Y1189990D03*
D16*
X723900Y1174740D03*
X723900Y1205240D03*
D10*
X692150Y1091010D03*
X692150Y1101010D03*
D17*
X729180Y1045210D03*
X754180Y1045210D03*
D18*
X723985Y1161415D03*
X712385Y1161415D03*
D10*
X700405Y1156890D03*
X700405Y1146890D03*
X700405Y1167210D03*
X700405Y1177210D03*
D19*
X692150Y1080245D03*
X692150Y1062245D03*
D10*
X708660Y1050210D03*
X708660Y1040210D03*
X748030Y1008460D03*
X748030Y1018460D03*
D20*
X729900Y956860D03*
D21*
X712400Y1021715D03*
X735400Y1021715D03*
D10*
X728900Y1008380D03*
X718900Y1008380D03*
D18*
X712385Y1147445D03*
X723985Y1147445D03*
D10*
X863045Y1173480D03*
X873045Y1173480D03*
D11*
X876140Y1143660D03*
X876140Y1162660D03*
X855140Y1153160D03*
D10*
X856695Y1132840D03*
X866695Y1132840D03*
X856695Y1122680D03*
X866695Y1122680D03*
D12*
X883160Y855415D03*
D13*
X873160Y830415D03*
X868160Y830415D03*
D12*
X788160Y855415D03*
D13*
X863160Y830415D03*
X858160Y830415D03*
X853160Y830415D03*
X848160Y830415D03*
X843160Y830415D03*
X838160Y830415D03*
X833160Y830415D03*
X828160Y830415D03*
X823160Y830415D03*
X818160Y830415D03*
X813160Y830415D03*
X808160Y830415D03*
X803160Y830415D03*
X798160Y830415D03*
D10*
X790575Y1212295D03*
X790575Y1222295D03*
X880745Y1212295D03*
X880745Y1222295D03*
D14*
X820780Y1103350D03*
X830780Y1103350D03*
X835780Y1103350D03*
X840780Y1103350D03*
X845780Y1103350D03*
X850780Y1103350D03*
X855780Y1103350D03*
X860780Y1103350D03*
X825780Y1103350D03*
X860780Y1098350D03*
X860780Y1093350D03*
X860780Y1088350D03*
X860780Y1083350D03*
X860780Y1078350D03*
X860780Y1073350D03*
X860780Y1068350D03*
X860780Y1063350D03*
X855780Y1063350D03*
X850780Y1063350D03*
X845780Y1063350D03*
X840780Y1063350D03*
X835780Y1063350D03*
X830780Y1063350D03*
X825780Y1063350D03*
X820780Y1063350D03*
X820780Y1068350D03*
X820780Y1073350D03*
X820780Y1078350D03*
X820780Y1083350D03*
X820780Y1088350D03*
X820780Y1093350D03*
X820780Y1098350D03*
X830780Y1093350D03*
X835780Y1093350D03*
X840780Y1093350D03*
X845780Y1093350D03*
X850780Y1093350D03*
X850780Y1083350D03*
X850780Y1078350D03*
X850780Y1073350D03*
X845780Y1073350D03*
X840780Y1073350D03*
X835780Y1073350D03*
X830780Y1073350D03*
X830780Y1078350D03*
X830780Y1083350D03*
X830780Y1088350D03*
X835780Y1088350D03*
X845780Y1088350D03*
X845780Y1078350D03*
X835780Y1078350D03*
D15*
X849410Y1189990D03*
X821910Y1189990D03*
D16*
X835660Y1174740D03*
X835660Y1205240D03*
D10*
X803910Y1091010D03*
X803910Y1101010D03*
D17*
X840940Y1045210D03*
X865940Y1045210D03*
D18*
X835745Y1161415D03*
X824145Y1161415D03*
D10*
X812165Y1156890D03*
X812165Y1146890D03*
X812165Y1167210D03*
X812165Y1177210D03*
D19*
X803910Y1080245D03*
X803910Y1062245D03*
D10*
X820420Y1050210D03*
X820420Y1040210D03*
X859790Y1008460D03*
X859790Y1018460D03*
D20*
X841660Y956860D03*
D21*
X824160Y1021715D03*
X847160Y1021715D03*
D10*
X840660Y1008380D03*
X830660Y1008380D03*
D18*
X824145Y1147445D03*
X835745Y1147445D03*
D10*
X974805Y1173480D03*
X984805Y1173480D03*
D11*
X987900Y1143660D03*
X987900Y1162660D03*
X966900Y1153160D03*
D10*
X968455Y1132840D03*
X978455Y1132840D03*
X968455Y1122680D03*
X978455Y1122680D03*
D12*
X994920Y855415D03*
D13*
X984920Y830415D03*
X979920Y830415D03*
D12*
X899920Y855415D03*
D13*
X974920Y830415D03*
X969920Y830415D03*
X964920Y830415D03*
X959920Y830415D03*
X954920Y830415D03*
X949920Y830415D03*
X944920Y830415D03*
X939920Y830415D03*
X934920Y830415D03*
X929920Y830415D03*
X924920Y830415D03*
X919920Y830415D03*
X914920Y830415D03*
X909920Y830415D03*
D10*
X902335Y1212295D03*
X902335Y1222295D03*
X992505Y1212295D03*
X992505Y1222295D03*
D14*
X932540Y1103350D03*
X942540Y1103350D03*
X947540Y1103350D03*
X952540Y1103350D03*
X957540Y1103350D03*
X962540Y1103350D03*
X967540Y1103350D03*
X972540Y1103350D03*
X937540Y1103350D03*
X972540Y1098350D03*
X972540Y1093350D03*
X972540Y1088350D03*
X972540Y1083350D03*
X972540Y1078350D03*
X972540Y1073350D03*
X972540Y1068350D03*
X972540Y1063350D03*
X967540Y1063350D03*
X962540Y1063350D03*
X957540Y1063350D03*
X952540Y1063350D03*
X947540Y1063350D03*
X942540Y1063350D03*
X937540Y1063350D03*
X932540Y1063350D03*
X932540Y1068350D03*
X932540Y1073350D03*
X932540Y1078350D03*
X932540Y1083350D03*
X932540Y1088350D03*
X932540Y1093350D03*
X932540Y1098350D03*
X942540Y1093350D03*
X947540Y1093350D03*
X952540Y1093350D03*
X957540Y1093350D03*
X962540Y1093350D03*
X962540Y1083350D03*
X962540Y1078350D03*
X962540Y1073350D03*
X957540Y1073350D03*
X952540Y1073350D03*
X947540Y1073350D03*
X942540Y1073350D03*
X942540Y1078350D03*
X942540Y1083350D03*
X942540Y1088350D03*
X947540Y1088350D03*
X957540Y1088350D03*
X957540Y1078350D03*
X947540Y1078350D03*
D15*
X961170Y1189990D03*
X933670Y1189990D03*
D16*
X947420Y1174740D03*
X947420Y1205240D03*
D10*
X915670Y1091010D03*
X915670Y1101010D03*
D17*
X952700Y1045210D03*
X977700Y1045210D03*
D18*
X947505Y1161415D03*
X935905Y1161415D03*
D10*
X923925Y1156890D03*
X923925Y1146890D03*
X923925Y1167210D03*
X923925Y1177210D03*
D19*
X915670Y1080245D03*
X915670Y1062245D03*
D10*
X932180Y1050210D03*
X932180Y1040210D03*
X971550Y1008460D03*
X971550Y1018460D03*
D20*
X953420Y956860D03*
D21*
X935920Y1021715D03*
X958920Y1021715D03*
D10*
X952420Y1008380D03*
X942420Y1008380D03*
D18*
X935905Y1147445D03*
X947505Y1147445D03*
D10*
X1086565Y1173480D03*
X1096565Y1173480D03*
D11*
X1099660Y1143660D03*
X1099660Y1162660D03*
X1078660Y1153160D03*
D10*
X1080215Y1132840D03*
X1090215Y1132840D03*
X1080215Y1122680D03*
X1090215Y1122680D03*
D12*
X1106680Y855415D03*
D13*
X1096680Y830415D03*
X1091680Y830415D03*
D12*
X1011680Y855415D03*
D13*
X1086680Y830415D03*
X1081680Y830415D03*
X1076680Y830415D03*
X1071680Y830415D03*
X1066680Y830415D03*
X1061680Y830415D03*
X1056680Y830415D03*
X1051680Y830415D03*
X1046680Y830415D03*
X1041680Y830415D03*
X1036680Y830415D03*
X1031680Y830415D03*
X1026680Y830415D03*
X1021680Y830415D03*
D10*
X1014095Y1212295D03*
X1014095Y1222295D03*
X1104265Y1212295D03*
X1104265Y1222295D03*
D14*
X1044300Y1103350D03*
X1054300Y1103350D03*
X1059300Y1103350D03*
X1064300Y1103350D03*
X1069300Y1103350D03*
X1074300Y1103350D03*
X1079300Y1103350D03*
X1084300Y1103350D03*
X1049300Y1103350D03*
X1084300Y1098350D03*
X1084300Y1093350D03*
X1084300Y1088350D03*
X1084300Y1083350D03*
X1084300Y1078350D03*
X1084300Y1073350D03*
X1084300Y1068350D03*
X1084300Y1063350D03*
X1079300Y1063350D03*
X1074300Y1063350D03*
X1069300Y1063350D03*
X1064300Y1063350D03*
X1059300Y1063350D03*
X1054300Y1063350D03*
X1049300Y1063350D03*
X1044300Y1063350D03*
X1044300Y1068350D03*
X1044300Y1073350D03*
X1044300Y1078350D03*
X1044300Y1083350D03*
X1044300Y1088350D03*
X1044300Y1093350D03*
X1044300Y1098350D03*
X1054300Y1093350D03*
X1059300Y1093350D03*
X1064300Y1093350D03*
X1069300Y1093350D03*
X1074300Y1093350D03*
X1074300Y1083350D03*
X1074300Y1078350D03*
X1074300Y1073350D03*
X1069300Y1073350D03*
X1064300Y1073350D03*
X1059300Y1073350D03*
X1054300Y1073350D03*
X1054300Y1078350D03*
X1054300Y1083350D03*
X1054300Y1088350D03*
X1059300Y1088350D03*
X1069300Y1088350D03*
X1069300Y1078350D03*
X1059300Y1078350D03*
D15*
X1072930Y1189990D03*
X1045430Y1189990D03*
D16*
X1059180Y1174740D03*
X1059180Y1205240D03*
D10*
X1027430Y1091010D03*
X1027430Y1101010D03*
D17*
X1064460Y1045210D03*
X1089460Y1045210D03*
D18*
X1059265Y1161415D03*
X1047665Y1161415D03*
D10*
X1035685Y1156890D03*
X1035685Y1146890D03*
X1035685Y1167210D03*
X1035685Y1177210D03*
D19*
X1027430Y1080245D03*
X1027430Y1062245D03*
D10*
X1043940Y1050210D03*
X1043940Y1040210D03*
X1083310Y1008460D03*
X1083310Y1018460D03*
D20*
X1065180Y956860D03*
D21*
X1047680Y1021715D03*
X1070680Y1021715D03*
D10*
X1064180Y1008380D03*
X1054180Y1008380D03*
D18*
X1047665Y1147445D03*
X1059265Y1147445D03*
D10*
X1198325Y1173480D03*
X1208325Y1173480D03*
D11*
X1211420Y1143660D03*
X1211420Y1162660D03*
X1190420Y1153160D03*
D10*
X1191975Y1132840D03*
X1201975Y1132840D03*
X1191975Y1122680D03*
X1201975Y1122680D03*
D12*
X1218440Y855415D03*
D13*
X1208440Y830415D03*
X1203440Y830415D03*
D12*
X1123440Y855415D03*
D13*
X1198440Y830415D03*
X1193440Y830415D03*
X1188440Y830415D03*
X1183440Y830415D03*
X1178440Y830415D03*
X1173440Y830415D03*
X1168440Y830415D03*
X1163440Y830415D03*
X1158440Y830415D03*
X1153440Y830415D03*
X1148440Y830415D03*
X1143440Y830415D03*
X1138440Y830415D03*
X1133440Y830415D03*
D10*
X1125855Y1212295D03*
X1125855Y1222295D03*
X1216025Y1212295D03*
X1216025Y1222295D03*
D14*
X1156060Y1103350D03*
X1166060Y1103350D03*
X1171060Y1103350D03*
X1176060Y1103350D03*
X1181060Y1103350D03*
X1186060Y1103350D03*
X1191060Y1103350D03*
X1196060Y1103350D03*
X1161060Y1103350D03*
X1196060Y1098350D03*
X1196060Y1093350D03*
X1196060Y1088350D03*
X1196060Y1083350D03*
X1196060Y1078350D03*
X1196060Y1073350D03*
X1196060Y1068350D03*
X1196060Y1063350D03*
X1191060Y1063350D03*
X1186060Y1063350D03*
X1181060Y1063350D03*
X1176060Y1063350D03*
X1171060Y1063350D03*
X1166060Y1063350D03*
X1161060Y1063350D03*
X1156060Y1063350D03*
X1156060Y1068350D03*
X1156060Y1073350D03*
X1156060Y1078350D03*
X1156060Y1083350D03*
X1156060Y1088350D03*
X1156060Y1093350D03*
X1156060Y1098350D03*
X1166060Y1093350D03*
X1171060Y1093350D03*
X1176060Y1093350D03*
X1181060Y1093350D03*
X1186060Y1093350D03*
X1186060Y1083350D03*
X1186060Y1078350D03*
X1186060Y1073350D03*
X1181060Y1073350D03*
X1176060Y1073350D03*
X1171060Y1073350D03*
X1166060Y1073350D03*
X1166060Y1078350D03*
X1166060Y1083350D03*
X1166060Y1088350D03*
X1171060Y1088350D03*
X1181060Y1088350D03*
X1181060Y1078350D03*
X1171060Y1078350D03*
D15*
X1184690Y1189990D03*
X1157190Y1189990D03*
D16*
X1170940Y1174740D03*
X1170940Y1205240D03*
D10*
X1139190Y1091010D03*
X1139190Y1101010D03*
D17*
X1176220Y1045210D03*
X1201220Y1045210D03*
D18*
X1171025Y1161415D03*
X1159425Y1161415D03*
D10*
X1147445Y1156890D03*
X1147445Y1146890D03*
X1147445Y1167210D03*
X1147445Y1177210D03*
D19*
X1139190Y1080245D03*
X1139190Y1062245D03*
D10*
X1155700Y1050210D03*
X1155700Y1040210D03*
X1195070Y1008460D03*
X1195070Y1018460D03*
D20*
X1176940Y956860D03*
D21*
X1159440Y1021715D03*
X1182440Y1021715D03*
D10*
X1175940Y1008380D03*
X1165940Y1008380D03*
D18*
X1159425Y1147445D03*
X1171025Y1147445D03*
D10*
X1310085Y1173480D03*
X1320085Y1173480D03*
D11*
X1323180Y1143660D03*
X1323180Y1162660D03*
X1302180Y1153160D03*
D10*
X1303735Y1132840D03*
X1313735Y1132840D03*
X1303735Y1122680D03*
X1313735Y1122680D03*
D12*
X1330200Y855415D03*
D13*
X1320200Y830415D03*
X1315200Y830415D03*
D12*
X1235200Y855415D03*
D13*
X1310200Y830415D03*
X1305200Y830415D03*
X1300200Y830415D03*
X1295200Y830415D03*
X1290200Y830415D03*
X1285200Y830415D03*
X1280200Y830415D03*
X1275200Y830415D03*
X1270200Y830415D03*
X1265200Y830415D03*
X1260200Y830415D03*
X1255200Y830415D03*
X1250200Y830415D03*
X1245200Y830415D03*
D10*
X1237615Y1212295D03*
X1237615Y1222295D03*
X1327785Y1212295D03*
X1327785Y1222295D03*
D14*
X1267820Y1103350D03*
X1277820Y1103350D03*
X1282820Y1103350D03*
X1287820Y1103350D03*
X1292820Y1103350D03*
X1297820Y1103350D03*
X1302820Y1103350D03*
X1307820Y1103350D03*
X1272820Y1103350D03*
X1307820Y1098350D03*
X1307820Y1093350D03*
X1307820Y1088350D03*
X1307820Y1083350D03*
X1307820Y1078350D03*
X1307820Y1073350D03*
X1307820Y1068350D03*
X1307820Y1063350D03*
X1302820Y1063350D03*
X1297820Y1063350D03*
X1292820Y1063350D03*
X1287820Y1063350D03*
X1282820Y1063350D03*
X1277820Y1063350D03*
X1272820Y1063350D03*
X1267820Y1063350D03*
X1267820Y1068350D03*
X1267820Y1073350D03*
X1267820Y1078350D03*
X1267820Y1083350D03*
X1267820Y1088350D03*
X1267820Y1093350D03*
X1267820Y1098350D03*
X1277820Y1093350D03*
X1282820Y1093350D03*
X1287820Y1093350D03*
X1292820Y1093350D03*
X1297820Y1093350D03*
X1297820Y1083350D03*
X1297820Y1078350D03*
X1297820Y1073350D03*
X1292820Y1073350D03*
X1287820Y1073350D03*
X1282820Y1073350D03*
X1277820Y1073350D03*
X1277820Y1078350D03*
X1277820Y1083350D03*
X1277820Y1088350D03*
X1282820Y1088350D03*
X1292820Y1088350D03*
X1292820Y1078350D03*
X1282820Y1078350D03*
D15*
X1296450Y1189990D03*
X1268950Y1189990D03*
D16*
X1282700Y1174740D03*
X1282700Y1205240D03*
D10*
X1250950Y1091010D03*
X1250950Y1101010D03*
D17*
X1287980Y1045210D03*
X1312980Y1045210D03*
D18*
X1282785Y1161415D03*
X1271185Y1161415D03*
D10*
X1259205Y1156890D03*
X1259205Y1146890D03*
X1259205Y1167210D03*
X1259205Y1177210D03*
D19*
X1250950Y1080245D03*
X1250950Y1062245D03*
D10*
X1267460Y1050210D03*
X1267460Y1040210D03*
X1306830Y1008460D03*
X1306830Y1018460D03*
D20*
X1288700Y956860D03*
D21*
X1271200Y1021715D03*
X1294200Y1021715D03*
D10*
X1287700Y1008380D03*
X1277700Y1008380D03*
D18*
X1271185Y1147445D03*
X1282785Y1147445D03*
D10*
X1421845Y1173480D03*
X1431845Y1173480D03*
D11*
X1434940Y1143660D03*
X1434940Y1162660D03*
X1413940Y1153160D03*
D10*
X1415495Y1132840D03*
X1425495Y1132840D03*
X1415495Y1122680D03*
X1425495Y1122680D03*
D12*
X1441960Y855415D03*
D13*
X1431960Y830415D03*
X1426960Y830415D03*
D12*
X1346960Y855415D03*
D13*
X1421960Y830415D03*
X1416960Y830415D03*
X1411960Y830415D03*
X1406960Y830415D03*
X1401960Y830415D03*
X1396960Y830415D03*
X1391960Y830415D03*
X1386960Y830415D03*
X1381960Y830415D03*
X1376960Y830415D03*
X1371960Y830415D03*
X1366960Y830415D03*
X1361960Y830415D03*
X1356960Y830415D03*
D10*
X1349375Y1212295D03*
X1349375Y1222295D03*
X1439545Y1212295D03*
X1439545Y1222295D03*
D14*
X1379580Y1103350D03*
X1389580Y1103350D03*
X1394580Y1103350D03*
X1399580Y1103350D03*
X1404580Y1103350D03*
X1409580Y1103350D03*
X1414580Y1103350D03*
X1419580Y1103350D03*
X1384580Y1103350D03*
X1419580Y1098350D03*
X1419580Y1093350D03*
X1419580Y1088350D03*
X1419580Y1083350D03*
X1419580Y1078350D03*
X1419580Y1073350D03*
X1419580Y1068350D03*
X1419580Y1063350D03*
X1414580Y1063350D03*
X1409580Y1063350D03*
X1404580Y1063350D03*
X1399580Y1063350D03*
X1394580Y1063350D03*
X1389580Y1063350D03*
X1384580Y1063350D03*
X1379580Y1063350D03*
X1379580Y1068350D03*
X1379580Y1073350D03*
X1379580Y1078350D03*
X1379580Y1083350D03*
X1379580Y1088350D03*
X1379580Y1093350D03*
X1379580Y1098350D03*
X1389580Y1093350D03*
X1394580Y1093350D03*
X1399580Y1093350D03*
X1404580Y1093350D03*
X1409580Y1093350D03*
X1409580Y1083350D03*
X1409580Y1078350D03*
X1409580Y1073350D03*
X1404580Y1073350D03*
X1399580Y1073350D03*
X1394580Y1073350D03*
X1389580Y1073350D03*
X1389580Y1078350D03*
X1389580Y1083350D03*
X1389580Y1088350D03*
X1394580Y1088350D03*
X1404580Y1088350D03*
X1404580Y1078350D03*
X1394580Y1078350D03*
D15*
X1408210Y1189990D03*
X1380710Y1189990D03*
D16*
X1394460Y1174740D03*
X1394460Y1205240D03*
D10*
X1362710Y1091010D03*
X1362710Y1101010D03*
D17*
X1399740Y1045210D03*
X1424740Y1045210D03*
D18*
X1394545Y1161415D03*
X1382945Y1161415D03*
D10*
X1370965Y1156890D03*
X1370965Y1146890D03*
X1370965Y1167210D03*
X1370965Y1177210D03*
D19*
X1362710Y1080245D03*
X1362710Y1062245D03*
D10*
X1379220Y1050210D03*
X1379220Y1040210D03*
X1418590Y1008460D03*
X1418590Y1018460D03*
D20*
X1400460Y956860D03*
D21*
X1382960Y1021715D03*
X1405960Y1021715D03*
D10*
X1399460Y1008380D03*
X1389460Y1008380D03*
D18*
X1382945Y1147445D03*
X1394545Y1147445D03*
D10*
X1533605Y1173480D03*
X1543605Y1173480D03*
D11*
X1546700Y1143660D03*
X1546700Y1162660D03*
X1525700Y1153160D03*
D10*
X1527255Y1132840D03*
X1537255Y1132840D03*
X1527255Y1122680D03*
X1537255Y1122680D03*
D12*
X1553720Y855415D03*
D13*
X1543720Y830415D03*
X1538720Y830415D03*
D12*
X1458720Y855415D03*
D13*
X1533720Y830415D03*
X1528720Y830415D03*
X1523720Y830415D03*
X1518720Y830415D03*
X1513720Y830415D03*
X1508720Y830415D03*
X1503720Y830415D03*
X1498720Y830415D03*
X1493720Y830415D03*
X1488720Y830415D03*
X1483720Y830415D03*
X1478720Y830415D03*
X1473720Y830415D03*
X1468720Y830415D03*
D10*
X1461135Y1212295D03*
X1461135Y1222295D03*
X1551305Y1212295D03*
X1551305Y1222295D03*
D14*
X1491340Y1103350D03*
X1501340Y1103350D03*
X1506340Y1103350D03*
X1511340Y1103350D03*
X1516340Y1103350D03*
X1521340Y1103350D03*
X1526340Y1103350D03*
X1531340Y1103350D03*
X1496340Y1103350D03*
X1531340Y1098350D03*
X1531340Y1093350D03*
X1531340Y1088350D03*
X1531340Y1083350D03*
X1531340Y1078350D03*
X1531340Y1073350D03*
X1531340Y1068350D03*
X1531340Y1063350D03*
X1526340Y1063350D03*
X1521340Y1063350D03*
X1516340Y1063350D03*
X1511340Y1063350D03*
X1506340Y1063350D03*
X1501340Y1063350D03*
X1496340Y1063350D03*
X1491340Y1063350D03*
X1491340Y1068350D03*
X1491340Y1073350D03*
X1491340Y1078350D03*
X1491340Y1083350D03*
X1491340Y1088350D03*
X1491340Y1093350D03*
X1491340Y1098350D03*
X1501340Y1093350D03*
X1506340Y1093350D03*
X1511340Y1093350D03*
X1516340Y1093350D03*
X1521340Y1093350D03*
X1521340Y1083350D03*
X1521340Y1078350D03*
X1521340Y1073350D03*
X1516340Y1073350D03*
X1511340Y1073350D03*
X1506340Y1073350D03*
X1501340Y1073350D03*
X1501340Y1078350D03*
X1501340Y1083350D03*
X1501340Y1088350D03*
X1506340Y1088350D03*
X1516340Y1088350D03*
X1516340Y1078350D03*
X1506340Y1078350D03*
D15*
X1519970Y1189990D03*
X1492470Y1189990D03*
D16*
X1506220Y1174740D03*
X1506220Y1205240D03*
D10*
X1474470Y1091010D03*
X1474470Y1101010D03*
D17*
X1511500Y1045210D03*
X1536500Y1045210D03*
D18*
X1506305Y1161415D03*
X1494705Y1161415D03*
D10*
X1482725Y1156890D03*
X1482725Y1146890D03*
X1482725Y1167210D03*
X1482725Y1177210D03*
D19*
X1474470Y1080245D03*
X1474470Y1062245D03*
D10*
X1490980Y1050210D03*
X1490980Y1040210D03*
X1530350Y1008460D03*
X1530350Y1018460D03*
D20*
X1512220Y956860D03*
D21*
X1494720Y1021715D03*
X1517720Y1021715D03*
D10*
X1511220Y1008380D03*
X1501220Y1008380D03*
D18*
X1494705Y1147445D03*
X1506305Y1147445D03*
D10*
X1645365Y1173480D03*
X1655365Y1173480D03*
D11*
X1658460Y1143660D03*
X1658460Y1162660D03*
X1637460Y1153160D03*
D10*
X1639015Y1132840D03*
X1649015Y1132840D03*
X1639015Y1122680D03*
X1649015Y1122680D03*
D12*
X1665480Y855415D03*
D13*
X1655480Y830415D03*
X1650480Y830415D03*
D12*
X1570480Y855415D03*
D13*
X1645480Y830415D03*
X1640480Y830415D03*
X1635480Y830415D03*
X1630480Y830415D03*
X1625480Y830415D03*
X1620480Y830415D03*
X1615480Y830415D03*
X1610480Y830415D03*
X1605480Y830415D03*
X1600480Y830415D03*
X1595480Y830415D03*
X1590480Y830415D03*
X1585480Y830415D03*
X1580480Y830415D03*
D10*
X1572895Y1212295D03*
X1572895Y1222295D03*
X1663065Y1212295D03*
X1663065Y1222295D03*
D14*
X1603100Y1103350D03*
X1613100Y1103350D03*
X1618100Y1103350D03*
X1623100Y1103350D03*
X1628100Y1103350D03*
X1633100Y1103350D03*
X1638100Y1103350D03*
X1643100Y1103350D03*
X1608100Y1103350D03*
X1643100Y1098350D03*
X1643100Y1093350D03*
X1643100Y1088350D03*
X1643100Y1083350D03*
X1643100Y1078350D03*
X1643100Y1073350D03*
X1643100Y1068350D03*
X1643100Y1063350D03*
X1638100Y1063350D03*
X1633100Y1063350D03*
X1628100Y1063350D03*
X1623100Y1063350D03*
X1618100Y1063350D03*
X1613100Y1063350D03*
X1608100Y1063350D03*
X1603100Y1063350D03*
X1603100Y1068350D03*
X1603100Y1073350D03*
X1603100Y1078350D03*
X1603100Y1083350D03*
X1603100Y1088350D03*
X1603100Y1093350D03*
X1603100Y1098350D03*
X1613100Y1093350D03*
X1618100Y1093350D03*
X1623100Y1093350D03*
X1628100Y1093350D03*
X1633100Y1093350D03*
X1633100Y1083350D03*
X1633100Y1078350D03*
X1633100Y1073350D03*
X1628100Y1073350D03*
X1623100Y1073350D03*
X1618100Y1073350D03*
X1613100Y1073350D03*
X1613100Y1078350D03*
X1613100Y1083350D03*
X1613100Y1088350D03*
X1618100Y1088350D03*
X1628100Y1088350D03*
X1628100Y1078350D03*
X1618100Y1078350D03*
D15*
X1631730Y1189990D03*
X1604230Y1189990D03*
D16*
X1617980Y1174740D03*
X1617980Y1205240D03*
D10*
X1586230Y1091010D03*
X1586230Y1101010D03*
D17*
X1623260Y1045210D03*
X1648260Y1045210D03*
D18*
X1618065Y1161415D03*
X1606465Y1161415D03*
D10*
X1594485Y1156890D03*
X1594485Y1146890D03*
X1594485Y1167210D03*
X1594485Y1177210D03*
D19*
X1586230Y1080245D03*
X1586230Y1062245D03*
D10*
X1602740Y1050210D03*
X1602740Y1040210D03*
X1642110Y1008460D03*
X1642110Y1018460D03*
D20*
X1623980Y956860D03*
D21*
X1606480Y1021715D03*
X1629480Y1021715D03*
D10*
X1622980Y1008380D03*
X1612980Y1008380D03*
D18*
X1606465Y1147445D03*
X1618065Y1147445D03*
D10*
X1757125Y1173480D03*
X1767125Y1173480D03*
D11*
X1770220Y1143660D03*
X1770220Y1162660D03*
X1749220Y1153160D03*
D10*
X1750775Y1132840D03*
X1760775Y1132840D03*
X1750775Y1122680D03*
X1760775Y1122680D03*
D12*
X1777240Y855415D03*
D13*
X1767240Y830415D03*
X1762240Y830415D03*
D12*
X1682240Y855415D03*
D13*
X1757240Y830415D03*
X1752240Y830415D03*
X1747240Y830415D03*
X1742240Y830415D03*
X1737240Y830415D03*
X1732240Y830415D03*
X1727240Y830415D03*
X1722240Y830415D03*
X1717240Y830415D03*
X1712240Y830415D03*
X1707240Y830415D03*
X1702240Y830415D03*
X1697240Y830415D03*
X1692240Y830415D03*
D10*
X1684655Y1212295D03*
X1684655Y1222295D03*
X1774825Y1212295D03*
X1774825Y1222295D03*
D14*
X1714860Y1103350D03*
X1724860Y1103350D03*
X1729860Y1103350D03*
X1734860Y1103350D03*
X1739860Y1103350D03*
X1744860Y1103350D03*
X1749860Y1103350D03*
X1754860Y1103350D03*
X1719860Y1103350D03*
X1754860Y1098350D03*
X1754860Y1093350D03*
X1754860Y1088350D03*
X1754860Y1083350D03*
X1754860Y1078350D03*
X1754860Y1073350D03*
X1754860Y1068350D03*
X1754860Y1063350D03*
X1749860Y1063350D03*
X1744860Y1063350D03*
X1739860Y1063350D03*
X1734860Y1063350D03*
X1729860Y1063350D03*
X1724860Y1063350D03*
X1719860Y1063350D03*
X1714860Y1063350D03*
X1714860Y1068350D03*
X1714860Y1073350D03*
X1714860Y1078350D03*
X1714860Y1083350D03*
X1714860Y1088350D03*
X1714860Y1093350D03*
X1714860Y1098350D03*
X1724860Y1093350D03*
X1729860Y1093350D03*
X1734860Y1093350D03*
X1739860Y1093350D03*
X1744860Y1093350D03*
X1744860Y1083350D03*
X1744860Y1078350D03*
X1744860Y1073350D03*
X1739860Y1073350D03*
X1734860Y1073350D03*
X1729860Y1073350D03*
X1724860Y1073350D03*
X1724860Y1078350D03*
X1724860Y1083350D03*
X1724860Y1088350D03*
X1729860Y1088350D03*
X1739860Y1088350D03*
X1739860Y1078350D03*
X1729860Y1078350D03*
D15*
X1743490Y1189990D03*
X1715990Y1189990D03*
D16*
X1729740Y1174740D03*
X1729740Y1205240D03*
D10*
X1697990Y1091010D03*
X1697990Y1101010D03*
D17*
X1735020Y1045210D03*
X1760020Y1045210D03*
D18*
X1729825Y1161415D03*
X1718225Y1161415D03*
D10*
X1706245Y1156890D03*
X1706245Y1146890D03*
X1706245Y1167210D03*
X1706245Y1177210D03*
D19*
X1697990Y1080245D03*
X1697990Y1062245D03*
D10*
X1714500Y1050210D03*
X1714500Y1040210D03*
X1753870Y1008460D03*
X1753870Y1018460D03*
D20*
X1735740Y956860D03*
D21*
X1718240Y1021715D03*
X1741240Y1021715D03*
D10*
X1734740Y1008380D03*
X1724740Y1008380D03*
D18*
X1718225Y1147445D03*
X1729825Y1147445D03*
M02*
